<svg xmlns="http://www.w3.org/2000/svg" xmlns:xlink="http://www.w3.org/1999/xlink" width="246" height="490" fill="none" viewBox="0 0 246 490">
  <path fill="#8B9DCC" d="M215.838 1.65H29.971c-15.616 0-28.275 12.567-28.275 28.07v430.156c0 15.502 12.66 28.069 28.275 28.069h185.867c15.615 0 28.275-12.567 28.275-28.069V29.72c0-15.503-12.66-28.07-28.275-28.07z"/>
  <path fill="#4E5C7A" d="M217.523 478.887H29.273c-14.898 0-27.085-13.065-27.085-29.036V25.161a30.89 30.89 0 00-.492 5.481v428.233c0 15.968 12.187 29.047 27.085 29.047h188.251c14.897 0 27.084-13.065 27.084-29.036v-3.536c-2.412 13.358-13.446 23.537-26.593 23.537z"/>
  <path fill="#8C94AE" d="M244.113 29.77v7.944c0-15.968-12.191-29.036-27.088-29.036H28.774c-14.887.01-27.078 13.078-27.078 29.036V29.77C1.696 13.806 13.886.73 28.784.73h188.251c14.887 0 27.078 13.076 27.078 29.04z" opacity=".5"/>
  <path fill="#E2E9F2" d="M187.549 11.607h29.384c9.779 0 17.781 8.977 17.781 19.951v426.546c0 10.974-8.002 19.952-17.781 19.952H28.876c-9.78 0-17.78-8.978-17.78-19.952V31.558c0-10.974 8-19.95 17.78-19.95H57.93"/>
  <path fill="#8B9DCC" d="M188.044 11.476c-.163 12.459-7.123 19.341-16.593 19.341H73.944c-8.931 0-16.163-7.744-16.163-17.32v-2.3h130.165a.365.365 0 01.098.279z"/>
  <path fill="#414D53" d="M139.478 17.803H91.985v2.694h47.493v-2.694zM149.373 23.925c2.46 0 4.454-2.138 4.454-4.775 0-2.637-1.994-4.775-4.454-4.775s-4.454 2.138-4.454 4.775c0 2.637 1.994 4.775 4.454 4.775z"/>
  <path fill="#414D53" d="M216.933 479.739H28.875c-10.738 0-19.476-9.704-19.476-21.635V31.558c0-11.93 8.738-21.635 19.476-21.635h30.751v4.125c0 9.072 6.49 16.45 14.464 16.45h97.524c8.69 0 13.761-6.772 13.906-18.585a1.908 1.908 0 011.462-1.984c.292-.07.596-.073.889-.006h29.062c10.739 0 19.476 9.705 19.476 21.635v426.546c.007 11.931-8.737 21.635-19.476 21.635zM28.875 13.291c-8.863 0-16.084 8.196-16.084 18.267v426.546c0 10.072 7.215 18.268 16.084 18.268h188.058c8.87 0 16.084-8.196 16.084-18.268V31.558c0-10.071-7.214-18.267-16.084-18.267h-28.058c-.563 12.913-6.953 20.574-17.265 20.574H74.09c-9.837 0-17.856-8.89-17.856-19.817v-.757H28.875zm156.985-1.684c-.011.423.146.834.439 1.142.292.308.695.49 1.121.505h.129v-1.647h-1.689z"/>
  <path fill="url(#pattern0)" d="M32.006 48.883h.34v.336h-.34z" opacity=".75" style="mix-blend-mode:multiply"/>
  <path fill="url(#pattern1)" d="M32.006 199.065h.34v.336h-.34z" opacity=".75" style="mix-blend-mode:multiply"/>
  <path fill="#414D53" d="M216.743 489.663H29.055a29.193 29.193 0 01-20.535-8.456A28.77 28.77 0 010 460.822V28.844A28.77 28.77 0 018.519 8.457 29.194 29.194 0 0129.055 0h187.688a29.194 29.194 0 0120.536 8.457 28.77 28.77 0 018.519 20.387v431.978a28.77 28.77 0 01-8.52 20.385 29.193 29.193 0 01-20.535 8.456zM29.055 3.367a25.786 25.786 0 00-18.139 7.47 25.41 25.41 0 00-7.524 18.007v431.978a25.41 25.41 0 007.524 18.007 25.787 25.787 0 0018.14 7.47h187.687a25.789 25.789 0 0018.139-7.47 25.41 25.41 0 007.524-18.007V28.844a25.41 25.41 0 00-7.524-18.007 25.788 25.788 0 00-18.139-7.47H29.055z"/>
  <path fill="#D6D4D4" d="M117.954.058L34.089 490h-5.936a27.44 27.44 0 01-11.78-2.684 27.236 27.236 0 01-9.453-7.475L89.048.058h28.906z" opacity=".3"/>
  <defs>
    <pattern id="pattern0" width="1" height="1" patternContentUnits="objectBoundingBox">
      <use transform="scale(.00186 .00222)" xlink:href="#image0"/>
    </pattern>
    <pattern id="pattern1" width="1" height="1" patternContentUnits="objectBoundingBox">
      <use transform="scale(.00186 .00222)" xlink:href="#image0"/>
    </pattern>
  </defs>
</svg>
