<svg xmlns="http://www.w3.org/2000/svg" width="342" height="155" fill="none" viewBox="0 0 342 155">
  <path fill="#fff" d="M31.191 154.735a4.102 4.102 0 01-1.93-1.404 3.601 3.601 0 01-.723-2.167v-40.028c-.001-1.355-.587-2.653-1.627-3.612-1.04-.958-2.451-1.497-3.923-1.498h-8.902c-3.678-.004-7.204-1.351-9.805-3.746-2.6-2.394-4.063-5.641-4.067-9.028V12.774C.218 9.387 1.68 6.14 4.28 3.746 6.882 1.35 10.41.004 14.086 0h314c3.678.004 7.205 1.35 9.805 3.746 2.601 2.394 4.064 5.641 4.068 9.028v80.478c-.004 3.387-1.467 6.634-4.068 9.028-2.6 2.395-6.127 3.742-9.805 3.746H85.723c-.77.001-1.53.148-2.234.434a5.568 5.568 0 00-1.857 1.223l-45.865 46.071a4.15 4.15 0 01-1.385.92 4.462 4.462 0 01-3.19.061z"/>
  <path fill="#3F3D56" d="M31.191 154.735a4.102 4.102 0 01-1.93-1.404 3.601 3.601 0 01-.723-2.167v-40.028c-.001-1.355-.587-2.653-1.627-3.612-1.04-.958-2.451-1.497-3.923-1.498h-8.902c-3.678-.004-7.204-1.351-9.805-3.746-2.6-2.394-4.063-5.641-4.067-9.028V12.774C.218 9.387 1.68 6.14 4.28 3.746 6.882 1.35 10.41.004 14.086 0h314c3.678.004 7.205 1.35 9.805 3.746 2.601 2.394 4.064 5.641 4.068 9.028v80.478c-.004 3.387-1.467 6.634-4.068 9.028-2.6 2.395-6.127 3.742-9.805 3.746H85.723c-.77.001-1.53.148-2.234.434a5.568 5.568 0 00-1.857 1.223l-45.865 46.071a4.15 4.15 0 01-1.385.92 4.462 4.462 0 01-3.19.061zM14.086 1.702C10.9 1.705 7.842 2.873 5.588 4.95c-2.254 2.075-3.522 4.89-3.526 7.825v80.478c.004 2.936 1.272 5.75 3.526 7.825 2.254 2.076 5.31 3.243 8.498 3.247h8.902c1.962.002 3.843.72 5.23 1.997 1.387 1.278 2.167 3.009 2.169 4.815v40.028c0 .43.14.849.404 1.203.263.354.636.627 1.07.782.435.156.91.187 1.364.089a2.355 2.355 0 001.18-.635l45.864-46.07a7.421 7.421 0 012.476-1.631 7.967 7.967 0 012.978-.578h242.363c3.188-.004 6.245-1.171 8.499-3.247 2.254-2.075 3.522-4.89 3.525-7.825V12.774c-.003-2.936-1.271-5.75-3.525-7.825-2.254-2.076-5.311-3.244-8.499-3.247h-314z"/>
  <path fill="#000" d="M16.567 9.805l6.276 15.662 6.275-15.662h3.283V29H29.87v-7.475l.237-8.068L23.805 29h-1.938L15.58 13.496l.25 8.029V29h-2.531V9.805h3.27zm25.84 19.459c-1.933 0-3.507-.633-4.72-1.899-1.212-1.274-1.819-2.975-1.819-5.102v-.448c0-1.415.268-2.676.804-3.784.545-1.116 1.301-1.986 2.268-2.61a5.705 5.705 0 013.164-.95c1.855 0 3.296.611 4.324 1.833 1.029 1.222 1.543 2.97 1.543 5.247v1.015h-9.664c.035 1.407.444 2.545 1.226 3.415.791.861 1.793 1.292 3.006 1.292.861 0 1.59-.176 2.188-.527a5.5 5.5 0 001.57-1.398l1.49 1.16c-1.196 1.837-2.99 2.756-5.38 2.756zm-.303-12.788c-.984 0-1.81.36-2.478 1.08-.668.713-1.082 1.714-1.24 3.006h7.146v-.184c-.07-1.24-.405-2.197-1.002-2.874-.598-.686-1.407-1.028-2.426-1.028zm17.007 8.74c0-.659-.25-1.169-.752-1.529-.492-.37-1.358-.686-2.597-.95-1.23-.263-2.21-.58-2.94-.948-.72-.37-1.257-.809-1.608-1.319-.343-.51-.514-1.116-.514-1.82 0-1.168.492-2.157 1.476-2.965.993-.809 2.26-1.213 3.797-1.213 1.617 0 2.927.417 3.929 1.252 1.01.835 1.516 1.903 1.516 3.204h-2.452c0-.668-.286-1.244-.857-1.727-.563-.484-1.275-.725-2.136-.725-.888 0-1.582.193-2.083.58-.5.386-.751.892-.751 1.516 0 .589.233 1.033.698 1.331.466.3 1.306.585 2.518.857 1.222.273 2.21.598 2.967.976.756.378 1.314.835 1.674 1.37.37.528.554 1.174.554 1.939 0 1.274-.51 2.298-1.53 3.072-1.019.764-2.342 1.147-3.968 1.147-1.142 0-2.153-.203-3.032-.607-.879-.404-1.569-.967-2.07-1.687a4.139 4.139 0 01-.738-2.36h2.439c.044.817.369 1.468.975 1.951.616.475 1.424.712 2.426.712.923 0 1.661-.185 2.215-.554.563-.378.844-.879.844-1.503zm13.922 0c0-.659-.25-1.169-.752-1.529-.492-.37-1.358-.686-2.597-.95-1.23-.263-2.21-.58-2.94-.948-.72-.37-1.257-.809-1.608-1.319-.343-.51-.514-1.116-.514-1.82 0-1.168.492-2.157 1.476-2.965.993-.809 2.259-1.213 3.797-1.213 1.617 0 2.927.417 3.929 1.252 1.01.835 1.516 1.903 1.516 3.204h-2.452c0-.668-.286-1.244-.857-1.727-.563-.484-1.275-.725-2.136-.725-.888 0-1.582.193-2.083.58-.501.386-.751.892-.751 1.516 0 .589.232 1.033.698 1.331.466.3 1.305.585 2.518.857 1.222.273 2.21.598 2.967.976.755.378 1.314.835 1.674 1.37.37.528.554 1.174.554 1.939 0 1.274-.51 2.298-1.53 3.072-1.02.764-2.342 1.147-3.968 1.147-1.142 0-2.153-.203-3.032-.607-.879-.404-1.569-.967-2.07-1.687a4.139 4.139 0 01-.738-2.36h2.439c.044.817.369 1.468.975 1.951.616.475 1.424.712 2.426.712.923 0 1.661-.185 2.215-.554.563-.378.844-.879.844-1.503zM87.456 29c-.141-.281-.255-.782-.343-1.503-1.134 1.178-2.487 1.767-4.06 1.767-1.407 0-2.563-.396-3.468-1.187-.896-.8-1.345-1.81-1.345-3.032 0-1.485.563-2.637 1.688-3.454 1.133-.826 2.724-1.24 4.772-1.24h2.373v-1.12c0-.853-.255-1.53-.764-2.03-.51-.51-1.262-.765-2.255-.765-.87 0-1.6.22-2.188.66-.59.439-.884.97-.884 1.594H78.53c0-.712.25-1.397.752-2.056.51-.668 1.195-1.196 2.056-1.582.87-.387 1.824-.58 2.861-.58 1.644 0 2.931.413 3.863 1.239.932.817 1.415 1.947 1.45 3.388v6.566c0 1.31.167 2.35.501 3.124V29h-2.557zm-4.048-1.859c.765 0 1.49-.198 2.175-.593.686-.396 1.183-.91 1.49-1.543V22.08h-1.911c-2.989 0-4.483.874-4.483 2.623 0 .765.255 1.362.765 1.793.51.43 1.164.646 1.964.646zm9.347-5.392c0-2.224.514-3.99 1.543-5.3 1.028-1.318 2.39-1.977 4.087-1.977 1.74 0 3.098.615 4.073 1.845l.119-1.582h2.228v13.922c0 1.846-.549 3.3-1.648 4.364-1.09 1.063-2.557 1.595-4.403 1.595a7.335 7.335 0 01-3.02-.659c-.983-.44-1.735-1.041-2.253-1.806l1.265-1.464c1.046 1.293 2.325 1.939 3.837 1.939 1.186 0 2.109-.334 2.768-1.002.668-.668 1.002-1.609 1.002-2.822v-1.226c-.976 1.125-2.307 1.688-3.995 1.688-1.67 0-3.023-.673-4.06-2.017-1.029-1.345-1.543-3.178-1.543-5.498zm2.453.277c0 1.608.33 2.874.988 3.797.66.914 1.582 1.37 2.769 1.37 1.538 0 2.667-.698 3.388-2.095v-6.513c-.747-1.362-1.868-2.044-3.362-2.044-1.186 0-2.114.462-2.781 1.385-.668.923-1.002 2.29-1.002 4.1zM111.145 29h-2.438V14.735h2.438V29zm-2.636-18.048c0-.396.118-.73.356-1.002.246-.273.606-.409 1.081-.409.474 0 .835.136 1.081.409.246.272.369.606.369 1.002 0 .395-.123.725-.369.988-.246.264-.607.396-1.081.396-.475 0-.835-.132-1.081-.396-.238-.263-.356-.593-.356-.988zm8.859 3.783l.079 1.793c1.09-1.37 2.514-2.056 4.272-2.056 3.014 0 4.535 1.7 4.561 5.102V29h-2.439v-9.44c-.009-1.028-.246-1.788-.712-2.28-.457-.492-1.173-.739-2.149-.739-.791 0-1.485.211-2.083.633a4.302 4.302 0 00-1.397 1.661V29h-2.439V14.735h2.307zm12.01 7.014c0-2.224.515-3.99 1.543-5.3 1.028-1.318 2.39-1.977 4.087-1.977 1.74 0 3.098.615 4.074 1.845l.118-1.582h2.228v13.922c0 1.846-.549 3.3-1.648 4.364-1.09 1.063-2.557 1.595-4.403 1.595a7.335 7.335 0 01-3.019-.659c-.984-.44-1.736-1.041-2.255-1.806l1.266-1.464c1.046 1.293 2.325 1.939 3.837 1.939 1.186 0 2.109-.334 2.768-1.002.668-.668 1.002-1.609 1.002-2.822v-1.226c-.976 1.125-2.307 1.688-3.995 1.688-1.67 0-3.023-.673-4.06-2.017-1.028-1.345-1.543-3.178-1.543-5.498zm2.453.277c0 1.608.329 2.874.988 3.797.659.914 1.582 1.37 2.769 1.37 1.538 0 2.667-.698 3.388-2.095v-6.513c-.747-1.362-1.868-2.044-3.362-2.044-1.186 0-2.114.462-2.782 1.385-.667.923-1.001 2.29-1.001 4.1zm22.425-5.564c1.081-1.327 2.487-1.99 4.219-1.99 3.014 0 4.535 1.7 4.561 5.102V29h-2.439v-9.44c-.009-1.028-.246-1.788-.712-2.28-.457-.492-1.173-.739-2.149-.739-.791 0-1.485.211-2.083.633a4.302 4.302 0 00-1.397 1.661V29h-2.439V8.75h2.439v7.712zM175.496 29c-.141-.281-.255-.782-.343-1.503-1.134 1.178-2.487 1.767-4.061 1.767-1.406 0-2.562-.396-3.467-1.187-.896-.8-1.345-1.81-1.345-3.032 0-1.485.563-2.637 1.688-3.454 1.134-.826 2.724-1.24 4.772-1.24h2.373v-1.12c0-.853-.255-1.53-.764-2.03-.51-.51-1.262-.765-2.255-.765-.87 0-1.599.22-2.188.66-.589.439-.884.97-.884 1.594h-2.452c0-.712.251-1.397.752-2.056.51-.668 1.195-1.196 2.056-1.582.871-.387 1.824-.58 2.861-.58 1.644 0 2.931.413 3.863 1.239.932.817 1.415 1.947 1.45 3.388v6.566c0 1.31.167 2.35.501 3.124V29h-2.557zm-4.048-1.859a4.29 4.29 0 002.176-.593c.685-.396 1.182-.91 1.489-1.543V22.08h-1.911c-2.989 0-4.483.874-4.483 2.623 0 .765.255 1.362.765 1.793.51.43 1.164.646 1.964.646zm18.233-1.925c0-.659-.25-1.169-.751-1.529-.492-.37-1.358-.686-2.597-.95-1.231-.263-2.211-.58-2.94-.948-.721-.37-1.257-.809-1.609-1.319-.343-.51-.514-1.116-.514-1.82 0-1.168.492-2.157 1.477-2.965.993-.809 2.258-1.213 3.796-1.213 1.618 0 2.927.417 3.929 1.252 1.011.835 1.516 1.903 1.516 3.204h-2.452c0-.668-.286-1.244-.857-1.727-.562-.484-1.274-.725-2.136-.725-.887 0-1.582.193-2.083.58-.501.386-.751.892-.751 1.516 0 .589.233 1.033.699 1.331.466.3 1.305.585 2.518.857 1.221.273 2.21.598 2.966.976.756.378 1.314.835 1.674 1.37.37.528.554 1.174.554 1.939 0 1.274-.51 2.298-1.529 3.072-1.02.764-2.342 1.147-3.968 1.147-1.143 0-2.154-.203-3.033-.607-.879-.404-1.569-.967-2.069-1.687a4.133 4.133 0 01-.739-2.36h2.439c.044.817.369 1.468.976 1.951.615.475 1.424.712 2.426.712.922 0 1.661-.185 2.214-.554.563-.378.844-.879.844-1.503zm14.621-10.48l.079 1.792c1.09-1.37 2.514-2.056 4.271-2.056 3.015 0 4.536 1.7 4.562 5.102V29h-2.439v-9.44c-.009-1.028-.246-1.788-.712-2.28-.457-.492-1.173-.739-2.149-.739-.791 0-1.485.211-2.083.633a4.294 4.294 0 00-1.397 1.661V29h-2.439V14.735h2.307zm18.51 14.528c-1.934 0-3.507-.633-4.72-1.899-1.213-1.274-1.82-2.975-1.82-5.102v-.448c0-1.415.269-2.676.805-3.784.545-1.116 1.3-1.986 2.267-2.61a5.707 5.707 0 013.164-.95c1.855 0 3.296.611 4.325 1.833 1.028 1.222 1.542 2.97 1.542 5.247v1.015h-9.664c.036 1.407.444 2.545 1.227 3.415.791.861 1.792 1.292 3.005 1.292.862 0 1.591-.176 2.189-.527a5.518 5.518 0 001.569-1.398l1.489 1.16c-1.195 1.837-2.988 2.756-5.378 2.756zm-.304-12.788c-.984 0-1.81.36-2.478 1.08-.668.713-1.081 1.714-1.239 3.006h7.145v-.184c-.07-1.24-.404-2.197-1.002-2.874-.598-.686-1.406-1.028-2.426-1.028zm13.223 9.215l3.534-10.956h2.491L236.641 29h-1.859l-5.168-14.265h2.492l3.625 10.956zm14.107 3.573c-1.934 0-3.507-.633-4.72-1.899-1.213-1.274-1.819-2.975-1.819-5.102v-.448c0-1.415.268-2.676.804-3.784.545-1.116 1.301-1.986 2.268-2.61a5.702 5.702 0 013.164-.95c1.854 0 3.296.611 4.324 1.833s1.542 2.97 1.542 5.247v1.015h-9.663c.035 1.407.444 2.545 1.226 3.415.791.861 1.793 1.292 3.006 1.292.861 0 1.591-.176 2.188-.527a5.492 5.492 0 001.569-1.398l1.49 1.16c-1.196 1.837-2.988 2.756-5.379 2.756zm-.303-12.788c-.985 0-1.811.36-2.479 1.08-.668.713-1.081 1.714-1.239 3.006h7.145v-.184c-.07-1.24-.404-2.197-1.002-2.874-.597-.686-1.406-1.028-2.425-1.028zm15.596.448a7.31 7.31 0 00-1.2-.093c-1.599 0-2.685.682-3.256 2.044V29h-2.439V14.735h2.373l.039 1.648c.8-1.274 1.934-1.911 3.402-1.911.474 0 .835.061 1.081.184v2.268zm21.028 5.102c0 2.18-.501 3.933-1.503 5.26-1.002 1.319-2.347 1.978-4.034 1.978-1.802 0-3.195-.637-4.18-1.912L276.324 29h-2.241V8.75h2.438v7.554c.985-1.221 2.343-1.832 4.074-1.832 1.732 0 3.09.655 4.074 1.964.993 1.31 1.49 3.103 1.49 5.379v.21zm-2.439-.277c0-1.661-.321-2.944-.963-3.85-.641-.905-1.564-1.358-2.768-1.358-1.609 0-2.764.748-3.468 2.242v6.17c.748 1.494 1.912 2.24 3.494 2.24 1.169 0 2.079-.452 2.729-1.357.651-.905.976-2.268.976-4.087zm11.443 7.515c-1.934 0-3.507-.633-4.72-1.899-1.213-1.274-1.819-2.975-1.819-5.102v-.448c0-1.415.268-2.676.804-3.784.545-1.116 1.301-1.986 2.268-2.61a5.702 5.702 0 013.164-.95c1.854 0 3.296.611 4.324 1.833s1.543 2.97 1.543 5.247v1.015h-9.664c.035 1.407.444 2.545 1.226 3.415.791.861 1.793 1.292 3.006 1.292.861 0 1.591-.176 2.188-.527a5.492 5.492 0 001.569-1.398l1.49 1.16c-1.195 1.837-2.988 2.756-5.379 2.756zm-.303-12.788c-.985 0-1.811.36-2.479 1.08-.668.713-1.081 1.714-1.239 3.006h7.146v-.184c-.071-1.24-.405-2.197-1.002-2.874-.598-.686-1.407-1.028-2.426-1.028zm14.62 12.788c-1.933 0-3.506-.633-4.719-1.899-1.213-1.274-1.82-2.975-1.82-5.102v-.448c0-1.415.268-2.676.805-3.784.545-1.116 1.3-1.986 2.267-2.61a5.705 5.705 0 013.164-.95c1.855 0 3.296.611 4.324 1.833 1.029 1.222 1.543 2.97 1.543 5.247v1.015h-9.664c.036 1.407.444 2.545 1.226 3.415.791.861 1.793 1.292 3.006 1.292.862 0 1.591-.176 2.189-.527a5.518 5.518 0 001.569-1.398l1.489 1.16c-1.195 1.837-2.988 2.756-5.379 2.756zm-.303-12.788c-.984 0-1.81.36-2.478 1.08-.668.713-1.081 1.714-1.24 3.006h7.146v-.184c-.07-1.24-.404-2.197-1.002-2.874-.598-.686-1.406-1.028-2.426-1.028zm11.009-1.74l.079 1.792c1.089-1.37 2.513-2.056 4.271-2.056 3.015 0 4.535 1.7 4.562 5.102V29h-2.439v-9.44c-.009-1.028-.246-1.788-.712-2.28-.457-.492-1.174-.739-2.149-.739-.791 0-1.486.211-2.083.633a4.296 4.296 0 00-1.398 1.661V29h-2.439V14.735h2.308zM110.303 61.263c-1.934 0-3.507-.633-4.72-1.899-1.213-1.274-1.819-2.975-1.819-5.102v-.448c0-1.415.268-2.676.804-3.784.545-1.116 1.301-1.986 2.267-2.61a5.708 5.708 0 013.165-.95c1.854 0 3.295.612 4.324 1.833 1.028 1.222 1.542 2.97 1.542 5.247v1.015h-9.663c.035 1.407.443 2.545 1.226 3.415.791.861 1.793 1.292 3.006 1.292.861 0 1.59-.176 2.188-.527a5.492 5.492 0 001.569-1.398l1.49 1.16c-1.196 1.837-2.989 2.756-5.379 2.756zM110 48.476c-.985 0-1.811.36-2.479 1.08-.668.713-1.081 1.715-1.239 3.007h7.145v-.185c-.07-1.24-.404-2.197-1.002-2.874-.597-.686-1.406-1.028-2.425-1.028zM127.507 61c-.14-.281-.255-.782-.342-1.503-1.134 1.178-2.488 1.767-4.061 1.767-1.406 0-2.562-.396-3.467-1.187-.897-.8-1.345-1.81-1.345-3.032 0-1.485.562-2.637 1.687-3.454 1.134-.826 2.725-1.24 4.773-1.24h2.373v-1.12c0-.853-.255-1.53-.765-2.03-.509-.51-1.261-.765-2.254-.765-.87 0-1.6.22-2.189.66-.588.439-.883.97-.883 1.594h-2.452c0-.712.251-1.397.751-2.056.51-.668 1.196-1.196 2.057-1.582.87-.387 1.824-.58 2.861-.58 1.644 0 2.931.413 3.863 1.239.931.817 1.415 1.947 1.45 3.388v6.566c0 1.31.167 2.35.501 3.124V61h-2.558zm-4.047-1.859c.765 0 1.49-.198 2.175-.593.686-.396 1.182-.91 1.49-1.543V54.08h-1.912c-2.988 0-4.482.874-4.482 2.623 0 .765.255 1.363.765 1.793.509.43 1.164.646 1.964.646zm18.233-1.925c0-.659-.251-1.169-.752-1.529-.492-.37-1.358-.685-2.597-.95-1.23-.263-2.21-.58-2.94-.948-.72-.37-1.257-.809-1.608-1.319-.343-.51-.514-1.116-.514-1.82 0-1.168.492-2.157 1.476-2.965.993-.809 2.259-1.213 3.797-1.213 1.617 0 2.927.417 3.929 1.252 1.011.835 1.516 1.903 1.516 3.204h-2.452c0-.668-.286-1.244-.857-1.727-.563-.484-1.274-.725-2.136-.725-.888 0-1.582.193-2.083.58-.501.386-.751.892-.751 1.516 0 .589.233 1.032.698 1.331.466.3 1.306.585 2.519.857 1.221.273 2.21.598 2.966.976.756.378 1.314.835 1.674 1.37.369.528.554 1.174.554 1.939 0 1.274-.51 2.298-1.529 3.072-1.02.764-2.343 1.147-3.969 1.147-1.142 0-2.153-.203-3.032-.607-.879-.404-1.569-.967-2.07-1.687a4.14 4.14 0 01-.738-2.36h2.439c.044.817.369 1.468.975 1.951.616.475 1.424.712 2.426.712.923 0 1.661-.185 2.215-.554.563-.378.844-.879.844-1.503zM149.959 61h-2.439V46.735h2.439V61zm-2.637-18.048c0-.396.119-.73.356-1.002.246-.273.607-.409 1.081-.409.475 0 .835.136 1.081.409.246.272.369.606.369 1.002 0 .395-.123.725-.369.988-.246.264-.606.396-1.081.396-.474 0-.835-.132-1.081-.396-.237-.263-.356-.593-.356-.988zm12.472 18.312c-1.934 0-3.507-.633-4.72-1.899-1.213-1.274-1.819-2.975-1.819-5.102v-.448c0-1.415.268-2.676.804-3.784.545-1.116 1.301-1.986 2.268-2.61a5.702 5.702 0 013.164-.95c1.854 0 3.296.612 4.324 1.833 1.028 1.222 1.542 2.97 1.542 5.247v1.015h-9.663c.035 1.407.444 2.545 1.226 3.415.791.861 1.793 1.292 3.006 1.292.861 0 1.591-.176 2.188-.527a5.492 5.492 0 001.569-1.398l1.49 1.16c-1.195 1.837-2.988 2.756-5.379 2.756zm-.303-12.788c-.985 0-1.811.36-2.479 1.08-.668.713-1.081 1.715-1.239 3.007h7.145v-.185c-.07-1.24-.404-2.197-1.001-2.874-.598-.686-1.407-1.028-2.426-1.028zm15.596.448a7.31 7.31 0 00-1.2-.093c-1.599 0-2.685.682-3.256 2.044V61h-2.439V46.735h2.373l.039 1.648c.8-1.274 1.934-1.911 3.402-1.911.474 0 .835.061 1.081.184v2.268zm21.581 8.714l2.743-10.903h2.439L197.697 61h-1.978l-3.467-10.81L188.877 61h-1.978l-4.139-14.265h2.426l2.808 10.68 3.322-10.68h1.964l3.388 10.903zM206.991 61h-2.439V46.735h2.439V61zm-2.637-18.048c0-.396.119-.73.356-1.002.247-.273.607-.409 1.082-.409.474 0 .834.136 1.081.409.246.272.369.606.369 1.002 0 .395-.123.725-.369.988-.247.264-.607.396-1.081.396-.475 0-.835-.132-1.082-.396-.237-.263-.356-.593-.356-.988zm9.862.33v3.453h2.663v1.886h-2.663v8.846c0 .571.118 1.002.356 1.292.237.281.641.422 1.213.422.281 0 .668-.053 1.16-.158V61a7.074 7.074 0 01-1.872.264c-1.09 0-1.912-.33-2.466-.99-.553-.658-.83-1.594-.83-2.807V48.62h-2.597v-1.886h2.597v-3.454h2.439zm7.963 5.18c1.081-1.327 2.487-1.99 4.218-1.99 3.015 0 4.536 1.7 4.562 5.102V61h-2.439v-9.44c-.009-1.028-.246-1.788-.712-2.28-.457-.492-1.173-.739-2.149-.739-.791 0-1.485.211-2.083.633a4.302 4.302 0 00-1.397 1.661V61h-2.439V40.75h2.439v7.712zm-97.361 26.081l-.396 4.72h-1.463l.013-6.513h1.846v1.793zm3.559 0l-.395 4.72h-1.463l.013-6.513h1.845v1.793zm9.321 9.9c-2.171-.623-3.753-1.388-4.746-2.293-.984-.914-1.476-2.04-1.476-3.375 0-1.512.602-2.76 1.806-3.744 1.213-.993 2.786-1.49 4.719-1.49 1.319 0 2.492.255 3.52.765 1.038.51 1.837 1.213 2.4 2.109.571.896.857 1.876.857 2.94h-2.545c0-1.16-.369-2.07-1.107-2.729-.738-.668-1.78-1.002-3.125-1.002-1.248 0-2.223.277-2.926.83-.695.546-1.042 1.306-1.042 2.281 0 .783.33 1.446.989 1.991.668.536 1.797 1.028 3.388 1.477 1.6.448 2.848.944 3.744 1.49.906.535 1.574 1.164 2.004 1.885.44.72.659 1.569.659 2.544 0 1.556-.606 2.804-1.819 3.744-1.213.932-2.834 1.398-4.865 1.398-1.318 0-2.549-.25-3.691-.752-1.143-.51-2.026-1.204-2.65-2.083-.615-.879-.923-1.876-.923-2.993h2.545c0 1.16.426 2.08 1.278 2.756.862.668 2.009 1.002 3.441 1.002 1.336 0 2.36-.273 3.072-.818.712-.544 1.068-1.287 1.068-2.228 0-.94-.33-1.665-.989-2.175-.659-.518-1.854-1.028-3.586-1.53zm18.8 7.146c-.949 1.117-2.342 1.675-4.179 1.675-1.521 0-2.681-.44-3.481-1.319-.791-.887-1.191-2.197-1.199-3.928v-9.282h2.439v9.216c0 2.162.879 3.243 2.636 3.243 1.864 0 3.103-.695 3.718-2.083V78.735h2.439V93h-2.32l-.053-1.41zM165.239 93H162.8V72.75h2.439V93zm15.991-6.974c0 2.18-.501 3.933-1.502 5.26-1.002 1.319-2.347 1.978-4.035 1.978-1.801 0-3.194-.638-4.179-1.912L171.396 93h-2.242V72.75h2.439v7.554c.985-1.222 2.343-1.832 4.074-1.832 1.731 0 3.089.654 4.074 1.964.993 1.31 1.489 3.103 1.489 5.379v.21zm-2.438-.277c0-1.661-.321-2.944-.963-3.85-.641-.905-1.564-1.358-2.768-1.358-1.609 0-2.765.748-3.468 2.242v6.17c.747 1.494 1.912 2.24 3.494 2.24 1.169 0 2.079-.452 2.729-1.357.65-.905.976-2.268.976-4.087zm11.443 7.515c-1.934 0-3.507-.633-4.72-1.899-1.213-1.274-1.819-2.975-1.819-5.102v-.448c0-1.415.268-2.676.804-3.784.545-1.116 1.301-1.986 2.268-2.61a5.702 5.702 0 013.164-.95c1.854 0 3.296.611 4.324 1.833s1.542 2.97 1.542 5.247v1.015h-9.663c.035 1.407.444 2.545 1.226 3.415.791.861 1.793 1.292 3.006 1.292.861 0 1.591-.176 2.188-.527a5.492 5.492 0 001.569-1.398l1.49 1.16c-1.196 1.837-2.989 2.756-5.379 2.756zm-.303-12.788c-.985 0-1.811.36-2.479 1.08-.668.713-1.081 1.715-1.239 3.007h7.145v-.185c-.07-1.24-.404-2.197-1.002-2.874-.597-.686-1.406-1.028-2.425-1.028zm12.01-5.195v3.454h2.663v1.886h-2.663v8.846c0 .571.119 1.002.356 1.292.237.281.641.422 1.213.422.281 0 .668-.053 1.16-.159V93a7.074 7.074 0 01-1.872.264c-1.09 0-1.912-.33-2.466-.99-.553-.658-.83-1.594-.83-2.807V80.62h-2.597v-1.886h2.597v-3.454h2.439zM210.116 93h-2.439V78.735h2.439V93zm-2.637-18.048c0-.396.119-.73.356-1.002.246-.273.606-.409 1.081-.409s.835.136 1.081.409c.246.272.369.606.369 1.002 0 .395-.123.725-.369.988-.246.264-.606.396-1.081.396s-.835-.132-1.081-.396c-.237-.263-.356-.593-.356-.988zm8.358-.409l-.395 4.72h-1.463l.013-6.513h1.845v1.793zm3.56 0l-.396 4.72h-1.463l.013-6.513h1.846v1.793z"/>
</svg>
