<svg xmlns="http://www.w3.org/2000/svg" width="342" height="155" fill="none" viewBox="0 0 342 155">
  <path fill="#fff" d="M31.191 154.735a4.102 4.102 0 01-1.93-1.404 3.601 3.601 0 01-.723-2.167v-40.028c-.001-1.355-.587-2.653-1.627-3.612-1.04-.958-2.451-1.497-3.923-1.498h-8.902c-3.678-.004-7.204-1.351-9.805-3.746-2.6-2.394-4.063-5.641-4.067-9.028V12.774C.218 9.387 1.68 6.14 4.28 3.746 6.882 1.35 10.41.004 14.086 0h314c3.678.004 7.205 1.35 9.805 3.746 2.601 2.394 4.064 5.641 4.068 9.028v80.478c-.004 3.387-1.467 6.634-4.068 9.028-2.6 2.395-6.127 3.742-9.805 3.746H85.723c-.77.001-1.53.148-2.234.434a5.568 5.568 0 00-1.857 1.223l-45.865 46.071a4.15 4.15 0 01-1.385.92 4.462 4.462 0 01-3.19.061z"/>
  <path fill="#3F3D56" d="M31.191 154.735a4.102 4.102 0 01-1.93-1.404 3.601 3.601 0 01-.723-2.167v-40.028c-.001-1.355-.587-2.653-1.627-3.612-1.04-.958-2.451-1.497-3.923-1.498h-8.902c-3.678-.004-7.204-1.351-9.805-3.746-2.6-2.394-4.063-5.641-4.067-9.028V12.774C.218 9.387 1.68 6.14 4.28 3.746 6.882 1.35 10.41.004 14.086 0h314c3.678.004 7.205 1.35 9.805 3.746 2.601 2.394 4.064 5.641 4.068 9.028v80.478c-.004 3.387-1.467 6.634-4.068 9.028-2.6 2.395-6.127 3.742-9.805 3.746H85.723c-.77.001-1.53.148-2.234.434a5.568 5.568 0 00-1.857 1.223l-45.865 46.071a4.15 4.15 0 01-1.385.92 4.462 4.462 0 01-3.19.061zM14.086 1.702C10.9 1.705 7.842 2.873 5.588 4.95c-2.254 2.075-3.522 4.89-3.526 7.825v80.478c.004 2.936 1.272 5.75 3.526 7.825 2.254 2.076 5.31 3.243 8.498 3.247h8.902c1.962.002 3.843.72 5.23 1.997 1.387 1.278 2.167 3.009 2.169 4.815v40.028c0 .43.14.849.404 1.203.263.354.636.627 1.07.782.435.156.91.187 1.364.089a2.355 2.355 0 001.18-.635l45.864-46.07a7.421 7.421 0 012.476-1.631 7.967 7.967 0 012.978-.578h242.363c3.188-.004 6.245-1.171 8.499-3.247 2.254-2.075 3.522-4.89 3.525-7.825V12.774c-.003-2.936-1.271-5.75-3.525-7.825-2.254-2.076-5.311-3.244-8.499-3.247h-314z"/>
  <path fill="#000" d="M15.09 26.805l6.276 15.662 6.276-15.662h3.282V46h-2.53v-7.475l.236-8.069L22.33 46H20.39l-6.289-15.504.25 8.029V46h-2.53V26.805h3.269zm19.275 11.93c0-1.397.273-2.654.818-3.77.553-1.116 1.318-1.977 2.294-2.584.984-.606 2.105-.91 3.361-.91 1.943 0 3.512.673 4.707 2.018 1.204 1.345 1.806 3.133 1.806 5.366v.17c0 1.39-.268 2.638-.804 3.745-.527 1.099-1.288 1.956-2.28 2.57-.985.616-2.12.924-3.402.924-1.934 0-3.503-.673-4.707-2.017-1.195-1.345-1.793-3.125-1.793-5.34v-.171zm2.452.29c0 1.583.365 2.853 1.095 3.81.738.959 1.722 1.438 2.953 1.438 1.239 0 2.223-.483 2.953-1.45.73-.976 1.094-2.338 1.094-4.087 0-1.565-.373-2.83-1.12-3.797-.739-.976-1.723-1.463-2.954-1.463-1.204 0-2.175.479-2.913 1.437-.738.958-1.108 2.329-1.108 4.113zm20.488-5.101a7.312 7.312 0 00-1.2-.093c-1.6 0-2.685.682-3.256 2.044V46h-2.44V31.735h2.374l.04 1.648c.8-1.274 1.933-1.911 3.4-1.911.475 0 .836.061 1.082.184v2.268zm7.91 12.34c-1.934 0-3.507-.633-4.72-1.899-1.213-1.274-1.82-2.975-1.82-5.102v-.448c0-1.415.269-2.676.805-3.784.545-1.116 1.3-1.986 2.268-2.61a5.704 5.704 0 013.164-.95c1.854 0 3.295.612 4.324 1.833 1.028 1.222 1.542 2.97 1.542 5.247v1.015h-9.663c.035 1.407.444 2.545 1.226 3.415.79.861 1.793 1.292 3.006 1.292.861 0 1.59-.176 2.188-.527a5.5 5.5 0 001.569-1.398l1.49 1.16c-1.196 1.837-2.988 2.756-5.38 2.756zm-.303-12.788c-.985 0-1.81.36-2.479 1.08-.668.713-1.08 1.715-1.24 3.007h7.146v-.185c-.07-1.24-.404-2.197-1.002-2.874-.597-.686-1.406-1.028-2.425-1.028zM82.96 46h-2.439V31.735h2.439V46zm-2.637-18.048c0-.396.119-.73.356-1.002.246-.273.607-.409 1.081-.409.475 0 .835.136 1.081.409.246.272.37.606.37 1.002 0 .395-.124.725-.37.988-.246.264-.606.396-1.08.396-.475 0-.836-.132-1.082-.396-.237-.263-.356-.593-.356-.988zm8.86 3.783l.079 1.793c1.09-1.37 2.513-2.056 4.271-2.056 3.015 0 4.535 1.7 4.562 5.102V46h-2.44v-9.44c-.008-1.028-.245-1.788-.711-2.28-.457-.492-1.174-.739-2.15-.739-.79 0-1.484.211-2.082.633a4.297 4.297 0 00-1.398 1.661V46h-2.438V31.735h2.307zM102.973 46V33.62h-2.255v-1.885h2.255v-1.463c0-1.53.408-2.711 1.226-3.546.817-.835 1.973-1.253 3.467-1.253.563 0 1.121.075 1.674.224l-.132 1.978a7 7 0 00-1.318-.119c-.791 0-1.402.233-1.832.699-.431.457-.646 1.116-.646 1.977v1.503h3.045v1.886h-3.045V46h-2.439zm7.541-7.264c0-1.398.272-2.654.817-3.77.554-1.117 1.318-1.978 2.294-2.585.984-.606 2.105-.91 3.362-.91 1.942 0 3.511.673 4.706 2.018 1.204 1.345 1.807 3.133 1.807 5.366v.17c0 1.39-.269 2.638-.805 3.745-.527 1.099-1.287 1.956-2.28 2.57-.985.616-2.119.924-3.402.924-1.933 0-3.502-.673-4.706-2.017-1.196-1.345-1.793-3.125-1.793-5.34v-.171zm2.452.29c0 1.582.365 2.852 1.094 3.81.738.958 1.723 1.437 2.953 1.437 1.239 0 2.224-.483 2.953-1.45.73-.976 1.095-2.338 1.095-4.087 0-1.565-.374-2.83-1.121-3.797-.738-.976-1.723-1.463-2.953-1.463-1.204 0-2.175.479-2.914 1.437-.738.958-1.107 2.329-1.107 4.113zm20.487-5.102a7.31 7.31 0 00-1.2-.093c-1.599 0-2.685.682-3.256 2.044V46h-2.439V31.735h2.373l.04 1.648c.8-1.274 1.933-1.911 3.401-1.911.475 0 .835.061 1.081.184v2.268zm4.548-2.189l.066 1.582c1.046-1.23 2.457-1.845 4.232-1.845 1.995 0 3.353.764 4.074 2.294a5.426 5.426 0 011.846-1.661c.764-.422 1.665-.633 2.702-.633 3.129 0 4.72 1.656 4.773 4.97V46h-2.439v-9.413c0-1.02-.233-1.78-.699-2.28-.466-.51-1.248-.766-2.347-.766-.905 0-1.656.273-2.254.818-.598.536-.945 1.261-1.041 2.175V46h-2.453v-9.347c0-2.074-1.015-3.111-3.045-3.111-1.6 0-2.694.68-3.283 2.043V46h-2.439V31.735h2.307zM168.192 46c-.141-.281-.255-.782-.343-1.503-1.134 1.178-2.487 1.767-4.06 1.767-1.407 0-2.562-.396-3.468-1.187-.896-.8-1.344-1.81-1.344-3.032 0-1.485.562-2.637 1.687-3.454 1.134-.826 2.725-1.24 4.773-1.24h2.373v-1.12c0-.853-.255-1.53-.765-2.03-.51-.51-1.261-.765-2.254-.765-.871 0-1.6.22-2.189.66-.589.439-.883.97-.883 1.594h-2.452c0-.712.25-1.397.751-2.056.51-.668 1.195-1.196 2.057-1.582.87-.387 1.823-.58 2.861-.58 1.643 0 2.931.413 3.862 1.239.932.817 1.415 1.947 1.451 3.388v6.566c0 1.31.167 2.35.501 3.124V46h-2.558zm-4.047-1.859c.764 0 1.489-.198 2.175-.593.685-.396 1.182-.91 1.49-1.543V39.08h-1.912c-2.988 0-4.482.874-4.482 2.623 0 .765.254 1.363.764 1.793.51.43 1.165.646 1.965.646zm13.236-15.86v3.454h2.663v1.886h-2.663v8.846c0 .571.119 1.002.356 1.292.237.281.641.422 1.213.422.281 0 .668-.053 1.16-.158V46a7.074 7.074 0 01-1.872.264c-1.09 0-1.912-.33-2.466-.99-.553-.658-.83-1.594-.83-2.807V33.62h-2.597v-1.886h2.597v-3.454h2.439zM185.555 46h-2.439V31.735h2.439V46zm-2.637-18.048c0-.396.119-.73.356-1.002.246-.273.606-.409 1.081-.409s.835.136 1.081.409c.246.272.369.606.369 1.002 0 .395-.123.725-.369.988-.246.264-.606.396-1.081.396s-.835-.132-1.081-.396c-.237-.263-.356-.593-.356-.988zm5.906 10.784c0-1.398.273-2.654.818-3.77.553-1.117 1.318-1.978 2.294-2.585.984-.606 2.105-.91 3.361-.91 1.943 0 3.512.673 4.707 2.018 1.204 1.345 1.806 3.133 1.806 5.366v.17c0 1.39-.268 2.638-.804 3.745-.527 1.099-1.288 1.956-2.281 2.57-.984.616-2.118.924-3.401.924-1.934 0-3.503-.673-4.707-2.017-1.195-1.345-1.793-3.125-1.793-5.34v-.171zm2.452.29c0 1.582.365 2.852 1.095 3.81.738.958 1.722 1.437 2.953 1.437 1.239 0 2.223-.483 2.953-1.45.729-.976 1.094-2.338 1.094-4.087 0-1.565-.373-2.83-1.121-3.797-.738-.976-1.722-1.463-2.953-1.463-1.204 0-2.175.479-2.913 1.437-.738.958-1.108 2.329-1.108 4.113zm15.9-7.29l.079 1.792c1.09-1.37 2.514-2.056 4.271-2.056 3.015 0 4.536 1.7 4.562 5.102V46h-2.439v-9.44c-.009-1.028-.246-1.788-.712-2.28-.457-.492-1.173-.739-2.149-.739-.791 0-1.485.211-2.083.633a4.294 4.294 0 00-1.397 1.661V46h-2.439V31.735h2.307zm21.595 0l.079 1.792c1.089-1.37 2.513-2.056 4.271-2.056 3.015 0 4.535 1.7 4.562 5.102V46h-2.439v-9.44c-.009-1.028-.246-1.788-.712-2.28-.457-.492-1.174-.739-2.149-.739-.791 0-1.486.211-2.083.633a4.296 4.296 0 00-1.398 1.661V46h-2.439V31.735h2.308zm18.509 14.528c-1.933 0-3.507-.633-4.719-1.899-1.213-1.274-1.82-2.975-1.82-5.102v-.448c0-1.415.268-2.676.804-3.784.545-1.116 1.301-1.986 2.268-2.61a5.705 5.705 0 013.164-.95c1.855 0 3.296.612 4.324 1.833 1.029 1.222 1.543 2.97 1.543 5.247v1.015h-9.664c.035 1.407.444 2.545 1.226 3.415.791.861 1.793 1.292 3.006 1.292.861 0 1.591-.176 2.189-.527a5.502 5.502 0 001.568-1.398l1.49 1.16c-1.195 1.837-2.988 2.756-5.379 2.756zm-.303-12.788c-.984 0-1.81.36-2.478 1.08-.668.713-1.082 1.715-1.24 3.007h7.146v-.185c-.071-1.24-.405-2.197-1.002-2.874-.598-.686-1.406-1.028-2.426-1.028zm14.621 12.788c-1.934 0-3.507-.633-4.72-1.899-1.213-1.274-1.819-2.975-1.819-5.102v-.448c0-1.415.268-2.676.804-3.784.545-1.116 1.301-1.986 2.267-2.61a5.707 5.707 0 013.164-.95c1.855 0 3.296.612 4.325 1.833 1.028 1.222 1.542 2.97 1.542 5.247v1.015h-9.663c.035 1.407.443 2.545 1.226 3.415.791.861 1.793 1.292 3.005 1.292.862 0 1.591-.176 2.189-.527a5.492 5.492 0 001.569-1.398l1.49 1.16c-1.196 1.837-2.989 2.756-5.379 2.756zm-.304-12.788c-.984 0-1.81.36-2.478 1.08-.668.713-1.081 1.715-1.239 3.007h7.145v-.185c-.07-1.24-.404-2.197-1.002-2.874-.597-.686-1.406-1.028-2.426-1.028zm8.108 5.273c0-2.189.519-3.946 1.556-5.273 1.037-1.336 2.395-2.004 4.074-2.004 1.67 0 2.992.571 3.968 1.713V25.75h2.439V46h-2.241l-.119-1.53c-.975 1.196-2.333 1.794-4.074 1.794-1.652 0-3.001-.677-4.047-2.03-1.037-1.354-1.556-3.12-1.556-5.3v-.185zm2.439.277c0 1.617.334 2.883 1.002 3.797.668.914 1.591 1.37 2.769 1.37 1.547 0 2.676-.694 3.388-2.082v-6.552c-.729-1.345-1.85-2.017-3.362-2.017-1.195 0-2.127.46-2.795 1.384-.668.923-1.002 2.29-1.002 4.1zm19.314 7.238c-1.933 0-3.507-.633-4.719-1.899-1.213-1.274-1.82-2.975-1.82-5.102v-.448c0-1.415.268-2.676.804-3.784.545-1.116 1.301-1.986 2.268-2.61a5.705 5.705 0 013.164-.95c1.855 0 3.296.612 4.324 1.833 1.029 1.222 1.543 2.97 1.543 5.247v1.015h-9.664c.035 1.407.444 2.545 1.226 3.415.791.861 1.793 1.292 3.006 1.292.861 0 1.591-.176 2.189-.527a5.502 5.502 0 001.568-1.398l1.49 1.16c-1.195 1.837-2.988 2.756-5.379 2.756zm-.303-12.788c-.984 0-1.81.36-2.478 1.08-.668.713-1.082 1.715-1.24 3.007h7.146v-.185c-.071-1.24-.405-2.197-1.002-2.874-.598-.686-1.406-1.028-2.426-1.028zm8.108 5.273c0-2.189.519-3.946 1.556-5.273 1.037-1.336 2.395-2.004 4.073-2.004 1.67 0 2.993.571 3.969 1.713V25.75h2.439V46h-2.242l-.118-1.53c-.976 1.196-2.334 1.794-4.074 1.794-1.652 0-3.001-.677-4.047-2.03-1.037-1.354-1.556-3.12-1.556-5.3v-.185zm2.439.277c0 1.617.334 2.883 1.002 3.797.668.914 1.591 1.37 2.768 1.37 1.547 0 2.677-.694 3.389-2.082v-6.552c-.73-1.345-1.85-2.017-3.362-2.017-1.196 0-2.127.46-2.795 1.384-.668.923-1.002 2.29-1.002 4.1zm16.255 1.569c.018-1.046.137-1.872.356-2.479.22-.606.668-1.279 1.345-2.017l1.727-1.78c.738-.835 1.107-1.731 1.107-2.69 0-.922-.241-1.643-.725-2.161-.483-.528-1.186-.791-2.109-.791-.897 0-1.617.237-2.162.712-.545.474-.818 1.111-.818 1.911h-2.438c.017-1.424.522-2.57 1.516-3.44 1.002-.88 2.302-1.319 3.902-1.319 1.661 0 2.953.448 3.876 1.345.932.887 1.397 2.11 1.397 3.665 0 1.538-.711 3.054-2.135 4.548l-1.437 1.424c-.642.712-.963 1.736-.963 3.072h-2.439zm-.105 4.179c0-.396.118-.725.356-.989.246-.272.606-.408 1.081-.408.474 0 .835.136 1.081.408.246.264.369.593.369.989 0 .395-.123.725-.369.989-.246.255-.607.382-1.081.382-.475 0-.835-.127-1.081-.382-.238-.264-.356-.594-.356-.99zM48.472 71.909c-.238 2.03-.99 3.6-2.255 4.707-1.257 1.098-2.93 1.648-5.023 1.648-2.267 0-4.087-.813-5.458-2.44-1.362-1.625-2.043-3.8-2.043-6.525v-1.846c0-1.784.316-3.353.95-4.706.64-1.354 1.546-2.391 2.715-3.112 1.169-.73 2.522-1.094 4.06-1.094 2.04 0 3.674.571 4.905 1.714 1.23 1.134 1.947 2.707 2.149 4.72h-2.545c-.22-1.53-.699-2.637-1.437-3.323-.73-.685-1.753-1.028-3.072-1.028-1.617 0-2.887.598-3.81 1.793-.914 1.195-1.37 2.896-1.37 5.102v1.859c0 2.083.434 3.74 1.304 4.97.87 1.23 2.088 1.846 3.652 1.846 1.407 0 2.483-.317 3.23-.95.756-.641 1.257-1.753 1.503-3.335h2.545zm5.524-6.447c1.08-1.327 2.487-1.99 4.218-1.99 3.015 0 4.535 1.7 4.562 5.102V78h-2.44v-9.44c-.008-1.028-.245-1.788-.711-2.28-.457-.492-1.173-.739-2.149-.739-.79 0-1.485.211-2.083.633a4.297 4.297 0 00-1.397 1.661V78h-2.44V57.75h2.44v7.712zm18.351 12.802c-1.933 0-3.507-.633-4.72-1.899-1.212-1.274-1.819-2.975-1.819-5.102v-.448c0-1.415.268-2.676.804-3.784.545-1.116 1.301-1.986 2.268-2.61a5.704 5.704 0 013.164-.95c1.854 0 3.296.611 4.324 1.833 1.029 1.222 1.543 2.97 1.543 5.247v1.015h-9.664c.035 1.407.444 2.545 1.226 3.415.791.861 1.793 1.292 3.006 1.292.861 0 1.59-.176 2.189-.527a5.5 5.5 0 001.568-1.398l1.49 1.16c-1.195 1.837-2.988 2.756-5.379 2.756zm-.303-12.788c-.984 0-1.81.36-2.479 1.08-.668.713-1.08 1.715-1.239 3.007h7.146v-.185c-.07-1.24-.405-2.197-1.002-2.874-.598-.686-1.406-1.028-2.426-1.028zm14.423 10.797c.87 0 1.63-.264 2.28-.791.65-.527 1.011-1.187 1.082-1.978h2.307c-.044.818-.325 1.596-.844 2.334-.519.738-1.213 1.327-2.083 1.767-.861.439-1.775.659-2.742.659-1.943 0-3.49-.646-4.64-1.938-1.143-1.301-1.715-3.076-1.715-5.326v-.41c0-1.388.255-2.623.765-3.704.51-1.08 1.24-1.92 2.188-2.518.958-.597 2.088-.896 3.389-.896 1.6 0 2.926.479 3.981 1.437 1.064.958 1.63 2.201 1.7 3.73H89.83c-.07-.922-.422-1.678-1.055-2.267-.624-.598-1.398-.896-2.32-.896-1.24 0-2.202.448-2.888 1.344-.676.888-1.015 2.176-1.015 3.863v.461c0 1.644.339 2.91 1.015 3.797.677.888 1.644 1.332 2.9 1.332zm12.392-4.878L97.33 72.99V78h-2.439V57.75h2.44v12.248l1.304-1.57 4.443-4.693h2.966l-5.55 5.96L106.69 78h-2.86l-4.97-6.605zm15.755-.66c0-1.397.272-2.653.817-3.77.554-1.116 1.319-1.977 2.294-2.584.984-.606 2.105-.91 3.362-.91 1.942 0 3.511.673 4.706 2.018 1.205 1.344 1.807 3.133 1.807 5.365v.172c0 1.389-.268 2.637-.805 3.744-.527 1.099-1.287 1.956-2.28 2.57-.985.616-2.119.924-3.402.924-1.933 0-3.502-.673-4.706-2.017-1.196-1.345-1.793-3.125-1.793-5.34v-.171zm2.452.29c0 1.583.365 2.853 1.094 3.81.738.959 1.723 1.438 2.953 1.438 1.24 0 2.224-.483 2.953-1.45.73-.976 1.095-2.338 1.095-4.087 0-1.565-.374-2.83-1.121-3.797-.738-.976-1.723-1.463-2.953-1.463-1.204 0-2.175.479-2.914 1.437-.738.958-1.107 2.329-1.107 4.113zm22.399 5.564c-.949 1.117-2.342 1.675-4.179 1.675-1.521 0-2.681-.44-3.481-1.319-.791-.887-1.191-2.197-1.2-3.928v-9.282h2.439v9.216c0 2.162.879 3.243 2.637 3.243 1.863 0 3.103-.695 3.718-2.083V63.735h2.439V78h-2.32l-.053-1.41zm9.4-16.308v3.454h2.663v1.886h-2.663v8.846c0 .571.118 1.002.356 1.292.237.281.641.422 1.213.422.281 0 .668-.053 1.16-.159V78a7.074 7.074 0 01-1.872.264c-1.09 0-1.912-.33-2.466-.99-.553-.658-.83-1.594-.83-2.807V65.62h-2.597v-1.886h2.597v-3.454h2.439zm11.575 10.455c0-1.398.272-2.654.817-3.77.554-1.117 1.319-1.978 2.294-2.585.985-.606 2.105-.91 3.362-.91 1.942 0 3.511.673 4.707 2.018 1.204 1.344 1.806 3.133 1.806 5.365v.172c0 1.389-.268 2.637-.804 3.744-.528 1.099-1.288 1.956-2.281 2.57-.985.616-2.118.924-3.402.924-1.933 0-3.502-.673-4.706-2.017-1.195-1.345-1.793-3.125-1.793-5.34v-.171zm2.452.29c0 1.582.365 2.852 1.094 3.81.739.958 1.723 1.437 2.953 1.437 1.24 0 2.224-.483 2.954-1.45.729-.976 1.094-2.338 1.094-4.087 0-1.565-.374-2.83-1.121-3.797-.738-.976-1.722-1.463-2.953-1.463-1.204 0-2.175.479-2.913 1.437-.739.958-1.108 2.329-1.108 4.113zm22.399 5.563c-.949 1.117-2.342 1.675-4.179 1.675-1.521 0-2.681-.44-3.481-1.319-.791-.887-1.191-2.197-1.199-3.928v-9.282h2.439v9.216c0 2.162.879 3.243 2.636 3.243 1.864 0 3.103-.695 3.718-2.083V63.735h2.439V78h-2.32l-.053-1.41zm12.986-10.665a7.31 7.31 0 00-1.2-.093c-1.599 0-2.685.682-3.256 2.044V78h-2.439V63.735h2.373l.039 1.648c.8-1.274 1.934-1.911 3.402-1.911.474 0 .835.061 1.081.184v2.268zm19.92 3.599h-8.055V78h-2.531V58.805h11.891v2.083h-9.36v6.565h8.055v2.07zm9.585 8.74c-1.934 0-3.507-.632-4.72-1.898-1.213-1.274-1.819-2.975-1.819-5.102v-.448c0-1.415.268-2.676.804-3.784.545-1.116 1.301-1.986 2.267-2.61a5.708 5.708 0 013.165-.95c1.854 0 3.295.611 4.324 1.833 1.028 1.222 1.542 2.97 1.542 5.247v1.015h-9.663c.035 1.407.443 2.545 1.226 3.415.791.861 1.793 1.292 3.006 1.292.861 0 1.59-.176 2.188-.527a5.492 5.492 0 001.569-1.398l1.49 1.16c-1.196 1.837-2.989 2.756-5.379 2.756zm-.303-12.787c-.985 0-1.811.36-2.479 1.08-.668.713-1.081 1.715-1.239 3.007h7.145v-.185c-.07-1.24-.404-2.197-1.002-2.874-.597-.686-1.406-1.028-2.425-1.028zM244.986 78c-.14-.281-.255-.782-.342-1.503-1.134 1.178-2.488 1.767-4.061 1.767-1.406 0-2.562-.396-3.467-1.187-.897-.8-1.345-1.81-1.345-3.032 0-1.485.562-2.637 1.687-3.454 1.134-.826 2.725-1.24 4.773-1.24h2.373v-1.12c0-.853-.255-1.53-.765-2.03-.509-.51-1.261-.765-2.254-.765-.87 0-1.6.22-2.189.66-.588.439-.883.97-.883 1.594h-2.452c0-.712.251-1.397.751-2.056.51-.668 1.196-1.195 2.057-1.582.87-.387 1.824-.58 2.861-.58 1.644 0 2.931.413 3.863 1.239.931.817 1.415 1.947 1.45 3.388v6.566c0 1.31.167 2.35.501 3.124V78h-2.558zm-4.047-1.859c.765 0 1.49-.198 2.175-.593.686-.396 1.182-.91 1.49-1.543V71.08h-1.912c-2.988 0-4.482.874-4.482 2.623 0 .765.255 1.362.765 1.793.509.43 1.164.646 1.964.646zm13.236-15.86v3.454h2.663v1.886h-2.663v8.846c0 .571.119 1.002.356 1.292.238.281.642.422 1.213.422.281 0 .668-.053 1.16-.159V78a7.063 7.063 0 01-1.872.264c-1.09 0-1.911-.33-2.465-.99-.554-.658-.831-1.594-.831-2.807V65.62h-2.597v-1.886h2.597v-3.454h2.439zm14.331 16.308c-.949 1.117-2.342 1.675-4.179 1.675-1.521 0-2.681-.44-3.481-1.319-.791-.887-1.191-2.197-1.2-3.928v-9.282h2.439v9.216c0 2.162.879 3.243 2.637 3.243 1.863 0 3.103-.695 3.718-2.083V63.735h2.439V78h-2.32l-.053-1.41zm12.986-10.665a7.31 7.31 0 00-1.2-.093c-1.6 0-2.685.682-3.256 2.044V78h-2.439V63.735h2.373l.039 1.648c.8-1.274 1.934-1.911 3.402-1.911.474 0 .835.061 1.081.184v2.268zm7.91 12.34c-1.934 0-3.507-.633-4.72-1.899-1.213-1.274-1.819-2.975-1.819-5.102v-.448c0-1.415.268-2.676.804-3.784.545-1.116 1.301-1.986 2.268-2.61a5.702 5.702 0 013.164-.95c1.854 0 3.296.611 4.324 1.833s1.542 2.97 1.542 5.247v1.015h-9.663c.035 1.407.444 2.545 1.226 3.415.791.861 1.793 1.292 3.006 1.292.861 0 1.591-.176 2.188-.527a5.492 5.492 0 001.569-1.398l1.49 1.16c-1.196 1.837-2.989 2.756-5.379 2.756zm-.303-12.788c-.985 0-1.811.36-2.479 1.08-.668.713-1.081 1.715-1.239 3.007h7.145v-.185c-.07-1.24-.404-2.197-1.002-2.874-.597-.686-1.406-1.028-2.425-1.028zm17.006 8.74c0-.659-.25-1.169-.751-1.529-.492-.37-1.358-.686-2.597-.95-1.231-.263-2.211-.58-2.94-.948-.721-.37-1.257-.809-1.609-1.319-.342-.51-.514-1.116-.514-1.82 0-1.168.493-2.157 1.477-2.965.993-.809 2.259-1.213 3.797-1.213 1.617 0 2.927.417 3.928 1.252 1.011.835 1.517 1.903 1.517 3.204h-2.453c0-.668-.285-1.244-.856-1.727-.563-.484-1.275-.725-2.136-.725-.888 0-1.582.193-2.083.58-.501.386-.752.892-.752 1.516 0 .589.233 1.032.699 1.331.466.3 1.305.585 2.518.857 1.222.273 2.211.598 2.966.976.756.378 1.314.835 1.675 1.37.369.528.553 1.174.553 1.939 0 1.274-.509 2.298-1.529 3.072-1.019.764-2.342 1.147-3.968 1.147-1.143 0-2.153-.203-3.032-.607-.879-.404-1.569-.967-2.07-1.687a4.14 4.14 0 01-.738-2.36h2.439c.043.817.369 1.468.975 1.951.615.475 1.424.712 2.426.712.923 0 1.661-.185 2.215-.554.562-.378.843-.879.843-1.503z"/>
</svg>
