<svg xmlns="http://www.w3.org/2000/svg" width="342" height="155" fill="none" viewBox="0 0 342 155">
  <path fill="#fff" d="M309.462 155a4.46 4.46 0 01-1.671-.326 4.154 4.154 0 01-1.386-.92l-45.864-46.071a5.575 5.575 0 00-1.857-1.223 5.964 5.964 0 00-2.234-.434H14.087c-3.678-.004-7.205-1.351-9.805-3.746C1.68 99.885.218 96.639.214 93.252V12.774C.218 9.387 1.68 6.14 4.282 3.746 6.882 1.35 10.409.004 14.086 0h314c3.678.004 7.204 1.35 9.805 3.746 2.601 2.394 4.064 5.641 4.068 9.028v80.478c-.004 3.387-1.467 6.634-4.068 9.028-2.601 2.395-6.127 3.742-9.805 3.746h-8.902c-1.471.001-2.882.54-3.922 1.498-1.041.959-1.626 2.257-1.628 3.612v40.028a3.593 3.593 0 01-.722 2.166 4.098 4.098 0 01-1.93 1.405c-.485.175-1 .265-1.52.265z"/>
  <path fill="#3F3D56" d="M309.462 155a4.46 4.46 0 01-1.671-.326 4.154 4.154 0 01-1.386-.92l-45.864-46.071a5.575 5.575 0 00-1.857-1.223 5.964 5.964 0 00-2.234-.434H14.087c-3.678-.004-7.205-1.351-9.805-3.746C1.68 99.885.218 96.639.214 93.252V12.774C.218 9.387 1.68 6.14 4.282 3.746 6.882 1.35 10.409.004 14.086 0h314c3.678.004 7.204 1.35 9.805 3.746 2.601 2.394 4.064 5.641 4.068 9.028v80.478c-.004 3.387-1.467 6.634-4.068 9.028-2.601 2.395-6.127 3.742-9.805 3.746h-8.902c-1.471.001-2.882.54-3.922 1.498-1.041.959-1.626 2.257-1.628 3.612v40.028a3.593 3.593 0 01-.722 2.166 4.098 4.098 0 01-1.93 1.405c-.485.175-1 .265-1.52.265zM14.087 1.702c-3.188.003-6.245 1.171-8.499 3.247-2.254 2.075-3.522 4.89-3.526 7.825v80.478c.004 2.935 1.272 5.75 3.526 7.825 2.254 2.076 5.31 3.243 8.498 3.247H256.45a7.97 7.97 0 012.978.578 7.41 7.41 0 012.475 1.631l45.865 46.07c.315.317.726.538 1.18.635.454.098.929.067 1.363-.089a2.285 2.285 0 001.071-.782c.263-.354.404-.773.404-1.203v-40.028c.002-1.806.782-3.537 2.169-4.815 1.387-1.277 3.268-1.995 5.229-1.997h8.902c3.188-.004 6.244-1.171 8.499-3.247 2.254-2.075 3.522-4.89 3.525-7.825V12.774c-.003-2.936-1.271-5.75-3.525-7.825-2.254-2.076-5.311-3.244-8.499-3.247h-314z"/>
  <path fill="#000" d="M41.168 26.949l.37 2.531.54-2.28 3.796-13.395h2.136l3.705 13.394.527 2.32.409-2.583 2.98-13.131h2.544L53.52 33h-2.307l-3.955-13.988-.303-1.463-.304 1.463L42.552 33h-2.307l-4.64-19.195h2.53l3.033 13.144zM63.264 33h-2.44V18.735h2.44V33zm-2.637-18.048c0-.396.119-.73.356-1.002.246-.273.606-.409 1.081-.409s.835.136 1.081.409c.246.272.37.606.37 1.002 0 .395-.124.725-.37.988-.246.264-.606.396-1.081.396s-.835-.132-1.081-.396c-.237-.263-.356-.593-.356-.988zm9.861.33v3.453h2.663v1.886h-2.663v8.846c0 .571.119 1.002.356 1.292.238.281.642.422 1.213.422.281 0 .668-.053 1.16-.159V33a7.07 7.07 0 01-1.872.264c-1.09 0-1.911-.33-2.465-.99-.554-.658-.83-1.594-.83-2.807V20.62h-2.598v-1.886h2.597v-3.454h2.44zm7.963 5.18c1.081-1.327 2.488-1.99 4.219-1.99 3.015 0 4.535 1.7 4.561 5.102V33h-2.438v-9.44c-.01-1.028-.247-1.788-.712-2.28-.457-.492-1.174-.739-2.15-.739-.79 0-1.485.211-2.082.633a4.298 4.298 0 00-1.398 1.661V33h-2.439V12.75h2.44v7.712zm25.168 3.982c-2.171-.624-3.753-1.389-4.746-2.294-.985-.914-1.477-2.04-1.477-3.375 0-1.512.602-2.76 1.806-3.744 1.213-.993 2.786-1.49 4.72-1.49 1.318 0 2.492.255 3.52.765 1.037.51 1.837 1.213 2.399 2.109.572.896.857 1.877.857 2.94h-2.544c0-1.16-.369-2.07-1.108-2.729-.738-.668-1.779-1.002-3.124-1.002-1.248 0-2.224.277-2.927.83-.694.546-1.041 1.306-1.041 2.281 0 .783.329 1.446.988 1.991.668.536 1.798 1.028 3.389 1.477 1.599.448 2.847.945 3.744 1.49.905.535 1.573 1.164 2.004 1.885.439.72.659 1.569.659 2.544 0 1.556-.607 2.804-1.82 3.744-1.212.932-2.834 1.398-4.864 1.398-1.319 0-2.549-.25-3.692-.752-1.142-.51-2.026-1.204-2.65-2.083-.615-.879-.922-1.876-.922-2.992h2.544c0 1.16.426 2.078 1.279 2.755.861.668 2.008 1.002 3.441 1.002 1.336 0 2.36-.273 3.071-.817.712-.546 1.068-1.288 1.068-2.229 0-.94-.329-1.665-.988-2.175-.66-.518-1.855-1.028-3.586-1.53zm18.799 7.145c-.949 1.117-2.342 1.675-4.179 1.675-1.52 0-2.68-.44-3.48-1.319-.791-.887-1.191-2.197-1.2-3.928v-9.282h2.439v9.216c0 2.162.879 3.243 2.637 3.243 1.863 0 3.102-.694 3.718-2.083V18.735h2.439V33h-2.321l-.053-1.41zM131.159 33h-2.439V12.75h2.439V33zm15.992-6.974c0 2.18-.501 3.933-1.503 5.26-1.002 1.319-2.347 1.978-4.034 1.978-1.802 0-3.195-.638-4.179-1.912L137.316 33h-2.241V12.75h2.439v7.554c.984-1.221 2.342-1.832 4.073-1.832 1.732 0 3.09.654 4.074 1.964.993 1.31 1.49 3.103 1.49 5.379v.21zm-2.439-.277c0-1.661-.321-2.944-.962-3.85-.642-.905-1.565-1.358-2.769-1.358-1.608 0-2.764.748-3.467 2.242v6.17c.747 1.494 1.911 2.24 3.493 2.24 1.169 0 2.079-.452 2.729-1.357.651-.905.976-2.268.976-4.087zm11.443 7.515c-1.933 0-3.507-.633-4.719-1.899-1.213-1.274-1.82-2.975-1.82-5.102v-.448c0-1.415.268-2.676.804-3.784.545-1.116 1.301-1.986 2.268-2.61a5.705 5.705 0 013.164-.95c1.855 0 3.296.611 4.324 1.833 1.029 1.222 1.543 2.97 1.543 5.247v1.015h-9.664c.035 1.407.444 2.545 1.226 3.415.791.861 1.793 1.292 3.006 1.292.861 0 1.591-.176 2.189-.527a5.502 5.502 0 001.568-1.398l1.49 1.16c-1.195 1.837-2.988 2.756-5.379 2.756zm-.303-12.788c-.984 0-1.81.36-2.478 1.08-.668.713-1.082 1.714-1.24 3.006h7.146v-.184c-.071-1.24-.405-2.197-1.002-2.874-.598-.686-1.406-1.028-2.426-1.028zm12.01-5.195v3.454h2.663v1.886h-2.663v8.846c0 .571.119 1.002.356 1.292.238.281.642.422 1.213.422.281 0 .668-.053 1.16-.159V33a7.063 7.063 0 01-1.872.264c-1.09 0-1.911-.33-2.465-.99-.554-.658-.831-1.594-.831-2.807V20.62h-2.597v-1.886h2.597v-3.454h2.439zM176.036 33h-2.439V18.735h2.439V33zm-2.637-18.048c0-.396.119-.73.356-1.002.246-.273.607-.409 1.081-.409.475 0 .835.136 1.081.409.247.272.37.606.37 1.002 0 .395-.123.725-.37.988-.246.264-.606.396-1.081.396-.474 0-.835-.132-1.081-.396-.237-.263-.356-.593-.356-.988zm6.474 21.871l-1.385-.949c.826-1.151 1.257-2.338 1.292-3.56v-2.201h2.387v1.911c0 .888-.22 1.776-.66 2.663-.43.888-.975 1.6-1.634 2.136zm20.381-7.607c0-.659-.25-1.169-.751-1.529-.492-.37-1.358-.686-2.597-.95-1.231-.263-2.211-.58-2.94-.948-.721-.37-1.257-.809-1.609-1.319-.342-.51-.514-1.116-.514-1.82 0-1.168.492-2.157 1.477-2.965.993-.809 2.259-1.213 3.797-1.213 1.617 0 2.926.417 3.928 1.252 1.011.835 1.517 1.903 1.517 3.204h-2.453c0-.668-.285-1.244-.857-1.727-.562-.484-1.274-.725-2.135-.725-.888 0-1.582.193-2.083.58-.501.386-.752.892-.752 1.516 0 .589.233 1.033.699 1.331.466.3 1.305.585 2.518.857 1.222.273 2.21.598 2.966.976.756.378 1.314.835 1.675 1.37.369.528.553 1.174.553 1.939 0 1.274-.509 2.298-1.529 3.072-1.019.764-2.342 1.147-3.968 1.147-1.143 0-2.154-.203-3.032-.607-.879-.404-1.569-.967-2.07-1.687a4.14 4.14 0 01-.739-2.36h2.439c.044.817.37 1.468.976 1.951.615.475 1.424.712 2.426.712.923 0 1.661-.185 2.215-.554.562-.378.843-.879.843-1.503zm11.536 4.048c-1.934 0-3.507-.633-4.72-1.899-1.213-1.274-1.819-2.975-1.819-5.102v-.448c0-1.415.268-2.676.804-3.784.545-1.116 1.301-1.986 2.268-2.61a5.702 5.702 0 013.164-.95c1.854 0 3.296.611 4.324 1.833s1.543 2.97 1.543 5.247v1.015h-9.664c.035 1.407.444 2.545 1.226 3.415.791.861 1.793 1.292 3.006 1.292.861 0 1.591-.176 2.188-.527a5.492 5.492 0 001.569-1.398l1.49 1.16c-1.195 1.837-2.988 2.756-5.379 2.756zm-.303-12.788c-.985 0-1.811.36-2.479 1.08-.668.713-1.081 1.714-1.239 3.006h7.146v-.184c-.071-1.24-.405-2.197-1.002-2.874-.598-.686-1.407-1.028-2.426-1.028zm11.008-1.74l.079 1.792c1.09-1.37 2.514-2.056 4.272-2.056 3.014 0 4.535 1.7 4.561 5.102V33h-2.439v-9.44c-.009-1.028-.246-1.788-.712-2.28-.457-.492-1.173-.739-2.149-.739-.791 0-1.485.211-2.083.633a4.302 4.302 0 00-1.397 1.661V33h-2.439V18.735h2.307zm11.997 7.013c0-2.188.519-3.946 1.556-5.273 1.037-1.336 2.395-2.004 4.074-2.004 1.67 0 2.992.571 3.968 1.713V12.75h2.439V33h-2.241l-.119-1.53c-.976 1.196-2.334 1.794-4.074 1.794-1.652 0-3.001-.677-4.047-2.03-1.037-1.354-1.556-3.12-1.556-5.3v-.185zm2.439.277c0 1.617.334 2.883 1.002 3.797.668.914 1.591 1.37 2.769 1.37 1.547 0 2.676-.694 3.388-2.082v-6.552c-.73-1.345-1.85-2.018-3.362-2.018-1.195 0-2.127.462-2.795 1.385-.668.923-1.002 2.29-1.002 4.1zm24.759 3.401l3.322-10.692h2.611l-5.735 16.467c-.888 2.373-2.299 3.56-4.232 3.56l-.462-.04-.909-.172v-1.977l.659.053c.826 0 1.468-.167 1.925-.502.465-.334.848-.944 1.147-1.832l.54-1.45-5.089-14.107h2.663l3.56 10.692zm7.264-3.691c0-1.398.273-2.655.817-3.77.554-1.117 1.319-1.978 2.294-2.585.985-.606 2.105-.91 3.362-.91 1.943 0 3.511.673 4.707 2.018 1.204 1.345 1.806 3.133 1.806 5.366v.17c0 1.39-.268 2.638-.804 3.745-.528 1.099-1.288 1.956-2.281 2.57-.984.616-2.118.924-3.401.924-1.934 0-3.503-.673-4.707-2.017-1.195-1.345-1.793-3.125-1.793-5.34v-.171zm2.452.29c0 1.582.365 2.852 1.094 3.81.739.958 1.723 1.437 2.954 1.437 1.239 0 2.223-.483 2.953-1.45.729-.976 1.094-2.338 1.094-4.087 0-1.565-.374-2.83-1.121-3.797-.738-.976-1.722-1.463-2.953-1.463-1.204 0-2.175.479-2.913 1.437-.739.958-1.108 2.329-1.108 4.113zm22.399 5.563c-.949 1.117-2.342 1.675-4.179 1.675-1.521 0-2.681-.44-3.48-1.319-.792-.887-1.191-2.197-1.2-3.928v-9.282h2.439v9.216c0 2.162.879 3.243 2.636 3.243 1.864 0 3.103-.694 3.718-2.083V18.735h2.439V33h-2.32l-.053-1.41zm12.986-10.665a7.31 7.31 0 00-1.2-.093c-1.599 0-2.685.682-3.256 2.044V33h-2.439V18.735h2.373l.04 1.648c.799-1.274 1.933-1.911 3.401-1.911.475 0 .835.061 1.081.184v2.268zM15.961 50.735l.066 1.582c1.046-1.23 2.456-1.845 4.232-1.845 1.995 0 3.353.764 4.073 2.294a5.423 5.423 0 011.846-1.661c.765-.422 1.666-.633 2.703-.633 3.129 0 4.72 1.656 4.772 4.97V65h-2.439v-9.413c0-1.02-.233-1.78-.698-2.28-.466-.51-1.248-.766-2.347-.766-.905 0-1.657.273-2.254.818-.598.536-.945 1.261-1.042 2.175V65h-2.452v-9.347c0-2.074-1.015-3.111-3.046-3.111-1.6 0-2.693.68-3.282 2.043V65h-2.44V50.735h2.308zm27.303 14.529c-1.933 0-3.507-.633-4.72-1.899-1.212-1.274-1.819-2.975-1.819-5.102v-.448c0-1.415.268-2.676.804-3.784.545-1.116 1.301-1.986 2.268-2.61a5.704 5.704 0 013.164-.95c1.854 0 3.296.612 4.324 1.833 1.029 1.222 1.543 2.97 1.543 5.247v1.015h-9.664c.035 1.407.444 2.545 1.226 3.415.791.861 1.793 1.292 3.006 1.292.861 0 1.59-.176 2.188-.527a5.5 5.5 0 001.57-1.398l1.49 1.16c-1.196 1.837-2.99 2.756-5.38 2.756zm-.303-12.788c-.984 0-1.81.36-2.479 1.08-.667.713-1.08 1.715-1.239 3.007h7.146v-.185c-.07-1.24-.405-2.197-1.002-2.874-.598-.686-1.407-1.028-2.426-1.028zm17.007 8.74c0-.659-.25-1.169-.752-1.529-.492-.37-1.358-.685-2.597-.95-1.23-.263-2.21-.58-2.94-.948-.72-.37-1.257-.809-1.608-1.319-.343-.51-.514-1.116-.514-1.82 0-1.168.492-2.157 1.476-2.965.993-.809 2.259-1.213 3.797-1.213 1.617 0 2.927.417 3.929 1.252 1.01.835 1.516 1.903 1.516 3.204h-2.452c0-.668-.286-1.244-.857-1.727-.563-.484-1.275-.725-2.136-.725-.888 0-1.582.193-2.083.58-.5.386-.751.892-.751 1.516 0 .589.232 1.032.698 1.331.466.3 1.305.585 2.518.857 1.222.273 2.21.598 2.967.976.756.378 1.314.835 1.674 1.37.37.528.554 1.174.554 1.939 0 1.274-.51 2.298-1.53 3.072-1.02.764-2.342 1.147-3.968 1.147-1.142 0-2.153-.203-3.032-.607-.879-.404-1.569-.967-2.07-1.687a4.139 4.139 0 01-.738-2.36h2.439c.044.817.369 1.468.975 1.951.616.475 1.424.712 2.426.712.923 0 1.661-.185 2.215-.554.563-.378.844-.879.844-1.503zm13.922 0c0-.659-.25-1.169-.752-1.529-.492-.37-1.358-.685-2.597-.95-1.23-.263-2.21-.58-2.94-.948-.72-.37-1.257-.809-1.608-1.319-.343-.51-.514-1.116-.514-1.82 0-1.168.492-2.157 1.476-2.965.993-.809 2.259-1.213 3.797-1.213 1.617 0 2.927.417 3.929 1.252 1.01.835 1.516 1.903 1.516 3.204h-2.452c0-.668-.286-1.244-.857-1.727-.563-.484-1.275-.725-2.136-.725-.888 0-1.582.193-2.083.58-.501.386-.751.892-.751 1.516 0 .589.232 1.032.698 1.331.466.3 1.305.585 2.518.857 1.222.273 2.21.598 2.967.976.755.378 1.314.835 1.674 1.37.369.528.554 1.174.554 1.939 0 1.274-.51 2.298-1.53 3.072-1.02.764-2.342 1.147-3.968 1.147-1.142 0-2.153-.203-3.032-.607-.88-.404-1.569-.967-2.07-1.687a4.139 4.139 0 01-.738-2.36h2.439c.044.817.369 1.468.975 1.951.615.475 1.424.712 2.426.712.923 0 1.661-.185 2.215-.554.562-.378.844-.879.844-1.503zM88.312 65c-.14-.281-.254-.782-.342-1.503-1.134 1.178-2.488 1.767-4.06 1.767-1.407 0-2.563-.396-3.468-1.187-.897-.8-1.345-1.81-1.345-3.032 0-1.485.563-2.637 1.688-3.454 1.133-.826 2.724-1.24 4.772-1.24h2.373v-1.12c0-.853-.255-1.53-.765-2.03-.51-.51-1.26-.765-2.254-.765-.87 0-1.6.22-2.188.66-.59.439-.884.97-.884 1.594h-2.452c0-.712.25-1.397.752-2.056.51-.668 1.195-1.196 2.056-1.582.87-.387 1.824-.58 2.861-.58 1.644 0 2.931.413 3.863 1.239.932.817 1.415 1.947 1.45 3.388v6.566c0 1.31.167 2.35.501 3.124V65h-2.558zm-4.047-1.859c.765 0 1.49-.198 2.175-.593.686-.396 1.183-.91 1.49-1.543V58.08H86.02c-2.989 0-4.483.874-4.483 2.623 0 .765.255 1.363.765 1.793.51.43 1.164.646 1.964.646zm9.347-5.392c0-2.224.514-3.99 1.543-5.3 1.028-1.318 2.39-1.977 4.087-1.977 1.74 0 3.098.615 4.073 1.845l.119-1.582h2.228v13.922c0 1.846-.549 3.3-1.648 4.364-1.09 1.064-2.557 1.595-4.403 1.595a7.336 7.336 0 01-3.02-.659c-.984-.44-1.735-1.041-2.254-1.806l1.266-1.463c1.046 1.291 2.325 1.938 3.837 1.938 1.186 0 2.109-.335 2.768-1.002.668-.668 1.002-1.609 1.002-2.822v-1.226c-.976 1.125-2.307 1.688-3.995 1.688-1.67 0-3.023-.673-4.06-2.017-1.029-1.345-1.543-3.178-1.543-5.498zm2.453.277c0 1.608.329 2.874.988 3.797.66.914 1.582 1.37 2.769 1.37 1.538 0 2.667-.698 3.388-2.095v-6.513c-.747-1.362-1.868-2.044-3.362-2.044-1.186 0-2.114.462-2.782 1.385-.668.923-1.002 2.29-1.002 4.1zm19.208 7.238c-1.934 0-3.507-.633-4.72-1.899-1.213-1.274-1.819-2.975-1.819-5.102v-.448c0-1.415.268-2.676.804-3.784.545-1.116 1.301-1.986 2.268-2.61a5.702 5.702 0 013.164-.95c1.854 0 3.296.612 4.324 1.833 1.028 1.222 1.542 2.97 1.542 5.247v1.015h-9.663c.035 1.407.444 2.545 1.226 3.415.791.861 1.793 1.292 3.006 1.292.861 0 1.591-.176 2.188-.527a5.492 5.492 0 001.569-1.398l1.49 1.16c-1.195 1.837-2.988 2.756-5.379 2.756zm-.303-12.788c-.985 0-1.811.36-2.479 1.08-.668.713-1.081 1.715-1.239 3.007h7.145v-.185c-.07-1.24-.404-2.197-1.001-2.874-.598-.686-1.407-1.028-2.426-1.028zm17.007 8.74c0-.659-.251-1.169-.752-1.529-.492-.37-1.358-.685-2.597-.95-1.231-.263-2.211-.58-2.94-.948-.721-.37-1.257-.809-1.608-1.319-.343-.51-.515-1.116-.515-1.82 0-1.168.493-2.157 1.477-2.965.993-.809 2.259-1.213 3.797-1.213 1.617 0 2.927.417 3.929 1.252 1.01.835 1.516 1.903 1.516 3.204h-2.452c0-.668-.286-1.244-.857-1.727-.563-.484-1.275-.725-2.136-.725-.888 0-1.582.193-2.083.58-.501.386-.752.892-.752 1.516 0 .589.233 1.032.699 1.331.466.3 1.305.585 2.518.857 1.222.273 2.211.598 2.967.976.755.378 1.313.835 1.674 1.37.369.528.554 1.174.554 1.939 0 1.274-.51 2.298-1.53 3.072-1.019.764-2.342 1.147-3.968 1.147-1.143 0-2.153-.203-3.032-.607-.879-.404-1.569-.967-2.07-1.687a4.14 4.14 0 01-.738-2.36h2.439c.044.817.369 1.468.975 1.951.615.475 1.424.712 2.426.712.923 0 1.661-.185 2.215-.554.562-.378.844-.879.844-1.503zm18.232 4.048c-1.933 0-3.506-.633-4.719-1.899-1.213-1.274-1.82-2.975-1.82-5.102v-.448c0-1.415.268-2.676.805-3.784.545-1.116 1.3-1.986 2.267-2.61a5.705 5.705 0 013.164-.95c1.855 0 3.296.612 4.324 1.833 1.029 1.222 1.543 2.97 1.543 5.247v1.015h-9.664c.036 1.407.444 2.545 1.226 3.415.791.861 1.793 1.292 3.006 1.292.862 0 1.591-.176 2.189-.527a5.518 5.518 0 001.569-1.398l1.489 1.16c-1.195 1.837-2.988 2.756-5.379 2.756zm-.303-12.788c-.984 0-1.81.36-2.478 1.08-.668.713-1.081 1.715-1.24 3.007h7.146v-.185c-.07-1.24-.404-2.197-1.002-2.874-.598-.686-1.406-1.028-2.426-1.028zm13.223 9.215l3.534-10.956h2.491L164.039 65h-1.859l-5.168-14.265h2.492l3.625 10.956zm14.107 3.573c-1.934 0-3.507-.633-4.72-1.899-1.213-1.274-1.819-2.975-1.819-5.102v-.448c0-1.415.268-2.676.804-3.784.545-1.116 1.301-1.986 2.268-2.61a5.702 5.702 0 013.164-.95c1.854 0 3.296.612 4.324 1.833 1.028 1.222 1.542 2.97 1.542 5.247v1.015h-9.663c.035 1.407.444 2.545 1.226 3.415.791.861 1.793 1.292 3.006 1.292.861 0 1.59-.176 2.188-.527a5.492 5.492 0 001.569-1.398l1.49 1.16c-1.196 1.837-2.989 2.756-5.379 2.756zm-.303-12.788c-.985 0-1.811.36-2.479 1.08-.668.713-1.081 1.715-1.239 3.007h7.145v-.185c-.07-1.24-.404-2.197-1.002-2.874-.597-.686-1.406-1.028-2.425-1.028zm15.596.448a7.31 7.31 0 00-1.2-.093c-1.6 0-2.685.682-3.256 2.044V65h-2.439V50.735h2.373l.039 1.648c.8-1.274 1.934-1.911 3.402-1.911.474 0 .835.061 1.081.184v2.268zm7.159 8.503l3.322-10.692h2.61l-5.735 16.467c-.887 2.373-2.298 3.56-4.232 3.56l-.461-.04-.91-.172v-1.977l.659.053c.827 0 1.468-.168 1.925-.502.466-.334.848-.944 1.147-1.832l.541-1.45-5.089-14.107h2.663l3.56 10.692zm20.75.211l2.743-10.903h2.439L221.467 65h-1.978l-3.467-10.81L212.647 65h-1.978l-4.139-14.265h2.426l2.808 10.68 3.322-10.68h1.964l3.388 10.903zm10.112-9.176c1.081-1.327 2.488-1.99 4.219-1.99 3.015 0 4.535 1.7 4.562 5.102V65h-2.439v-9.44c-.009-1.028-.246-1.788-.712-2.28-.457-.492-1.174-.739-2.149-.739-.791 0-1.486.211-2.083.633a4.296 4.296 0 00-1.398 1.661V65h-2.439V44.75h2.439v7.712zm18.352 12.802c-1.934 0-3.507-.633-4.72-1.899-1.213-1.274-1.819-2.975-1.819-5.102v-.448c0-1.415.268-2.676.804-3.784.545-1.116 1.301-1.986 2.268-2.61a5.702 5.702 0 013.164-.95c1.854 0 3.296.612 4.324 1.833 1.028 1.222 1.542 2.97 1.542 5.247v1.015h-9.663c.035 1.407.444 2.545 1.226 3.415.791.861 1.793 1.292 3.006 1.292.861 0 1.591-.176 2.188-.527a5.492 5.492 0 001.569-1.398l1.49 1.16c-1.196 1.837-2.989 2.756-5.379 2.756zm-.303-12.788c-.985 0-1.811.36-2.479 1.08-.668.713-1.081 1.715-1.239 3.007h7.145v-.185c-.07-1.24-.404-2.197-1.002-2.874-.597-.686-1.406-1.028-2.425-1.028zm15.596.448a7.31 7.31 0 00-1.2-.093c-1.599 0-2.685.682-3.256 2.044V65H257.3V50.735h2.373l.039 1.648c.8-1.274 1.934-1.911 3.402-1.911.474 0 .835.061 1.081.184v2.268zm7.91 12.34c-1.934 0-3.507-.633-4.72-1.899-1.213-1.274-1.819-2.975-1.819-5.102v-.448c0-1.415.268-2.676.804-3.784.545-1.116 1.301-1.986 2.268-2.61a5.702 5.702 0 013.164-.95c1.854 0 3.296.612 4.324 1.833 1.028 1.222 1.542 2.97 1.542 5.247v1.015h-9.663c.035 1.407.444 2.545 1.226 3.415.791.861 1.793 1.292 3.006 1.292.861 0 1.591-.176 2.188-.527a5.492 5.492 0 001.569-1.398l1.49 1.16c-1.195 1.837-2.988 2.756-5.379 2.756zm-.303-12.788c-.985 0-1.811.36-2.479 1.08-.668.713-1.081 1.715-1.239 3.007h7.145v-.185c-.07-1.24-.404-2.197-1.001-2.874-.598-.686-1.407-1.028-2.426-1.028zM296.007 65c-.141-.281-.255-.782-.343-1.503-1.134 1.178-2.487 1.767-4.06 1.767-1.407 0-2.562-.396-3.468-1.187-.896-.8-1.344-1.81-1.344-3.032 0-1.485.562-2.637 1.687-3.454 1.134-.826 2.725-1.24 4.772-1.24h2.374v-1.12c0-.853-.255-1.53-.765-2.03-.51-.51-1.261-.765-2.255-.765-.87 0-1.599.22-2.188.66-.589.439-.883.97-.883 1.594h-2.452c0-.712.25-1.397.751-2.056.51-.668 1.195-1.196 2.057-1.582.87-.387 1.823-.58 2.86-.58 1.644 0 2.932.413 3.863 1.239.932.817 1.415 1.947 1.45 3.388v6.566c0 1.31.167 2.35.501 3.124V65h-2.557zm-4.048-1.859a4.29 4.29 0 002.176-.593c.685-.396 1.182-.91 1.49-1.543V58.08h-1.912c-2.988 0-4.483.874-4.483 2.623 0 .765.255 1.363.765 1.793.51.43 1.165.646 1.964.646zm12.235-12.406l.079 1.793c1.09-1.37 2.514-2.056 4.271-2.056 3.015 0 4.536 1.7 4.562 5.102V65h-2.439v-9.44c-.009-1.028-.246-1.788-.712-2.28-.457-.492-1.173-.739-2.149-.739-.791 0-1.485.211-2.083.633a4.294 4.294 0 00-1.397 1.661V65h-2.439V50.735h2.307zm11.997 7.014c0-2.189.518-3.946 1.556-5.273 1.037-1.336 2.395-2.004 4.073-2.004 1.67 0 2.993.571 3.969 1.713V44.75h2.439V65h-2.242l-.118-1.53c-.976 1.196-2.334 1.794-4.074 1.794-1.652 0-3.002-.677-4.047-2.03-1.038-1.354-1.556-3.12-1.556-5.3v-.185zm2.439.277c0 1.617.334 2.883 1.002 3.797.668.914 1.591 1.37 2.768 1.37 1.547 0 2.677-.694 3.389-2.082v-6.552c-.73-1.345-1.851-2.017-3.362-2.017-1.196 0-2.127.46-2.795 1.384-.668.923-1.002 2.29-1.002 4.1zM120.309 97.264c-1.934 0-3.507-.633-4.72-1.899-1.213-1.274-1.819-2.975-1.819-5.102v-.448c0-1.415.268-2.676.804-3.784.545-1.116 1.301-1.986 2.268-2.61a5.702 5.702 0 013.164-.95c1.854 0 3.296.611 4.324 1.833s1.543 2.97 1.543 5.247v1.015h-9.664c.035 1.407.444 2.545 1.226 3.415.791.861 1.793 1.292 3.006 1.292.861 0 1.591-.176 2.188-.527a5.492 5.492 0 001.569-1.398l1.49 1.16c-1.195 1.837-2.988 2.756-5.379 2.756zm-.303-12.788c-.985 0-1.811.36-2.479 1.08-.668.713-1.081 1.715-1.239 3.007h7.146v-.185c-.071-1.24-.405-2.197-1.002-2.874-.598-.686-1.407-1.028-2.426-1.028zm13.223 9.215l3.533-10.956h2.492L134.139 97h-1.859l-5.168-14.265h2.492l3.625 10.956zm14.106 3.573c-1.933 0-3.506-.633-4.719-1.899-1.213-1.274-1.82-2.975-1.82-5.102v-.448c0-1.415.268-2.676.805-3.784.545-1.116 1.3-1.986 2.267-2.61a5.705 5.705 0 013.164-.95c1.855 0 3.296.611 4.324 1.833 1.029 1.222 1.543 2.97 1.543 5.247v1.015h-9.664c.036 1.407.444 2.545 1.226 3.415.791.861 1.793 1.292 3.006 1.292.862 0 1.591-.176 2.189-.527a5.518 5.518 0 001.569-1.398l1.489 1.16c-1.195 1.837-2.988 2.756-5.379 2.756zm-.303-12.788c-.984 0-1.81.36-2.478 1.08-.668.713-1.081 1.715-1.24 3.007h7.146v-.185c-.07-1.24-.404-2.197-1.002-2.874-.598-.686-1.406-1.028-2.426-1.028zm15.596.448a7.307 7.307 0 00-1.199-.093c-1.6 0-2.685.682-3.257 2.044V97h-2.439V82.735h2.373l.04 1.648c.8-1.274 1.934-1.911 3.401-1.911.475 0 .835.061 1.081.184v2.268zm7.159 8.503l3.322-10.692h2.611l-5.735 16.467c-.888 2.373-2.298 3.559-4.232 3.559l-.461-.039-.91-.172v-1.977l.659.052c.826 0 1.468-.167 1.925-.5.466-.335.848-.945 1.147-1.833l.54-1.45-5.089-14.107h2.664l3.559 10.692zm11.43-14.146v3.454h2.663v1.886h-2.663v8.846c0 .571.119 1.002.356 1.292.238.281.642.422 1.213.422.281 0 .668-.053 1.16-.159V97a7.063 7.063 0 01-1.872.264c-1.09 0-1.911-.33-2.465-.99-.554-.658-.831-1.594-.831-2.807V84.62h-2.597v-1.886h2.597v-3.454h2.439zM189.391 97h-2.439V82.735h2.439V97zm-2.637-18.048c0-.396.119-.73.356-1.002.246-.273.607-.409 1.081-.409.475 0 .835.136 1.081.409.247.272.37.606.37 1.002 0 .395-.123.725-.37.988-.246.264-.606.396-1.081.396-.474 0-.835-.132-1.081-.396-.237-.263-.356-.593-.356-.988zm8.847 3.783l.066 1.582c1.045-1.23 2.456-1.845 4.231-1.845 1.996 0 3.353.764 4.074 2.294a5.426 5.426 0 011.846-1.662c.765-.421 1.665-.632 2.703-.632 3.128 0 4.719 1.656 4.772 4.97V97h-2.439v-9.413c0-1.02-.233-1.78-.699-2.28-.466-.51-1.248-.766-2.346-.766-.906 0-1.657.273-2.255.818-.597.536-.945 1.261-1.041 2.175V97h-2.452v-9.347c0-2.074-1.016-3.112-3.046-3.112-1.599 0-2.694.682-3.283 2.044V97h-2.439V82.735h2.308zm27.303 14.529c-1.934 0-3.507-.633-4.72-1.899-1.213-1.274-1.819-2.975-1.819-5.102v-.448c0-1.415.268-2.676.804-3.784.545-1.116 1.301-1.986 2.268-2.61a5.702 5.702 0 013.164-.95c1.854 0 3.295.611 4.324 1.833 1.028 1.222 1.542 2.97 1.542 5.247v1.015h-9.663c.035 1.407.444 2.545 1.226 3.415.791.861 1.793 1.292 3.006 1.292.861 0 1.59-.176 2.188-.527a5.492 5.492 0 001.569-1.398l1.49 1.16c-1.196 1.837-2.989 2.756-5.379 2.756zm-.303-12.788c-.985 0-1.811.36-2.479 1.08-.668.713-1.081 1.715-1.239 3.007h7.145v-.185c-.07-1.24-.404-2.197-1.002-2.874-.597-.686-1.406-1.028-2.425-1.028z"/>
</svg>
