<svg xmlns="http://www.w3.org/2000/svg" width="800" height="425" fill="none" viewBox="0 0 800 425">
  <g filter="url(#filter0_d)">
    <path fill="#000" d="M165.91 246.441c0-.4.142-.737.425-1.01a1.442 1.442 0 011.04-.425l11.938-.015h.015c.4 0 .742.147 1.025.44.293.283.44.625.44 1.025 0 .4-.147.747-.44 1.04a1.398 1.398 0 01-1.025.425h-.015l-10.473.015.014 5.332 7.632-.074h.161c.391 0 .708.157.952.469.245.313.367.615.367.908 0 .42-.137.786-.411 1.099-.273.303-.625.454-1.054.454l-7.632.073.015 8.526v.029c0 .391-.147.727-.44 1.011a1.398 1.398 0 01-1.025.425c-.401 0-.747-.142-1.04-.425a1.379 1.379 0 01-.425-1.011v-.015l-.044-18.296zm27.741 3.531c1.123 0 2.168.215 3.135.644a7.993 7.993 0 012.563 1.787 8.398 8.398 0 011.714 2.622c.42.987.63 2.037.63 3.15a7.88 7.88 0 01-.63 3.12 8.37 8.37 0 01-1.743 2.593 8.219 8.219 0 01-2.563 1.758 7.572 7.572 0 01-3.106.644 7.772 7.772 0 01-3.105-.63 8.23 8.23 0 01-2.564-1.743 8.317 8.317 0 01-1.728-2.578 7.99 7.99 0 01-.63-3.164c0-1.113.21-2.163.63-3.15a8.448 8.448 0 011.728-2.607 8.194 8.194 0 012.564-1.787 7.404 7.404 0 013.105-.659zm-5.068 8.232c0 .947.229 1.812.688 2.593a5.348 5.348 0 001.861 1.846 4.863 4.863 0 002.534.688c.937 0 1.787-.234 2.549-.703a5.312 5.312 0 001.831-1.89 4.966 4.966 0 00.688-2.563c0-.947-.224-1.817-.674-2.608a5.236 5.236 0 00-1.831-1.919c-.761-.478-1.621-.717-2.578-.717-.967 0-1.831.244-2.593.732a5.278 5.278 0 00-2.475 4.541zm21.149-5.918a14.506 14.506 0 011.89-1.538c.742-.508 1.601-.762 2.578-.762 1.279 0 2.344.342 3.193 1.026.85.674 1.475 1.46 1.875 2.358.313.713.498 1.421.557 2.124.068.694.102 1.348.102 1.963v7.397c0 .401-.146.748-.439 1.041a1.397 1.397 0 01-1.025.424c-.401 0-.747-.141-1.04-.424a1.444 1.444 0 01-.425-1.041v-7.397c0-.576-.029-1.108-.088-1.597a4.165 4.165 0 00-.322-1.289 3.122 3.122 0 00-.865-1.142c-.39-.342-.888-.513-1.494-.513-1.445 0-2.558.552-3.34 1.655-.771 1.104-1.152 2.593-1.142 4.468l.014 5.845c0 .4-.146.747-.439 1.04a1.398 1.398 0 01-1.025.425c-.411 0-.757-.142-1.04-.425a1.462 1.462 0 01-.425-1.055l-.03-13.462c0-.4.108-.742.323-1.025.224-.293.537-.44.937-.44.401 0 .708.147.923.44.215.283.381.625.498 1.025l.249.879zm18.249-4.936c0-.401.142-.743.425-1.026a1.39 1.39 0 011.04-.439c.4 0 .742.146 1.025.439.293.283.44.625.44 1.026v2.915h1.963c.381 0 .708.136.981.41.274.273.41.6.41.981s-.136.708-.41.982c-.273.273-.6.41-.981.41h-1.978l-.014 9.067v.03c0 .478.053.81.161.996.107.175.327.263.659.263.42 0 .791-.112 1.113-.337.117-.078.259-.146.425-.205a1.27 1.27 0 01.483-.102c.401 0 .743.141 1.026.425.293.283.439.625.439 1.025 0 .478-.195.864-.586 1.157a5.156 5.156 0 01-1.274.703 4.209 4.209 0 01-1.538.279c-1.231 0-2.178-.376-2.842-1.128-.664-.762-.996-1.709-.996-2.842v-.132l.015-9.185h-1.89c-.381 0-.708-.136-.982-.41-.273-.273-.41-.6-.41-.981s.137-.708.41-.982c.274-.273.601-.41.982-.41h1.904v-2.929zm12.024 16.626c0-.528.19-1.011.571-1.451.391-.439.84-.659 1.348-.659.459 0 .839.078 1.142.235.947.507 1.421 1.337 1.421 2.49 0 .537-.102 1.147-.308 1.831-.478 1.592-1.328 2.793-2.548 3.603a1.023 1.023 0 01-.586.191.965.965 0 01-.718-.322 1.116 1.116 0 01-.293-.777c0-.322.171-.6.513-.835.791-.517 1.323-1.25 1.596-2.197h-.029a2.066 2.066 0 01-1.494-.615 2.066 2.066 0 01-.615-1.494zm38.988-5.743c.351 0 .669.142.952.425.293.274.44.581.44.923 0 .273-.049.508-.147.703-.488 1.074-1.182 2.075-2.08 3.003a10.26 10.26 0 01-3.179 2.212c-1.23.557-2.612.835-4.145.835-1.514 0-2.881-.288-4.102-.864a9.489 9.489 0 01-3.135-2.359 11.048 11.048 0 01-1.992-3.457 12.428 12.428 0 01-.688-4.145c0-1.436.234-2.803.703-4.102a10.714 10.714 0 012.007-3.442 9.427 9.427 0 013.12-2.373c1.211-.576 2.558-.864 4.043-.864 1.504 0 2.866.268 4.087.805a10.225 10.225 0 013.193 2.124c.908.879 1.616 1.846 2.124 2.901.108.205.161.42.161.644 0 .361-.132.694-.395.996-.254.293-.552.44-.894.44a2.01 2.01 0 01-.908-.205 1.43 1.43 0 01-.601-.645c-.547-1.133-1.406-2.104-2.578-2.915-1.162-.811-2.558-1.216-4.189-1.216-1.416 0-2.647.362-3.692 1.084-1.035.723-1.836 1.685-2.402 2.886-.566 1.191-.85 2.495-.85 3.911 0 1.426.279 2.734.835 3.926.567 1.191 1.368 2.143 2.403 2.856 1.045.713 2.285 1.07 3.72 1.07 1.075 0 2.056-.196 2.945-.586a7.691 7.691 0 002.329-1.582c.654-.655 1.152-1.358 1.494-2.11.264-.586.737-.879 1.421-.879zm13.869-8.261c1.123 0 2.168.215 3.135.644a7.993 7.993 0 012.563 1.787 8.398 8.398 0 011.714 2.622c.42.987.63 2.037.63 3.15a7.88 7.88 0 01-.63 3.12 8.37 8.37 0 01-1.743 2.593 8.219 8.219 0 01-2.563 1.758 7.572 7.572 0 01-3.106.644 7.772 7.772 0 01-3.105-.63 8.23 8.23 0 01-2.564-1.743 8.317 8.317 0 01-1.728-2.578 7.99 7.99 0 01-.63-3.164c0-1.113.21-2.163.63-3.15a8.448 8.448 0 011.728-2.607 8.194 8.194 0 012.564-1.787 7.404 7.404 0 013.105-.659zm-5.068 8.232c0 .947.229 1.812.688 2.593a5.348 5.348 0 001.861 1.846 4.863 4.863 0 002.534.688c.937 0 1.787-.234 2.549-.703a5.312 5.312 0 001.831-1.89 4.966 4.966 0 00.688-2.563c0-.947-.225-1.817-.674-2.608a5.236 5.236 0 00-1.831-1.919c-.762-.478-1.621-.717-2.578-.717-.967 0-1.831.244-2.593.732a5.278 5.278 0 00-2.475 4.541zm19.611-13.564c.469 0 .845.156 1.128.468.283.303.42.635.41.996v18.868c0 .39-.156.708-.469.952-.302.234-.605.351-.908.351a1.61 1.61 0 01-1.098-.41 1.356 1.356 0 01-.455-1.054v-18.707c0-.371.132-.708.396-1.01a1.29 1.29 0 01.996-.454zm14.689 5.332a7.64 7.64 0 013.135.644 7.997 7.997 0 012.564 1.787 8.433 8.433 0 011.714 2.622 7.96 7.96 0 01.629 3.15 7.878 7.878 0 01-.629 3.12 8.356 8.356 0 01-1.744 2.593 8.207 8.207 0 01-2.563 1.758 7.572 7.572 0 01-3.106.644 7.779 7.779 0 01-3.105-.63 8.226 8.226 0 01-2.563-1.743 8.302 8.302 0 01-1.729-2.578 7.99 7.99 0 01-.63-3.164c0-1.113.21-2.163.63-3.15a8.433 8.433 0 011.729-2.607 8.19 8.19 0 012.563-1.787 7.408 7.408 0 013.105-.659zm-5.068 8.232c0 .947.23 1.812.689 2.593a5.337 5.337 0 001.86 1.846 4.863 4.863 0 002.534.688c.938 0 1.787-.234 2.549-.703a5.304 5.304 0 001.831-1.89 4.966 4.966 0 00.688-2.563c0-.947-.224-1.817-.673-2.608-.45-.8-1.06-1.44-1.831-1.919-.762-.478-1.621-.717-2.579-.717-.966 0-1.831.244-2.592.732a5.28 5.28 0 00-1.817 1.919 5.312 5.312 0 00-.659 2.622zm28.005-6.387c0 .782-.376 1.216-1.128 1.304-.273.029-.62-.059-1.04-.264a2.783 2.783 0 00-1.274-.322c-.85 0-1.524.22-2.022.659-.498.43-.854 1.011-1.069 1.744-.215.732-.322 1.552-.322 2.46v7.559c0 .43-.132.772-.396 1.025-.254.254-.61.381-1.069.381-.45 0-.806-.127-1.07-.381-.263-.253-.395-.6-.395-1.04v-13.491c0-.439.107-.801.322-1.084.225-.283.527-.425.908-.425.225 0 .484.098.777.293.302.186.512.508.63.967l.146 1.055c.127-.274.371-.591.732-.952a5.332 5.332 0 011.29-.938 3.187 3.187 0 011.552-.41c.996 0 1.817.117 2.461.352.645.224.967.727.967 1.508zm4.831 12.159c0-.528.19-1.011.571-1.451.391-.439.84-.659 1.348-.659.459 0 .84.078 1.143.235.947.507 1.42 1.337 1.42 2.49 0 .537-.102 1.147-.307 1.831-.479 1.592-1.328 2.793-2.549 3.603a1.023 1.023 0 01-.586.191.967.967 0 01-.718-.322 1.116 1.116 0 01-.293-.777c0-.322.171-.6.513-.835.791-.517 1.323-1.25 1.597-2.197h-.03a2.066 2.066 0 01-1.494-.615 2.066 2.066 0 01-.615-1.494zm21.63-8.804v-.191l-.015-8.452c0-.4.142-.742.425-1.025.283-.283.62-.43 1.011-.44l3.852-.073c.215-.01.425-.014.63-.014h.601c1.074 0 2.119.117 3.135.351a9.144 9.144 0 012.724 1.084 5.51 5.51 0 011.919 1.904c.479.772.718 1.7.718 2.784 0 1.406-.483 2.617-1.45 3.632.683.498 1.24 1.158 1.67 1.978.429.811.644 1.753.644 2.827 0 1.387-.298 2.559-.893 3.516a5.776 5.776 0 01-2.461 2.168c-1.045.498-2.246.761-3.604.791l-7.397.014h-.03a1.447 1.447 0 01-1.464-1.464l-.015-9.39zm12.07-3.984c0-.889-.302-1.568-.908-2.037-.596-.478-1.348-.805-2.256-.981a14.13 14.13 0 00-2.724-.264 6.23 6.23 0 00-.425.015h-.425l-2.417.044.015 5.639 5.639-.087a7.796 7.796 0 001.685-.205c.537-.137.972-.372 1.304-.704.341-.341.512-.815.512-1.42zm-3.222 11.894c1.308-.02 2.314-.298 3.017-.835.713-.547 1.07-1.475 1.07-2.783 0-1.162-.386-1.953-1.158-2.373-.771-.43-1.758-.645-2.959-.645h-.19l-5.698.088.014 6.533 5.904.015zm20.607-13.184a5.3 5.3 0 012.109.44 7.147 7.147 0 011.846 1.084c.547.43.952.874 1.216 1.333l.161-1.406c0-.401.117-.743.352-1.026.234-.293.551-.439.952-.439.4 0 .742.146 1.025.439.293.283.44.625.44 1.026v.029l-.03 13.564c0 .401-.146.747-.439 1.04a1.394 1.394 0 01-1.026.425c-.4 0-.717-.141-.952-.425a1.615 1.615 0 01-.351-1.04l-.161-1.171c-.508.869-1.25 1.518-2.227 1.948-.977.42-1.958.63-2.944.63a7.556 7.556 0 01-3.106-.645 8.22 8.22 0 01-2.549-1.802 8.612 8.612 0 01-1.728-2.622 8.045 8.045 0 01-.615-3.12c0-1.084.2-2.119.6-3.105.41-.996.977-1.88 1.699-2.652a8.03 8.03 0 012.549-1.831 7.519 7.519 0 013.179-.674zm5.054 8.233c0-.957-.225-1.836-.674-2.637a5.27 5.27 0 00-1.802-1.933c-.762-.489-1.631-.733-2.607-.733-.957 0-1.822.244-2.593.733a5.304 5.304 0 00-1.831 1.948 5.244 5.244 0 00-.674 2.607c0 .947.23 1.826.689 2.637a5.481 5.481 0 001.845 1.934 4.771 4.771 0 002.578.732c.938 0 1.787-.244 2.549-.732a5.35 5.35 0 001.831-1.934 5.237 5.237 0 00.689-2.622zm8.39-.015a8.43 8.43 0 012.183-5.698 7.79 7.79 0 012.417-1.802 6.968 6.968 0 013.018-.659c1.074 0 2.045.21 2.915.63.878.41 1.63.957 2.255 1.641a6.826 6.826 0 011.421 2.211c.069.166.103.352.103.557 0 .4-.147.747-.44 1.04a1.398 1.398 0 01-1.025.425c-.273 0-.542-.093-.806-.278a1.533 1.533 0 01-.556-.674c-.274-.703-.752-1.314-1.436-1.831-.674-.528-1.484-.791-2.431-.791-.889 0-1.69.249-2.403.747a5.215 5.215 0 00-1.67 1.919 5.487 5.487 0 00-.615 2.563c0 .928.21 1.802.63 2.622.42.811.996 1.47 1.728 1.978a4.304 4.304 0 002.476.747c.898 0 1.675-.225 2.329-.674.654-.459 1.148-.991 1.48-1.597.117-.214.302-.395.556-.542.254-.156.503-.234.747-.234.401 0 .743.146 1.026.439.293.284.439.625.439 1.026 0 .244-.063.483-.19.718-.557 1.025-1.387 1.914-2.49 2.666-1.104.752-2.403 1.128-3.897 1.128-1.113 0-2.144-.22-3.091-.66a7.939 7.939 0 01-2.461-1.831 8.713 8.713 0 01-1.626-2.636 8.563 8.563 0 01-.586-3.15zm19.597-11.997c0-.4.142-.742.425-1.025.293-.293.639-.44 1.04-.44.4 0 .742.147 1.025.44.293.283.44.625.44 1.025v10.474l5.932-6.167c.274-.313.63-.469 1.07-.469.4 0 .742.147 1.025.439.293.284.44.625.44 1.026 0 .41-.142.757-.425 1.04l-4.746 4.936 4.995 6.563c.205.254.307.557.307.908 0 .401-.146.747-.439 1.04a1.398 1.398 0 01-1.025.425c-.206 0-.42-.063-.645-.19a1.647 1.647 0 01-.527-.411l-4.717-6.211-1.245 1.29v4.013c0 .401-.147.747-.44 1.04a1.398 1.398 0 01-1.025.425c-.401 0-.747-.142-1.04-.425a1.446 1.446 0 01-.425-1.04v-18.706zm29.997 3.794c.4 0 .742.147 1.025.44.293.283.44.625.44 1.025v.029l-.103 13.989a7.54 7.54 0 01-.673 3.091 8.197 8.197 0 01-1.788 2.564 8.476 8.476 0 01-2.622 1.743c-.976.42-2.016.63-3.12.63a8.1 8.1 0 01-3.559-.82 8.092 8.092 0 01-2.857-2.271 1.477 1.477 0 01-.337-.937 1.448 1.448 0 011.465-1.465c.196 0 .405.053.63.161.234.107.415.244.542.41a5.33 5.33 0 001.846 1.45 5.23 5.23 0 002.285.542c.947 0 1.816-.234 2.607-.703a5.43 5.43 0 001.919-1.875 4.738 4.738 0 00.733-2.563v-1.436c-.576.898-1.275 1.519-2.095 1.86a6.516 6.516 0 01-2.49.498 6.556 6.556 0 01-2.974-.688 7.692 7.692 0 01-2.373-1.86 8.979 8.979 0 01-1.582-2.652 8.743 8.743 0 01-.557-3.076c0-1.055.186-2.061.557-3.018a8.5 8.5 0 011.582-2.578 7.615 7.615 0 012.373-1.787c.908-.439 1.9-.659 2.974-.659a5.48 5.48 0 012.607.645c.811.429 1.499 1.084 2.066 1.962l.219-1.171c.078-.401.205-.747.381-1.04.176-.293.469-.44.879-.44zm-1.597 8.101c0-.889-.195-1.719-.586-2.491a5.09 5.09 0 00-1.611-1.904c-.674-.488-1.445-.732-2.314-.732-.889 0-1.68.244-2.373.732a5.103 5.103 0 00-1.626 1.89 5.427 5.427 0 00-.586 2.49c0 .879.195 1.729.586 2.549.39.81.927 1.479 1.611 2.007a3.737 3.737 0 002.344.791c.869 0 1.645-.259 2.329-.777a5.327 5.327 0 001.626-1.992c.4-.82.6-1.675.6-2.563zm16.287-8.042c1.123 0 2.168.215 3.134.644a7.997 7.997 0 012.564 1.787 8.416 8.416 0 011.714 2.622c.42.987.63 2.037.63 3.15a7.88 7.88 0 01-.63 3.12 8.37 8.37 0 01-1.743 2.593 8.223 8.223 0 01-2.564 1.758 7.57 7.57 0 01-3.105.644 7.78 7.78 0 01-3.106-.63 8.226 8.226 0 01-2.563-1.743 8.302 8.302 0 01-1.729-2.578 7.99 7.99 0 01-.63-3.164c0-1.113.21-2.163.63-3.15a8.433 8.433 0 011.729-2.607 8.19 8.19 0 012.563-1.787 7.409 7.409 0 013.106-.659zm-5.069 8.232c0 .947.23 1.812.689 2.593a5.345 5.345 0 001.86 1.846 4.866 4.866 0 002.534.688c.938 0 1.787-.234 2.549-.703a5.296 5.296 0 001.831-1.89 4.967 4.967 0 00.689-2.563c0-.947-.225-1.817-.674-2.608a5.244 5.244 0 00-1.831-1.919c-.762-.478-1.621-.717-2.578-.717-.967 0-1.831.244-2.593.732a5.28 5.28 0 00-1.817 1.919 5.312 5.312 0 00-.659 2.622zm28.005-6.387c0 .782-.376 1.216-1.128 1.304-.273.029-.62-.059-1.04-.264a2.783 2.783 0 00-1.274-.322c-.85 0-1.524.22-2.022.659-.498.43-.854 1.011-1.069 1.744-.215.732-.322 1.552-.322 2.46v7.559c0 .43-.132.772-.396 1.025-.254.254-.61.381-1.069.381-.449 0-.806-.127-1.07-.381-.263-.253-.395-.6-.395-1.04v-13.491c0-.439.107-.801.322-1.084.225-.283.528-.425.908-.425.225 0 .484.098.777.293.302.186.512.508.63.967l.146 1.055c.127-.274.371-.591.733-.952a5.326 5.326 0 011.289-.938 3.187 3.187 0 011.552-.41c.996 0 1.817.117 2.461.352.645.224.967.727.967 1.508zm14.968 12.217a13.969 13.969 0 01-1.904 1.538c-.733.508-1.587.762-2.564.762-1.279 0-2.344-.337-3.193-1.011-.85-.683-1.475-1.474-1.875-2.373a6.95 6.95 0 01-.572-2.109 24.126 24.126 0 01-.087-1.978v-7.397c0-.401.141-.742.424-1.026.293-.293.64-.439 1.04-.439.401 0 .743.146 1.026.439.293.284.439.625.439 1.026v7.397c0 .576.025 1.109.073 1.597.059.488.171.918.337 1.289.186.43.474.815.865 1.157.39.332.888.498 1.494.498 1.445 0 2.553-.551 3.325-1.655.781-1.103 1.167-2.593 1.157-4.468l-.014-5.844c0-.401.141-.743.424-1.026.293-.293.64-.439 1.04-.439.411 0 .757.146 1.04.439.284.283.425.63.425 1.04l.03 13.462c0 .4-.113.747-.337 1.04-.215.283-.523.425-.923.425-.401 0-.708-.142-.923-.425a3.314 3.314 0 01-.498-1.04l-.249-.879zm11.628-11.748a14.493 14.493 0 011.889-1.538c.743-.508 1.602-.762 2.579-.762 1.279 0 2.343.342 3.193 1.026.85.674 1.475 1.46 1.875 2.358.312.713.498 1.421.557 2.124.068.694.102 1.348.102 1.963v7.397c0 .401-.146.748-.439 1.041a1.399 1.399 0 01-1.026.424 1.447 1.447 0 01-1.465-1.465v-7.397c0-.576-.029-1.108-.087-1.597a4.164 4.164 0 00-.323-1.289 3.108 3.108 0 00-.864-1.142c-.391-.342-.889-.513-1.494-.513-1.445 0-2.559.552-3.34 1.655-.771 1.104-1.152 2.593-1.143 4.468l.015 5.845c0 .4-.146.747-.439 1.04a1.4 1.4 0 01-1.026.425c-.41 0-.757-.142-1.04-.425a1.466 1.466 0 01-.425-1.055l-.029-13.462c0-.4.108-.742.322-1.025.225-.293.537-.44.938-.44.4 0 .708.147.923.44.215.283.381.625.498 1.025l.249.879zm15.319 5.845a8.75 8.75 0 01.615-3.223 8.022 8.022 0 011.817-2.768 7.67 7.67 0 012.461-1.612 7.52 7.52 0 012.885-.571c1.016 0 1.919.215 2.71.645a7.456 7.456 0 012.124 1.743v-6.167a1.4 1.4 0 01.425-1.026c.293-.293.64-.439 1.04-.439.401 0 .742.146 1.026.439.293.284.439.625.439 1.026v18.706c0 .4-.146.747-.439 1.04a1.4 1.4 0 01-1.026.425c-.4 0-.703-.142-.908-.425a2.513 2.513 0 01-.381-1.04l-.176-1.187a5.795 5.795 0 01-2.211 1.89c-.909.459-1.817.688-2.725.688-1.104 0-2.124-.219-3.062-.659a7.838 7.838 0 01-2.431-1.787 8.339 8.339 0 01-1.612-2.607 8.45 8.45 0 01-.571-3.091zm7.647 5.215c.634 0 1.264-.142 1.889-.425a4.863 4.863 0 001.597-1.143 5.114 5.114 0 001.011-1.714 5.697 5.697 0 00.366-2.006 5.55 5.55 0 00-.615-2.593 5.005 5.005 0 00-1.7-1.904c-.712-.479-1.538-.718-2.475-.718a4.25 4.25 0 00-2.476.761 5.32 5.32 0 00-1.714 1.963 5.55 5.55 0 00-.615 2.564c0 .908.205 1.763.615 2.563a5.173 5.173 0 001.685 1.919 4.241 4.241 0 002.432.733zm32.704-13.448c.722 0 1.425.147 2.109.44a7.163 7.163 0 011.846 1.084c.547.43.952.874 1.216 1.333l.161-1.406c0-.401.117-.743.351-1.026.235-.293.552-.439.952-.439.401 0 .743.146 1.026.439.293.283.439.625.439 1.026v.029l-.029 13.564c0 .401-.146.747-.439 1.04a1.396 1.396 0 01-1.026.425c-.4 0-.718-.141-.952-.425a1.616 1.616 0 01-.352-1.04l-.161-1.171c-.508.869-1.25 1.518-2.226 1.948-.977.42-1.958.63-2.945.63a7.555 7.555 0 01-3.105-.645 8.22 8.22 0 01-2.549-1.802 8.612 8.612 0 01-1.728-2.622 8.028 8.028 0 01-.616-3.12c0-1.084.201-2.119.601-3.105.41-.996.977-1.88 1.699-2.652a8.018 8.018 0 012.549-1.831 7.519 7.519 0 013.179-.674zm5.053 8.233a5.3 5.3 0 00-.673-2.637 5.27 5.27 0 00-1.802-1.933c-.762-.489-1.631-.733-2.608-.733-.957 0-1.821.244-2.592.733a5.304 5.304 0 00-1.831 1.948 5.233 5.233 0 00-.674 2.607c0 .947.229 1.826.688 2.637a5.475 5.475 0 001.846 1.934 4.771 4.771 0 002.578.732c.938 0 1.787-.244 2.549-.732a5.358 5.358 0 001.831-1.934 5.236 5.236 0 00.688-2.622zm11.833-5.845a14.574 14.574 0 011.89-1.538c.742-.508 1.602-.762 2.578-.762 1.279 0 2.344.342 3.194 1.026.849.674 1.474 1.46 1.875 2.358.312.713.498 1.421.556 2.124.069.694.103 1.348.103 1.963v7.397c0 .401-.147.748-.44 1.041a1.397 1.397 0 01-1.025.424 1.447 1.447 0 01-1.465-1.465v-7.397c0-.576-.029-1.108-.088-1.597a4.165 4.165 0 00-.322-1.289 3.13 3.13 0 00-.864-1.142c-.391-.342-.889-.513-1.495-.513-1.445 0-2.558.552-3.339 1.655-.772 1.104-1.153 2.593-1.143 4.468l.015 5.845c0 .4-.147.747-.44 1.04a1.398 1.398 0 01-1.025.425c-.41 0-.757-.142-1.04-.425a1.466 1.466 0 01-.425-1.055l-.029-13.462c0-.4.107-.742.322-1.025.225-.293.537-.44.938-.44.4 0 .708.147.922.44.215.283.381.625.498 1.025l.249.879zm15.32 5.845a8.75 8.75 0 01.615-3.223 8.02 8.02 0 011.816-2.768 7.681 7.681 0 012.461-1.612 7.528 7.528 0 012.886-.571c1.016 0 1.919.215 2.71.645a7.456 7.456 0 012.124 1.743v-6.167a1.4 1.4 0 01.425-1.026c.293-.293.64-.439 1.04-.439s.742.146 1.025.439c.293.284.44.625.44 1.026v18.706c0 .4-.147.747-.44 1.04a1.398 1.398 0 01-1.025.425c-.4 0-.703-.142-.908-.425a2.486 2.486 0 01-.381-1.04l-.176-1.187a5.798 5.798 0 01-2.212 1.89c-.908.459-1.816.688-2.724.688-1.104 0-2.124-.219-3.062-.659a7.842 7.842 0 01-2.432-1.787 8.43 8.43 0 01-2.182-5.698zm7.646 5.215c.635 0 1.265-.142 1.89-.425a4.863 4.863 0 001.597-1.143 5.095 5.095 0 001.01-1.714 5.699 5.699 0 00.367-2.006 5.55 5.55 0 00-.616-2.593 4.994 4.994 0 00-1.699-1.904c-.713-.479-1.538-.718-2.476-.718-.917 0-1.743.254-2.475.761a5.311 5.311 0 00-1.714 1.963 5.55 5.55 0 00-.615 2.564c0 .908.205 1.763.615 2.563.41.791.972 1.431 1.685 1.919a4.238 4.238 0 002.431.733zm-452.247 21.611c.947 0 1.778.23 2.49.689a6.165 6.165 0 011.773 1.669 8.245 8.245 0 011.977-1.655 4.8 4.8 0 012.579-.718c1.25 0 2.285.337 3.105 1.011.83.664 1.445 1.538 1.846 2.622.4 1.084.6 2.256.6 3.516l.015 7.807c0 .391-.142.728-.425 1.011-.283.283-.63.425-1.04.425-.41 0-.757-.142-1.04-.425a1.381 1.381 0 01-.425-1.011l-.014-7.778c0-.742-.069-1.435-.205-2.08-.137-.654-.386-1.182-.748-1.582-.361-.4-.883-.601-1.567-.601-.723 0-1.343.201-1.86.601-.508.4-.899.928-1.172 1.582a5.476 5.476 0 00-.396 2.095l.015 7.807c0 .391-.146.728-.439 1.011-.284.274-.625.41-1.026.41-.41 0-.757-.141-1.04-.425a1.38 1.38 0 01-.425-1.01v-7.779c0-.918-.156-1.694-.468-2.329-.303-.634-.699-1.113-1.187-1.435-.478-.332-.972-.498-1.479-.498-.723 0-1.373.337-1.949 1.01-.576.674-.864 1.724-.864 3.15v7.895c0 .391-.146.728-.439 1.011-.284.274-.625.41-1.026.41-.4 0-.747-.141-1.04-.425a1.38 1.38 0 01-.425-1.01v-13.55c0-.4.074-.737.22-1.011.156-.283.44-.425.85-.425.322 0 .62.103.893.308.274.205.493.547.659 1.025l.279.806a3.572 3.572 0 011.435-1.538c.655-.391 1.309-.586 1.963-.586zm27.551.015c1.123 0 2.168.215 3.135.644a7.993 7.993 0 012.563 1.787 8.398 8.398 0 011.714 2.622c.42.987.63 2.037.63 3.15a7.88 7.88 0 01-.63 3.12 8.37 8.37 0 01-1.743 2.593 8.223 8.223 0 01-2.564 1.758 7.567 7.567 0 01-3.105.644 7.78 7.78 0 01-3.106-.63 8.238 8.238 0 01-2.563-1.743 8.32 8.32 0 01-1.729-2.578 8.007 8.007 0 01-.629-3.164c0-1.113.21-2.163.629-3.15a8.45 8.45 0 011.729-2.607 8.201 8.201 0 012.563-1.787 7.409 7.409 0 013.106-.659zm-5.068 8.232c0 .947.229 1.812.688 2.593a5.354 5.354 0 001.86 1.846 4.87 4.87 0 002.535.688c.937 0 1.787-.234 2.548-.703a5.296 5.296 0 001.831-1.89 4.967 4.967 0 00.689-2.563c0-.947-.225-1.817-.674-2.608a5.236 5.236 0 00-1.831-1.919c-.762-.478-1.621-.717-2.578-.717-.967 0-1.831.244-2.593.732a5.27 5.27 0 00-1.816 1.919c-.44.791-.659 1.665-.659 2.622zm28.004-6.387c0 .782-.375 1.216-1.127 1.304-.274.029-.621-.059-1.04-.264a2.784 2.784 0 00-1.275-.322c-.85 0-1.523.22-2.021.659-.498.43-.855 1.011-1.07 1.744-.215.732-.322 1.552-.322 2.46v7.559c0 .43-.132.772-.395 1.025-.254.254-.611.381-1.07.381-.449 0-.805-.127-1.069-.381-.264-.253-.396-.6-.396-1.04v-13.491c0-.439.108-.801.323-1.084.224-.283.527-.425.908-.425.224 0 .483.098.776.293.303.186.513.508.63.967l.147 1.055c.126-.274.371-.591.732-.952a5.326 5.326 0 011.289-.938 3.19 3.19 0 011.553-.41c.996 0 1.816.117 2.461.352.644.224.966.727.966 1.508zm11.16-1.801a6.87 6.87 0 013.574.966 7.41 7.41 0 012.607 2.608c.664 1.084.996 2.29.996 3.618 0 .273-.014.552-.044.835a1.387 1.387 0 01-.498.923 1.438 1.438 0 01-.966.366l-10.24.015c.166.703.479 1.362.938 1.977a5.53 5.53 0 001.67 1.494 4.28 4.28 0 002.168.572c.84 0 1.592-.205 2.256-.616.664-.41 1.181-.883 1.552-1.42.118-.186.293-.342.528-.469.244-.127.473-.191.688-.191.401 0 .742.147 1.026.44.293.293.439.639.439 1.04 0 .312-.088.591-.264.835-.605.888-1.44 1.66-2.505 2.314-1.054.645-2.28.967-3.676.967a7.494 7.494 0 01-3.135-.659 7.935 7.935 0 01-2.505-1.802 8.472 8.472 0 01-1.67-2.622 8.54 8.54 0 01-.586-3.149c0-1.065.195-2.076.586-3.033a8.447 8.447 0 011.626-2.578 7.812 7.812 0 012.446-1.772 6.886 6.886 0 012.989-.659zm4.16 6.386c-.186-.957-.664-1.772-1.436-2.446-.771-.674-1.679-1.011-2.724-1.011a4.253 4.253 0 00-2.827 1.04c-.811.694-1.358 1.504-1.641 2.432l8.628-.015zm18.978 1.714a8.43 8.43 0 012.183-5.698 7.79 7.79 0 012.417-1.802 6.968 6.968 0 013.018-.659c1.074 0 2.045.21 2.915.63.878.41 1.63.957 2.255 1.641a6.826 6.826 0 011.421 2.211c.069.166.103.352.103.557 0 .4-.147.747-.44 1.04a1.398 1.398 0 01-1.025.425c-.273 0-.542-.093-.806-.278a1.533 1.533 0 01-.556-.674c-.274-.703-.752-1.314-1.436-1.831-.674-.528-1.484-.791-2.431-.791-.889 0-1.69.249-2.403.747a5.215 5.215 0 00-1.67 1.919 5.487 5.487 0 00-.615 2.563c0 .928.21 1.802.63 2.622.42.811.996 1.47 1.728 1.978a4.304 4.304 0 002.476.747c.898 0 1.675-.225 2.329-.674.654-.459 1.148-.991 1.48-1.597.117-.214.302-.395.556-.542.254-.156.503-.234.747-.234.401 0 .742.146 1.026.439.293.284.439.625.439 1.026 0 .244-.063.483-.19.718-.557 1.025-1.387 1.914-2.491 2.666-1.103.752-2.402 1.128-3.896 1.128-1.113 0-2.144-.22-3.091-.66a7.939 7.939 0 01-2.461-1.831 8.713 8.713 0 01-1.626-2.636 8.563 8.563 0 01-.586-3.15zm19.597-12.055c0-.391.142-.723.425-.997.283-.283.63-.424 1.04-.424.4 0 .742.141 1.025.424.293.274.44.606.44.997v6.386c.371-.791.913-1.396 1.626-1.816.713-.43 1.401-.645 2.065-.645 1.533 0 2.783.313 3.75.938.977.625 1.694 1.494 2.153 2.607.459 1.114.689 2.398.689 3.853v.132l-.015 7.397v.015c0 .39-.146.727-.439 1.01a1.421 1.421 0 01-1.026.411c-.4 0-.747-.137-1.04-.411a1.38 1.38 0 01-.424-1.01v-.015l.014-7.324v-.029c0-1.504-.249-2.652-.747-3.443-.498-.791-1.47-1.186-2.915-1.186-1.221 0-2.139.424-2.754 1.274-.605.85-.908 1.943-.908 3.281v7.456c0 .391-.146.728-.439 1.011-.284.274-.625.41-1.026.41-.42 0-.776-.141-1.069-.425-.283-.292-.425-.625-.425-.996v-18.881zm26.73 3.837c.723 0 1.426.147 2.11.44a7.18 7.18 0 011.846 1.084c.546.43.952.874 1.215 1.333l.162-1.406c0-.401.117-.743.351-1.026.234-.293.552-.439.952-.439.401 0 .742.146 1.026.439.293.283.439.625.439 1.026v.029l-.029 13.564c0 .401-.147.747-.44 1.04a1.394 1.394 0 01-1.025.425c-.4 0-.718-.141-.952-.425a1.61 1.61 0 01-.352-1.04l-.161-1.171c-.508.869-1.25 1.518-2.226 1.948-.977.42-1.958.63-2.945.63a7.555 7.555 0 01-3.105-.645 8.207 8.207 0 01-2.549-1.802 8.597 8.597 0 01-1.729-2.622 8.045 8.045 0 01-.615-3.12c0-1.084.2-2.119.601-3.105.41-.996.976-1.88 1.699-2.652a8.007 8.007 0 012.549-1.831 7.514 7.514 0 013.178-.674zm5.054 8.233c0-.957-.224-1.836-.674-2.637a5.267 5.267 0 00-1.801-1.933c-.762-.489-1.631-.733-2.608-.733-.957 0-1.821.244-2.593.733a5.32 5.32 0 00-1.831 1.948 5.243 5.243 0 00-.673 2.607c0 .947.229 1.826.688 2.637a5.475 5.475 0 001.846 1.934c.781.488 1.64.732 2.578.732.937 0 1.787-.244 2.549-.732a5.366 5.366 0 001.831-1.934 5.236 5.236 0 00.688-2.622zm11.833-5.845a14.506 14.506 0 011.89-1.538c.742-.508 1.601-.762 2.578-.762 1.279 0 2.344.342 3.193 1.026.85.674 1.475 1.46 1.875 2.358.313.713.498 1.421.557 2.124.068.694.103 1.348.103 1.963v7.397c0 .401-.147.748-.44 1.041a1.397 1.397 0 01-1.025.424c-.401 0-.747-.141-1.04-.424a1.444 1.444 0 01-.425-1.041v-7.397c0-.576-.029-1.108-.088-1.597a4.165 4.165 0 00-.322-1.289 3.122 3.122 0 00-.865-1.142c-.39-.342-.888-.513-1.494-.513-1.445 0-2.558.552-3.34 1.655-.771 1.104-1.152 2.593-1.142 4.468l.014 5.845c0 .4-.146.747-.439 1.04a1.398 1.398 0 01-1.025.425c-.411 0-.757-.142-1.04-.425a1.462 1.462 0 01-.425-1.055l-.029-13.462c0-.4.107-.742.322-1.025.224-.293.537-.44.937-.44.401 0 .708.147.923.44.215.283.381.625.498 1.025l.249.879zm29.323-2.373c.401 0 .743.147 1.026.44.293.283.439.625.439 1.025v.029l-.102 13.989a7.556 7.556 0 01-.674 3.091 8.194 8.194 0 01-1.787 2.564 8.5 8.5 0 01-2.622 1.743c-.977.42-2.017.63-3.12.63a8.101 8.101 0 01-3.56-.82 8.08 8.08 0 01-2.856-2.271 1.472 1.472 0 01-.337-.937 1.447 1.447 0 011.465-1.465c.195 0 .405.053.629.161.235.107.415.244.542.41a5.34 5.34 0 001.846 1.45 5.234 5.234 0 002.285.542c.948 0 1.817-.234 2.608-.703a5.446 5.446 0 001.919-1.875 4.745 4.745 0 00.732-2.563v-1.436c-.576.898-1.274 1.519-2.095 1.86-.81.332-1.64.498-2.49.498a6.559 6.559 0 01-2.974-.688 7.692 7.692 0 01-2.373-1.86 9 9 0 01-1.582-2.652 8.742 8.742 0 01-.556-3.076c0-1.055.185-2.061.556-3.018a8.52 8.52 0 011.582-2.578 7.615 7.615 0 012.373-1.787 6.747 6.747 0 012.974-.659c.928 0 1.797.215 2.608.645.81.429 1.499 1.084 2.065 1.962l.22-1.171c.078-.401.205-.747.381-1.04.175-.293.468-.44.878-.44zm-1.596 8.101c0-.889-.196-1.719-.586-2.491a5.1 5.1 0 00-1.612-1.904c-.673-.488-1.445-.732-2.314-.732-.889 0-1.68.244-2.373.732a5.103 5.103 0 00-1.626 1.89 5.427 5.427 0 00-.586 2.49c0 .879.195 1.729.586 2.549.391.81.928 1.479 1.611 2.007a3.737 3.737 0 002.344.791c.869 0 1.646-.259 2.329-.777a5.308 5.308 0 001.626-1.992c.401-.82.601-1.675.601-2.563zm16.052-7.998a6.87 6.87 0 013.574.966 7.41 7.41 0 012.607 2.608c.664 1.084.996 2.29.996 3.618 0 .273-.014.552-.044.835a1.387 1.387 0 01-.498.923 1.439 1.439 0 01-.967.366l-10.239.015c.166.703.479 1.362.938 1.977a5.53 5.53 0 001.67 1.494 4.28 4.28 0 002.168.572c.839 0 1.591-.205 2.255-.616.665-.41 1.182-.883 1.553-1.42.117-.186.293-.342.528-.469.244-.127.473-.191.688-.191.4 0 .742.147 1.025.44.293.293.44.639.44 1.04 0 .312-.088.591-.264.835-.605.888-1.44 1.66-2.505 2.314-1.054.645-2.28.967-3.676.967a7.49 7.49 0 01-3.135-.659 7.935 7.935 0 01-2.505-1.802 8.453 8.453 0 01-1.67-2.622 8.54 8.54 0 01-.586-3.149c0-1.065.195-2.076.586-3.033a8.447 8.447 0 011.626-2.578 7.812 7.812 0 012.446-1.772 6.886 6.886 0 012.989-.659zm4.16 6.386c-.186-.957-.664-1.772-1.436-2.446-.771-.674-1.68-1.011-2.724-1.011a4.257 4.257 0 00-2.828 1.04c-.81.694-1.357 1.504-1.64 2.432l8.628-.015zm27.225-6.504c.723 0 1.426.147 2.11.44a7.157 7.157 0 011.845 1.084c.547.43.952.874 1.216 1.333l.161-1.406c0-.401.117-.743.352-1.026.234-.293.552-.439.952-.439.4 0 .742.146 1.025.439.293.283.44.625.44 1.026v.029l-.029 13.564c0 .401-.147.747-.44 1.04a1.394 1.394 0 01-1.025.425c-.401 0-.718-.141-.952-.425a1.61 1.61 0 01-.352-1.04l-.161-1.171c-.508.869-1.25 1.518-2.227 1.948-.976.42-1.958.63-2.944.63a7.556 7.556 0 01-3.106-.645 8.215 8.215 0 01-2.548-1.802 8.597 8.597 0 01-1.729-2.622 8.045 8.045 0 01-.615-3.12c0-1.084.2-2.119.601-3.105.41-.996.976-1.88 1.699-2.652a8.007 8.007 0 012.549-1.831 7.514 7.514 0 013.178-.674zm5.054 8.233c0-.957-.225-1.836-.674-2.637a5.26 5.26 0 00-1.802-1.933c-.761-.489-1.63-.733-2.607-.733-.957 0-1.821.244-2.593.733a5.312 5.312 0 00-1.831 1.948 5.244 5.244 0 00-.674 2.607c0 .947.23 1.826.689 2.637a5.481 5.481 0 001.845 1.934 4.775 4.775 0 002.579.732c.937 0 1.787-.244 2.548-.732a5.35 5.35 0 001.831-1.934 5.237 5.237 0 00.689-2.622zm16.33-8.189c1.397 0 2.661.308 3.794.923 1.143.606 1.987 1.426 2.534 2.461.117.205.176.44.176.703 0 .401-.147.747-.439 1.04a1.396 1.396 0 01-1.026.425c-.244 0-.498-.078-.762-.234-.254-.166-.434-.357-.542-.572a3.072 3.072 0 00-1.45-1.362c-.644-.303-1.411-.454-2.3-.454-.517 0-1.103.068-1.757.205-.655.137-1.221.357-1.7.659-.478.303-.717.713-.717 1.231 0 .381.195.683.586.908.4.215.888.381 1.464.498.586.117 1.172.205 1.758.264.586.049 1.065.092 1.436.132.722.078 1.435.2 2.138.366.704.156 1.348.39 1.934.703a3.65 3.65 0 011.392 1.274c.351.537.527 1.221.527 2.051 0 1.182-.342 2.149-1.025 2.9-.684.752-1.558 1.309-2.623 1.67a10.294 10.294 0 01-3.339.542c-1.592 0-3.042-.312-4.351-.937-1.299-.635-2.261-1.558-2.886-2.769a1.533 1.533 0 01-.175-.688c0-.401.141-.742.424-1.026.293-.293.64-.439 1.04-.439.254 0 .508.083.762.249.264.156.449.347.557.571.381.743.967 1.28 1.758 1.612.8.332 1.752.498 2.856.498.586 0 1.191-.064 1.816-.191.635-.136 1.167-.366 1.597-.688.44-.322.659-.762.659-1.319 0-.429-.19-.737-.571-.922-.371-.196-.82-.323-1.348-.381a206.67 206.67 0 00-1.45-.161 59.832 59.832 0 01-2.666-.337 12.178 12.178 0 01-2.563-.689c-.782-.312-1.416-.762-1.905-1.347-.488-.586-.732-1.368-.732-2.344 0-.879.21-1.636.63-2.271a5.002 5.002 0 011.699-1.552 8.312 8.312 0 012.3-.909c.84-.195 1.67-.293 2.49-.293zm24.56-.058c.283 0 .546.083.791.249.254.166.434.371.542.615l4.98 11.323 4.263-11.22c.107-.264.283-.484.527-.66a1.44 1.44 0 01.835-.263c.4 0 .742.146 1.025.439.293.283.44.625.44 1.026 0 .205-.039.395-.117.571l-5.391 14.062c-.019.127-.054.24-.102.337a3.124 3.124 0 01-.147.264l-.82 2.051a21.786 21.786 0 01-.733 1.611 6.265 6.265 0 01-1.172 1.626 6.224 6.224 0 01-1.757 1.26 4.755 4.755 0 01-2.154.513 1.37 1.37 0 01-1.04-.455 1.445 1.445 0 01-.424-1.04c0-.39.131-.732.395-1.025.273-.283.601-.43.981-.439.86-.059 1.524-.396 1.993-1.011a8.907 8.907 0 001.201-2.154l.703-1.787-6.152-13.798a1.59 1.59 0 01-.132-.63c0-.401.141-.743.425-1.026a1.42 1.42 0 011.04-.439zm24.811.088c1.123 0 2.168.215 3.135.644a7.993 7.993 0 012.563 1.787 8.398 8.398 0 011.714 2.622c.42.987.63 2.037.63 3.15a7.88 7.88 0 01-.63 3.12 8.37 8.37 0 01-1.743 2.593 8.219 8.219 0 01-2.563 1.758 7.572 7.572 0 01-3.106.644 7.772 7.772 0 01-3.105-.63 8.23 8.23 0 01-2.564-1.743 8.317 8.317 0 01-1.728-2.578 7.99 7.99 0 01-.63-3.164c0-1.113.21-2.163.63-3.15a8.448 8.448 0 011.728-2.607 8.194 8.194 0 012.564-1.787 7.404 7.404 0 013.105-.659zm-5.068 8.232c0 .947.229 1.812.688 2.593a5.348 5.348 0 001.861 1.846 4.863 4.863 0 002.534.688c.937 0 1.787-.234 2.549-.703a5.312 5.312 0 001.831-1.89 4.966 4.966 0 00.688-2.563c0-.947-.224-1.817-.674-2.608a5.236 5.236 0 00-1.831-1.919c-.761-.478-1.621-.717-2.578-.717-.967 0-1.831.244-2.593.732a5.278 5.278 0 00-1.816 1.919 5.312 5.312 0 00-.659 2.622zm28.429 5.83a13.969 13.969 0 01-1.904 1.538c-.732.508-1.587.762-2.563.762-1.28 0-2.344-.337-3.194-1.011-.849-.683-1.474-1.474-1.875-2.373a6.948 6.948 0 01-.571-2.109 23.71 23.71 0 01-.088-1.978v-7.397a1.4 1.4 0 01.425-1.026c.293-.293.64-.439 1.04-.439s.742.146 1.025.439c.293.284.44.625.44 1.026v7.397c0 .576.024 1.109.073 1.597.059.488.171.918.337 1.289.186.43.474.815.864 1.157.391.332.889.498 1.494.498 1.446 0 2.554-.551 3.326-1.655.781-1.103 1.167-2.593 1.157-4.468l-.015-5.844c0-.401.142-.743.425-1.026.293-.293.64-.439 1.04-.439.41 0 .757.146 1.04.439.283.283.425.63.425 1.04l.029 13.462c0 .4-.112.747-.337 1.04-.215.283-.522.425-.923.425-.4 0-.708-.142-.922-.425a3.337 3.337 0 01-.499-1.04l-.249-.879zm19.243-12.861c0-.322.141-.606.424-.85.284-.244.586-.366.909-.366.332 0 .625.093.879.278.263.186.434.415.512.689l2.93 9.946 3.472-9.756h.014c.244-.429.674-.644 1.289-.644.284 0 .547.063.791.19.245.117.415.274.513.469v.015l3.369 9.492 2.71-9.698c.078-.263.239-.493.484-.688.244-.195.542-.293.893-.293.313 0 .615.117.908.352.293.224.44.507.44.849 0 .215-.02.386-.059.513l-3.838 13.535c-.068.244-.229.474-.483.689a1.28 1.28 0 01-.85.307c-.302 0-.576-.083-.82-.249a1.493 1.493 0 01-.498-.615l-3.545-9.8-3.604 9.888a1.228 1.228 0 01-.527.63 1.403 1.403 0 01-1.64-.03 1.294 1.294 0 01-.484-.688l-4.145-13.652a2.595 2.595 0 01-.044-.513zm32.663-1.275c.722 0 1.426.147 2.109.44a7.163 7.163 0 011.846 1.084c.547.43.952.874 1.216 1.333l.161-1.406c0-.401.117-.743.351-1.026.235-.293.552-.439.952-.439.401 0 .743.146 1.026.439.293.283.439.625.439 1.026v.029l-.029 13.564c0 .401-.146.747-.439 1.04a1.396 1.396 0 01-1.026.425c-.4 0-.718-.141-.952-.425a1.616 1.616 0 01-.352-1.04l-.161-1.171c-.507.869-1.25 1.518-2.226 1.948-.977.42-1.958.63-2.945.63a7.555 7.555 0 01-3.105-.645 8.22 8.22 0 01-2.549-1.802 8.612 8.612 0 01-1.728-2.622 8.028 8.028 0 01-.616-3.12c0-1.084.201-2.119.601-3.105.41-.996.977-1.88 1.699-2.652a8.018 8.018 0 012.549-1.831 7.519 7.519 0 013.179-.674zm5.053 8.233a5.3 5.3 0 00-.673-2.637 5.27 5.27 0 00-1.802-1.933c-.762-.489-1.631-.733-2.608-.733-.957 0-1.821.244-2.592.733a5.304 5.304 0 00-1.831 1.948 5.233 5.233 0 00-.674 2.607c0 .947.229 1.826.688 2.637a5.475 5.475 0 001.846 1.934 4.771 4.771 0 002.578.732c.938 0 1.787-.244 2.549-.732a5.358 5.358 0 001.831-1.934 5.236 5.236 0 00.688-2.622zm11.833-5.845a14.574 14.574 0 011.89-1.538c.742-.508 1.602-.762 2.578-.762 1.28 0 2.344.342 3.194 1.026.849.674 1.474 1.46 1.875 2.358.312.713.498 1.421.556 2.124.069.694.103 1.348.103 1.963v7.397c0 .401-.147.748-.44 1.041a1.397 1.397 0 01-1.025.424 1.447 1.447 0 01-1.465-1.465v-7.397c0-.576-.029-1.108-.088-1.597a4.165 4.165 0 00-.322-1.289 3.13 3.13 0 00-.864-1.142c-.391-.342-.889-.513-1.494-.513-1.446 0-2.559.552-3.34 1.655-.772 1.104-1.153 2.593-1.143 4.468l.015 5.845c0 .4-.147.747-.44 1.04a1.398 1.398 0 01-1.025.425c-.41 0-.757-.142-1.04-.425a1.466 1.466 0 01-.425-1.055l-.029-13.462c0-.4.107-.742.322-1.025.225-.293.537-.44.938-.44.4 0 .708.147.922.44.215.283.381.625.498 1.025l.249.879zm18.249-4.936c0-.401.142-.743.425-1.026a1.39 1.39 0 011.04-.439c.401 0 .743.146 1.026.439.293.283.439.625.439 1.026v2.915h1.963c.381 0 .708.136.982.41.273.273.41.6.41.981s-.137.708-.41.982c-.274.273-.601.41-.982.41h-1.977l-.015 9.067v.03c0 .478.054.81.161.996.107.175.327.263.659.263.42 0 .791-.112 1.113-.337.118-.078.259-.146.425-.205.166-.068.327-.102.484-.102.4 0 .742.141 1.025.425.293.283.44.625.44 1.025 0 .478-.196.864-.586 1.157a5.162 5.162 0 01-1.275.703 4.205 4.205 0 01-1.538.279c-1.23 0-2.178-.376-2.842-1.128-.664-.762-.996-1.709-.996-2.842v-.132l.015-9.185h-1.89c-.381 0-.708-.136-.981-.41-.274-.273-.41-.6-.41-.981s.136-.708.41-.982c.273-.273.6-.41.981-.41h1.904v-2.929zm26.083 4.936a14.574 14.574 0 011.89-1.538c.742-.508 1.602-.762 2.578-.762 1.28 0 2.344.342 3.194 1.026.849.674 1.474 1.46 1.875 2.358.312.713.498 1.421.556 2.124.069.694.103 1.348.103 1.963v7.397c0 .401-.147.748-.44 1.041a1.397 1.397 0 01-1.025.424 1.447 1.447 0 01-1.465-1.465v-7.397c0-.576-.029-1.108-.088-1.597a4.165 4.165 0 00-.322-1.289 3.13 3.13 0 00-.864-1.142c-.391-.342-.889-.513-1.494-.513-1.446 0-2.559.552-3.34 1.655-.772 1.104-1.153 2.593-1.143 4.468l.015 5.845c0 .4-.147.747-.44 1.04a1.398 1.398 0 01-1.025.425c-.41 0-.757-.142-1.04-.425a1.466 1.466 0 01-.425-1.055l-.029-13.462c0-.4.107-.742.322-1.025.225-.293.537-.44.938-.44.4 0 .708.147.922.44.215.283.381.625.498 1.025l.249.879zm23.347-2.314c1.123 0 2.168.215 3.135.644a7.982 7.982 0 012.563 1.787 8.398 8.398 0 011.714 2.622c.42.987.63 2.037.63 3.15a7.88 7.88 0 01-.63 3.12 8.37 8.37 0 01-1.743 2.593 8.219 8.219 0 01-2.563 1.758 7.572 7.572 0 01-3.106.644 7.772 7.772 0 01-3.105-.63 8.23 8.23 0 01-2.564-1.743 8.317 8.317 0 01-1.728-2.578 7.99 7.99 0 01-.63-3.164c0-1.113.21-2.163.63-3.15a8.448 8.448 0 011.728-2.607 8.194 8.194 0 012.564-1.787 7.408 7.408 0 013.105-.659zm-5.068 8.232c0 .947.229 1.812.688 2.593a5.348 5.348 0 001.861 1.846 4.863 4.863 0 002.534.688c.937 0 1.787-.234 2.549-.703a5.312 5.312 0 001.831-1.89 4.966 4.966 0 00.688-2.563c0-.947-.224-1.817-.674-2.608a5.236 5.236 0 00-1.831-1.919c-.761-.478-1.621-.717-2.578-.717-.967 0-1.831.244-2.593.732a5.278 5.278 0 00-1.816 1.919 5.312 5.312 0 00-.659 2.622zM329.316 314.64c.469 0 .845.156 1.128.468.283.303.42.635.41.996v18.868c0 .39-.156.708-.469.952-.302.234-.605.351-.908.351a1.61 1.61 0 01-1.098-.41c-.303-.273-.454-.625-.454-1.054v-18.707c0-.371.131-.708.395-1.01.274-.303.606-.454.996-.454zm8.903 3.823c-.449 0-.815-.137-1.098-.41a1.469 1.469 0 01-.44-1.04l-.029-1.114c0-.371.166-.669.498-.893.332-.235.65-.352.952-.352.41 0 .752.142 1.026.425.283.283.429.625.439 1.025l.015.879c0 .381-.127.723-.381 1.026a1.222 1.222 0 01-.982.454zm-1.582 2.768c0-.371.157-.673.469-.908.313-.234.615-.351.908-.351.43 0 .796.127 1.099.381.303.253.454.59.454 1.01v.015l.029 13.564c0 .391-.146.723-.439.996a1.42 1.42 0 01-1.025.411c-.411 0-.757-.137-1.04-.411a1.377 1.377 0 01-.425-1.01l-.03-13.697zm14.91-1.274c.947 0 1.777.23 2.49.689a6.161 6.161 0 011.772 1.669 8.231 8.231 0 011.978-1.655 4.797 4.797 0 012.578-.718c1.25 0 2.285.337 3.105 1.011.831.664 1.446 1.538 1.846 2.622.401 1.084.601 2.256.601 3.516l.014 7.807c0 .391-.141.728-.424 1.011-.284.283-.63.425-1.04.425-.411 0-.757-.142-1.04-.425a1.377 1.377 0 01-.425-1.011l-.015-7.778c0-.742-.068-1.435-.205-2.08-.137-.654-.386-1.182-.747-1.582-.361-.4-.884-.601-1.567-.601-.723 0-1.343.201-1.861.601-.508.4-.898.928-1.172 1.582a5.494 5.494 0 00-.395 2.095l.014 7.807c0 .391-.146.728-.439 1.011a1.42 1.42 0 01-1.025.41 1.41 1.41 0 01-1.04-.425 1.377 1.377 0 01-.425-1.01v-7.779c0-.918-.156-1.694-.469-2.329-.303-.634-.698-1.113-1.187-1.435-.478-.332-.971-.498-1.479-.498-.723 0-1.372.337-1.948 1.01-.576.674-.865 1.724-.865 3.15v7.895c0 .391-.146.728-.439 1.011a1.42 1.42 0 01-1.025.41c-.401 0-.747-.141-1.04-.425a1.377 1.377 0 01-.425-1.01v-13.55c0-.4.073-.737.22-1.011.156-.283.439-.425.849-.425.322 0 .62.103.894.308.273.205.493.547.659 1.025l.278.806a3.575 3.575 0 011.436-1.538c.654-.391 1.308-.586 1.963-.586zm21.764-1.494c-.449 0-.815-.137-1.098-.41a1.465 1.465 0 01-.44-1.04l-.029-1.114c0-.371.166-.669.498-.893.332-.235.649-.352.952-.352.41 0 .752.142 1.025.425.284.283.43.625.44 1.025l.015.879c0 .381-.127.723-.381 1.026a1.222 1.222 0 01-.982.454zm-1.582 2.768c0-.371.156-.673.469-.908.312-.234.615-.351.908-.351.43 0 .796.127 1.099.381.303.253.454.59.454 1.01v.015l.029 13.564c0 .391-.146.723-.439.996a1.421 1.421 0 01-1.026.411 1.44 1.44 0 01-1.04-.411 1.38 1.38 0 01-.424-1.01l-.03-13.697zm11.013-3.881c0-.401.142-.743.425-1.026a1.39 1.39 0 011.04-.439c.4 0 .742.146 1.025.439.293.283.44.625.44 1.026v2.915h1.963c.38 0 .708.136.981.41.273.273.41.6.41.981s-.137.708-.41.982a1.34 1.34 0 01-.981.41h-1.978l-.015 9.067v.03c0 .478.054.81.161.996.108.175.328.263.66.263.42 0 .791-.112 1.113-.337.117-.078.259-.146.425-.205a1.27 1.27 0 01.483-.102c.401 0 .742.141 1.026.425.292.283.439.625.439 1.025 0 .478-.195.864-.586 1.157a5.156 5.156 0 01-1.274.703 4.213 4.213 0 01-1.538.279c-1.231 0-2.178-.376-2.842-1.128-.664-.762-.996-1.709-.996-2.842v-.132l.014-9.185h-1.889c-.381 0-.708-.136-.982-.41-.273-.273-.41-.6-.41-.981s.137-.708.41-.982c.274-.273.601-.41.982-.41h1.904v-2.929zm19.685 2.548c.722 0 1.425.147 2.109.44a7.18 7.18 0 011.846 1.084c.546.43.952.874 1.215 1.333l.162-1.406c0-.401.117-.743.351-1.026.234-.293.552-.439.952-.439.401 0 .742.146 1.026.439.293.283.439.625.439 1.026v.029l-.029 13.564c0 .401-.147.747-.44 1.04a1.394 1.394 0 01-1.025.425c-.4 0-.718-.141-.952-.425a1.61 1.61 0 01-.352-1.04l-.161-1.171c-.508.869-1.25 1.518-2.226 1.948-.977.42-1.958.63-2.945.63a7.555 7.555 0 01-3.105-.645 8.207 8.207 0 01-2.549-1.802 8.597 8.597 0 01-1.729-2.622 8.045 8.045 0 01-.615-3.12c0-1.084.2-2.119.601-3.105.41-.996.976-1.88 1.699-2.652a8.007 8.007 0 012.549-1.831 7.515 7.515 0 013.179-.674zm5.053 8.233c0-.957-.224-1.836-.674-2.637a5.267 5.267 0 00-1.801-1.933c-.762-.489-1.631-.733-2.608-.733-.957 0-1.821.244-2.593.733a5.32 5.32 0 00-1.831 1.948 5.243 5.243 0 00-.673 2.607c0 .947.229 1.826.688 2.637a5.475 5.475 0 001.846 1.934c.781.488 1.64.732 2.578.732.937 0 1.787-.244 2.549-.732a5.358 5.358 0 001.831-1.934 5.236 5.236 0 00.688-2.622zm11.174-10.781c0-.401.142-.743.425-1.026a1.39 1.39 0 011.04-.439c.4 0 .742.146 1.025.439.293.283.44.625.44 1.026v2.915h1.963c.38 0 .708.136.981.41.274.273.41.6.41.981s-.136.708-.41.982a1.34 1.34 0 01-.981.41h-1.978l-.015 9.067v.03c0 .478.054.81.162.996.107.175.327.263.659.263.42 0 .791-.112 1.113-.337.117-.078.259-.146.425-.205a1.27 1.27 0 01.483-.102c.401 0 .742.141 1.026.425.293.283.439.625.439 1.025 0 .478-.195.864-.586 1.157a5.156 5.156 0 01-1.274.703 4.209 4.209 0 01-1.538.279c-1.231 0-2.178-.376-2.842-1.128-.664-.762-.996-1.709-.996-2.842v-.132l.014-9.185h-1.889c-.381 0-.708-.136-.982-.41-.273-.273-.41-.6-.41-.981s.137-.708.41-.982c.274-.273.601-.41.982-.41h1.904v-2.929zm13.532 1.113c-.449 0-.815-.137-1.098-.41a1.465 1.465 0 01-.44-1.04l-.029-1.114c0-.371.166-.669.498-.893.332-.235.649-.352.952-.352.41 0 .752.142 1.025.425.284.283.43.625.44 1.025l.015.879c0 .381-.127.723-.381 1.026a1.222 1.222 0 01-.982.454zm-1.582 2.768c0-.371.156-.673.469-.908.312-.234.615-.351.908-.351.43 0 .796.127 1.099.381.303.253.454.59.454 1.01v.015l.029 13.564c0 .391-.146.723-.439.996a1.421 1.421 0 01-1.026.411 1.44 1.44 0 01-1.04-.411 1.38 1.38 0 01-.424-1.01l-.03-13.697zm16.111-1.259c1.123 0 2.168.215 3.134.644a7.997 7.997 0 012.564 1.787 8.416 8.416 0 011.714 2.622c.42.987.63 2.037.63 3.15a7.88 7.88 0 01-.63 3.12 8.37 8.37 0 01-1.743 2.593 8.223 8.223 0 01-2.564 1.758 7.57 7.57 0 01-3.105.644 7.78 7.78 0 01-3.106-.63 8.226 8.226 0 01-2.563-1.743 8.302 8.302 0 01-1.729-2.578 7.99 7.99 0 01-.63-3.164c0-1.113.21-2.163.63-3.15a8.433 8.433 0 011.729-2.607 8.19 8.19 0 012.563-1.787 7.409 7.409 0 013.106-.659zm-5.069 8.232c0 .947.23 1.812.689 2.593a5.345 5.345 0 001.86 1.846 4.866 4.866 0 002.534.688c.938 0 1.787-.234 2.549-.703a5.296 5.296 0 001.831-1.89 4.967 4.967 0 00.689-2.563c0-.947-.225-1.817-.674-2.608a5.244 5.244 0 00-1.831-1.919c-.762-.478-1.621-.717-2.578-.717-.967 0-1.831.244-2.593.732a5.28 5.28 0 00-1.817 1.919 5.312 5.312 0 00-.659 2.622zm21.15-5.918a14.493 14.493 0 011.889-1.538c.742-.508 1.602-.762 2.578-.762 1.28 0 2.344.342 3.194 1.026.849.674 1.474 1.46 1.875 2.358.312.713.498 1.421.556 2.124.069.694.103 1.348.103 1.963v7.397c0 .401-.147.748-.439 1.041a1.399 1.399 0 01-1.026.424 1.447 1.447 0 01-1.465-1.465v-7.397c0-.576-.029-1.108-.088-1.597a4.137 4.137 0 00-.322-1.289 3.119 3.119 0 00-.864-1.142c-.391-.342-.889-.513-1.494-.513-1.446 0-2.559.552-3.34 1.655-.772 1.104-1.152 2.593-1.143 4.468l.015 5.845c0 .4-.147.747-.44 1.04a1.398 1.398 0 01-1.025.425c-.41 0-.757-.142-1.04-.425a1.466 1.466 0 01-.425-1.055l-.029-13.462c0-.4.107-.742.322-1.025.225-.293.537-.44.938-.44.4 0 .708.147.923.44.214.283.38.625.498 1.025l.249.879z"/>
    <path fill="#fff" d="M33.806 13.938c0 1.124-.416 2.156-1.25 3.093-.812.938-1.76 1.407-2.843 1.407-.98 0-1.792-.167-2.438-.5-2.02-1.084-3.031-2.855-3.031-5.313 0-1.146.218-2.448.656-3.906 1.02-3.396 2.833-5.959 5.438-7.688.395-.27.812-.406 1.25-.406.583 0 1.083.23 1.5.688.437.458.656 1.01.656 1.656 0 .687-.365 1.281-1.094 1.781-1.688 1.104-2.823 2.667-3.406 4.688h.062c1.23 0 2.281.447 3.156 1.343.896.875 1.344 1.927 1.344 3.156zm-13.25 0c0 1.124-.416 2.156-1.25 3.093-.812.938-1.76 1.407-2.844 1.407-.979 0-1.791-.167-2.437-.5-2.02-1.084-3.031-2.855-3.031-5.313 0-1.146.219-2.448.656-3.906 1.02-3.396 2.833-5.959 5.437-7.688.396-.27.813-.406 1.25-.406.584 0 1.084.23 1.5.688.438.458.657 1.01.657 1.656 0 .687-.365 1.281-1.094 1.781-1.688 1.104-2.823 2.667-3.406 4.688h.062c1.23 0 2.281.447 3.156 1.343.896.875 1.344 1.927 1.344 3.156zm21.213-.532c0-.854.343-1.552 1.031-2.094.688-.541 1.448-.812 2.281-.812 1.084 0 1.917.5 2.5 1.5l11.156 19.219 10.907-19.032c.208-.333.541-.656 1-.968.479-.313.968-.469 1.468-.469.48 0 .907.052 1.282.156.396.084.802.344 1.218.781.584.626.876 1.282.876 1.97 0 .666-.157 1.26-.47 1.78L61.739 38l-.22 15.563c0 .833-.312 1.552-.937 2.156-.604.583-1.333.875-2.187.875a3.143 3.143 0 01-2.219-.875c-.604-.604-.906-1.323-.906-2.157V53.5l.218-15.906L42.27 15.187c-.334-.479-.5-1.072-.5-1.78zm64.368-2.75c3.188 0 6.115.625 8.782 1.875a21.489 21.489 0 017 5.094c1.979 2.146 3.51 4.625 4.593 7.438 1.084 2.791 1.625 5.76 1.625 8.906 0 3.146-.541 6.104-1.625 8.875-1.062 2.75-2.572 5.177-4.531 7.281-1.958 2.104-4.281 3.75-6.969 4.938-2.666 1.187-5.614 1.78-8.843 1.78-3.292 0-6.281-.593-8.969-1.78-2.688-1.209-5-2.865-6.938-4.97-1.916-2.124-3.395-4.572-4.437-7.343-1.042-2.792-1.563-5.781-1.563-8.969 0-3.104.542-6.041 1.626-8.812 1.104-2.771 2.635-5.23 4.593-7.375A21.683 21.683 0 0197.42 12.5c2.666-1.23 5.573-1.844 8.718-1.844zm.125 6.344c-3.083 0-5.812.802-8.187 2.406-2.354 1.604-4.208 3.73-5.563 6.375-1.333 2.625-2 5.5-2 8.625 0 2.125.407 4.157 1.22 6.094a17.138 17.138 0 003.374 5.188 16.476 16.476 0 004.969 3.562c1.896.854 3.917 1.281 6.062 1.281 2.146 0 4.167-.448 6.063-1.343a16.81 16.81 0 005.062-3.626 17.252 17.252 0 003.469-5.124c.834-1.917 1.25-3.876 1.25-5.876 0-3.229-.708-6.166-2.125-8.812-1.396-2.667-3.281-4.792-5.656-6.375-2.375-1.583-5.021-2.375-7.938-2.375zm32.182-2.75c0-.792.291-1.5.875-2.125.604-.625 1.302-.938 2.093-.938.98 0 1.761.271 2.344.813.604.52.917 1.27.938 2.25l.218 22.594c.042 4.5.948 8.052 2.719 10.656 1.771 2.604 4.709 3.906 8.813 3.906 3.041 0 5.479-.593 7.312-1.781 1.834-1.188 3.156-2.844 3.969-4.969.812-2.125 1.219-4.573 1.219-7.343l-.063-23.094v-.031c0-.855.302-1.573.906-2.157a2.984 2.984 0 012.188-.906c.854 0 1.594.302 2.219.906.625.584.937 1.302.937 2.156v.032l.063 23.093c0 6.25-1.552 11.198-4.657 14.844-3.083 3.646-7.739 5.469-13.968 5.469-4.021 0-7.344-.885-9.969-2.656-2.625-1.792-4.594-4.24-5.906-7.344-1.313-3.125-1.99-6.688-2.032-10.688l-.218-22.656v-.031zm109.581 25.156c.75 0 1.427.302 2.031.907.625.583.938 1.24.938 1.968 0 .584-.104 1.084-.313 1.5-1.041 2.292-2.521 4.427-4.437 6.407-1.896 1.958-4.157 3.53-6.782 4.718-2.625 1.188-5.572 1.782-8.843 1.782-3.229 0-6.146-.615-8.75-1.844-2.604-1.23-4.834-2.907-6.688-5.032-1.833-2.145-3.25-4.604-4.25-7.374-.979-2.792-1.469-5.74-1.469-8.844 0-3.063.5-5.98 1.5-8.75 1-2.771 2.428-5.219 4.282-7.344a20.128 20.128 0 016.656-5.063c2.583-1.229 5.458-1.843 8.625-1.843 3.208 0 6.115.573 8.719 1.719 2.625 1.124 4.896 2.635 6.812 4.53 1.938 1.876 3.448 3.938 4.531 6.188.23.438.344.896.344 1.375 0 .771-.281 1.48-.844 2.125-.541.625-1.177.938-1.906.938a4.269 4.269 0 01-1.937-.438 3.04 3.04 0 01-1.282-1.375c-1.166-2.416-3-4.49-5.5-6.218-2.479-1.73-5.458-2.594-8.937-2.594-3.021 0-5.646.77-7.875 2.312-2.208 1.542-3.917 3.594-5.125 6.157-1.208 2.541-1.813 5.322-1.813 8.343 0 3.042.594 5.834 1.782 8.375 1.208 2.542 2.916 4.573 5.125 6.094 2.229 1.52 4.875 2.281 7.937 2.281 2.292 0 4.386-.416 6.281-1.25 1.917-.854 3.573-1.979 4.969-3.375 1.396-1.396 2.459-2.896 3.188-4.5.562-1.25 1.573-1.875 3.031-1.875zm29.9-27c.229-.52.615-.958 1.156-1.312.563-.375 1.136-.563 1.719-.563.562 0 1.125.188 1.687.563.584.354.98.791 1.188 1.312l17.187 39.875c.188.417.282.844.282 1.282 0 .854-.313 1.593-.938 2.218a2.98 2.98 0 01-2.187.907c-.584 0-1.157-.188-1.719-.563-.563-.375-.958-.823-1.188-1.344l-5.343-12.406-17.813-.25-5.469 12.688c-.208.52-.593.968-1.156 1.343-.562.396-1.135.594-1.719.594-.854 0-1.593-.302-2.218-.906-.604-.625-.907-1.365-.907-2.219 0-.438.094-.865.282-1.281l17.156-39.938zm2.875 9.156l-6.156 14.344 12.406.157-6.25-14.5zm30.619-7.312c0-.875.312-1.594.937-2.156a3.292 3.292 0 012.281-.875c.98 0 1.782.396 2.407 1.187l23.593 32.032V14.343c0-.834.303-1.542.907-2.125.625-.604 1.364-.906 2.218-.906a2.98 2.98 0 012.188.906c.625.583.937 1.291.937 2.125l-.031 39.187c0 .875-.323 1.604-.969 2.188-.625.562-1.375.843-2.25.843-.979 0-1.781-.416-2.406-1.25l-23.562-32V53.5c0 .833-.313 1.552-.938 2.156-.604.584-1.333.875-2.187.875a3.144 3.144 0 01-2.219-.875c-.604-.604-.906-1.323-.906-2.156V14.25zM419.75 39.406c.75 0 1.427.302 2.031.907.625.583.938 1.24.938 1.968 0 .584-.104 1.084-.313 1.5-1.041 2.292-2.521 4.427-4.437 6.407-1.896 1.958-4.157 3.53-6.781 4.718-2.626 1.188-5.573 1.782-8.844 1.782-3.229 0-6.146-.615-8.75-1.844-2.604-1.23-4.834-2.907-6.688-5.032-1.833-2.145-3.25-4.604-4.25-7.374-.979-2.792-1.468-5.74-1.468-8.844 0-3.063.5-5.98 1.5-8.75 1-2.771 2.427-5.219 4.281-7.344a20.128 20.128 0 016.656-5.063c2.583-1.229 5.458-1.843 8.625-1.843 3.208 0 6.115.573 8.719 1.719 2.625 1.124 4.896 2.635 6.812 4.53 1.938 1.876 3.448 3.938 4.531 6.188.23.438.344.896.344 1.375 0 .771-.281 1.48-.844 2.125-.541.625-1.177.938-1.906.938a4.269 4.269 0 01-1.937-.438 3.033 3.033 0 01-1.281-1.375c-1.167-2.416-3-4.49-5.5-6.218-2.48-1.73-5.459-2.594-8.938-2.594-3.021 0-5.646.77-7.875 2.312-2.208 1.542-3.917 3.594-5.125 6.157-1.208 2.541-1.812 5.322-1.812 8.343 0 3.042.593 5.834 1.781 8.375 1.208 2.542 2.916 4.573 5.125 6.094 2.229 1.52 4.875 2.281 7.937 2.281 2.292 0 4.386-.416 6.281-1.25 1.917-.854 3.573-1.979 4.969-3.375 1.396-1.396 2.459-2.896 3.188-4.5.562-1.25 1.573-1.875 3.031-1.875zm13.244-25.156c0-.792.291-1.5.875-2.125.604-.625 1.302-.938 2.093-.938.98 0 1.761.271 2.344.813.604.52.917 1.27.938 2.25l.218 22.594c.042 4.5.948 8.052 2.719 10.656 1.771 2.604 4.709 3.906 8.813 3.906 3.041 0 5.479-.593 7.312-1.781 1.834-1.188 3.156-2.844 3.969-4.969.812-2.125 1.219-4.573 1.219-7.343l-.063-23.094v-.031c0-.855.302-1.573.906-2.157a2.984 2.984 0 012.188-.906c.854 0 1.594.302 2.219.906.625.584.937 1.302.937 2.156v.032l.063 23.093c0 6.25-1.552 11.198-4.657 14.844-3.083 3.646-7.739 5.469-13.968 5.469-4.021 0-7.344-.885-9.969-2.656-2.625-1.792-4.594-4.24-5.906-7.344-1.313-3.125-1.99-6.688-2.032-10.688l-.218-22.656v-.031zm66.868-3.656c2.396 0 4.657.406 6.782 1.219 2.146.812 4.021 1.937 5.625 3.374 1.604 1.438 2.823 3.105 3.656 5a3.1 3.1 0 01.281 1.282c0 .854-.312 1.593-.937 2.218a2.982 2.982 0 01-2.188.907c-.562 0-1.125-.177-1.687-.532-.563-.375-.959-.822-1.188-1.343-.791-1.792-2.114-3.219-3.969-4.282-1.833-1.062-3.958-1.593-6.375-1.593-1.187 0-2.447.146-3.781.437-1.312.292-2.552.74-3.719 1.344-1.166.583-2.114 1.323-2.843 2.219-.729.896-1.094 1.937-1.094 3.125 0 .958.312 1.791.937 2.5a7.38 7.38 0 002.094 1.625c1.813.896 3.813 1.52 6 1.875 2.209.354 4.438.698 6.688 1.031 2.25.333 4.343.917 6.281 1.75 1.229.52 2.406 1.24 3.531 2.156a11.002 11.002 0 012.75 3.344c.709 1.313 1.063 2.854 1.063 4.625 0 2.292-.552 4.302-1.657 6.031-1.104 1.73-2.552 3.167-4.343 4.313a21.387 21.387 0 01-5.844 2.593c-2.083.563-4.125.844-6.125.844-2.708 0-5.25-.427-7.625-1.281-2.375-.875-4.448-2.104-6.219-3.688a16.342 16.342 0 01-4.062-5.624 3.017 3.017 0 01-.282-1.25c0-.855.303-1.584.907-2.188.625-.625 1.364-.938 2.218-.938.584 0 1.157.188 1.719.563.563.354.948.802 1.156 1.344.917 2.104 2.469 3.77 4.657 5 2.187 1.208 4.698 1.812 7.531 1.812 1.771 0 3.552-.26 5.344-.781 1.791-.542 3.291-1.365 4.5-2.469 1.229-1.125 1.843-2.552 1.843-4.281 0-1.104-.375-2.01-1.125-2.719a7.662 7.662 0 00-2.406-1.656 24.4 24.4 0 00-6.344-1.75c-2.25-.333-4.489-.677-6.718-1.031a21.775 21.775 0 01-6.25-2.032c-1.646-.833-3.146-2.041-4.5-3.624-1.334-1.605-2-3.636-2-6.094 0-2.167.521-4.073 1.562-5.719 1.063-1.667 2.459-3.063 4.188-4.188a20.523 20.523 0 015.75-2.593 22.97 22.97 0 016.218-.875zm28.244 3.812c0-.854.302-1.583.906-2.187.625-.625 1.365-.938 2.219-.938h.031l31.219-.187h.063c.854 0 1.583.312 2.187.937.625.604.938 1.334.938 2.188 0 .854-.313 1.594-.938 2.219a2.98 2.98 0 01-2.187.906h-.032l-12.437.062-.156 35.875v.032c0 .833-.313 1.552-.938 2.156a2.98 2.98 0 01-2.187.906c-.854 0-1.594-.302-2.219-.906-.604-.604-.906-1.323-.906-2.157v-.062l.156-35.813-12.563.094h-.031c-.854 0-1.594-.302-2.219-.906-.604-.625-.906-1.365-.906-2.219zm68.181-3.75c3.188 0 6.115.625 8.782 1.875a21.489 21.489 0 017 5.094c1.979 2.146 3.51 4.625 4.593 7.438 1.084 2.791 1.625 5.76 1.625 8.906 0 3.146-.541 6.104-1.625 8.875-1.062 2.75-2.572 5.177-4.531 7.281-1.958 2.104-4.281 3.75-6.969 4.938-2.666 1.187-5.614 1.78-8.843 1.78-3.292 0-6.282-.593-8.969-1.78-2.688-1.209-5-2.865-6.938-4.97-1.916-2.124-3.395-4.572-4.437-7.343-1.042-2.792-1.563-5.781-1.563-8.969 0-3.104.542-6.041 1.625-8.812 1.105-2.771 2.636-5.23 4.594-7.375a21.68 21.68 0 016.938-5.094c2.666-1.23 5.573-1.844 8.718-1.844zm.125 6.344c-3.083 0-5.812.802-8.187 2.406-2.354 1.604-4.208 3.73-5.563 6.375-1.333 2.625-2 5.5-2 8.625 0 2.125.407 4.157 1.219 6.094a17.157 17.157 0 003.375 5.188 16.483 16.483 0 004.969 3.562c1.896.854 3.917 1.281 6.062 1.281 2.146 0 4.167-.448 6.063-1.343a16.81 16.81 0 005.062-3.626 17.252 17.252 0 003.469-5.124c.834-1.917 1.25-3.876 1.25-5.876 0-3.229-.708-6.166-2.125-8.812-1.396-2.667-3.281-4.792-5.656-6.375-2.375-1.583-5.021-2.375-7.938-2.375zm35.432 39c-.854 0-1.594-.302-2.219-.906-.604-.625-.906-1.365-.906-2.219l-.094-38.781a5.05 5.05 0 01-.031-.563c0-.291.062-.573.187-.844.146-.27.313-.552.5-.843.5-.813 1.219-1.219 2.157-1.219 1.5 0 2.531.583 3.093 1.75l16.719 27.281 15.469-27.312c.625-1.042 1.469-1.563 2.531-1.563.896 0 1.677.292 2.344.875.666.584 1 1.334 1 2.25V53c0 .854-.313 1.594-.938 2.219a2.98 2.98 0 01-2.187.906c-.854 0-1.594-.302-2.219-.906-.604-.625-.906-1.365-.906-2.219V25.062l-12.282 22.313c-.229.375-.583.74-1.062 1.094-.479.333-1 .5-1.562.5-1.209 0-2.136-.5-2.782-1.5l-13.781-22.532.094 27.907v.031c0 .854-.313 1.594-.938 2.219a2.98 2.98 0 01-2.187.906zm55.775.313c-.854 0-1.594-.303-2.219-.907-.604-.625-.906-1.364-.906-2.218l-.031-39.094c0-.792.291-1.51.875-2.156.583-.646 1.281-.97 2.093-.97.959 0 1.74.303 2.344.907.625.583.938 1.323.938 2.219l.031 39.093c0 .855-.313 1.594-.938 2.22a2.98 2.98 0 01-2.187.906zm50.4 0l-33.563.218c-.833 0-1.562-.291-2.187-.875a2.967 2.967 0 01-.938-2.218c0-.834.24-1.521.719-2.063l30.344-33.906-28.156.031h-.032c-.896 0-1.646-.313-2.25-.938a3.144 3.144 0 01-.875-2.218c0-.854.323-1.594.969-2.219.646-.646 1.292-.969 1.938-.969l35.187.063c.833 0 1.563.302 2.188.906.625.604.937 1.333.937 2.188 0 .833-.24 1.52-.719 2.062l-30.343 33.906 27.031-.031h.031c.917 0 1.667.323 2.25.969.583.646.875 1.416.875 2.312 0 .75-.208 1.334-.625 1.75a3.349 3.349 0 01-1.375.813c-.5.166-.896.25-1.187.25-.084 0-.136-.01-.157-.032h-.062zm13.837-42.063c0-.833.302-1.542.906-2.125.625-.604 1.365-.906 2.219-.906l26.781.031h.032c.854 0 1.583.313 2.187.938.625.604.938 1.333.938 2.187 0 .854-.313 1.594-.938 2.219a2.98 2.98 0 01-2.187.906h-.032l-23.656-.031.031 12.812 21.063.157c.896 0 1.635.312 2.219.937.604.625.906 1.427.906 2.406 0 .834-.323 1.542-.969 2.125-.646.563-1.364.844-2.156.844h-.031l-21-.156.031 13.218 23.562-.03h.032c.854 0 1.583.312 2.187.937.625.604.938 1.333.938 2.187 0 .854-.313 1.594-.938 2.219a2.98 2.98 0 01-2.187.906h-.032l-26.687.032c-.854 0-1.594-.303-2.219-.907-.604-.625-.906-1.354-.906-2.187l-.094-38.719zM52.725 131.312c-.854 0-1.594-.302-2.219-.906-.604-.625-.906-1.364-.906-2.218l-.031-39.094c0-.792.291-1.51.875-2.156.583-.646 1.281-.97 2.093-.97.959 0 1.74.303 2.344.907.625.583.938 1.323.938 2.219l.031 39.094c0 .854-.313 1.593-.938 2.218a2.981 2.981 0 01-2.187.906zm13.462-41.906c0-.854.303-1.583.907-2.187.625-.625 1.364-.938 2.219-.938h.03l31.22-.187h.062c.854 0 1.583.312 2.188.937.625.604.937 1.334.937 2.188 0 .854-.312 1.594-.937 2.219a2.983 2.983 0 01-2.188.906h-.031l-12.438.062L88 128.281v.031c0 .834-.313 1.553-.938 2.157a2.981 2.981 0 01-2.187.906c-.854 0-1.594-.302-2.219-.906-.604-.604-.906-1.323-.906-2.157v-.062l.156-35.813-12.562.094h-.031c-.855 0-1.594-.302-2.22-.906-.603-.625-.906-1.365-.906-2.219zm87.644-2c.229-.52.615-.958 1.157-1.312.562-.375 1.135-.563 1.718-.563.563 0 1.125.188 1.688.563.583.354.979.791 1.187 1.312l17.188 39.875c.187.417.281.844.281 1.281 0 .855-.312 1.594-.937 2.219a2.985 2.985 0 01-2.188.907c-.583 0-1.156-.188-1.719-.563-.562-.375-.958-.823-1.187-1.344l-5.344-12.406-17.812-.25-5.469 12.687c-.209.521-.594.969-1.156 1.344-.563.396-1.136.594-1.719.594-.854 0-1.594-.302-2.219-.906-.604-.625-.906-1.365-.906-2.219 0-.437.094-.865.281-1.281l17.156-39.938zm2.875 9.156l-6.156 14.344 12.406.156-6.25-14.5zm49.65-10.968c2.396 0 4.657.406 6.782 1.219 2.145.812 4.02 1.937 5.625 3.374 1.604 1.438 2.822 3.105 3.656 5a3.1 3.1 0 01.281 1.282c0 .854-.312 1.594-.937 2.219a2.983 2.983 0 01-2.188.906c-.562 0-1.125-.177-1.687-.531-.563-.376-.959-.823-1.188-1.344-.792-1.792-2.115-3.219-3.969-4.281-1.833-1.063-3.958-1.594-6.375-1.594-1.187 0-2.448.146-3.781.437-1.312.292-2.552.74-3.719 1.344-1.166.583-2.114 1.323-2.843 2.219-.73.896-1.094 1.937-1.094 3.125 0 .958.312 1.791.937 2.5a7.39 7.39 0 002.094 1.625c1.813.896 3.813 1.521 6 1.875 2.208.354 4.438.698 6.688 1.031 2.25.333 4.343.917 6.281 1.75 1.229.521 2.406 1.24 3.531 2.156a11.012 11.012 0 012.75 3.344c.708 1.312 1.063 2.854 1.063 4.625 0 2.292-.553 4.302-1.657 6.031s-2.552 3.167-4.343 4.313a21.37 21.37 0 01-5.844 2.593c-2.084.563-4.125.844-6.125.844-2.709 0-5.25-.427-7.625-1.281-2.375-.875-4.448-2.104-6.219-3.687a16.352 16.352 0 01-4.062-5.626 3.014 3.014 0 01-.282-1.25c0-.854.302-1.583.907-2.187.625-.625 1.364-.937 2.218-.937.584 0 1.157.187 1.719.562.563.354.948.802 1.156 1.344.917 2.104 2.469 3.771 4.657 5 2.187 1.208 4.697 1.812 7.531 1.812 1.771 0 3.552-.26 5.344-.781 1.791-.542 3.291-1.365 4.5-2.469 1.229-1.125 1.843-2.552 1.843-4.281 0-1.104-.375-2.01-1.125-2.719a7.663 7.663 0 00-2.406-1.656 24.388 24.388 0 00-6.344-1.75c-2.25-.333-4.489-.677-6.718-1.031a21.77 21.77 0 01-6.25-2.031c-1.646-.834-3.146-2.042-4.5-3.626-1.334-1.604-2-3.635-2-6.093 0-2.167.52-4.073 1.562-5.719 1.063-1.667 2.458-3.063 4.188-4.188a20.523 20.523 0 015.75-2.593 22.97 22.97 0 016.218-.875zm52.144 2.812c0-.854.344-1.552 1.031-2.094.688-.541 1.448-.812 2.281-.812 1.084 0 1.917.5 2.5 1.5l11.157 19.219 10.906-19.031c.208-.334.542-.657 1-.97.479-.312.969-.468 1.469-.468.479 0 .906.052 1.281.156.396.084.802.344 1.219.781.583.626.875 1.282.875 1.97 0 .666-.157 1.26-.469 1.78L278.469 113l-.219 15.562c0 .834-.312 1.553-.938 2.157-.604.583-1.333.875-2.187.875a3.145 3.145 0 01-2.219-.875c-.604-.604-.906-1.323-.906-2.157v-.062l.219-15.906L259 90.188c-.333-.48-.5-1.073-.5-1.782zm64.369-2.75c3.187 0 6.114.625 8.781 1.875a21.478 21.478 0 017 5.094c1.979 2.146 3.51 4.625 4.594 7.437 1.083 2.792 1.625 5.761 1.625 8.907s-.542 6.104-1.625 8.875c-1.063 2.75-2.573 5.177-4.531 7.281-1.959 2.104-4.282 3.75-6.969 4.937-2.667 1.188-5.615 1.782-8.844 1.782-3.292 0-6.281-.594-8.969-1.782-2.687-1.208-5-2.864-6.937-4.968-1.917-2.125-3.396-4.573-4.438-7.344-1.041-2.792-1.562-5.781-1.562-8.969 0-3.104.541-6.041 1.625-8.812 1.104-2.771 2.635-5.23 4.594-7.375a21.677 21.677 0 016.937-5.094c2.667-1.23 5.573-1.844 8.719-1.844zm.125 6.344c-3.084 0-5.813.802-8.188 2.406-2.354 1.604-4.208 3.73-5.562 6.375-1.334 2.625-2 5.5-2 8.625 0 2.125.406 4.156 1.219 6.094a17.118 17.118 0 003.375 5.188 16.465 16.465 0 004.968 3.562c1.896.854 3.917 1.281 6.063 1.281s4.166-.448 6.062-1.343a16.83 16.83 0 005.063-3.626 17.286 17.286 0 003.469-5.124c.833-1.917 1.25-3.876 1.25-5.876 0-3.229-.709-6.166-2.125-8.812-1.396-2.667-3.282-4.792-5.657-6.375-2.375-1.583-5.021-2.375-7.937-2.375zm32.181-2.75c0-.792.292-1.5.875-2.125.604-.625 1.302-.938 2.094-.938.979 0 1.76.271 2.344.813.604.52.916 1.27.937 2.25l.219 22.594c.041 4.5.948 8.052 2.719 10.656 1.77 2.604 4.708 3.906 8.812 3.906 3.042 0 5.479-.594 7.313-1.781 1.833-1.187 3.156-2.844 3.968-4.969.813-2.125 1.219-4.573 1.219-7.344l-.062-23.093v-.031c0-.855.302-1.573.906-2.157a2.98 2.98 0 012.187-.906c.854 0 1.594.302 2.219.906.625.584.938 1.302.938 2.156v.032l.062 23.093c0 6.25-1.552 11.198-4.656 14.844-3.084 3.646-7.74 5.469-13.969 5.469-4.021 0-7.344-.885-9.969-2.656-2.625-1.792-4.593-4.24-5.906-7.344-1.312-3.125-1.99-6.687-2.031-10.687l-.219-22.657v-.031zm94.8-1.375c.188-.583.563-1.073 1.125-1.469.583-.396 1.198-.594 1.844-.594a2.9 2.9 0 011.875.657c.562.437.927.948 1.094 1.531l9.593 30.562 8.532-29.406c.166-.875.531-1.625 1.093-2.25.584-.646 1.229-.969 1.938-.969.896 0 1.635.376 2.219 1.126.604.75.906 1.635.906 2.656 0 .416-.052.781-.156 1.094l-11.344 38.531c-.188.625-.563 1.146-1.125 1.562a3.137 3.137 0 01-1.844.594c-.625 0-1.24-.188-1.844-.562-.583-.396-.968-.896-1.156-1.5l-9.875-28.344-10.437 29.281c-.334.333-.75.604-1.25.813-.48.208-1.053.312-1.719.312a3.276 3.276 0 01-1.875-.594c-.584-.416-.969-.937-1.156-1.562l-10.938-38.125a4.523 4.523 0 01-.125-1.094c0-1.02.292-1.906.875-2.656.604-.75 1.354-1.125 2.25-1.125.729 0 1.375.333 1.938 1a4.417 4.417 0 011.093 2.281l8.219 29.125 10.25-30.875zm56.431-.469c.229-.52.615-.958 1.156-1.312.563-.375 1.136-.563 1.719-.563.563 0 1.125.188 1.688.563.583.354.979.791 1.187 1.312l17.188 39.875c.187.417.281.844.281 1.281 0 .855-.313 1.594-.937 2.219a2.985 2.985 0 01-2.188.907c-.583 0-1.156-.188-1.719-.563-.562-.375-.958-.823-1.187-1.344l-5.344-12.406-17.812-.25-5.469 12.687c-.209.521-.594.969-1.157 1.344-.562.396-1.135.594-1.718.594-.854 0-1.594-.302-2.219-.906-.604-.625-.906-1.365-.906-2.219 0-.437.093-.865.281-1.281l17.156-39.938zm2.875 9.156l-6.156 14.344 12.406.156-6.25-14.5zM539.9 89.25c0-.875.313-1.594.938-2.156a3.29 3.29 0 012.281-.875c.979 0 1.781.396 2.406 1.187l23.594 32.032V89.344c0-.834.302-1.542.906-2.125.625-.604 1.365-.906 2.219-.906a2.98 2.98 0 012.187.906c.625.583.938 1.291.938 2.125l-.031 39.187c0 .875-.323 1.604-.969 2.188-.625.562-1.375.843-2.25.843-.979 0-1.781-.416-2.406-1.25l-23.563-32V128.5c0 .833-.312 1.552-.937 2.156-.605.584-1.334.875-2.188.875a3.141 3.141 0 01-2.219-.875c-.604-.604-.906-1.323-.906-2.156V89.25zm45.025.156c0-.854.302-1.583.906-2.187.625-.625 1.365-.938 2.219-.938h.031l31.219-.187h.063c.854 0 1.583.312 2.187.937.625.604.938 1.334.938 2.188 0 .854-.313 1.594-.938 2.219a2.98 2.98 0 01-2.187.906h-.032l-12.437.062-.156 35.875v.031c0 .834-.313 1.553-.938 2.157a2.98 2.98 0 01-2.187.906c-.855 0-1.594-.302-2.219-.906-.604-.604-.906-1.323-.906-2.157v-.062l.156-35.813-12.563.094h-.031c-.854 0-1.594-.302-2.219-.906-.604-.625-.906-1.365-.906-2.219zm70.987-.156c0-.875.313-1.594.938-2.156a3.292 3.292 0 012.281-.875c.979 0 1.781.396 2.406 1.187l23.594 32.032V89.344c0-.834.302-1.542.906-2.125.625-.604 1.365-.906 2.219-.906.854 0 1.584.302 2.188.906.625.583.937 1.291.937 2.125l-.031 39.187c0 .875-.323 1.604-.969 2.188-.625.562-1.375.843-2.25.843-.979 0-1.781-.416-2.406-1.25l-23.563-32V128.5c0 .833-.312 1.552-.937 2.156-.604.584-1.333.875-2.188.875a3.139 3.139 0 01-2.218-.875c-.604-.604-.907-1.323-.907-2.156V89.25zm67.682-3.594c3.187 0 6.114.625 8.781 1.875a21.489 21.489 0 017 5.094c1.979 2.146 3.51 4.625 4.594 7.437 1.083 2.792 1.625 5.761 1.625 8.907s-.542 6.104-1.625 8.875c-1.063 2.75-2.573 5.177-4.531 7.281-1.959 2.104-4.282 3.75-6.969 4.937-2.667 1.188-5.615 1.782-8.844 1.782-3.292 0-6.281-.594-8.969-1.782-2.687-1.208-5-2.864-6.937-4.968-1.917-2.125-3.396-4.573-4.438-7.344-1.041-2.792-1.562-5.781-1.562-8.969 0-3.104.541-6.041 1.625-8.812 1.104-2.771 2.635-5.23 4.594-7.375a21.677 21.677 0 016.937-5.094c2.667-1.23 5.573-1.844 8.719-1.844zm.125 6.344c-3.084 0-5.813.802-8.188 2.406-2.354 1.604-4.208 3.73-5.562 6.375-1.334 2.625-2 5.5-2 8.625 0 2.125.406 4.156 1.219 6.094a17.134 17.134 0 003.374 5.188 16.482 16.482 0 004.969 3.562c1.896.854 3.917 1.281 6.063 1.281s4.166-.448 6.062-1.343a16.83 16.83 0 005.063-3.626 17.286 17.286 0 003.469-5.124c.833-1.917 1.25-3.876 1.25-5.876 0-3.229-.709-6.166-2.126-8.812-1.395-2.667-3.281-4.792-5.656-6.375-2.375-1.583-5.021-2.375-7.937-2.375zM301.5 206.25c-.854 0-1.594-.302-2.219-.906-.604-.625-.906-1.354-.906-2.188l-.094-39.656v-.031c0-.834.302-1.542.907-2.125.624-.604 1.364-.906 2.218-.906.854 0 1.584.302 2.188.906.625.583.937 1.291.937 2.125l.094 36.531 23.656-.062h.031c.855 0 1.584.312 2.188.937.625.604.938 1.333.938 2.187 0 .855-.313 1.594-.938 2.219a2.982 2.982 0 01-2.188.907h-.031l-26.781.062zm43.431.062c-.854 0-1.594-.302-2.219-.906-.604-.625-.906-1.364-.906-2.218l-.031-39.094c0-.792.292-1.511.875-2.156.583-.646 1.281-.969 2.094-.969.958 0 1.739.302 2.343.906.625.583.938 1.323.938 2.219l.031 39.094c0 .854-.312 1.593-.937 2.218a2.982 2.982 0 01-2.188.906zm18.275-.312c-.854 0-1.594-.302-2.219-.906-.604-.625-.906-1.365-.906-2.219l-.094-38.781a5.31 5.31 0 01-.031-.563c0-.291.063-.573.188-.843.146-.271.312-.553.5-.844.5-.813 1.218-1.219 2.156-1.219 1.5 0 2.531.583 3.094 1.75l16.718 27.281 15.469-27.312c.625-1.042 1.469-1.563 2.531-1.563.896 0 1.678.292 2.344.875.667.584 1 1.334 1 2.25V203c0 .854-.312 1.594-.937 2.219a2.982 2.982 0 01-2.188.906c-.854 0-1.594-.302-2.219-.906-.604-.625-.906-1.365-.906-2.219v-27.938l-12.281 22.313c-.229.375-.583.74-1.063 1.094-.479.333-1 .5-1.562.5-1.208 0-2.135-.5-2.781-1.5l-13.782-22.531.094 27.906v.031c0 .854-.312 1.594-.937 2.219a2.982 2.982 0 01-2.188.906zm55.775.312c-.854 0-1.593-.302-2.218-.906-.605-.625-.907-1.364-.907-2.218l-.031-39.094c0-.792.292-1.511.875-2.156.583-.646 1.281-.969 2.094-.969.958 0 1.739.302 2.344.906.625.583.937 1.323.937 2.219l.031 39.094c0 .854-.312 1.593-.937 2.218a2.982 2.982 0 01-2.188.906zm13.463-41.906c0-.854.302-1.583.906-2.187.625-.625 1.365-.938 2.219-.938h.031l31.219-.187h.062c.854 0 1.584.312 2.188.937.625.604.937 1.334.937 2.188 0 .854-.312 1.593-.937 2.219a2.982 2.982 0 01-2.188.906h-.031l-12.437.062-.157 35.875v.031c0 .834-.312 1.553-.937 2.157a2.982 2.982 0 01-2.188.906c-.854 0-1.593-.302-2.218-.906-.605-.604-.907-1.323-.907-2.157v-.062l.157-35.812-12.563.093h-.031c-.854 0-1.594-.302-2.219-.906-.604-.625-.906-1.365-.906-2.219zm48.681-9.344c0-1.124.406-2.156 1.219-3.093.833-.938 1.791-1.407 2.875-1.407.979 0 1.791.167 2.437.5 2.021 1.084 3.032 2.855 3.032 5.313 0 1.146-.219 2.448-.657 3.906-1.021 3.396-2.833 5.959-5.437 7.688a2.179 2.179 0 01-1.25.406c-.584 0-1.094-.229-1.532-.687-.416-.459-.624-1.011-.624-1.657 0-.687.364-1.281 1.093-1.781 1.688-1.104 2.823-2.667 3.407-4.688h-.063c-1.229 0-2.292-.437-3.187-1.312-.876-.896-1.313-1.958-1.313-3.188zm13.25 0c0-1.124.406-2.156 1.219-3.093.833-.938 1.791-1.407 2.875-1.407.979 0 1.791.167 2.437.5 2.021 1.084 3.032 2.855 3.032 5.313 0 1.146-.219 2.448-.657 3.906-1.021 3.396-2.833 5.959-5.437 7.688a2.179 2.179 0 01-1.25.406c-.584 0-1.094-.229-1.532-.687-.416-.459-.624-1.011-.624-1.657 0-.687.364-1.281 1.093-1.781 1.688-1.104 2.823-2.667 3.407-4.688h-.063c-1.229 0-2.292-.437-3.187-1.312-.876-.896-1.313-1.958-1.313-3.188z"/>
  </g>
  <defs>
    <filter id="filter0_d" width="781.925" height="343.782" x="6.994" y=".625" color-interpolation-filters="sRGB" filterUnits="userSpaceOnUse">
      <feFlood flood-opacity="0" result="BackgroundImageFix"/>
      <feColorMatrix in="SourceAlpha" values="0 0 0 0 0 0 0 0 0 0 0 0 0 0 0 0 0 0 127 0"/>
      <feOffset dy="4"/>
      <feGaussianBlur stdDeviation="2"/>
      <feColorMatrix values="0 0 0 0 0 0 0 0 0 0 0 0 0 0 0 0 0 0 0.25 0"/>
      <feBlend in2="BackgroundImageFix" result="effect1_dropShadow"/>
      <feBlend in="SourceGraphic" in2="effect1_dropShadow" result="shape"/>
    </filter>
  </defs>
</svg>
