<svg xmlns="http://www.w3.org/2000/svg" width="801" height="377" fill="none" viewBox="0 0 801 377">
  <g filter="url(#filter0_d)">
    <path fill="#000" d="M91.616 185.779c0-.391.141-.723.424-.996.293-.283.64-.425 1.04-.425l12.554.015h.015c.4 0 .742.146 1.025.439.293.283.44.625.44 1.026 0 .4-.147.747-.44 1.04a1.397 1.397 0 01-1.025.424h-.015l-11.089-.014.015 6.006 9.873.073c.42 0 .767.146 1.04.439.283.293.425.669.425 1.128 0 .391-.152.723-.454.996-.303.264-.64.396-1.011.396h-.015l-9.843-.073.014 6.196 11.045-.015h.015c.4 0 .742.147 1.025.44.293.283.44.625.44 1.025 0 .401-.147.747-.44 1.04a1.398 1.398 0 01-1.025.425h-.015l-12.51.015c-.4 0-.747-.142-1.04-.425a1.43 1.43 0 01-.424-1.026l-.044-18.149zm32.868 3.53c.351 0 .669.142.952.425.293.283.439.596.439.938 0 .302-.048.551-.146.747l-6.182 13.374c-.263.556-.713.835-1.347.835-.655 0-1.094-.298-1.319-.894l-5.537-13.374c-.078-.166-.117-.395-.117-.688 0-.313.132-.616.395-.909.274-.302.577-.454.909-.454.761 0 1.269.303 1.523.909l4.263 10.371 4.761-10.43c.263-.566.732-.85 1.406-.85zm12.551.044a6.87 6.87 0 013.574.967 7.414 7.414 0 012.607 2.607c.664 1.084.996 2.291.996 3.619 0 .273-.014.551-.044.835a1.383 1.383 0 01-.498.922 1.434 1.434 0 01-.966.367l-10.24.014c.166.703.479 1.363.938 1.978a5.543 5.543 0 001.67 1.494 4.279 4.279 0 002.168.571c.839 0 1.591-.205 2.256-.615.664-.41 1.181-.884 1.552-1.421.117-.185.293-.342.528-.469.244-.127.473-.19.688-.19.4 0 .742.146 1.025.439.293.293.44.64.44 1.04 0 .313-.088.591-.264.835-.605.889-1.44 1.661-2.505 2.315-1.054.644-2.28.967-3.676.967a7.494 7.494 0 01-3.135-.659 7.95 7.95 0 01-2.505-1.802 8.453 8.453 0 01-1.67-2.622 8.542 8.542 0 01-.586-3.15 7.94 7.94 0 01.586-3.032 8.436 8.436 0 011.626-2.578 7.83 7.83 0 012.446-1.773 6.9 6.9 0 012.989-.659zm4.16 6.387c-.186-.957-.664-1.772-1.436-2.446-.771-.674-1.68-1.011-2.724-1.011a4.257 4.257 0 00-2.828 1.04c-.81.693-1.357 1.504-1.64 2.432l8.628-.015zm18.073-4.585c0 .781-.376 1.216-1.128 1.304-.273.029-.62-.059-1.04-.264a2.77 2.77 0 00-1.274-.322c-.85 0-1.524.22-2.022.659-.498.43-.854 1.011-1.069 1.743-.215.733-.322 1.553-.322 2.461v7.559c0 .429-.132.771-.396 1.025-.254.254-.61.381-1.069.381-.45 0-.806-.127-1.07-.381-.263-.254-.395-.601-.395-1.04v-13.491c0-.44.107-.801.322-1.084.225-.283.527-.425.908-.425.225 0 .484.098.777.293.302.186.512.508.63.967l.146 1.054c.127-.273.371-.59.732-.952a5.356 5.356 0 011.29-.937 3.176 3.176 0 011.552-.41c.996 0 1.817.117 2.461.351.645.225.967.728.967 1.509zm5.197-1.934c.283 0 .547.083.791.249.254.166.435.372.542.616l4.981 11.323 4.262-11.221a1.51 1.51 0 01.528-.659c.254-.176.532-.264.835-.264.4 0 .742.147 1.025.44.293.283.44.625.44 1.025 0 .205-.04.396-.118.572l-5.39 14.062c-.02.127-.054.239-.103.337a3.295 3.295 0 01-.146.264l-.821 2.05a22.387 22.387 0 01-.732 1.612 6.288 6.288 0 01-1.172 1.626 6.193 6.193 0 01-1.758 1.259 4.748 4.748 0 01-2.153.513c-.41 0-.757-.151-1.04-.454a1.448 1.448 0 01-.425-1.04c0-.391.132-.732.396-1.025.273-.284.6-.43.981-.44.859-.058 1.524-.395 1.992-1.011.469-.605.869-1.323 1.201-2.153l.704-1.787-6.153-13.799a1.583 1.583 0 01-.132-.63c0-.4.142-.742.425-1.025.293-.293.64-.44 1.04-.44zm28.72 1.289c0-.322.142-.605.425-.849.283-.244.586-.366.908-.366.332 0 .625.092.879.278.264.186.434.415.513.688l2.929 9.947 3.472-9.756h.015c.244-.43.673-.645 1.289-.645.283 0 .547.064.791.191.244.117.415.273.512.469v.014l3.37 9.492 2.709-9.697c.079-.264.24-.493.484-.688.244-.196.542-.293.893-.293.313 0 .616.117.909.351.293.225.439.508.439.85 0 .215-.019.386-.059.513l-3.837 13.535c-.069.244-.23.473-.484.688a1.28 1.28 0 01-.849.308c-.303 0-.577-.083-.821-.249a1.493 1.493 0 01-.498-.615l-3.545-9.8-3.603 9.887a1.227 1.227 0 01-.528.63 1.4 1.4 0 01-.805.249 1.38 1.38 0 01-.835-.278 1.309 1.309 0 01-.484-.688l-4.145-13.653a2.658 2.658 0 01-.044-.513zm32.062-1.157c1.299 0 2.491.323 3.575.967a7.414 7.414 0 012.607 2.607c.664 1.084.996 2.291.996 3.619 0 .273-.014.551-.044.835a1.383 1.383 0 01-.498.922 1.435 1.435 0 01-.967.367l-10.239.014c.166.703.479 1.363.938 1.978a5.543 5.543 0 001.67 1.494 4.279 4.279 0 002.168.571c.839 0 1.591-.205 2.255-.615.664-.41 1.182-.884 1.553-1.421.117-.185.293-.342.527-.469.245-.127.474-.19.689-.19.4 0 .742.146 1.025.439.293.293.44.64.44 1.04 0 .313-.088.591-.264.835-.605.889-1.44 1.661-2.505 2.315-1.054.644-2.28.967-3.677.967a7.49 7.49 0 01-3.134-.659 7.95 7.95 0 01-2.505-1.802 8.453 8.453 0 01-1.67-2.622 8.542 8.542 0 01-.586-3.15 7.94 7.94 0 01.586-3.032 8.436 8.436 0 011.626-2.578 7.82 7.82 0 012.446-1.773 6.9 6.9 0 012.988-.659zm4.161 6.387c-.186-.957-.664-1.772-1.436-2.446-.771-.674-1.68-1.011-2.725-1.011a4.257 4.257 0 00-2.827 1.04c-.81.693-1.357 1.504-1.64 2.432l8.628-.015zm15.421-6.387c1.299 0 2.491.323 3.575.967a7.414 7.414 0 012.607 2.607c.664 1.084.996 2.291.996 3.619 0 .273-.014.551-.044.835a1.383 1.383 0 01-.498.922 1.435 1.435 0 01-.967.367l-10.239.014c.166.703.479 1.363.938 1.978a5.543 5.543 0 001.67 1.494 4.279 4.279 0 002.168.571c.839 0 1.591-.205 2.255-.615.664-.41 1.182-.884 1.553-1.421.117-.185.293-.342.528-.469.244-.127.473-.19.688-.19.4 0 .742.146 1.025.439.293.293.44.64.44 1.04 0 .313-.088.591-.264.835-.605.889-1.44 1.661-2.505 2.315-1.054.644-2.28.967-3.676.967a7.49 7.49 0 01-3.135-.659 7.95 7.95 0 01-2.505-1.802 8.453 8.453 0 01-1.67-2.622 8.542 8.542 0 01-.586-3.15 7.94 7.94 0 01.586-3.032 8.436 8.436 0 011.626-2.578 7.82 7.82 0 012.446-1.773 6.9 6.9 0 012.988-.659zm4.161 6.387c-.186-.957-.664-1.772-1.436-2.446-.771-.674-1.68-1.011-2.725-1.011a4.257 4.257 0 00-2.827 1.04c-.81.693-1.357 1.504-1.64 2.432l8.628-.015zm8.288-10.283c0-.401.141-.742.425-1.026a1.42 1.42 0 011.04-.439c.4 0 .742.146 1.025.439.293.284.439.625.439 1.026v10.473l5.933-6.167c.273-.312.63-.468 1.069-.468.401 0 .743.146 1.026.439.293.283.439.625.439 1.026 0 .41-.141.756-.425 1.04l-4.746 4.936 4.995 6.563c.206.253.308.556.308.908 0 .4-.146.747-.439 1.04a1.4 1.4 0 01-1.026.425 1.31 1.31 0 01-.644-.191 1.65 1.65 0 01-.528-.41l-4.716-6.211-1.246 1.289v4.014c0 .4-.146.747-.439 1.04a1.398 1.398 0 01-1.025.425c-.401 0-.747-.142-1.04-.425a1.444 1.444 0 01-.425-1.04v-18.706zm27.196 5.053c0-.322.142-.605.425-.849.283-.244.586-.366.908-.366.332 0 .625.092.879.278.264.186.435.415.513.688l2.929 9.947 3.472-9.756h.015c.244-.43.673-.645 1.289-.645.283 0 .547.064.791.191.244.117.415.273.512.469v.014l3.37 9.492 2.71-9.697c.078-.264.239-.493.483-.688.244-.196.542-.293.893-.293.313 0 .616.117.909.351.293.225.439.508.439.85 0 .215-.019.386-.058.513l-3.838 13.535c-.069.244-.23.473-.484.688a1.28 1.28 0 01-.849.308c-.303 0-.577-.083-.821-.249a1.493 1.493 0 01-.498-.615l-3.545-9.8-3.603 9.887a1.23 1.23 0 01-.527.63 1.405 1.405 0 01-1.641-.029 1.309 1.309 0 01-.484-.688l-4.145-13.653a2.658 2.658 0 01-.044-.513zm32.063-1.157a6.87 6.87 0 013.574.967 7.414 7.414 0 012.607 2.607c.664 1.084.996 2.291.996 3.619 0 .273-.014.551-.044.835a1.383 1.383 0 01-.498.922 1.435 1.435 0 01-.967.367l-10.239.014c.166.703.479 1.363.938 1.978a5.543 5.543 0 001.67 1.494 4.279 4.279 0 002.168.571c.839 0 1.591-.205 2.255-.615.665-.41 1.182-.884 1.553-1.421.117-.185.293-.342.528-.469.244-.127.473-.19.688-.19.4 0 .742.146 1.025.439.293.293.44.64.44 1.04 0 .313-.088.591-.264.835-.605.889-1.44 1.661-2.505 2.315-1.054.644-2.28.967-3.676.967a7.494 7.494 0 01-3.135-.659 7.95 7.95 0 01-2.505-1.802 8.453 8.453 0 01-1.67-2.622 8.542 8.542 0 01-.586-3.15 7.94 7.94 0 01.586-3.032 8.436 8.436 0 011.626-2.578 7.83 7.83 0 012.446-1.773 6.9 6.9 0 012.989-.659zm4.16 6.387c-.186-.957-.664-1.772-1.436-2.446-.771-.674-1.68-1.011-2.724-1.011a4.257 4.257 0 00-2.828 1.04c-.81.693-1.357 1.504-1.64 2.432l8.628-.015zm26.918-6.46c1.396 0 2.661.308 3.794.923 1.142.605 1.987 1.426 2.534 2.461.117.205.176.439.176.703 0 .4-.147.747-.44 1.04a1.398 1.398 0 01-1.025.425c-.244 0-.498-.078-.762-.235-.254-.166-.435-.356-.542-.571a3.077 3.077 0 00-1.45-1.362c-.645-.303-1.411-.454-2.3-.454-.518 0-1.104.068-1.758.205-.654.137-1.221.356-1.699.659-.479.303-.718.713-.718 1.23 0 .381.196.684.586.909.401.214.889.381 1.465.498.586.117 1.172.205 1.758.263a70.21 70.21 0 011.435.132c.723.078 1.436.2 2.139.366a7.598 7.598 0 011.934.704 3.648 3.648 0 011.391 1.274c.352.537.528 1.221.528 2.051 0 1.181-.342 2.148-1.026 2.9-.683.752-1.557 1.309-2.622 1.67a10.327 10.327 0 01-3.34.542c-1.592 0-3.042-.312-4.35-.937-1.299-.635-2.261-1.558-2.886-2.769a1.535 1.535 0 01-.176-.688c0-.401.142-.743.425-1.026.293-.293.64-.439 1.04-.439.254 0 .508.083.762.249.263.156.449.346.556.571.381.742.967 1.279 1.758 1.611.801.332 1.753.498 2.857.498a9.11 9.11 0 001.816-.19c.635-.137 1.167-.366 1.597-.689.439-.322.659-.761.659-1.318 0-.43-.191-.737-.571-.923-.372-.195-.821-.322-1.348-.381l-1.45-.161c-.86-.088-1.748-.2-2.666-.337a12.187 12.187 0 01-2.564-.688c-.781-.313-1.416-.762-1.904-1.348-.488-.586-.732-1.367-.732-2.344 0-.878.209-1.635.629-2.27a5.009 5.009 0 011.7-1.553 8.303 8.303 0 012.299-.908c.84-.195 1.67-.293 2.491-.293zm20.05.073c1.299 0 2.491.323 3.575.967a7.414 7.414 0 012.607 2.607c.664 1.084.996 2.291.996 3.619 0 .273-.014.551-.044.835a1.383 1.383 0 01-.498.922 1.435 1.435 0 01-.967.367l-10.239.014c.166.703.479 1.363.938 1.978a5.543 5.543 0 001.67 1.494 4.279 4.279 0 002.168.571c.839 0 1.591-.205 2.255-.615.664-.41 1.182-.884 1.553-1.421.117-.185.293-.342.527-.469.245-.127.474-.19.689-.19.4 0 .742.146 1.025.439.293.293.44.64.44 1.04 0 .313-.088.591-.264.835-.605.889-1.44 1.661-2.505 2.315-1.054.644-2.28.967-3.677.967a7.486 7.486 0 01-3.134-.659 7.95 7.95 0 01-2.505-1.802 8.453 8.453 0 01-1.67-2.622 8.542 8.542 0 01-.586-3.15 7.94 7.94 0 01.586-3.032 8.436 8.436 0 011.626-2.578 7.82 7.82 0 012.446-1.773 6.9 6.9 0 012.988-.659zm4.161 6.387c-.186-.957-.664-1.772-1.436-2.446-.771-.674-1.68-1.011-2.725-1.011a4.257 4.257 0 00-2.827 1.04c-.81.693-1.357 1.504-1.64 2.432l8.628-.015zm11.217-4.116a14.492 14.492 0 011.89-1.538c.742-.508 1.602-.762 2.578-.762 1.279 0 2.344.342 3.193 1.025.85.674 1.475 1.46 1.875 2.359.313.713.499 1.421.557 2.124.068.693.103 1.347.103 1.963v7.397c0 .401-.147.747-.44 1.04a1.398 1.398 0 01-1.025.425c-.401 0-.747-.142-1.04-.425a1.446 1.446 0 01-.425-1.04v-7.397c0-.576-.029-1.109-.088-1.597a4.165 4.165 0 00-.322-1.289 3.125 3.125 0 00-.864-1.143c-.391-.341-.889-.512-1.495-.512-1.445 0-2.558.551-3.339 1.655-.772 1.103-1.153 2.593-1.143 4.468l.015 5.844c0 .401-.147.748-.44 1.04a1.394 1.394 0 01-1.025.425c-.41 0-.757-.141-1.04-.425a1.462 1.462 0 01-.425-1.054l-.029-13.462c0-.401.107-.742.322-1.026.225-.292.537-.439.937-.439.401 0 .708.147.923.439.215.284.381.625.498 1.026l.249.879zm15.32 5.845a8.75 8.75 0 01.615-3.223 8.033 8.033 0 011.816-2.769 7.695 7.695 0 012.461-1.611 7.528 7.528 0 012.886-.571c1.016 0 1.919.215 2.71.644a7.49 7.49 0 012.124 1.743v-6.167c0-.4.142-.742.425-1.025a1.42 1.42 0 011.04-.439c.4 0 .742.146 1.025.439.293.283.44.625.44 1.025v18.706c0 .401-.147.748-.44 1.04a1.394 1.394 0 01-1.025.425c-.401 0-.703-.141-.908-.425a2.476 2.476 0 01-.381-1.04l-.176-1.186a5.798 5.798 0 01-2.212 1.89c-.908.459-1.816.688-2.725.688-1.103 0-2.124-.22-3.061-.659a7.858 7.858 0 01-2.432-1.787 8.425 8.425 0 01-2.182-5.698zm7.646 5.214c.635 0 1.265-.141 1.89-.424a4.892 4.892 0 001.597-1.143 5.105 5.105 0 001.01-1.714 5.699 5.699 0 00.366-2.007c0-.937-.205-1.801-.615-2.593a5.002 5.002 0 00-1.699-1.904c-.713-.478-1.538-.718-2.476-.718-.918 0-1.743.254-2.475.762a5.296 5.296 0 00-1.714 1.963 5.547 5.547 0 00-.615 2.564c0 .908.205 1.762.615 2.563.41.791.972 1.431 1.685 1.919a4.244 4.244 0 002.431.732zm15.349-14.882c-.449 0-.816-.137-1.099-.411a1.464 1.464 0 01-.439-1.04l-.03-1.113c0-.371.166-.669.498-.893.333-.235.65-.352.953-.352.41 0 .752.142 1.025.425.283.283.43.625.439 1.025l.015.879c0 .381-.127.723-.381 1.025a1.222 1.222 0 01-.981.455zm-1.582 2.768c0-.371.156-.674.469-.908.312-.234.615-.352.908-.352.429 0 .796.127 1.098.381.303.254.454.591.454 1.011v.015l.03 13.564c0 .391-.147.723-.44.996a1.42 1.42 0 01-1.025.41c-.41 0-.757-.136-1.04-.41a1.381 1.381 0 01-.425-1.011l-.029-13.696zm11.672 1.055a14.412 14.412 0 011.889-1.538c.742-.508 1.602-.762 2.578-.762 1.28 0 2.344.342 3.194 1.025.849.674 1.474 1.46 1.875 2.359.312.713.498 1.421.556 2.124.069.693.103 1.347.103 1.963v7.397c0 .401-.147.747-.439 1.04a1.4 1.4 0 01-1.026.425 1.448 1.448 0 01-1.465-1.465v-7.397c0-.576-.029-1.109-.088-1.597a4.137 4.137 0 00-.322-1.289 3.114 3.114 0 00-.864-1.143c-.391-.341-.889-.512-1.494-.512-1.446 0-2.559.551-3.34 1.655-.772 1.103-1.152 2.593-1.143 4.468l.015 5.844c0 .401-.147.748-.439 1.04a1.396 1.396 0 01-1.026.425c-.41 0-.757-.141-1.04-.425a1.462 1.462 0 01-.425-1.054l-.029-13.462c0-.401.107-.742.322-1.026.225-.292.537-.439.938-.439.4 0 .708.147.923.439.214.284.38.625.498 1.026l.249.879zm29.323-2.373c.4 0 .742.146 1.025.439.293.283.44.625.44 1.026v.029l-.103 13.989a7.544 7.544 0 01-.674 3.091 8.173 8.173 0 01-1.787 2.563 8.461 8.461 0 01-2.622 1.744 7.808 7.808 0 01-3.12.629 8.083 8.083 0 01-3.559-.82 8.072 8.072 0 01-2.857-2.27 1.474 1.474 0 01-.337-.938 1.448 1.448 0 011.465-1.465c.195 0 .405.054.63.161.234.108.415.245.542.411a5.333 5.333 0 001.846 1.45 5.23 5.23 0 002.285.542c.947 0 1.816-.235 2.607-.703a5.43 5.43 0 001.919-1.875 4.75 4.75 0 00.733-2.564v-1.435c-.577.898-1.275 1.518-2.095 1.86a6.516 6.516 0 01-2.49.498 6.556 6.556 0 01-2.974-.688 7.696 7.696 0 01-2.373-1.861 8.974 8.974 0 01-1.582-2.651 8.747 8.747 0 01-.557-3.076c0-1.055.186-2.061.557-3.018a8.488 8.488 0 011.582-2.578 7.6 7.6 0 012.373-1.787c.908-.44 1.899-.659 2.974-.659.927 0 1.796.215 2.607.644.811.43 1.499 1.084 2.065 1.963l.22-1.172c.078-.4.205-.747.381-1.04.176-.293.469-.439.879-.439zm-1.597 8.1c0-.888-.195-1.718-.586-2.49a5.09 5.09 0 00-1.611-1.904c-.674-.488-1.445-.733-2.314-.733-.889 0-1.68.245-2.374.733a5.11 5.11 0 00-1.626 1.889 5.446 5.446 0 00-.585 2.491c0 .879.195 1.728.585 2.548.391.811.928 1.48 1.612 2.007a3.73 3.73 0 002.344.791c.869 0 1.645-.258 2.329-.776a5.343 5.343 0 001.626-1.992c.4-.821.6-1.675.6-2.564zm23.051-5.727a14.359 14.359 0 011.89-1.538c.742-.508 1.601-.762 2.578-.762 1.279 0 2.344.342 3.193 1.025.85.674 1.475 1.46 1.875 2.359.313.713.498 1.421.557 2.124.068.693.102 1.347.102 1.963v7.397c0 .401-.146.747-.439 1.04a1.398 1.398 0 01-1.026.425 1.448 1.448 0 01-1.464-1.465v-7.397c0-.576-.03-1.109-.088-1.597a4.164 4.164 0 00-.323-1.289 3.103 3.103 0 00-.864-1.143c-.39-.341-.888-.512-1.494-.512-1.445 0-2.559.551-3.34 1.655-.771 1.103-1.152 2.593-1.142 4.468l.014 5.844c0 .401-.146.748-.439 1.04a1.394 1.394 0 01-1.026.425c-.41 0-.756-.141-1.04-.425a1.46 1.46 0 01-.424-1.054l-.03-13.462c0-.401.108-.742.323-1.026.224-.292.537-.439.937-.439s.708.147.923.439c.215.284.381.625.498 1.026l.249.879zm23.112-2.271c1.299 0 2.491.323 3.575.967a7.414 7.414 0 012.607 2.607c.664 1.084.996 2.291.996 3.619 0 .273-.015.551-.044.835a1.383 1.383 0 01-.498.922 1.435 1.435 0 01-.967.367l-10.239.014a5.35 5.35 0 00.937 1.978 5.555 5.555 0 001.67 1.494 4.282 4.282 0 002.168.571c.84 0 1.592-.205 2.256-.615.664-.41 1.182-.884 1.553-1.421.117-.185.293-.342.527-.469a1.5 1.5 0 01.689-.19c.4 0 .742.146 1.025.439.293.293.44.64.44 1.04 0 .313-.088.591-.264.835-.605.889-1.44 1.661-2.505 2.315-1.055.644-2.28.967-3.677.967a7.486 7.486 0 01-3.134-.659 7.95 7.95 0 01-2.505-1.802 8.453 8.453 0 01-1.67-2.622 8.542 8.542 0 01-.586-3.15 7.94 7.94 0 01.586-3.032 8.398 8.398 0 011.626-2.578 7.82 7.82 0 012.446-1.773 6.9 6.9 0 012.988-.659zm4.16 6.387c-.185-.957-.664-1.772-1.435-2.446-.772-.674-1.68-1.011-2.725-1.011a4.255 4.255 0 00-2.827 1.04c-.81.693-1.357 1.504-1.64 2.432l8.627-.015zm6.897-5.23c0-.322.142-.605.425-.849.283-.244.586-.366.908-.366.332 0 .625.092.879.278.264.186.434.415.513.688l2.929 9.947 3.472-9.756h.015c.244-.43.673-.645 1.289-.645.283 0 .547.064.791.191.244.117.415.273.512.469v.014l3.369 9.492 2.71-9.697c.079-.264.24-.493.484-.688.244-.196.542-.293.893-.293.313 0 .616.117.909.351.293.225.439.508.439.85 0 .215-.019.386-.059.513l-3.837 13.535c-.069.244-.23.473-.484.688a1.28 1.28 0 01-.849.308c-.303 0-.577-.083-.821-.249a1.493 1.493 0 01-.498-.615l-3.545-9.8-3.603 9.887a1.227 1.227 0 01-.528.63 1.4 1.4 0 01-.805.249 1.38 1.38 0 01-.835-.278 1.309 1.309 0 01-.484-.688l-4.145-13.653a2.658 2.658 0 01-.044-.513zm47.074 12.862a14.045 14.045 0 01-1.904 1.538c-.733.508-1.587.762-2.564.762-1.279 0-2.343-.337-3.193-1.011-.85-.684-1.475-1.475-1.875-2.373a6.946 6.946 0 01-.571-2.11 23.705 23.705 0 01-.088-1.977v-7.398c0-.4.141-.742.425-1.025a1.42 1.42 0 011.04-.439c.4 0 .742.146 1.025.439.293.283.44.625.44 1.025v7.398c0 .576.024 1.108.073 1.597.058.488.171.918.337 1.289.185.429.473.815.864 1.157.391.332.889.498 1.494.498 1.445 0 2.554-.552 3.325-1.655.782-1.104 1.167-2.593 1.158-4.468l-.015-5.845c0-.4.141-.742.425-1.025.293-.293.639-.44 1.04-.44.41 0 .757.147 1.04.44.283.283.425.63.425 1.04l.029 13.462c0 .4-.112.747-.337 1.04-.215.283-.523.425-.923.425s-.708-.142-.923-.425a3.314 3.314 0 01-.498-1.04l-.249-.879zm24.314-5.874a8.726 8.726 0 01-.616 3.222 7.744 7.744 0 01-1.816 2.769 7.684 7.684 0 01-2.461 1.611 7.53 7.53 0 01-2.886.572c-1.015 0-1.919-.215-2.71-.645a7.775 7.775 0 01-2.124-1.743v6.167c0 .4-.146.742-.439 1.025-.283.293-.625.44-1.026.44-.4 0-.747-.147-1.04-.44a1.397 1.397 0 01-.424-1.025v-18.706c0-.401.141-.742.424-1.026.293-.292.64-.439 1.04-.439.401 0 .699.147.894.439.205.284.337.625.396 1.026l.175 1.186a5.828 5.828 0 012.198-1.889c.918-.459 1.831-.689 2.739-.689 1.103 0 2.119.22 3.047.659a7.692 7.692 0 012.446 1.802 8.166 8.166 0 011.611 2.593 8.43 8.43 0 01.572 3.091zm-7.647-5.215a4.54 4.54 0 00-1.889.425 4.592 4.592 0 00-1.597 1.142 5.117 5.117 0 00-1.026 1.714 5.92 5.92 0 00-.351 2.007c0 .938.205 1.802.615 2.593.41.791.977 1.426 1.699 1.904.723.479 1.548.718 2.476.718.928 0 1.753-.249 2.476-.747a5.333 5.333 0 001.699-1.963c.42-.811.63-1.67.63-2.578a5.48 5.48 0 00-.616-2.564 5.169 5.169 0 00-1.684-1.919c-.713-.488-1.524-.732-2.432-.732zm15.056-5.596c0-.4.141-.742.425-1.025.283-.293.63-.44 1.04-.44.4 0 .742.147 1.025.44.293.283.44.625.44 1.025v2.915h1.962c.381 0 .708.137.982.41.273.274.41.601.41.982s-.137.708-.41.981c-.274.274-.601.41-.982.41h-1.977l-.015 9.068v.029c0 .479.054.811.161.996.108.176.327.264.66.264.419 0 .791-.112 1.113-.337.117-.078.259-.146.425-.205.166-.068.327-.103.483-.103.4 0 .742.142 1.025.425.293.283.44.625.44 1.026 0 .478-.195.864-.586 1.157a5.188 5.188 0 01-1.274.703 4.214 4.214 0 01-1.539.278c-1.23 0-2.177-.376-2.841-1.128-.664-.761-.996-1.709-.996-2.841v-.132l.014-9.185h-1.889c-.381 0-.708-.137-.982-.41a1.34 1.34 0 01-.41-.981c0-.381.137-.708.41-.982.274-.273.601-.41.982-.41h1.904v-2.93zm19.684 2.549c.723 0 1.426.147 2.11.44a7.157 7.157 0 011.845 1.084c.547.429.953.874 1.216 1.333l.161-1.407c0-.4.118-.742.352-1.025.234-.293.552-.44.952-.44.401 0 .742.147 1.026.44.292.283.439.625.439 1.025v.03l-.029 13.564c0 .4-.147.747-.44 1.04a1.398 1.398 0 01-1.025.425c-.401 0-.718-.142-.952-.425a1.612 1.612 0 01-.352-1.04l-.161-1.172c-.508.869-1.25 1.519-2.227 1.948-.976.42-1.958.63-2.944.63a7.567 7.567 0 01-3.105-.644 8.224 8.224 0 01-2.549-1.802 8.621 8.621 0 01-1.729-2.622 8.045 8.045 0 01-.615-3.12c0-1.084.2-2.119.601-3.106.41-.996.976-1.88 1.699-2.651a7.992 7.992 0 012.549-1.831 7.514 7.514 0 013.178-.674zm5.054 8.233c0-.958-.225-1.836-.674-2.637a5.27 5.27 0 00-1.801-1.934c-.762-.488-1.631-.732-2.608-.732-.957 0-1.821.244-2.593.732a5.32 5.32 0 00-1.831 1.948 5.245 5.245 0 00-.674 2.608c0 .947.23 1.826.689 2.637a5.473 5.473 0 001.846 1.933 4.77 4.77 0 002.578.733 4.63 4.63 0 002.549-.733 5.363 5.363 0 001.831-1.933 5.236 5.236 0 00.688-2.622zm8.244 0a8.75 8.75 0 01.615-3.223 8.036 8.036 0 011.817-2.769 7.684 7.684 0 012.461-1.611 7.525 7.525 0 012.886-.571c1.015 0 1.919.215 2.71.644a7.49 7.49 0 012.124 1.743v-6.167c0-.4.141-.742.424-1.025.293-.293.64-.439 1.04-.439.401 0 .743.146 1.026.439.293.283.439.625.439 1.025v18.706c0 .401-.146.748-.439 1.04a1.394 1.394 0 01-1.026.425c-.4 0-.703-.141-.908-.425a2.503 2.503 0 01-.381-1.04l-.175-1.186a5.798 5.798 0 01-2.212 1.89c-.909.459-1.817.688-2.725.688-1.103 0-2.124-.22-3.061-.659a7.846 7.846 0 01-2.432-1.787 8.426 8.426 0 01-2.183-5.698zm7.647 5.214c.634 0 1.264-.141 1.889-.424a4.882 4.882 0 001.597-1.143c.44-.488.776-1.06 1.011-1.714a5.699 5.699 0 00.366-2.007c0-.937-.205-1.801-.615-2.593a5.01 5.01 0 00-1.699-1.904c-.713-.478-1.539-.718-2.476-.718-.918 0-1.743.254-2.476.762a5.293 5.293 0 00-1.713 1.963 5.535 5.535 0 00-.616 2.564c0 .908.205 1.762.616 2.563.41.791.971 1.431 1.684 1.919a4.248 4.248 0 002.432.732zm20.9-13.33c1.299 0 2.49.323 3.574.967a7.425 7.425 0 012.608 2.607c.664 1.084.996 2.291.996 3.619 0 .273-.015.551-.044.835a1.383 1.383 0 01-.498.922 1.437 1.437 0 01-.967.367l-10.239.014c.166.703.478 1.363.937 1.978a5.555 5.555 0 001.67 1.494 4.282 4.282 0 002.168.571c.84 0 1.592-.205 2.256-.615.664-.41 1.182-.884 1.553-1.421.117-.185.293-.342.527-.469a1.5 1.5 0 01.689-.19c.4 0 .742.146 1.025.439.293.293.439.64.439 1.04 0 .313-.087.591-.263.835-.606.889-1.441 1.661-2.505 2.315-1.055.644-2.28.967-3.677.967a7.494 7.494 0 01-3.135-.659 7.95 7.95 0 01-2.505-1.802 8.469 8.469 0 01-1.669-2.622 8.542 8.542 0 01-.586-3.15 7.94 7.94 0 01.586-3.032 8.398 8.398 0 011.626-2.578 7.82 7.82 0 012.446-1.773 6.9 6.9 0 012.988-.659zm4.16 6.387c-.185-.957-.664-1.772-1.435-2.446-.772-.674-1.68-1.011-2.725-1.011a4.255 4.255 0 00-2.827 1.04c-.811.693-1.357 1.504-1.641 2.432l8.628-.015zm-542.423 30.225c0-.284.113-.557.337-.821.235-.273.518-.41.85-.41l2.168-.015v-.19c.029-1.65.4-2.944 1.113-3.882.713-.937 1.87-1.391 3.472-1.362l1.611.029c.401 0 .742.147 1.026.44.283.283.424.625.424 1.025 0 .4-.141.737-.424 1.011-.284.273-.63.41-1.04.41l-1.641-.234c-.508 0-.879.078-1.113.234-.225.146-.371.41-.44.791-.058.381-.083.923-.073 1.626l.015.132 2.959.014c.39 0 .717.132.981.396.273.264.41.581.41.952 0 .313-.127.615-.381.908-.254.283-.542.425-.864.425l-3.105.029.029 11.807v.015c0 .39-.147.722-.44.996a1.453 1.453 0 01-1.025.395c-.4 0-.747-.132-1.04-.395a1.335 1.335 0 01-.425-.996v-.015l-.029-11.836-1.963-.015c-.391 0-.723-.136-.996-.41-.264-.273-.396-.625-.396-1.054zm22.41-1.656a7.62 7.62 0 013.134.645 7.982 7.982 0 012.564 1.787 8.416 8.416 0 011.714 2.622c.42.986.63 2.036.63 3.149 0 1.094-.21 2.134-.63 3.121a8.366 8.366 0 01-1.743 2.592 8.207 8.207 0 01-2.564 1.758 7.555 7.555 0 01-3.105.645 7.78 7.78 0 01-3.106-.63 8.226 8.226 0 01-2.563-1.743 8.314 8.314 0 01-1.729-2.578 7.998 7.998 0 01-.63-3.165c0-1.113.21-2.163.63-3.149a8.433 8.433 0 011.729-2.607 8.173 8.173 0 012.563-1.787 7.41 7.41 0 013.106-.66zm-5.069 8.233c0 .947.23 1.811.689 2.593a5.342 5.342 0 001.86 1.845 4.867 4.867 0 002.534.689c.938 0 1.787-.235 2.549-.703a5.304 5.304 0 001.831-1.89 4.97 4.97 0 00.689-2.564 5.19 5.19 0 00-.674-2.607 5.236 5.236 0 00-1.831-1.919c-.762-.478-1.621-.718-2.578-.718-.967 0-1.831.244-2.593.733a5.273 5.273 0 00-2.476 4.541zm28.005-6.387c0 .781-.376 1.216-1.128 1.304-.273.029-.62-.059-1.04-.264a2.77 2.77 0 00-1.274-.322c-.85 0-1.524.22-2.022.659-.498.43-.854 1.011-1.069 1.743-.215.733-.322 1.553-.322 2.461v7.559c0 .429-.132.771-.396 1.025-.254.254-.61.381-1.069.381-.449 0-.806-.127-1.07-.381-.263-.254-.395-.601-.395-1.04v-13.491c0-.44.107-.801.322-1.084.225-.283.528-.425.908-.425.225 0 .484.098.777.293.303.186.513.508.63.967l.146 1.054c.127-.273.371-.59.733-.952a5.35 5.35 0 011.289-.937 3.176 3.176 0 011.552-.41c.996 0 1.817.117 2.461.351.645.225.967.728.967 1.509zm22.128-1.86c.947 0 1.777.229 2.49.688a6.182 6.182 0 011.773 1.67 8.222 8.222 0 011.977-1.655 4.79 4.79 0 012.578-.718c1.25 0 2.286.337 3.106 1.011.83.664 1.445 1.538 1.846 2.622.4 1.084.6 2.256.6 3.515l.015 7.808c0 .391-.142.728-.425 1.011-.283.283-.63.425-1.04.425-.41 0-.757-.142-1.04-.425a1.381 1.381 0 01-.425-1.011l-.015-7.778c0-.742-.068-1.436-.205-2.08-.136-.655-.385-1.182-.747-1.582-.361-.401-.883-.601-1.567-.601-.723 0-1.343.2-1.86.601-.508.4-.899.927-1.172 1.582a5.467 5.467 0 00-.396 2.094l.015 7.808c0 .391-.147.728-.44 1.011-.283.273-.625.41-1.025.41-.41 0-.757-.142-1.04-.425a1.381 1.381 0 01-.425-1.011v-7.778c0-.918-.156-1.694-.469-2.329-.302-.635-.698-1.113-1.186-1.436-.479-.332-.972-.498-1.48-.498-.722 0-1.372.337-1.948 1.011-.576.674-.864 1.724-.864 3.15v7.895c0 .391-.147.728-.44 1.011-.283.273-.625.41-1.025.41-.4 0-.747-.142-1.04-.425a1.381 1.381 0 01-.425-1.011v-13.549c0-.401.073-.738.22-1.011.156-.283.439-.425.85-.425.322 0 .62.103.893.308.274.205.493.547.659 1.025l.279.806a3.561 3.561 0 011.435-1.538c.654-.391 1.309-.586 1.963-.586zm27.551.014c1.123 0 2.168.215 3.135.645a7.978 7.978 0 012.563 1.787 8.398 8.398 0 011.714 2.622c.42.986.63 2.036.63 3.149 0 1.094-.21 2.134-.63 3.121a8.366 8.366 0 01-1.743 2.592 8.207 8.207 0 01-2.564 1.758 7.552 7.552 0 01-3.105.645 7.78 7.78 0 01-3.106-.63 8.238 8.238 0 01-2.563-1.743 8.314 8.314 0 01-1.729-2.578 7.998 7.998 0 01-.63-3.165c0-1.113.21-2.163.63-3.149a8.433 8.433 0 011.729-2.607 8.185 8.185 0 012.563-1.787 7.41 7.41 0 013.106-.66zm-5.069 8.233c0 .947.23 1.811.689 2.593a5.35 5.35 0 001.86 1.845 4.87 4.87 0 002.534.689 4.77 4.77 0 002.549-.703 5.304 5.304 0 001.831-1.89 4.97 4.97 0 00.689-2.564 5.19 5.19 0 00-.674-2.607 5.236 5.236 0 00-1.831-1.919c-.762-.478-1.621-.718-2.578-.718-.967 0-1.831.244-2.593.733a5.262 5.262 0 00-1.816 1.919 5.302 5.302 0 00-.66 2.622zm28.005-6.387c0 .781-.376 1.216-1.128 1.304-.273.029-.62-.059-1.04-.264a2.767 2.767 0 00-1.274-.322c-.85 0-1.523.22-2.022.659-.498.43-.854 1.011-1.069 1.743-.215.733-.322 1.553-.322 2.461v7.559c0 .429-.132.771-.396 1.025-.254.254-.61.381-1.069.381-.449 0-.806-.127-1.069-.381-.264-.254-.396-.601-.396-1.04v-13.491c0-.44.108-.801.322-1.084.225-.283.528-.425.909-.425.224 0 .483.098.776.293.303.186.513.508.63.967l.146 1.054c.127-.273.372-.59.733-.952a5.35 5.35 0 011.289-.937 3.18 3.18 0 011.553-.41c.996 0 1.816.117 2.461.351.644.225.966.728.966 1.509zm11.16-1.802a6.87 6.87 0 013.574.967 7.414 7.414 0 012.607 2.607c.664 1.084.996 2.291.996 3.619 0 .273-.014.551-.044.835a1.383 1.383 0 01-.498.922 1.435 1.435 0 01-.967.367l-10.239.014c.166.703.479 1.363.938 1.978a5.543 5.543 0 001.67 1.494 4.279 4.279 0 002.168.571c.839 0 1.591-.205 2.255-.615.665-.41 1.182-.884 1.553-1.421.117-.185.293-.342.528-.469.244-.127.473-.19.688-.19.4 0 .742.146 1.025.439.293.293.44.64.44 1.04 0 .313-.088.591-.264.835-.605.889-1.44 1.661-2.505 2.315-1.054.644-2.28.967-3.676.967a7.494 7.494 0 01-3.135-.659 7.95 7.95 0 01-2.505-1.802 8.453 8.453 0 01-1.67-2.622 8.542 8.542 0 01-.586-3.15 7.94 7.94 0 01.586-3.032 8.436 8.436 0 011.626-2.578 7.83 7.83 0 012.446-1.773 6.9 6.9 0 012.989-.659zm4.16 6.387c-.186-.957-.664-1.772-1.436-2.446-.771-.674-1.68-1.011-2.724-1.011a4.257 4.257 0 00-2.828 1.04c-.81.693-1.357 1.504-1.64 2.432l8.628-.015zm18.612-4.775c0-.284.112-.557.337-.821.234-.273.517-.41.85-.41l2.167-.015v-.19c.03-1.65.401-2.944 1.114-3.882.713-.937 1.87-1.391 3.471-1.362l1.612.029c.4 0 .742.147 1.025.44.283.283.425.625.425 1.025 0 .4-.142.737-.425 1.011-.283.273-.63.41-1.04.41l-1.64-.234c-.508 0-.879.078-1.114.234-.224.146-.371.41-.439.791-.059.381-.083.923-.073 1.626l.014.132 2.959.014c.391 0 .718.132.982.396.273.264.41.581.41.952 0 .313-.127.615-.381.908-.254.283-.542.425-.864.425l-3.106.029.029 11.807v.015c0 .39-.146.722-.439.996a1.453 1.453 0 01-1.025.395c-.401 0-.747-.132-1.04-.395a1.332 1.332 0 01-.425-.996v-.015l-.03-11.836-1.962-.015c-.391 0-.723-.136-.996-.41-.264-.273-.396-.625-.396-1.054zm22.175-1.612c1.299 0 2.49.323 3.574.967a7.414 7.414 0 012.607 2.607c.665 1.084.997 2.291.997 3.619 0 .273-.015.551-.044.835a1.383 1.383 0 01-.498.922 1.439 1.439 0 01-.967.367l-10.24.014c.167.703.479 1.363.938 1.978a5.555 5.555 0 001.67 1.494 4.282 4.282 0 002.168.571c.84 0 1.592-.205 2.256-.615.664-.41 1.181-.884 1.552-1.421.118-.185.293-.342.528-.469.244-.127.473-.19.688-.19.401 0 .742.146 1.026.439.293.293.439.64.439 1.04 0 .313-.088.591-.264.835-.605.889-1.44 1.661-2.504 2.315-1.055.644-2.281.967-3.677.967a7.494 7.494 0 01-3.135-.659 7.95 7.95 0 01-2.505-1.802 8.472 8.472 0 01-1.67-2.622 8.563 8.563 0 01-.586-3.15c0-1.064.196-2.075.586-3.032a8.436 8.436 0 011.626-2.578 7.823 7.823 0 012.447-1.773 6.893 6.893 0 012.988-.659zm4.16 6.387c-.186-.957-.664-1.772-1.436-2.446-.771-.674-1.679-1.011-2.724-1.011a4.253 4.253 0 00-2.827 1.04c-.811.693-1.358 1.504-1.641 2.432l8.628-.015zm16.022-6.504c.723 0 1.426.147 2.11.44a7.18 7.18 0 011.846 1.084c.546.429.952.874 1.215 1.333l.161-1.407c0-.4.118-.742.352-1.025.234-.293.552-.44.952-.44.401 0 .742.147 1.026.44.293.283.439.625.439 1.025v.03l-.029 13.564c0 .4-.147.747-.44 1.04a1.398 1.398 0 01-1.025.425c-.401 0-.718-.142-.952-.425a1.612 1.612 0 01-.352-1.04l-.161-1.172c-.508.869-1.25 1.519-2.227 1.948-.976.42-1.958.63-2.944.63a7.567 7.567 0 01-3.105-.644 8.224 8.224 0 01-2.549-1.802 8.621 8.621 0 01-1.729-2.622 8.045 8.045 0 01-.615-3.12c0-1.084.2-2.119.601-3.106.41-.996.976-1.88 1.699-2.651a7.992 7.992 0 012.549-1.831 7.514 7.514 0 013.178-.674zm5.054 8.233c0-.958-.224-1.836-.674-2.637a5.27 5.27 0 00-1.801-1.934c-.762-.488-1.631-.732-2.608-.732-.957 0-1.821.244-2.593.732a5.328 5.328 0 00-1.831 1.948 5.245 5.245 0 00-.674 2.608c0 .947.23 1.826.689 2.637a5.473 5.473 0 001.846 1.933 4.77 4.77 0 002.578.733 4.63 4.63 0 002.549-.733 5.363 5.363 0 001.831-1.933 5.236 5.236 0 00.688-2.622zm11.174-10.782c0-.4.142-.742.425-1.025.283-.293.63-.44 1.04-.44.4 0 .742.147 1.025.44.293.283.44.625.44 1.025v2.915h1.963c.38 0 .708.137.981.41.273.274.41.601.41.982s-.137.708-.41.981c-.273.274-.601.41-.981.41h-1.978l-.015 9.068v.029c0 .479.054.811.161.996.108.176.328.264.66.264.42 0 .791-.112 1.113-.337.117-.078.259-.146.425-.205.166-.068.327-.103.483-.103a1.4 1.4 0 011.026.425c.293.283.439.625.439 1.026 0 .478-.195.864-.586 1.157a5.188 5.188 0 01-1.274.703 4.212 4.212 0 01-1.538.278c-1.231 0-2.178-.376-2.842-1.128-.664-.761-.996-1.709-.996-2.841v-.132l.014-9.185h-1.889c-.381 0-.708-.137-.982-.41a1.34 1.34 0 01-.41-.981c0-.381.137-.708.41-.982.274-.273.601-.41.982-.41h1.904v-2.93zm22.16 16.685a14.045 14.045 0 01-1.904 1.538c-.733.508-1.587.762-2.564.762-1.279 0-2.343-.337-3.193-1.011-.85-.684-1.475-1.475-1.875-2.373a6.917 6.917 0 01-.571-2.11 23.705 23.705 0 01-.088-1.977v-7.398c0-.4.141-.742.425-1.025a1.42 1.42 0 011.04-.439c.4 0 .742.146 1.025.439.293.283.439.625.439 1.025v7.398c0 .576.025 1.108.074 1.597.058.488.171.918.337 1.289.185.429.473.815.864 1.157.391.332.889.498 1.494.498 1.445 0 2.554-.552 3.325-1.655.781-1.104 1.167-2.593 1.157-4.468l-.014-5.845c0-.4.141-.742.425-1.025.293-.293.639-.44 1.04-.44.41 0 .757.147 1.04.44.283.283.425.63.425 1.04l.029 13.462c0 .4-.112.747-.337 1.04-.215.283-.523.425-.923.425s-.708-.142-.923-.425a3.314 3.314 0 01-.498-1.04l-.249-.879zm18.484-12.217c0 .781-.376 1.216-1.128 1.304-.274.029-.621-.059-1.04-.264a2.771 2.771 0 00-1.275-.322c-.849 0-1.523.22-2.021.659-.498.43-.855 1.011-1.07 1.743-.215.733-.322 1.553-.322 2.461v7.559c0 .429-.132.771-.395 1.025-.254.254-.611.381-1.07.381-.449 0-.805-.127-1.069-.381-.264-.254-.396-.601-.396-1.04v-13.491c0-.44.108-.801.323-1.084.224-.283.527-.425.908-.425.224 0 .483.098.776.293.303.186.513.508.63.967l.147 1.054c.127-.273.371-.59.732-.952a5.35 5.35 0 011.289-.937 3.18 3.18 0 011.553-.41c.996 0 1.816.117 2.461.351.644.225.967.728.967 1.509zm11.159-1.802c1.299 0 2.49.323 3.574.967a7.414 7.414 0 012.607 2.607c.664 1.084.996 2.291.996 3.619 0 .273-.014.551-.044.835a1.383 1.383 0 01-.498.922 1.434 1.434 0 01-.966.367l-10.24.014c.166.703.479 1.363.938 1.978a5.555 5.555 0 001.67 1.494 4.282 4.282 0 002.168.571c.84 0 1.592-.205 2.256-.615.664-.41 1.181-.884 1.552-1.421.118-.185.293-.342.528-.469.244-.127.473-.19.688-.19.401 0 .742.146 1.026.439.293.293.439.64.439 1.04 0 .313-.088.591-.264.835-.605.889-1.44 1.661-2.505 2.315-1.054.644-2.28.967-3.676.967a7.494 7.494 0 01-3.135-.659 7.95 7.95 0 01-2.505-1.802 8.472 8.472 0 01-1.67-2.622 8.563 8.563 0 01-.586-3.15c0-1.064.196-2.075.586-3.032a8.436 8.436 0 011.626-2.578 7.83 7.83 0 012.446-1.773 6.9 6.9 0 012.989-.659zm4.16 6.387c-.186-.957-.664-1.772-1.436-2.446-.771-.674-1.679-1.011-2.724-1.011a4.253 4.253 0 00-2.827 1.04c-.811.693-1.358 1.504-1.641 2.432l8.628-.015zm15.715-6.46c1.396 0 2.661.308 3.794.923 1.142.605 1.987 1.426 2.534 2.461.117.205.176.439.176.703 0 .4-.147.747-.44 1.04a1.398 1.398 0 01-1.025.425c-.244 0-.498-.078-.762-.235-.254-.166-.435-.356-.542-.571a3.077 3.077 0 00-1.45-1.362c-.645-.303-1.411-.454-2.3-.454-.518 0-1.103.068-1.758.205-.654.137-1.22.356-1.699.659-.478.303-.718.713-.718 1.23 0 .381.196.684.586.909.401.214.889.381 1.465.498.586.117 1.172.205 1.758.263a70.21 70.21 0 011.435.132c.723.078 1.436.2 2.139.366a7.598 7.598 0 011.934.704 3.648 3.648 0 011.391 1.274c.352.537.528 1.221.528 2.051 0 1.181-.342 2.148-1.026 2.9-.683.752-1.557 1.309-2.622 1.67a10.327 10.327 0 01-3.34.542c-1.592 0-3.042-.312-4.35-.937-1.299-.635-2.261-1.558-2.886-2.769a1.535 1.535 0 01-.176-.688c0-.401.142-.743.425-1.026.293-.293.64-.439 1.04-.439.254 0 .508.083.762.249.263.156.449.346.556.571.381.742.967 1.279 1.758 1.611.801.332 1.753.498 2.857.498a9.11 9.11 0 001.816-.19c.635-.137 1.167-.366 1.597-.689.439-.322.659-.761.659-1.318 0-.43-.191-.737-.571-.923-.371-.195-.821-.322-1.348-.381l-1.45-.161c-.86-.088-1.748-.2-2.666-.337a12.187 12.187 0 01-2.564-.688c-.781-.313-1.416-.762-1.904-1.348-.488-.586-.732-1.367-.732-2.344 0-.878.21-1.635.629-2.27a5.018 5.018 0 011.7-1.553 8.303 8.303 0 012.299-.908c.84-.195 1.67-.293 2.491-.293zm12.99 14.033c0-.527.19-1.011.571-1.45.391-.439.84-.659 1.348-.659.459 0 .84.078 1.142.234.948.508 1.421 1.338 1.421 2.49 0 .538-.102 1.148-.307 1.832-.479 1.591-1.328 2.792-2.549 3.603-.186.127-.381.19-.586.19a.963.963 0 01-.718-.322 1.114 1.114 0 01-.293-.776c0-.322.171-.601.513-.835.791-.518 1.323-1.25 1.597-2.197h-.03a2.063 2.063 0 01-1.494-.616 2.066 2.066 0 01-.615-1.494zm28.969-14.033c1.396 0 2.661.308 3.794.923 1.142.605 1.987 1.426 2.534 2.461.117.205.176.439.176.703 0 .4-.147.747-.44 1.04a1.398 1.398 0 01-1.025.425c-.244 0-.498-.078-.762-.235-.254-.166-.435-.356-.542-.571a3.077 3.077 0 00-1.45-1.362c-.645-.303-1.411-.454-2.3-.454-.518 0-1.103.068-1.758.205-.654.137-1.22.356-1.699.659-.479.303-.718.713-.718 1.23 0 .381.196.684.586.909.401.214.889.381 1.465.498.586.117 1.172.205 1.758.263a70.21 70.21 0 011.435.132c.723.078 1.436.2 2.139.366a7.598 7.598 0 011.934.704 3.648 3.648 0 011.391 1.274c.352.537.528 1.221.528 2.051 0 1.181-.342 2.148-1.026 2.9-.683.752-1.557 1.309-2.622 1.67a10.327 10.327 0 01-3.34.542c-1.592 0-3.042-.312-4.35-.937-1.299-.635-2.261-1.558-2.886-2.769a1.535 1.535 0 01-.176-.688c0-.401.142-.743.425-1.026.293-.293.64-.439 1.04-.439.254 0 .508.083.762.249.263.156.449.346.556.571.381.742.967 1.279 1.758 1.611.801.332 1.753.498 2.857.498a9.11 9.11 0 001.816-.19c.635-.137 1.167-.366 1.597-.689.439-.322.659-.761.659-1.318 0-.43-.191-.737-.571-.923-.371-.195-.821-.322-1.348-.381l-1.45-.161c-.86-.088-1.748-.2-2.666-.337a12.187 12.187 0 01-2.564-.688c-.781-.313-1.416-.762-1.904-1.348-.488-.586-.732-1.367-.732-2.344 0-.878.21-1.635.629-2.27a5.018 5.018 0 011.7-1.553 8.303 8.303 0 012.299-.908c.84-.195 1.67-.293 2.491-.293zm20.05.073c1.299 0 2.491.323 3.575.967a7.414 7.414 0 012.607 2.607c.664 1.084.996 2.291.996 3.619 0 .273-.014.551-.044.835a1.383 1.383 0 01-.498.922 1.435 1.435 0 01-.967.367l-10.239.014c.166.703.479 1.363.938 1.978a5.543 5.543 0 001.67 1.494 4.279 4.279 0 002.168.571c.839 0 1.591-.205 2.255-.615.664-.41 1.182-.884 1.553-1.421.117-.185.293-.342.527-.469.245-.127.474-.19.689-.19.4 0 .742.146 1.025.439.293.293.44.64.44 1.04 0 .313-.088.591-.264.835-.605.889-1.44 1.661-2.505 2.315-1.054.644-2.28.967-3.677.967a7.49 7.49 0 01-3.134-.659 7.95 7.95 0 01-2.505-1.802 8.453 8.453 0 01-1.67-2.622 8.542 8.542 0 01-.586-3.15 7.94 7.94 0 01.586-3.032 8.436 8.436 0 011.626-2.578 7.82 7.82 0 012.446-1.773 6.9 6.9 0 012.988-.659zm4.161 6.387c-.186-.957-.664-1.772-1.436-2.446-.771-.674-1.68-1.011-2.725-1.011a4.257 4.257 0 00-2.827 1.04c-.81.693-1.357 1.504-1.64 2.432l8.628-.015zm7.775 1.714a8.43 8.43 0 012.183-5.698 7.774 7.774 0 012.417-1.802 6.946 6.946 0 013.017-.659c1.074 0 2.046.21 2.915.63.879.41 1.631.957 2.256 1.64a6.847 6.847 0 011.421 2.212c.068.166.103.352.103.557 0 .4-.147.747-.44 1.04a1.398 1.398 0 01-1.025.425c-.274 0-.542-.093-.806-.279a1.524 1.524 0 01-.557-.674c-.273-.703-.752-1.313-1.435-1.831-.674-.527-1.485-.791-2.432-.791-.888 0-1.689.249-2.402.747a5.223 5.223 0 00-1.67 1.919 5.49 5.49 0 00-.615 2.564c0 .928.21 1.802.63 2.622.42.81.996 1.47 1.728 1.977a4.297 4.297 0 002.476.748c.898 0 1.674-.225 2.329-.674.654-.459 1.147-.992 1.479-1.597a1.42 1.42 0 01.557-.542c.254-.156.503-.234.747-.234.4 0 .742.146 1.025.439.293.283.44.625.44 1.026 0 .244-.064.483-.191.717-.556 1.026-1.386 1.914-2.49 2.666-1.103.752-2.402 1.128-3.896 1.128-1.114 0-2.144-.22-3.091-.659a7.943 7.943 0 01-2.461-1.831 8.706 8.706 0 01-1.626-2.637 8.54 8.54 0 01-.586-3.149zm29.807 5.918a14.058 14.058 0 01-1.905 1.538c-.732.508-1.587.762-2.563.762-1.279 0-2.344-.337-3.193-1.011-.85-.684-1.475-1.475-1.875-2.373a6.948 6.948 0 01-.572-2.11 24.143 24.143 0 01-.088-1.977v-7.398c0-.4.142-.742.425-1.025.293-.293.64-.439 1.04-.439.401 0 .742.146 1.026.439.293.283.439.625.439 1.025v7.398c0 .576.024 1.108.073 1.597.059.488.171.918.337 1.289.186.429.474.815.864 1.157.391.332.889.498 1.495.498 1.445 0 2.553-.552 3.325-1.655.781-1.104 1.167-2.593 1.157-4.468l-.015-5.845c0-.4.142-.742.425-1.025.293-.293.64-.44 1.04-.44.41 0 .757.147 1.04.44.283.283.425.63.425 1.04l.029 13.462c0 .4-.112.747-.337 1.04-.214.283-.522.425-.922.425-.401 0-.708-.142-.923-.425a3.314 3.314 0 01-.498-1.04l-.249-.879zm18.483-12.217c0 .781-.376 1.216-1.128 1.304-.273.029-.62-.059-1.04-.264a2.77 2.77 0 00-1.274-.322c-.85 0-1.524.22-2.022.659-.498.43-.854 1.011-1.069 1.743-.215.733-.322 1.553-.322 2.461v7.559c0 .429-.132.771-.396 1.025-.254.254-.61.381-1.069.381-.449 0-.806-.127-1.07-.381-.263-.254-.395-.601-.395-1.04v-13.491c0-.44.107-.801.322-1.084.225-.283.528-.425.908-.425.225 0 .484.098.777.293.302.186.512.508.63.967l.146 1.054c.127-.273.371-.59.733-.952a5.35 5.35 0 011.289-.937 3.176 3.176 0 011.552-.41c.996 0 1.817.117 2.461.351.645.225.967.728.967 1.509zm6.34-3.354c-.449 0-.816-.137-1.099-.411a1.468 1.468 0 01-.439-1.04l-.029-1.113c0-.371.166-.669.498-.893.332-.235.649-.352.952-.352.41 0 .752.142 1.025.425.283.283.43.625.44 1.025l.014.879c0 .381-.127.723-.381 1.025a1.222 1.222 0 01-.981.455zm-1.582 2.768c0-.371.156-.674.469-.908.312-.234.615-.352.908-.352.43 0 .796.127 1.098.381.303.254.455.591.455 1.011v.015l.029 13.564c0 .391-.147.723-.44.996a1.42 1.42 0 01-1.025.41c-.41 0-.757-.136-1.04-.41a1.381 1.381 0 01-.425-1.011l-.029-13.696zm11.013-3.882c0-.4.141-.742.424-1.025.284-.293.63-.44 1.04-.44.401 0 .743.147 1.026.44.293.283.439.625.439 1.025v2.915h1.963c.381 0 .708.137.982.41.273.274.41.601.41.982s-.137.708-.41.981c-.274.274-.601.41-.982.41h-1.977l-.015 9.068v.029c0 .479.054.811.161.996.108.176.327.264.659.264a1.9 1.9 0 001.114-.337c.117-.078.258-.146.424-.205.166-.068.327-.103.484-.103.4 0 .742.142 1.025.425.293.283.44.625.44 1.026 0 .478-.196.864-.586 1.157a5.177 5.177 0 01-1.275.703 4.205 4.205 0 01-1.538.278c-1.23 0-2.178-.376-2.842-1.128-.664-.761-.996-1.709-.996-2.841v-.132l.015-9.185h-1.89c-.381 0-.708-.137-.981-.41a1.337 1.337 0 01-.41-.981c0-.381.136-.708.41-.982.273-.273.6-.41.981-.41h1.905v-2.93zm12.389 2.534c.283 0 .547.083.791.249.254.166.435.372.542.616l4.981 11.323 4.262-11.221a1.51 1.51 0 01.528-.659c.254-.176.532-.264.835-.264.4 0 .742.147 1.025.44.293.283.44.625.44 1.025 0 .205-.04.396-.118.572l-5.39 14.062c-.02.127-.054.239-.103.337a3.295 3.295 0 01-.146.264l-.821 2.05a22.387 22.387 0 01-.732 1.612 6.288 6.288 0 01-1.172 1.626 6.193 6.193 0 01-1.758 1.259 4.748 4.748 0 01-2.153.513c-.41 0-.757-.151-1.04-.454a1.448 1.448 0 01-.425-1.04c0-.391.132-.732.396-1.025.273-.284.6-.43.981-.44.859-.058 1.523-.395 1.992-1.011.469-.605.869-1.323 1.201-2.153l.704-1.787-6.153-13.799a1.583 1.583 0 01-.132-.63c0-.4.142-.742.425-1.025.293-.293.64-.44 1.04-.44zm37.113.015c.723 0 1.426.147 2.11.44a7.18 7.18 0 011.846 1.084c.546.429.952.874 1.215 1.333l.162-1.407c0-.4.117-.742.351-1.025.234-.293.552-.44.952-.44.401 0 .742.147 1.026.44.293.283.439.625.439 1.025v.03l-.029 13.564c0 .4-.147.747-.44 1.04a1.398 1.398 0 01-1.025.425c-.4 0-.718-.142-.952-.425a1.612 1.612 0 01-.352-1.04l-.161-1.172c-.508.869-1.25 1.519-2.226 1.948-.977.42-1.958.63-2.945.63a7.57 7.57 0 01-3.105-.644 8.224 8.224 0 01-2.549-1.802 8.621 8.621 0 01-1.729-2.622 8.045 8.045 0 01-.615-3.12c0-1.084.2-2.119.601-3.106.41-.996.976-1.88 1.699-2.651a7.992 7.992 0 012.549-1.831 7.514 7.514 0 013.178-.674zm5.054 8.233c0-.958-.224-1.836-.674-2.637a5.27 5.27 0 00-1.801-1.934c-.762-.488-1.631-.732-2.608-.732-.957 0-1.821.244-2.593.732a5.328 5.328 0 00-1.831 1.948 5.244 5.244 0 00-.673 2.608c0 .947.229 1.826.688 2.637a5.473 5.473 0 001.846 1.933 4.77 4.77 0 002.578.733 4.63 4.63 0 002.549-.733 5.355 5.355 0 001.831-1.933 5.236 5.236 0 00.688-2.622zm11.833-5.845a14.425 14.425 0 011.89-1.538c.742-.508 1.601-.762 2.578-.762 1.279 0 2.344.342 3.193 1.025.85.674 1.475 1.46 1.875 2.359.313.713.498 1.421.557 2.124.068.693.103 1.347.103 1.963v7.397c0 .401-.147.747-.44 1.04a1.398 1.398 0 01-1.025.425c-.401 0-.747-.142-1.04-.425a1.442 1.442 0 01-.425-1.04v-7.397c0-.576-.029-1.109-.088-1.597a4.165 4.165 0 00-.322-1.289 3.117 3.117 0 00-.865-1.143c-.39-.341-.888-.512-1.494-.512-1.445 0-2.558.551-3.34 1.655-.771 1.103-1.152 2.593-1.142 4.468l.015 5.844c0 .401-.147.748-.44 1.04a1.394 1.394 0 01-1.025.425c-.41 0-.757-.141-1.04-.425a1.458 1.458 0 01-.425-1.054l-.029-13.462c0-.401.107-.742.322-1.026.224-.292.537-.439.937-.439.401 0 .708.147.923.439.215.284.381.625.498 1.026l.249.879zm15.32 5.845a8.75 8.75 0 01.615-3.223 8.019 8.019 0 011.816-2.769 7.684 7.684 0 012.461-1.611 7.528 7.528 0 012.886-.571c1.015 0 1.919.215 2.71.644a7.49 7.49 0 012.124 1.743v-6.167c0-.4.141-.742.425-1.025a1.42 1.42 0 011.04-.439c.4 0 .742.146 1.025.439.293.283.44.625.44 1.025v18.706c0 .401-.147.748-.44 1.04a1.394 1.394 0 01-1.025.425c-.401 0-.703-.141-.909-.425a2.488 2.488 0 01-.38-1.04l-.176-1.186a5.798 5.798 0 01-2.212 1.89c-.908.459-1.816.688-2.725.688-1.103 0-2.124-.22-3.061-.659a7.858 7.858 0 01-2.432-1.787 8.425 8.425 0 01-2.182-5.698zm7.646 5.214c.635 0 1.265-.141 1.89-.424a4.878 4.878 0 001.596-1.143 5.09 5.09 0 001.011-1.714 5.699 5.699 0 00.366-2.007c0-.937-.205-1.801-.615-2.593a5.002 5.002 0 00-1.699-1.904c-.713-.478-1.538-.718-2.476-.718-.918 0-1.743.254-2.475.762a5.296 5.296 0 00-1.714 1.963 5.547 5.547 0 00-.615 2.564c0 .908.205 1.762.615 2.563.41.791.971 1.431 1.684 1.919a4.25 4.25 0 002.432.732zm-279.899 21.612c.947 0 1.777.229 2.49.688a6.178 6.178 0 011.772 1.67 8.208 8.208 0 011.978-1.655 4.788 4.788 0 012.578-.718c1.25 0 2.285.337 3.105 1.011.831.664 1.446 1.538 1.846 2.622.401 1.084.601 2.256.601 3.515l.014 7.808c0 .391-.141.728-.424 1.011-.284.283-.63.425-1.04.425-.411 0-.757-.142-1.041-.425a1.38 1.38 0 01-.424-1.011l-.015-7.778c0-.742-.068-1.436-.205-2.08-.137-.655-.386-1.182-.747-1.582-.361-.401-.884-.601-1.567-.601-.723 0-1.343.2-1.861.601-.508.4-.898.927-1.172 1.582a5.486 5.486 0 00-.395 2.094l.014 7.808c0 .391-.146.728-.439 1.011-.283.273-.625.41-1.025.41-.411 0-.757-.142-1.04-.425a1.377 1.377 0 01-.425-1.011v-7.778c0-.918-.157-1.694-.469-2.329-.303-.635-.698-1.113-1.187-1.436-.478-.332-.971-.498-1.479-.498-.723 0-1.372.337-1.948 1.011-.576.674-.865 1.724-.865 3.15v7.895c0 .391-.146.728-.439 1.011-.283.273-.625.41-1.025.41-.401 0-.747-.142-1.04-.425a1.377 1.377 0 01-.425-1.011v-13.549c0-.401.073-.738.22-1.011.156-.283.439-.425.849-.425.322 0 .62.103.894.308.273.205.493.547.659 1.025l.278.806a3.564 3.564 0 011.436-1.538c.654-.391 1.308-.586 1.963-.586zm27.55.014c1.123 0 2.168.215 3.135.645a7.982 7.982 0 012.564 1.787 8.433 8.433 0 011.714 2.622c.419.986.629 2.036.629 3.149 0 1.094-.21 2.134-.629 3.121a8.351 8.351 0 01-1.744 2.592 8.202 8.202 0 01-2.563 1.758 7.556 7.556 0 01-3.106.645 7.775 7.775 0 01-3.105-.63 8.242 8.242 0 01-2.564-1.743 8.329 8.329 0 01-1.728-2.578 7.998 7.998 0 01-.63-3.165c0-1.113.21-2.163.63-3.149a8.448 8.448 0 011.728-2.607 8.189 8.189 0 012.564-1.787 7.409 7.409 0 013.105-.66zm-5.068 8.233c0 .947.23 1.811.689 2.593a5.334 5.334 0 001.86 1.845 4.864 4.864 0 002.534.689c.938 0 1.787-.235 2.549-.703a5.312 5.312 0 001.831-1.89 4.97 4.97 0 00.688-2.564 5.19 5.19 0 00-.673-2.607 5.244 5.244 0 00-1.831-1.919c-.762-.478-1.622-.718-2.579-.718-.966 0-1.831.244-2.592.733a5.265 5.265 0 00-1.817 1.919 5.312 5.312 0 00-.659 2.622zm28.005-6.387c0 .781-.376 1.216-1.128 1.304-.273.029-.62-.059-1.04-.264a2.77 2.77 0 00-1.274-.322c-.85 0-1.524.22-2.022.659-.498.43-.854 1.011-1.069 1.743-.215.733-.323 1.553-.323 2.461v7.559c0 .429-.131.771-.395 1.025-.254.254-.61.381-1.069.381-.45 0-.806-.127-1.07-.381-.263-.254-.395-.601-.395-1.04v-13.491c0-.44.107-.801.322-1.084.225-.283.527-.425.908-.425.225 0 .484.098.777.293.302.186.512.508.629.967l.147 1.054c.127-.273.371-.59.732-.952a5.37 5.37 0 011.289-.937 3.18 3.18 0 011.553-.41c.996 0 1.817.117 2.461.351.645.225.967.728.967 1.509zm11.159-1.802c1.299 0 2.49.323 3.574.967a7.425 7.425 0 012.608 2.607c.664 1.084.996 2.291.996 3.619 0 .273-.015.551-.044.835a1.383 1.383 0 01-.498.922 1.437 1.437 0 01-.967.367l-10.239.014c.166.703.478 1.363.937 1.978a5.555 5.555 0 001.67 1.494 4.282 4.282 0 002.168.571c.84 0 1.592-.205 2.256-.615.664-.41 1.182-.884 1.553-1.421.117-.185.293-.342.527-.469a1.5 1.5 0 01.689-.19c.4 0 .742.146 1.025.439.293.293.439.64.439 1.04 0 .313-.087.591-.263.835-.606.889-1.441 1.661-2.505 2.315-1.055.644-2.28.967-3.677.967a7.494 7.494 0 01-3.135-.659 7.95 7.95 0 01-2.505-1.802 8.469 8.469 0 01-1.669-2.622 8.542 8.542 0 01-.586-3.15 7.94 7.94 0 01.586-3.032 8.398 8.398 0 011.626-2.578 7.82 7.82 0 012.446-1.773 6.9 6.9 0 012.988-.659zm4.16 6.387c-.185-.957-.664-1.772-1.435-2.446-.772-.674-1.68-1.011-2.725-1.011a4.255 4.255 0 00-2.827 1.04c-.811.693-1.357 1.504-1.641 2.432l8.628-.015z"/>
  </g>
  <g filter="url(#filter1_d)" style="mix-blend-mode:hard-light">
    <path fill="#fff" d="M84.307 13.837c0 1.125-.416 2.157-1.25 3.094-.812.938-1.76 1.406-2.844 1.406-.979 0-1.791-.166-2.437-.5-2.021-1.083-3.031-2.854-3.031-5.312 0-1.146.218-2.448.656-3.906C76.42 5.223 78.234 2.66 80.838.93c.396-.27.813-.406 1.25-.406.584 0 1.084.23 1.5.687.438.459.657 1.01.657 1.657 0 .687-.365 1.28-1.094 1.78-1.688 1.105-2.823 2.668-3.406 4.688h.062c1.23 0 2.281.448 3.156 1.344.896.875 1.344 1.927 1.344 3.156zm-13.25 0c0 1.125-.416 2.157-1.25 3.094-.812.938-1.76 1.406-2.844 1.406-.979 0-1.791-.166-2.437-.5-2.021-1.083-3.031-2.854-3.031-5.312 0-1.146.218-2.448.656-3.906C63.17 5.223 64.984 2.66 67.588.93c.396-.27.813-.406 1.25-.406.584 0 1.084.23 1.5.687.438.459.657 1.01.657 1.657 0 .687-.365 1.28-1.094 1.78-1.688 1.105-2.823 2.668-3.406 4.688h.062c1.23 0 2.281.448 3.156 1.344.896.875 1.344 1.927 1.344 3.156zm39.431-1.53c.23-.522.615-.96 1.157-1.313.562-.375 1.135-.563 1.718-.563.563 0 1.125.188 1.688.563.583.354.979.791 1.187 1.312l17.188 39.875a3.1 3.1 0 01.281 1.281c0 .855-.312 1.594-.937 2.22a2.984 2.984 0 01-2.188.905c-.583 0-1.156-.187-1.719-.562-.562-.375-.958-.823-1.187-1.344l-5.344-12.406-17.812-.25-5.47 12.687c-.207.521-.593.97-1.155 1.344-.563.396-1.136.594-1.72.594-.853 0-1.593-.302-2.218-.906-.604-.625-.906-1.365-.906-2.22 0-.437.094-.864.281-1.28l17.156-39.938zm2.875 9.155l-6.156 14.344 12.406.156-6.25-14.5zm34.463 34.688c-.854 0-1.594-.302-2.219-.906-.604-.625-.906-1.355-.906-2.188l-.094-39.656v-.031c0-.834.302-1.542.906-2.125.625-.604 1.365-.907 2.219-.907.854 0 1.583.303 2.188.907.625.583.937 1.291.937 2.125l.094 36.53 23.656-.062h.031c.855 0 1.584.313 2.188.938.625.604.937 1.333.937 2.187 0 .855-.312 1.594-.937 2.22a2.98 2.98 0 01-2.188.905h-.031l-26.781.063zm62.556-43.375c.188-.583.563-1.073 1.125-1.469.583-.396 1.198-.594 1.844-.594a2.9 2.9 0 011.875.657c.562.437.927.948 1.094 1.53l9.593 30.563 8.532-29.406c.166-.875.531-1.625 1.093-2.25.584-.646 1.23-.969 1.938-.969.896 0 1.635.375 2.219 1.125.604.75.906 1.636.906 2.657 0 .416-.052.78-.156 1.093l-11.344 38.532c-.188.625-.563 1.145-1.125 1.562a3.138 3.138 0 01-1.844.594c-.625 0-1.239-.188-1.844-.563-.583-.395-.968-.895-1.156-1.5l-9.875-28.343-10.437 29.28c-.334.334-.75.605-1.25.813-.48.209-1.052.313-1.719.313a3.277 3.277 0 01-1.875-.594c-.583-.416-.969-.937-1.156-1.562l-10.938-38.125a4.523 4.523 0 01-.125-1.094c0-1.02.292-1.906.875-2.656.604-.75 1.354-1.125 2.25-1.125.729 0 1.375.333 1.938 1a4.41 4.41 0 011.093 2.28l8.219 29.126 10.25-30.875zm56.431-.469c.23-.52.615-.958 1.157-1.312.562-.375 1.135-.563 1.718-.563.563 0 1.125.188 1.688.563.583.354.979.791 1.187 1.312l17.188 39.875a3.1 3.1 0 01.281 1.281c0 .855-.312 1.594-.937 2.22a2.984 2.984 0 01-2.188.905c-.583 0-1.156-.187-1.719-.562-.562-.375-.958-.823-1.187-1.344l-5.344-12.406-17.812-.25-5.469 12.687c-.208.521-.594.97-1.156 1.344-.563.396-1.136.594-1.719.594-.854 0-1.594-.302-2.219-.906-.604-.625-.906-1.365-.906-2.22a3.1 3.1 0 01.281-1.28l17.156-39.938zm2.875 9.156l-6.156 14.344 12.406.156-6.25-14.5zm29.057-8.156c0-.854.343-1.552 1.031-2.094.687-.541 1.448-.812 2.281-.812 1.083 0 1.917.5 2.5 1.5l11.156 19.219 10.907-19.032c.208-.333.541-.656 1-.968.479-.313.968-.47 1.468-.47.48 0 .907.053 1.282.157.395.084.802.344 1.218.781.584.625.875 1.282.875 1.97 0 .666-.156 1.26-.468 1.78L318.713 37.9l-.218 15.562c0 .834-.313 1.552-.938 2.157-.604.583-1.333.875-2.187.875a3.142 3.142 0 01-2.219-.875c-.604-.605-.906-1.323-.906-2.157V53.4l.218-15.906-13.218-22.407c-.334-.479-.5-1.072-.5-1.78zm62.306-2.812c2.396 0 4.656.406 6.781 1.218 2.146.813 4.021 1.938 5.625 3.375 1.604 1.438 2.823 3.105 3.656 5 .188.417.282.844.282 1.282 0 .854-.313 1.593-.938 2.218a2.98 2.98 0 01-2.187.907c-.563 0-1.125-.177-1.688-.532-.562-.375-.958-.822-1.187-1.343-.792-1.792-2.115-3.22-3.969-4.282-1.833-1.062-3.958-1.593-6.375-1.593-1.188 0-2.448.146-3.781.437-1.313.292-2.552.74-3.719 1.344-1.167.583-2.115 1.323-2.844 2.219-.729.896-1.094 1.937-1.094 3.125 0 .958.313 1.791.938 2.5a7.379 7.379 0 002.094 1.625c1.812.896 3.812 1.52 6 1.875 2.208.354 4.437.698 6.687 1.03 2.25.334 4.344.918 6.281 1.75 1.23.522 2.407 1.24 3.532 2.157a11.015 11.015 0 012.75 3.344c.708 1.312 1.062 2.854 1.062 4.625 0 2.292-.552 4.302-1.656 6.031-1.104 1.73-2.552 3.167-4.344 4.313a21.374 21.374 0 01-5.844 2.593c-2.083.563-4.125.844-6.125.844-2.708 0-5.25-.427-7.625-1.281-2.375-.875-4.448-2.104-6.218-3.688a16.358 16.358 0 01-4.063-5.625 3.031 3.031 0 01-.281-1.25c0-.854.302-1.583.906-2.187.625-.625 1.365-.938 2.219-.938.583 0 1.156.188 1.719.563.562.354.948.802 1.156 1.344.917 2.104 2.469 3.77 4.656 5 2.188 1.208 4.698 1.812 7.531 1.812 1.771 0 3.552-.26 5.344-.781 1.792-.542 3.292-1.365 4.5-2.469 1.229-1.125 1.844-2.552 1.844-4.281 0-1.104-.375-2.01-1.125-2.719a7.66 7.66 0 00-2.406-1.656 24.41 24.41 0 00-6.344-1.75c-2.25-.333-4.49-.677-6.719-1.031a21.785 21.785 0 01-6.25-2.032c-1.646-.833-3.146-2.041-4.5-3.625-1.333-1.604-2-3.635-2-6.093 0-2.167.521-4.073 1.563-5.72 1.062-1.666 2.458-3.062 4.187-4.187a20.536 20.536 0 015.75-2.593 22.972 22.972 0 016.219-.875zm74.8.062c3.187 0 6.114.625 8.781 1.875a21.476 21.476 0 017 5.094c1.979 2.146 3.511 4.625 4.594 7.437 1.083 2.792 1.625 5.76 1.625 8.907 0 3.145-.542 6.104-1.625 8.875-1.063 2.75-2.573 5.177-4.531 7.28-1.959 2.105-4.282 3.75-6.969 4.938-2.667 1.188-5.615 1.782-8.844 1.782-3.292 0-6.281-.594-8.969-1.782-2.687-1.208-5-2.864-6.937-4.968-1.917-2.125-3.396-4.573-4.438-7.344-1.041-2.792-1.562-5.781-1.562-8.969 0-3.104.542-6.041 1.625-8.812 1.104-2.771 2.635-5.23 4.594-7.375a21.677 21.677 0 016.937-5.094c2.667-1.23 5.573-1.844 8.719-1.844zm.125 6.344c-3.083 0-5.813.802-8.188 2.406-2.354 1.604-4.208 3.73-5.562 6.375-1.333 2.625-2 5.5-2 8.625 0 2.125.406 4.156 1.219 6.094a17.119 17.119 0 003.375 5.187 16.467 16.467 0 004.968 3.563c1.896.854 3.917 1.281 6.063 1.281s4.167-.448 6.062-1.344a16.814 16.814 0 005.063-3.625 17.29 17.29 0 003.469-5.125c.833-1.916 1.25-3.875 1.25-5.875 0-3.229-.709-6.166-2.125-8.812-1.396-2.667-3.282-4.792-5.657-6.375-2.375-1.583-5.02-2.375-7.937-2.375zm32.181-2.75c0-.875.313-1.594.938-2.156a3.29 3.29 0 012.281-.875c.979 0 1.781.396 2.406 1.187l23.594 32.031V14.244c0-.834.302-1.542.906-2.125.625-.604 1.365-.907 2.219-.907a2.98 2.98 0 012.187.907c.625.583.938 1.291.938 2.125l-.031 39.187c0 .875-.323 1.604-.969 2.188-.625.562-1.375.843-2.25.843-.979 0-1.781-.416-2.406-1.25l-23.563-32V53.4c0 .833-.312 1.552-.937 2.156-.605.584-1.334.875-2.188.875a3.144 3.144 0 01-2.219-.875c-.604-.604-.906-1.323-.906-2.156V14.15zm85.55-3.156h.469c3.667 0 6.885.646 9.656 1.937 2.771 1.271 5.083 3 6.938 5.188a22.133 22.133 0 014.218 7.312 24.375 24.375 0 011.438 8.25c0 4.292-.969 8.115-2.906 11.469-1.917 3.354-4.761 5.99-8.532 7.906-3.75 1.917-8.375 2.875-13.875 2.875h-1.468l-7.125-.062c-.834-.021-1.563-.344-2.188-.97a3.123 3.123 0 01-.906-2.25l.219-38.343c0-.833.302-1.552.906-2.156.604-.625 1.323-.948 2.156-.969l11-.187zm17.156 22.5c0-3.875-.823-7-2.468-9.375-1.646-2.375-3.959-4.104-6.938-5.188-2.979-1.104-6.479-1.656-10.5-1.656a104.714 104.714 0 00-5.094.125l-.187 32.156 4.031.063c4.188 0 7.865-.5 11.031-1.5 3.188-1.021 5.667-2.709 7.438-5.063 1.792-2.354 2.687-5.541 2.687-9.562zm34.088-21.188c.229-.52.614-.958 1.156-1.312.563-.375 1.136-.563 1.719-.563.562 0 1.125.188 1.687.563.584.354.98.791 1.188 1.312l17.187 39.875c.188.417.282.844.282 1.281 0 .855-.313 1.594-.938 2.22a2.98 2.98 0 01-2.187.905c-.584 0-1.157-.187-1.719-.562-.563-.375-.958-.823-1.188-1.344l-5.343-12.406-17.813-.25-5.469 12.687c-.208.521-.593.97-1.156 1.344-.562.396-1.135.594-1.719.594-.854 0-1.593-.302-2.218-.906-.605-.625-.907-1.365-.907-2.22 0-.437.094-.864.282-1.28l17.156-39.938zm2.875 9.156l-6.156 14.344 12.406.156-6.25-14.5zm29.056-7.156c0-.854.302-1.583.906-2.187.625-.625 1.365-.938 2.219-.938h.031l31.219-.187h.063c.854 0 1.583.312 2.187.937.625.604.938 1.334.938 2.188 0 .854-.313 1.593-.938 2.218a2.98 2.98 0 01-2.187.907h-.032l-12.437.062-.156 35.875v.031c0 .834-.313 1.552-.938 2.157a2.98 2.98 0 01-2.187.906c-.855 0-1.594-.302-2.219-.906-.604-.605-.906-1.323-.906-2.157v-.062l.156-35.813-12.563.094h-.031c-.854 0-1.594-.302-2.219-.906-.604-.625-.906-1.365-.906-2.219zm47.088-.156c0-.833.302-1.542.906-2.125.625-.604 1.364-.906 2.219-.906l26.781.03h.031c.854 0 1.583.313 2.188.938.625.605.937 1.334.937 2.188 0 .854-.312 1.594-.937 2.219a2.984 2.984 0 01-2.188.906h-.031l-23.656-.031.031 12.812 21.062.156c.896 0 1.636.313 2.219.938.604.625.906 1.427.906 2.406 0 .834-.323 1.542-.968 2.125-.646.563-1.365.844-2.157.844h-.031l-21-.156.031 13.218 23.563-.03h.031c.854 0 1.583.312 2.188.937.625.604.937 1.333.937 2.187 0 .854-.312 1.594-.937 2.219a2.983 2.983 0 01-2.188.906h-.031l-26.688.031c-.854 0-1.593-.302-2.218-.906-.605-.625-.907-1.354-.907-2.187l-.093-38.72zm-628.07 75c0-.792.293-1.5.876-2.125.604-.625 1.302-.938 2.094-.938.979 0 1.76.271 2.343.813.605.52.917 1.27.938 2.25l.219 22.594c.041 4.5.948 8.052 2.718 10.656 1.771 2.604 4.709 3.906 8.813 3.906 3.041 0 5.479-.594 7.312-1.781 1.834-1.188 3.157-2.844 3.97-4.969.812-2.125 1.218-4.573 1.218-7.344l-.063-23.093v-.032c0-.854.303-1.573.907-2.156a2.98 2.98 0 012.187-.906c.854 0 1.594.302 2.219.906.625.584.937 1.302.937 2.156v.032l.063 23.093c0 6.25-1.552 11.198-4.656 14.844-3.084 3.646-7.74 5.469-13.97 5.469-4.02 0-7.343-.886-9.968-2.656-2.625-1.792-4.594-4.24-5.906-7.344-1.313-3.125-1.99-6.688-2.031-10.688l-.22-22.656v-.031zm66.87-3.656c2.395 0 4.656.406 6.781 1.218 2.146.813 4.021 1.938 5.625 3.375 1.604 1.438 2.823 3.105 3.656 5 .188.417.281.844.281 1.282 0 .854-.312 1.593-.937 2.218a2.98 2.98 0 01-2.188.907c-.562 0-1.125-.177-1.687-.532-.563-.375-.958-.823-1.188-1.343-.791-1.792-2.114-3.22-3.968-4.282-1.834-1.062-3.959-1.593-6.375-1.593-1.188 0-2.448.145-3.782.437-1.312.292-2.552.74-3.718 1.344-1.167.583-2.115 1.323-2.844 2.219-.729.895-1.094 1.937-1.094 3.125 0 .958.313 1.791.938 2.5a7.4 7.4 0 002.093 1.625c1.813.895 3.813 1.52 6 1.875 2.209.354 4.438.698 6.688 1.031 2.25.333 4.344.917 6.281 1.75a14.615 14.615 0 013.531 2.156 11 11 0 012.75 3.344c.709 1.312 1.063 2.854 1.063 4.625 0 2.292-.552 4.302-1.656 6.031-1.105 1.729-2.552 3.167-4.344 4.313a21.4 21.4 0 01-5.844 2.593c-2.083.563-4.125.844-6.125.844-2.708 0-5.25-.427-7.625-1.281-2.375-.875-4.448-2.104-6.219-3.688a16.352 16.352 0 01-4.062-5.625 3.012 3.012 0 01-.281-1.25c0-.854.302-1.583.906-2.187.625-.625 1.364-.938 2.219-.938.583 0 1.156.188 1.718.563.563.354.948.802 1.157 1.344.916 2.104 2.468 3.77 4.656 5 2.187 1.208 4.698 1.812 7.531 1.812 1.771 0 3.552-.26 5.344-.781 1.792-.542 3.292-1.365 4.5-2.469 1.229-1.125 1.844-2.552 1.844-4.281 0-1.104-.375-2.011-1.125-2.719a7.678 7.678 0 00-2.407-1.656 24.38 24.38 0 00-6.343-1.75 643.33 643.33 0 01-6.719-1.031 21.752 21.752 0 01-6.25-2.032c-1.646-.833-3.146-2.041-4.5-3.625-1.333-1.604-2-3.635-2-6.093 0-2.167.521-4.073 1.562-5.72 1.063-1.666 2.459-3.062 4.188-4.187a20.536 20.536 0 015.75-2.593 22.972 22.972 0 016.219-.875zm29.806 3.656c0-.833.302-1.542.906-2.125.625-.604 1.365-.906 2.219-.906l26.781.03h.031c.855 0 1.584.313 2.188.938.625.605.937 1.334.937 2.188 0 .854-.312 1.594-.937 2.219a2.98 2.98 0 01-2.188.906h-.031l-23.656-.031.031 12.812 21.063.156c.895 0 1.635.313 2.218.938.605.625.907 1.427.907 2.406 0 .833-.323 1.542-.969 2.125-.646.563-1.365.844-2.156.844h-.032l-21-.156.032 13.218 23.562-.031h.031c.855 0 1.584.313 2.188.938.625.604.937 1.333.937 2.187 0 .854-.312 1.594-.937 2.219a2.98 2.98 0 01-2.188.906h-.031l-26.687.031c-.855 0-1.594-.302-2.219-.906-.604-.625-.906-1.354-.906-2.187l-.094-38.72zm67.3 0c0-.875.312-1.594.937-2.156a3.294 3.294 0 012.282-.875c.979 0 1.781.395 2.406 1.187l23.594 32.031V89.244c0-.834.302-1.542.906-2.125.625-.605 1.364-.907 2.219-.907a2.98 2.98 0 012.187.907c.625.583.938 1.291.938 2.125l-.032 39.187c0 .875-.323 1.604-.968 2.188-.625.562-1.375.843-2.25.843-.98 0-1.782-.416-2.407-1.25l-23.562-32V128.4c0 .833-.313 1.552-.938 2.156-.604.583-1.333.875-2.187.875a3.145 3.145 0 01-2.219-.875c-.604-.604-.906-1.323-.906-2.156V89.15zm46.587 0c0-.833.302-1.542.907-2.125.625-.604 1.364-.906 2.218-.906l26.782.03h.031c.854 0 1.583.313 2.187.938.625.605.938 1.334.938 2.188 0 .854-.313 1.594-.938 2.219a2.98 2.98 0 01-2.187.906h-.031l-23.657-.031.032 12.812 21.062.156c.896 0 1.636.313 2.219.938.604.625.906 1.427.906 2.406 0 .833-.323 1.542-.969 2.125-.645.563-1.364.844-2.156.844h-.031l-21-.156.031 13.218 23.563-.031h.031c.854 0 1.583.313 2.187.938.625.604.938 1.333.938 2.187 0 .854-.313 1.594-.938 2.219a2.98 2.98 0 01-2.187.906h-.031l-26.688.031c-.854 0-1.594-.302-2.219-.906-.604-.625-.906-1.354-.906-2.187l-.094-38.72zm66.463-1.375c.187-.583.562-1.073 1.125-1.469.583-.396 1.198-.594 1.844-.594a2.9 2.9 0 011.875.657c.562.437.927.948 1.093 1.53l9.594 30.563 8.531-29.406c.167-.875.532-1.625 1.094-2.25.583-.646 1.229-.969 1.938-.969.895 0 1.635.375 2.218 1.125.605.75.907 1.636.907 2.657 0 .416-.052.78-.157 1.093l-11.343 38.532c-.188.625-.563 1.145-1.125 1.562a3.137 3.137 0 01-1.844.594c-.625 0-1.24-.188-1.844-.563-.583-.395-.969-.895-1.156-1.5l-9.875-28.343-10.438 29.281c-.333.333-.75.604-1.25.812-.479.209-1.052.313-1.718.313a3.276 3.276 0 01-1.875-.594c-.584-.417-.969-.937-1.157-1.562l-10.937-38.125a4.523 4.523 0 01-.125-1.094c0-1.02.292-1.906.875-2.656.604-.75 1.354-1.125 2.25-1.125.729 0 1.375.333 1.937 1a4.411 4.411 0 011.094 2.28l8.219 29.126 10.25-30.875zm39.775 1.375c0-.833.302-1.542.906-2.125.625-.604 1.365-.906 2.219-.906l26.781.03h.031c.855 0 1.584.313 2.188.938.625.605.937 1.334.937 2.188 0 .854-.312 1.594-.937 2.219a2.98 2.98 0 01-2.188.906h-.031l-23.656-.031.031 12.812 21.063.156c.895 0 1.635.313 2.218.938.605.625.907 1.427.907 2.406 0 .833-.323 1.542-.969 2.125-.646.563-1.365.844-2.156.844h-.032l-21-.156.032 13.218 23.562-.031h.031c.855 0 1.584.313 2.188.938.625.604.937 1.333.937 2.187 0 .854-.312 1.594-.937 2.219a2.98 2.98 0 01-2.188.906h-.031l-26.687.031c-.855 0-1.594-.302-2.219-.906-.604-.625-.906-1.354-.906-2.187l-.094-38.72zm62.431-3.656c2.396 0 4.656.406 6.781 1.218 2.146.813 4.021 1.938 5.625 3.375 1.605 1.438 2.823 3.105 3.657 5a3.1 3.1 0 01.281 1.282c0 .854-.313 1.593-.938 2.218a2.98 2.98 0 01-2.187.907c-.563 0-1.125-.177-1.688-.532-.562-.375-.958-.823-1.187-1.343-.792-1.792-2.115-3.22-3.969-4.282-1.833-1.062-3.958-1.593-6.375-1.593-1.187 0-2.448.145-3.781.437-1.313.292-2.552.74-3.719 1.344-1.167.583-2.114 1.323-2.844 2.219-.729.895-1.093 1.937-1.093 3.125 0 .958.312 1.791.937 2.5a7.39 7.39 0 002.094 1.625c1.812.895 3.812 1.52 6 1.875 2.208.354 4.437.698 6.687 1.031 2.25.333 4.344.917 6.282 1.75a14.615 14.615 0 013.531 2.156 11 11 0 012.75 3.344c.708 1.312 1.062 2.854 1.062 4.625 0 2.292-.552 4.302-1.656 6.031-1.104 1.729-2.552 3.167-4.344 4.313a21.381 21.381 0 01-5.843 2.593c-2.084.563-4.125.844-6.125.844-2.709 0-5.25-.427-7.625-1.281-2.375-.875-4.448-2.104-6.219-3.688a16.354 16.354 0 01-4.063-5.625 3.028 3.028 0 01-.281-1.25c0-.854.302-1.583.906-2.187.625-.625 1.365-.938 2.219-.938.583 0 1.156.188 1.719.563.562.354.948.802 1.156 1.344.917 2.104 2.469 3.77 4.656 5 2.188 1.208 4.698 1.812 7.532 1.812 1.77 0 3.552-.26 5.343-.781 1.792-.542 3.292-1.365 4.5-2.469 1.23-1.125 1.844-2.552 1.844-4.281 0-1.104-.375-2.011-1.125-2.719a7.663 7.663 0 00-2.406-1.656 24.388 24.388 0 00-6.344-1.75c-2.25-.333-4.489-.677-6.719-1.031a21.762 21.762 0 01-6.25-2.032c-1.645-.833-3.145-2.041-4.5-3.625-1.333-1.604-2-3.635-2-6.093 0-2.167.521-4.073 1.563-5.72 1.062-1.666 2.458-3.062 4.187-4.187a20.536 20.536 0 015.75-2.593 22.983 22.983 0 016.219-.875zm28.244 3.812c0-.854.302-1.583.906-2.187.625-.625 1.365-.938 2.219-.938h.031l31.219-.187h.062c.855 0 1.584.312 2.188.937.625.604.937 1.334.937 2.188 0 .854-.312 1.593-.937 2.218a2.98 2.98 0 01-2.188.907h-.031l-12.437.062-.157 35.875v.031c0 .834-.312 1.552-.937 2.157a2.98 2.98 0 01-2.188.906c-.854 0-1.593-.302-2.218-.906-.605-.605-.907-1.323-.907-2.157v-.062l.157-35.813-12.563.094h-.031c-.854 0-1.594-.302-2.219-.906-.604-.625-.906-1.365-.906-2.219zm69.425 0c0-.854.302-1.583.906-2.187.625-.625 1.365-.938 2.219-.938h.031l31.219-.187h.062c.855 0 1.584.312 2.188.937.625.604.937 1.334.937 2.188 0 .854-.312 1.593-.937 2.218a2.98 2.98 0 01-2.188.907h-.031l-12.437.062-.157 35.875v.031c0 .834-.312 1.552-.937 2.157a2.98 2.98 0 01-2.188.906c-.854 0-1.593-.302-2.218-.906-.605-.605-.907-1.323-.907-2.157v-.062l.157-35.813-12.563.094h-.031c-.854 0-1.594-.302-2.219-.906-.604-.625-.906-1.365-.906-2.219zm47.087-.156c0-.833.302-1.542.907-2.125.625-.604 1.364-.906 2.218-.906l26.782.03h.031c.854 0 1.583.313 2.187.938.625.605.938 1.334.938 2.188 0 .854-.313 1.594-.938 2.219a2.98 2.98 0 01-2.187.906h-.031l-23.657-.031.032 12.812 21.062.156c.896 0 1.636.313 2.219.938.604.625.906 1.427.906 2.406 0 .833-.323 1.542-.969 2.125-.645.563-1.364.844-2.156.844h-.031l-21-.156.031 13.218 23.563-.031h.031c.854 0 1.583.313 2.187.938.625.604.938 1.333.938 2.187 0 .854-.313 1.594-.938 2.219a2.98 2.98 0 01-2.187.906h-.031l-26.688.031c-.854 0-1.594-.302-2.219-.906-.604-.625-.906-1.354-.906-2.187l-.094-38.72zm81.244 25.156c.75 0 1.427.302 2.031.906.625.584.938 1.24.938 1.969 0 .583-.104 1.083-.313 1.5-1.041 2.292-2.52 4.427-4.437 6.406-1.896 1.959-4.156 3.532-6.781 4.719-2.625 1.188-5.573 1.781-8.844 1.781-3.229 0-6.146-.614-8.75-1.843-2.604-1.23-4.833-2.907-6.688-5.032-1.833-2.145-3.25-4.604-4.25-7.375-.979-2.791-1.468-5.739-1.468-8.843 0-3.063.5-5.98 1.5-8.75 1-2.771 2.427-5.22 4.281-7.344a20.128 20.128 0 016.656-5.063c2.583-1.229 5.458-1.843 8.625-1.843 3.208 0 6.115.573 8.719 1.718 2.625 1.125 4.896 2.636 6.812 4.532 1.938 1.875 3.448 3.937 4.532 6.187.229.438.343.896.343 1.375 0 .771-.281 1.479-.843 2.125-.542.625-1.177.938-1.907.938a4.265 4.265 0 01-1.937-.438 3.032 3.032 0 01-1.281-1.375c-1.167-2.416-3-4.49-5.5-6.219-2.48-1.729-5.459-2.593-8.938-2.593-3.021 0-5.646.77-7.875 2.312-2.208 1.542-3.917 3.594-5.125 6.156-1.208 2.542-1.812 5.323-1.812 8.344 0 3.042.593 5.833 1.781 8.375 1.208 2.542 2.917 4.573 5.125 6.094 2.229 1.521 4.875 2.281 7.937 2.281 2.292 0 4.386-.417 6.282-1.25 1.916-.854 3.573-1.979 4.968-3.375 1.396-1.396 2.459-2.896 3.188-4.5.562-1.25 1.573-1.875 3.031-1.875zm13.244-26.187c0-.813.333-1.47 1-1.97s1.312-.75 1.937-.75a3.71 3.71 0 012.313.845c.667.541 1 1.27 1 2.187l.031 17.563 23.375-.032.031-17.53c-.062-.834.219-1.543.844-2.126.646-.604 1.396-.906 2.25-.906.854 0 1.594.292 2.219.875.625.583.937 1.302.937 2.156l-.031 39.719c0 .833-.312 1.552-.937 2.156a3.04 3.04 0 01-2.188.875 3.206 3.206 0 01-2.219-.844 2.842 2.842 0 01-.906-2.125v-15.937l-23.344.031.032 15.938c0 .854-.302 1.573-.907 2.156-.604.583-1.343.875-2.218.875a3.144 3.144 0 01-2.219-.875c-.604-.604-.906-1.323-.906-2.156l-.063-19.875c0-6.646-.01-13.282-.031-19.907v-.343zm48.619-8.157c0-1.125.406-2.156 1.218-3.093.834-.938 1.792-1.407 2.875-1.407.98 0 1.792.167 2.438.5 2.021 1.084 3.031 2.855 3.031 5.313 0 1.146-.219 2.448-.656 3.906-1.021 3.396-2.833 5.959-5.438 7.688-.395.27-.812.406-1.25.406-.583 0-1.093-.23-1.531-.688-.417-.458-.625-1.01-.625-1.656 0-.687.365-1.281 1.094-1.781 1.687-1.104 2.823-2.667 3.406-4.688h-.062c-1.23 0-2.292-.437-3.188-1.312-.875-.896-1.312-1.958-1.312-3.188zm13.25 0c0-1.125.406-2.156 1.218-3.093.834-.938 1.792-1.407 2.875-1.407.98 0 1.792.167 2.438.5 2.021 1.084 3.031 2.855 3.031 5.313 0 1.146-.219 2.448-.656 3.906-1.021 3.396-2.833 5.959-5.438 7.688-.395.27-.812.406-1.25.406-.583 0-1.093-.23-1.531-.688-.417-.458-.625-1.01-.625-1.656 0-.687.365-1.281 1.094-1.781 1.687-1.104 2.823-2.667 3.406-4.688h-.062c-1.23 0-2.292-.437-3.188-1.312-.875-.896-1.312-1.958-1.312-3.188z"/>
  </g>
  <defs>
    <filter id="filter0_d" width="580.282" height="99.709" x="87.616" y="183.992" color-interpolation-filters="sRGB" filterUnits="userSpaceOnUse">
      <feFlood flood-opacity="0" result="BackgroundImageFix"/>
      <feColorMatrix in="SourceAlpha" values="0 0 0 0 0 0 0 0 0 0 0 0 0 0 0 0 0 0 127 0"/>
      <feOffset dy="4"/>
      <feGaussianBlur stdDeviation="2"/>
      <feColorMatrix values="0 0 0 0 0 0 0 0 0 0 0 0 0 0 0 0 0 0 0.25 0"/>
      <feBlend in2="BackgroundImageFix" result="effect1_dropShadow"/>
      <feBlend in="SourceGraphic" in2="effect1_dropShadow" result="shape"/>
    </filter>
    <filter id="filter1_d" width="697.906" height="140" x="51.901" y=".525" color-interpolation-filters="sRGB" filterUnits="userSpaceOnUse">
      <feFlood flood-opacity="0" result="BackgroundImageFix"/>
      <feColorMatrix in="SourceAlpha" values="0 0 0 0 0 0 0 0 0 0 0 0 0 0 0 0 0 0 127 0"/>
      <feOffset dy="4"/>
      <feGaussianBlur stdDeviation="2"/>
      <feColorMatrix values="0 0 0 0 0 0 0 0 0 0 0 0 0 0 0 0 0 0 0.25 0"/>
      <feBlend in2="BackgroundImageFix" result="effect1_dropShadow"/>
      <feBlend in="SourceGraphic" in2="effect1_dropShadow" result="shape"/>
    </filter>
  </defs>
</svg>
