<svg xmlns="http://www.w3.org/2000/svg" width="800" height="412" fill="none" viewBox="0 0 800 412">
  <g filter="url(#filter0_d)">
    <path fill="#000" d="M135.339 239.785c.088-.273.264-.503.528-.688a1.51 1.51 0 01.864-.279c.332 0 .625.103.879.308.264.205.434.444.513.718l4.497 14.326 3.999-13.784c.078-.41.249-.762.512-1.055.274-.303.577-.454.909-.454.419 0 .766.176 1.04.527.283.352.424.767.424 1.245 0 .196-.024.367-.073.513l-5.317 18.062a1.394 1.394 0 01-.528.732 1.463 1.463 0 01-.864.278c-.293 0-.581-.088-.864-.263a1.31 1.31 0 01-.542-.703l-4.629-13.287-4.893 13.726a1.79 1.79 0 01-.586.381 2.003 2.003 0 01-.805.146c-.313 0-.606-.092-.879-.278a1.369 1.369 0 01-.542-.732l-5.127-17.871a2.125 2.125 0 01-.059-.513c0-.479.137-.894.411-1.245.283-.352.634-.528 1.054-.528.342 0 .645.157.908.469.274.303.445.659.513 1.069l3.853 13.653 4.804-14.473zm25.339 4.219c1.299 0 2.49.322 3.574.967a7.4 7.4 0 012.608 2.607c.664 1.084.996 2.29.996 3.618 0 .274-.015.552-.044.835a1.385 1.385 0 01-.498.923 1.44 1.44 0 01-.967.366l-10.239.015a5.33 5.33 0 00.937 1.977 5.545 5.545 0 001.67 1.495 4.282 4.282 0 002.168.571c.84 0 1.592-.205 2.256-.615.664-.41 1.182-.884 1.553-1.421a1.38 1.38 0 01.527-.469 1.5 1.5 0 01.689-.19c.4 0 .742.146 1.025.439.293.293.44.64.44 1.04 0 .313-.088.591-.264.835-.606.889-1.441 1.66-2.505 2.315-1.055.644-2.28.966-3.677.966a7.479 7.479 0 01-3.135-.659 7.904 7.904 0 01-2.504-1.802 8.43 8.43 0 01-1.67-2.622 8.54 8.54 0 01-.586-3.149c0-1.065.195-2.075.586-3.032a8.398 8.398 0 011.626-2.578 7.82 7.82 0 012.446-1.773 6.9 6.9 0 012.988-.659zm4.16 6.387c-.185-.957-.664-1.773-1.435-2.447-.772-.673-1.68-1.01-2.725-1.01a4.25 4.25 0 00-2.827 1.04c-.81.693-1.357 1.504-1.641 2.431l8.628-.014zm27.226-6.504c.723 0 1.426.146 2.109.439a7.175 7.175 0 011.846 1.084c.547.43.952.874 1.216 1.333l.161-1.406c0-.4.117-.742.352-1.025.234-.293.551-.44.952-.44.4 0 .742.147 1.025.44.293.283.44.625.44 1.025v.029l-.03 13.565c0 .4-.146.747-.439 1.04a1.398 1.398 0 01-1.026.425c-.4 0-.717-.142-.952-.425a1.617 1.617 0 01-.351-1.04l-.161-1.172c-.508.869-1.25 1.518-2.227 1.948-.977.42-1.958.63-2.944.63a7.556 7.556 0 01-3.106-.645 8.233 8.233 0 01-2.549-1.801 8.637 8.637 0 01-1.728-2.622 8.054 8.054 0 01-.615-3.121c0-1.084.2-2.119.6-3.105.41-.996.977-1.88 1.699-2.651a7.988 7.988 0 012.549-1.831c.977-.45 2.036-.674 3.179-.674zm5.054 8.232c0-.957-.225-1.836-.674-2.637a5.277 5.277 0 00-1.802-1.933c-.762-.488-1.631-.733-2.607-.733-.957 0-1.822.245-2.593.733a5.311 5.311 0 00-1.831 1.948 5.244 5.244 0 00-.674 2.607c0 .948.23 1.827.688 2.637a5.476 5.476 0 001.846 1.934 4.771 4.771 0 002.578.732c.938 0 1.787-.244 2.549-.732a5.341 5.341 0 001.831-1.934c.459-.81.689-1.684.689-2.622zm18.688-6.313c0 .781-.376 1.215-1.128 1.303-.273.03-.62-.058-1.04-.263a2.772 2.772 0 00-1.274-.323c-.85 0-1.524.22-2.022.66-.498.429-.854 1.01-1.069 1.743-.215.732-.322 1.553-.322 2.461v7.558c0 .43-.132.772-.396 1.026-.254.254-.61.381-1.069.381-.449 0-.806-.127-1.069-.381-.264-.254-.396-.601-.396-1.04v-13.492c0-.439.107-.8.322-1.084.225-.283.528-.424.908-.424.225 0 .484.097.777.293.303.185.513.507.63.966l.146 1.055c.127-.273.371-.591.733-.952a5.353 5.353 0 011.289-.938 3.187 3.187 0 011.552-.41c.997 0 1.817.117 2.461.352.645.224.967.727.967 1.509zm11.159-1.802c1.299 0 2.491.322 3.575.967a7.398 7.398 0 012.607 2.607c.664 1.084.996 2.29.996 3.618 0 .274-.015.552-.044.835a1.385 1.385 0 01-.498.923 1.439 1.439 0 01-.967.366l-10.239.015c.166.703.479 1.362.938 1.977a5.541 5.541 0 001.669 1.495 4.284 4.284 0 002.168.571c.84 0 1.592-.205 2.256-.615.664-.41 1.182-.884 1.553-1.421a1.38 1.38 0 01.527-.469 1.5 1.5 0 01.689-.19c.4 0 .742.146 1.025.439.293.293.44.64.44 1.04 0 .313-.088.591-.264.835-.605.889-1.44 1.66-2.505 2.315-1.055.644-2.28.966-3.677.966a7.47 7.47 0 01-3.134-.659 7.919 7.919 0 01-2.505-1.802 8.43 8.43 0 01-1.67-2.622 8.54 8.54 0 01-.586-3.149c0-1.065.195-2.075.586-3.032a8.398 8.398 0 011.626-2.578 7.82 7.82 0 012.446-1.773 6.9 6.9 0 012.988-.659zm4.16 6.387c-.185-.957-.664-1.773-1.435-2.447-.772-.673-1.68-1.01-2.725-1.01a4.25 4.25 0 00-2.827 1.04c-.81.693-1.357 1.504-1.64 2.431l8.627-.014zm29.702 7.631a13.984 13.984 0 01-1.905 1.539c-.732.507-1.587.761-2.563.761-1.279 0-2.344-.337-3.193-1.01-.85-.684-1.475-1.475-1.875-2.374a6.943 6.943 0 01-.572-2.109 24.143 24.143 0 01-.088-1.977v-7.398c0-.4.142-.742.425-1.025.293-.293.64-.44 1.04-.44.401 0 .742.147 1.026.44.293.283.439.625.439 1.025v7.398c0 .576.024 1.108.073 1.596.059.489.171.918.337 1.289.186.43.474.816.864 1.158.391.332.889.498 1.495.498 1.445 0 2.553-.552 3.325-1.656.781-1.103 1.167-2.592 1.157-4.467l-.015-5.845a1.4 1.4 0 01.425-1.026c.293-.293.64-.439 1.04-.439.41 0 .757.146 1.04.439.283.284.425.63.425 1.04l.029 13.462c0 .401-.112.747-.337 1.04-.214.284-.522.425-.922.425-.401 0-.708-.141-.923-.425a3.303 3.303 0 01-.498-1.04l-.249-.879zm16.125-14.091c1.396 0 2.661.307 3.794.923 1.142.605 1.987 1.425 2.534 2.46.117.206.176.44.176.704 0 .4-.147.747-.44 1.04a1.397 1.397 0 01-1.025.424c-.244 0-.498-.078-.762-.234-.254-.166-.435-.356-.542-.571a3.074 3.074 0 00-1.45-1.363c-.645-.302-1.411-.454-2.3-.454-.518 0-1.104.069-1.758.205-.654.137-1.221.357-1.699.66-.479.302-.718.713-.718 1.23 0 .381.196.684.586.908.401.215.889.381 1.465.498.586.118 1.172.205 1.758.264a70.21 70.21 0 011.435.132c.723.078 1.436.2 2.139.366a7.597 7.597 0 011.934.703 3.65 3.65 0 011.391 1.275c.352.537.528 1.22.528 2.05 0 1.182-.342 2.149-1.026 2.901-.683.752-1.557 1.308-2.622 1.67a10.327 10.327 0 01-3.34.542c-1.592 0-3.042-.313-4.35-.938-1.299-.635-2.261-1.557-2.886-2.768a1.539 1.539 0 01-.176-.689c0-.4.142-.742.425-1.025.293-.293.64-.44 1.04-.44.254 0 .508.083.762.249.263.157.449.347.556.572.381.742.967 1.279 1.758 1.611.801.332 1.753.498 2.857.498a9.11 9.11 0 001.816-.19c.635-.137 1.167-.367 1.597-.689.439-.322.659-.762.659-1.318 0-.43-.191-.738-.571-.923-.372-.195-.821-.322-1.348-.381-.518-.059-1.001-.112-1.45-.161-.86-.088-1.748-.2-2.666-.337a12.187 12.187 0 01-2.564-.689c-.781-.312-1.416-.761-1.904-1.347s-.732-1.367-.732-2.344c0-.879.209-1.636.629-2.27a4.999 4.999 0 011.7-1.553 8.303 8.303 0 012.299-.908c.84-.196 1.67-.293 2.491-.293zm14.499-1.48c-.45 0-.816-.137-1.099-.41a1.464 1.464 0 01-.439-1.04l-.03-1.113c0-.371.166-.669.498-.894.332-.234.65-.351.952-.351.411 0 .752.141 1.026.424.283.284.43.625.439 1.026l.015.879c0 .381-.127.722-.381 1.025a1.221 1.221 0 01-.981.454zm-1.582 2.769c0-.371.156-.674.468-.908.313-.235.616-.352.909-.352.429 0 .796.127 1.098.381.303.254.454.591.454 1.011v.014l.03 13.565c0 .39-.147.722-.44.996-.283.273-.625.41-1.025.41-.41 0-.757-.137-1.04-.41a1.381 1.381 0 01-.425-1.011l-.029-13.696zm11.672 1.054a14.493 14.493 0 011.889-1.538c.742-.507 1.602-.761 2.578-.761 1.28 0 2.344.341 3.194 1.025.849.674 1.474 1.46 1.875 2.358.312.713.498 1.421.556 2.124.069.694.103 1.348.103 1.963v7.398c0 .4-.147.747-.44 1.04a1.398 1.398 0 01-1.025.425 1.448 1.448 0 01-1.465-1.465v-7.398c0-.576-.029-1.108-.088-1.596a4.157 4.157 0 00-.322-1.289 3.125 3.125 0 00-.864-1.143c-.391-.342-.889-.513-1.494-.513-1.446 0-2.559.552-3.34 1.656-.772 1.103-1.153 2.592-1.143 4.467l.015 5.845c0 .4-.147.747-.44 1.04a1.398 1.398 0 01-1.025.425c-.41 0-.757-.142-1.04-.425a1.464 1.464 0 01-.425-1.055l-.029-13.461c0-.401.107-.743.322-1.026.225-.293.537-.439.938-.439.4 0 .708.146.922.439.215.283.381.625.499 1.026l.249.878zm29.323-2.373c.4 0 .742.147 1.025.44.293.283.44.625.44 1.025v.03l-.103 13.989a7.544 7.544 0 01-.674 3.091 8.185 8.185 0 01-1.787 2.563 8.5 8.5 0 01-2.622 1.743c-.976.42-2.017.63-3.12.63a8.09 8.09 0 01-3.56-.82 8.069 8.069 0 01-2.856-2.271 1.47 1.47 0 01-.337-.937c0-.401.142-.747.425-1.04a1.446 1.446 0 011.04-.425c.195 0 .405.054.63.161.234.108.415.244.542.41a5.315 5.315 0 001.845 1.45 5.22 5.22 0 002.286.542c.947 0 1.816-.234 2.607-.703a5.42 5.42 0 001.919-1.875 4.743 4.743 0 00.732-2.563v-1.436c-.576.899-1.274 1.519-2.094 1.861a6.518 6.518 0 01-2.491.498 6.556 6.556 0 01-2.973-.689 7.692 7.692 0 01-2.373-1.86 8.966 8.966 0 01-1.582-2.652 8.743 8.743 0 01-.557-3.076c0-1.054.186-2.06.557-3.017a8.488 8.488 0 011.582-2.578 7.619 7.619 0 012.373-1.788c.908-.439 1.899-.659 2.973-.659.928 0 1.797.215 2.608.645.81.43 1.499 1.084 2.065 1.963l.22-1.172c.078-.401.205-.747.381-1.04.176-.293.469-.44.879-.44zm-1.597 8.101c0-.889-.195-1.719-.586-2.49a5.102 5.102 0 00-1.611-1.905c-.674-.488-1.445-.732-2.315-.732-.888 0-1.679.244-2.373.732a5.12 5.12 0 00-1.626 1.89 5.446 5.446 0 00-.586 2.49c0 .879.196 1.729.586 2.549.391.811.928 1.48 1.612 2.007a3.734 3.734 0 002.343.791c.87 0 1.646-.259 2.33-.776a5.338 5.338 0 001.626-1.993c.4-.82.6-1.674.6-2.563zm19.608.102a8.426 8.426 0 012.183-5.698 7.805 7.805 0 012.417-1.802 6.968 6.968 0 013.018-.659c1.074 0 2.046.21 2.915.63.879.41 1.631.957 2.256 1.641a6.844 6.844 0 011.42 2.212c.069.166.103.351.103.556 0 .401-.146.747-.439 1.04a1.396 1.396 0 01-1.026.425c-.273 0-.542-.093-.805-.278a1.523 1.523 0 01-.557-.674c-.274-.703-.752-1.313-1.436-1.831-.674-.527-1.484-.791-2.431-.791-.889 0-1.69.249-2.403.747a5.224 5.224 0 00-1.67 1.919 5.49 5.49 0 00-.615 2.563c0 .928.21 1.802.63 2.623.42.81.996 1.469 1.729 1.977a4.299 4.299 0 002.475.747c.899 0 1.675-.224 2.329-.674.655-.459 1.148-.991 1.48-1.596a1.41 1.41 0 01.556-.542c.254-.157.503-.235.747-.235.401 0 .743.147 1.026.44.293.283.439.625.439 1.025 0 .244-.063.484-.19.718-.557 1.025-1.387 1.914-2.49 2.666-1.104.752-2.403 1.128-3.897 1.128a7.265 7.265 0 01-3.091-.659 7.982 7.982 0 01-2.461-1.831 8.73 8.73 0 01-1.626-2.637 8.563 8.563 0 01-.586-3.15zm29.382-6.298c0 .781-.376 1.215-1.128 1.303-.273.03-.62-.058-1.04-.263a2.769 2.769 0 00-1.274-.323c-.85 0-1.523.22-2.022.66-.498.429-.854 1.01-1.069 1.743-.215.732-.322 1.553-.322 2.461v7.558c0 .43-.132.772-.396 1.026-.254.254-.61.381-1.069.381-.449 0-.806-.127-1.069-.381-.264-.254-.396-.601-.396-1.04v-13.492c0-.439.108-.8.322-1.084.225-.283.528-.424.909-.424.224 0 .483.097.776.293.303.185.513.507.63.966l.146 1.055c.127-.273.371-.591.733-.952a5.353 5.353 0 011.289-.938 3.187 3.187 0 011.553-.41c.996 0 1.816.117 2.461.352.644.224.966.727.966 1.509zm5.198-1.934c.283 0 .546.083.791.249.254.166.434.371.542.615l4.98 11.324 4.263-11.221a1.49 1.49 0 01.527-.659c.254-.176.532-.264.835-.264.4 0 .742.146 1.025.439.293.284.44.625.44 1.026 0 .205-.039.395-.117.571l-5.391 14.063a1.148 1.148 0 01-.102.337 3.26 3.26 0 01-.147.263l-.82 2.051a21.786 21.786 0 01-.733 1.611 6.232 6.232 0 01-1.172 1.626 6.224 6.224 0 01-1.757 1.26 4.755 4.755 0 01-2.154.513c-.41 0-.757-.152-1.04-.454a1.448 1.448 0 01-.425-1.04c0-.391.132-.733.396-1.026a1.37 1.37 0 01.981-.439c.86-.059 1.524-.396 1.993-1.011.468-.605.869-1.323 1.201-2.153l.703-1.787-6.152-13.799a1.583 1.583 0 01-.132-.63c0-.4.141-.742.425-1.025.293-.293.639-.44 1.04-.44zm33.791 8.276a8.73 8.73 0 01-.616 3.223 7.744 7.744 0 01-1.816 2.769 7.684 7.684 0 01-2.461 1.611 7.528 7.528 0 01-2.886.571c-1.015 0-1.919-.215-2.71-.644a7.775 7.775 0 01-2.124-1.743v6.167c0 .4-.146.742-.439 1.025a1.374 1.374 0 01-1.026.439c-.4 0-.747-.146-1.04-.439a1.397 1.397 0 01-.424-1.025v-18.706c0-.401.141-.743.424-1.026.293-.293.64-.439 1.04-.439.401 0 .699.146.894.439.205.283.337.625.396 1.026l.175 1.186a5.821 5.821 0 012.198-1.89c.918-.459 1.831-.688 2.739-.688 1.103 0 2.119.22 3.047.659a7.692 7.692 0 012.446 1.802 8.166 8.166 0 011.611 2.593c.381.976.572 2.006.572 3.09zm-7.647-5.214c-.635 0-1.265.141-1.89.424a4.603 4.603 0 00-1.596 1.143 5.107 5.107 0 00-1.026 1.714 5.916 5.916 0 00-.351 2.007c0 .937.205 1.801.615 2.592.41.791.977 1.426 1.699 1.905.723.478 1.548.718 2.476.718.928 0 1.753-.249 2.475-.748a5.324 5.324 0 001.7-1.962c.42-.811.63-1.67.63-2.579 0-.918-.206-1.772-.616-2.563a5.161 5.161 0 00-1.684-1.919c-.713-.488-1.524-.732-2.432-.732zm15.056-5.596c0-.4.141-.742.425-1.026a1.392 1.392 0 011.04-.439c.4 0 .742.147 1.025.439.293.284.439.626.439 1.026v2.915h1.963c.381 0 .708.137.982.41.273.274.41.601.41.982 0 .38-.137.708-.41.981-.274.273-.601.41-.982.41h-1.977l-.015 9.068v.029c0 .478.054.81.161.996.108.176.327.264.659.264.42 0 .792-.113 1.114-.337a1.89 1.89 0 01.425-.205c.166-.069.327-.103.483-.103.4 0 .742.142 1.025.425.293.283.44.625.44 1.025 0 .479-.195.864-.586 1.157a5.147 5.147 0 01-1.275.704 4.225 4.225 0 01-1.538.278c-1.23 0-2.177-.376-2.841-1.128-.664-.762-.997-1.709-.997-2.842v-.132l.015-9.184h-1.89a1.34 1.34 0 01-.981-.41 1.343 1.343 0 01-.41-.982c0-.381.137-.708.41-.981.273-.274.601-.41.981-.41h1.905v-2.93zm19.318 2.622c1.123 0 2.168.215 3.135.644a7.98 7.98 0 012.563 1.788 8.375 8.375 0 011.714 2.622c.42.986.63 2.036.63 3.149a7.88 7.88 0 01-.63 3.12 8.358 8.358 0 01-1.743 2.593 8.219 8.219 0 01-2.563 1.758 7.572 7.572 0 01-3.106.644 7.772 7.772 0 01-3.105-.63 8.214 8.214 0 01-2.564-1.743 8.305 8.305 0 01-1.728-2.578 7.99 7.99 0 01-.63-3.164c0-1.113.21-2.163.63-3.149a8.44 8.44 0 011.728-2.608 8.21 8.21 0 012.564-1.787 7.42 7.42 0 013.105-.659zm-5.068 8.232c0 .948.229 1.812.688 2.593a5.34 5.34 0 001.861 1.846 4.863 4.863 0 002.534.688c.937 0 1.787-.234 2.549-.703a5.31 5.31 0 001.831-1.889 4.972 4.972 0 00.688-2.564 5.18 5.18 0 00-.674-2.607 5.22 5.22 0 00-1.831-1.919c-.761-.479-1.621-.718-2.578-.718-.967 0-1.831.244-2.593.732a5.286 5.286 0 00-1.816 1.919 5.312 5.312 0 00-.659 2.622zm28.544-6.577c0-.283.112-.556.337-.82.234-.274.517-.41.849-.41l2.168-.015v-.19c.03-1.651.401-2.945 1.114-3.882.712-.938 1.87-1.392 3.471-1.362l1.612.029c.4 0 .742.146 1.025.439a1.4 1.4 0 01.425 1.026c0 .4-.142.737-.425 1.01-.283.274-.63.411-1.04.411l-1.641-.235c-.508 0-.879.078-1.113.235-.225.146-.371.41-.439.791-.059.38-.084.922-.074 1.626l.015.131 2.959.015c.391 0 .718.132.981.396.274.263.41.581.41.952 0 .312-.126.615-.38.908-.254.283-.542.425-.865.425l-3.105.029.029 11.807v.014c0 .391-.146.723-.439.996a1.45 1.45 0 01-1.026.396c-.4 0-.747-.132-1.04-.396a1.331 1.331 0 01-.424-.996v-.014l-.03-11.836-1.963-.015a1.36 1.36 0 01-.996-.41c-.263-.274-.395-.625-.395-1.055zm22.409-1.655c1.123 0 2.168.215 3.135.644a7.98 7.98 0 012.563 1.788 8.375 8.375 0 011.714 2.622c.42.986.63 2.036.63 3.149a7.88 7.88 0 01-.63 3.12 8.358 8.358 0 01-1.743 2.593 8.223 8.223 0 01-2.564 1.758 7.567 7.567 0 01-3.105.644 7.78 7.78 0 01-3.106-.63 8.221 8.221 0 01-2.563-1.743 8.308 8.308 0 01-1.729-2.578 8.007 8.007 0 01-.629-3.164c0-1.113.21-2.163.629-3.149a8.444 8.444 0 011.729-2.608 8.218 8.218 0 012.563-1.787 7.424 7.424 0 013.106-.659zm-5.068 8.232c0 .948.229 1.812.688 2.593a5.345 5.345 0 001.86 1.846 4.87 4.87 0 002.535.688c.937 0 1.787-.234 2.548-.703a5.293 5.293 0 001.831-1.889 4.973 4.973 0 00.689-2.564 5.19 5.19 0 00-.674-2.607 5.22 5.22 0 00-1.831-1.919c-.762-.479-1.621-.718-2.578-.718-.967 0-1.831.244-2.593.732a5.278 5.278 0 00-2.475 4.541zm28.004-6.386c0 .781-.376 1.215-1.127 1.303-.274.03-.621-.058-1.041-.263a2.766 2.766 0 00-1.274-.323c-.85 0-1.523.22-2.021.66-.498.429-.855 1.01-1.07 1.743-.215.732-.322 1.553-.322 2.461v7.558c0 .43-.132.772-.396 1.026-.253.254-.61.381-1.069.381-.449 0-.806-.127-1.069-.381-.264-.254-.396-.601-.396-1.04v-13.492c0-.439.108-.8.323-1.084.224-.283.527-.424.908-.424.224 0 .483.097.776.293.303.185.513.507.63.966l.146 1.055c.127-.273.372-.591.733-.952a5.353 5.353 0 011.289-.938 3.19 3.19 0 011.553-.41c.996 0 1.816.117 2.461.352.644.224.966.727.966 1.509zm22.128-1.861c.948 0 1.778.23 2.491.689a6.177 6.177 0 011.772 1.67 8.212 8.212 0 011.978-1.656 4.793 4.793 0 012.578-.717c1.25 0 2.285.337 3.105 1.01.83.664 1.446 1.538 1.846 2.622.4 1.084.6 2.256.6 3.516l.015 7.808c0 .39-.141.727-.425 1.01-.283.284-.63.425-1.04.425-.41 0-.757-.141-1.04-.425a1.38 1.38 0 01-.425-1.01l-.014-7.779c0-.742-.069-1.435-.205-2.08-.137-.654-.386-1.181-.747-1.582-.362-.4-.884-.6-1.568-.6-.722 0-1.343.2-1.86.6-.508.401-.899.928-1.172 1.582a5.476 5.476 0 00-.395 2.095l.014 7.808c0 .39-.146.727-.439 1.01a1.421 1.421 0 01-1.026.411c-.41 0-.757-.142-1.04-.425a1.381 1.381 0 01-.425-1.011v-7.778c0-.918-.156-1.695-.468-2.329-.303-.635-.699-1.114-1.187-1.436-.478-.332-.971-.498-1.479-.498-.723 0-1.372.337-1.949 1.011-.576.674-.864 1.723-.864 3.149v7.896c0 .39-.146.727-.439 1.01a1.421 1.421 0 01-1.026.411c-.4 0-.747-.142-1.04-.425a1.38 1.38 0 01-.424-1.011v-13.55c0-.4.073-.737.219-1.011.157-.283.44-.424.85-.424.322 0 .62.102.893.307.274.205.494.547.66 1.026l.278.805a3.572 3.572 0 011.435-1.538c.655-.39 1.309-.586 1.963-.586zm27.317.059c1.299 0 2.49.322 3.574.967a7.398 7.398 0 012.607 2.607c.664 1.084.997 2.29.997 3.618 0 .274-.015.552-.044.835-.04.362-.206.669-.498.923a1.443 1.443 0 01-.967.366l-10.24.015c.166.703.479 1.362.938 1.977a5.545 5.545 0 001.67 1.495 4.282 4.282 0 002.168.571c.84 0 1.592-.205 2.256-.615.664-.41 1.181-.884 1.552-1.421.118-.186.293-.342.528-.469.244-.127.473-.19.688-.19.401 0 .742.146 1.026.439.293.293.439.64.439 1.04 0 .313-.088.591-.264.835-.605.889-1.44 1.66-2.504 2.315-1.055.644-2.281.966-3.677.966a7.479 7.479 0 01-3.135-.659 7.919 7.919 0 01-2.505-1.802 8.448 8.448 0 01-1.67-2.622 8.561 8.561 0 01-.586-3.149c0-1.065.196-2.075.586-3.032a8.436 8.436 0 011.626-2.578 7.83 7.83 0 012.446-1.773 6.9 6.9 0 012.989-.659zm4.16 6.387c-.186-.957-.664-1.773-1.436-2.447-.771-.673-1.679-1.01-2.724-1.01a4.248 4.248 0 00-2.827 1.04c-.811.693-1.358 1.504-1.641 2.431l8.628-.014zm15.715-6.46c1.396 0 2.661.307 3.794.923 1.142.605 1.987 1.425 2.534 2.46.117.206.176.44.176.704 0 .4-.147.747-.44 1.04a1.397 1.397 0 01-1.025.424c-.244 0-.498-.078-.762-.234-.254-.166-.434-.356-.542-.571a3.074 3.074 0 00-1.45-1.363c-.645-.302-1.411-.454-2.3-.454-.517 0-1.103.069-1.758.205-.654.137-1.22.357-1.699.66-.478.302-.718.713-.718 1.23 0 .381.196.684.586.908.401.215.889.381 1.465.498.586.118 1.172.205 1.758.264a70.21 70.21 0 011.435.132c.723.078 1.436.2 2.139.366a7.597 7.597 0 011.934.703c.586.313 1.05.737 1.391 1.275.352.537.528 1.22.528 2.05 0 1.182-.342 2.149-1.026 2.901-.683.752-1.557 1.308-2.622 1.67a10.327 10.327 0 01-3.34.542c-1.591 0-3.042-.313-4.35-.938-1.299-.635-2.261-1.557-2.886-2.768a1.539 1.539 0 01-.176-.689c0-.4.142-.742.425-1.025.293-.293.64-.44 1.04-.44.254 0 .508.083.762.249.263.157.449.347.556.572.381.742.967 1.279 1.758 1.611.801.332 1.753.498 2.857.498a9.11 9.11 0 001.816-.19c.635-.137 1.167-.367 1.597-.689.439-.322.659-.762.659-1.318 0-.43-.19-.738-.571-.923-.371-.195-.821-.322-1.348-.381-.518-.059-1.001-.112-1.45-.161-.86-.088-1.748-.2-2.666-.337a12.187 12.187 0 01-2.564-.689c-.781-.312-1.416-.761-1.904-1.347s-.732-1.367-.732-2.344c0-.879.21-1.636.63-2.27a4.995 4.995 0 011.699-1.553 8.297 8.297 0 012.3-.908 10.916 10.916 0 012.49-.293zm20.344 0c1.396 0 2.661.307 3.793.923 1.143.605 1.988 1.425 2.535 2.46.117.206.175.44.175.704 0 .4-.146.747-.439 1.04a1.397 1.397 0 01-1.025.424c-.245 0-.498-.078-.762-.234-.254-.166-.435-.356-.542-.571a3.074 3.074 0 00-1.45-1.363c-.645-.302-1.411-.454-2.3-.454-.518 0-1.104.069-1.758.205-.654.137-1.221.357-1.699.66-.479.302-.718.713-.718 1.23 0 .381.195.684.586.908.4.215.889.381 1.465.498.586.118 1.172.205 1.758.264a70.21 70.21 0 011.435.132c.723.078 1.436.2 2.139.366a7.576 7.576 0 011.933.703c.586.313 1.05.737 1.392 1.275.352.537.527 1.22.527 2.05 0 1.182-.341 2.149-1.025 2.901-.684.752-1.558 1.308-2.622 1.67a10.327 10.327 0 01-3.34.542c-1.592 0-3.042-.313-4.35-.938-1.299-.635-2.261-1.557-2.886-2.768a1.539 1.539 0 01-.176-.689c0-.4.142-.742.425-1.025.293-.293.639-.44 1.04-.44.254 0 .508.083.762.249.263.157.449.347.556.572.381.742.967 1.279 1.758 1.611.801.332 1.753.498 2.856.498.586 0 1.192-.063 1.817-.19.635-.137 1.167-.367 1.597-.689.439-.322.659-.762.659-1.318 0-.43-.191-.738-.572-.923-.371-.195-.82-.322-1.347-.381-.518-.059-1.001-.112-1.45-.161-.86-.088-1.748-.2-2.666-.337a12.187 12.187 0 01-2.564-.689c-.781-.312-1.416-.761-1.904-1.347s-.733-1.367-.733-2.344c0-.879.21-1.636.63-2.27a5.004 5.004 0 011.699-1.553 8.322 8.322 0 012.3-.908c.84-.196 1.67-.293 2.491-.293zm20.651-.044c.723 0 1.426.146 2.109.439a7.175 7.175 0 011.846 1.084c.547.43.952.874 1.216 1.333l.161-1.406c0-.4.117-.742.351-1.025.235-.293.552-.44.953-.44.4 0 .742.147 1.025.44.293.283.439.625.439 1.025v.029l-.029 13.565c0 .4-.146.747-.439 1.04a1.398 1.398 0 01-1.026.425c-.4 0-.717-.142-.952-.425a1.617 1.617 0 01-.351-1.04l-.162-1.172c-.507.869-1.25 1.518-2.226 1.948-.977.42-1.958.63-2.944.63a7.556 7.556 0 01-3.106-.645 8.233 8.233 0 01-2.549-1.801 8.637 8.637 0 01-1.728-2.622 8.054 8.054 0 01-.615-3.121c0-1.084.2-2.119.6-3.105.41-.996.977-1.88 1.699-2.651a7.988 7.988 0 012.549-1.831c.977-.45 2.036-.674 3.179-.674zm5.054 8.232c0-.957-.225-1.836-.674-2.637a5.277 5.277 0 00-1.802-1.933c-.762-.488-1.631-.733-2.607-.733-.957 0-1.822.245-2.593.733a5.311 5.311 0 00-1.831 1.948 5.244 5.244 0 00-.674 2.607c0 .948.229 1.827.688 2.637a5.476 5.476 0 001.846 1.934 4.771 4.771 0 002.578.732c.938 0 1.787-.244 2.549-.732a5.341 5.341 0 001.831-1.934c.459-.81.689-1.684.689-2.622zm22.248-8.218c.4 0 .742.147 1.025.44.293.283.439.625.439 1.025v.03l-.102 13.989a7.544 7.544 0 01-.674 3.091 8.201 8.201 0 01-1.787 2.563 8.5 8.5 0 01-2.622 1.743c-.977.42-2.017.63-3.12.63a8.09 8.09 0 01-3.56-.82 8.069 8.069 0 01-2.856-2.271 1.47 1.47 0 01-.337-.937c0-.401.141-.747.425-1.04a1.446 1.446 0 011.04-.425c.195 0 .405.054.63.161.234.108.415.244.542.41a5.315 5.315 0 001.845 1.45 5.22 5.22 0 002.285.542c.948 0 1.817-.234 2.608-.703a5.42 5.42 0 001.919-1.875 4.743 4.743 0 00.732-2.563v-1.436c-.576.899-1.274 1.519-2.094 1.861a6.518 6.518 0 01-2.491.498 6.556 6.556 0 01-2.973-.689 7.669 7.669 0 01-2.373-1.86 8.945 8.945 0 01-1.582-2.652 8.72 8.72 0 01-.557-3.076c0-1.054.185-2.06.557-3.017a8.468 8.468 0 011.582-2.578 7.596 7.596 0 012.373-1.788c.908-.439 1.899-.659 2.973-.659.928 0 1.797.215 2.608.645.81.43 1.499 1.084 2.065 1.963l.22-1.172c.078-.401.205-.747.381-1.04.176-.293.468-.44.879-.44zm-1.597 8.101c0-.889-.195-1.719-.586-2.49a5.11 5.11 0 00-1.611-1.905c-.674-.488-1.446-.732-2.315-.732-.888 0-1.679.244-2.373.732a5.12 5.12 0 00-1.626 1.89 5.446 5.446 0 00-.586 2.49c0 .879.196 1.729.586 2.549.391.811.928 1.48 1.612 2.007a3.732 3.732 0 002.343.791 3.76 3.76 0 002.329-.776 5.32 5.32 0 001.626-1.993c.401-.82.601-1.674.601-2.563zm16.052-7.998c1.299 0 2.49.322 3.574.967a7.398 7.398 0 012.607 2.607c.664 1.084.996 2.29.996 3.618 0 .274-.014.552-.043.835a1.39 1.39 0 01-.499.923 1.438 1.438 0 01-.966.366l-10.24.015c.166.703.479 1.362.938 1.977a5.545 5.545 0 001.67 1.495 4.282 4.282 0 002.168.571c.84 0 1.592-.205 2.256-.615.664-.41 1.181-.884 1.552-1.421.118-.186.293-.342.528-.469.244-.127.473-.19.688-.19.401 0 .742.146 1.026.439.293.293.439.64.439 1.04 0 .313-.088.591-.264.835-.605.889-1.44 1.66-2.504 2.315-1.055.644-2.281.966-3.677.966a7.479 7.479 0 01-3.135-.659 7.919 7.919 0 01-2.505-1.802 8.448 8.448 0 01-1.67-2.622 8.561 8.561 0 01-.586-3.149c0-1.065.196-2.075.586-3.032a8.436 8.436 0 011.626-2.578 7.83 7.83 0 012.446-1.773 6.9 6.9 0 012.989-.659zm4.16 6.387c-.186-.957-.664-1.773-1.436-2.447-.771-.673-1.679-1.01-2.724-1.01a4.248 4.248 0 00-2.827 1.04c-.811.693-1.358 1.504-1.641 2.431l8.628-.014zm15.715-6.46c1.396 0 2.661.307 3.794.923 1.142.605 1.987 1.425 2.534 2.46.117.206.176.44.176.704 0 .4-.147.747-.44 1.04a1.397 1.397 0 01-1.025.424c-.244 0-.498-.078-.762-.234-.254-.166-.435-.356-.542-.571a3.074 3.074 0 00-1.45-1.363c-.645-.302-1.411-.454-2.3-.454-.518 0-1.103.069-1.758.205-.654.137-1.22.357-1.699.66-.478.302-.718.713-.718 1.23 0 .381.196.684.586.908.401.215.889.381 1.465.498.586.118 1.172.205 1.758.264a70.21 70.21 0 011.435.132c.723.078 1.436.2 2.139.366a7.597 7.597 0 011.934.703 3.65 3.65 0 011.391 1.275c.352.537.528 1.22.528 2.05 0 1.182-.342 2.149-1.026 2.901-.683.752-1.557 1.308-2.622 1.67a10.327 10.327 0 01-3.34.542c-1.591 0-3.042-.313-4.35-.938-1.299-.635-2.261-1.557-2.886-2.768a1.539 1.539 0 01-.176-.689c0-.4.142-.742.425-1.025.293-.293.64-.44 1.04-.44.254 0 .508.083.762.249.263.157.449.347.556.572.381.742.967 1.279 1.758 1.611.801.332 1.753.498 2.857.498a9.11 9.11 0 001.816-.19c.635-.137 1.167-.367 1.597-.689.439-.322.659-.762.659-1.318 0-.43-.19-.738-.571-.923-.371-.195-.821-.322-1.348-.381-.518-.059-1.001-.112-1.45-.161-.86-.088-1.748-.2-2.666-.337a12.187 12.187 0 01-2.564-.689c-.781-.312-1.416-.761-1.904-1.347s-.732-1.367-.732-2.344c0-.879.21-1.636.629-2.27a5.008 5.008 0 011.7-1.553 8.303 8.303 0 012.299-.908c.84-.196 1.67-.293 2.491-.293zm-528.46 37.343a14.493 14.493 0 011.889-1.538c.743-.507 1.602-.761 2.579-.761 1.279 0 2.343.341 3.193 1.025.85.674 1.475 1.46 1.875 2.358.312.713.498 1.421.557 2.124.068.694.102 1.348.102 1.963v7.398c0 .4-.146.747-.439 1.04a1.4 1.4 0 01-1.026.425 1.448 1.448 0 01-1.465-1.465v-7.398c0-.576-.029-1.108-.088-1.596a4.13 4.13 0 00-.322-1.289 3.103 3.103 0 00-.864-1.143c-.391-.342-.889-.513-1.494-.513-1.445 0-2.559.552-3.34 1.656-.771 1.103-1.152 2.592-1.143 4.467l.015 5.845c0 .4-.146.747-.439 1.04a1.4 1.4 0 01-1.026.425c-.41 0-.757-.142-1.04-.425a1.464 1.464 0 01-.425-1.055l-.029-13.461c0-.401.107-.743.322-1.026.225-.293.537-.439.938-.439.4 0 .708.146.923.439.215.283.381.625.498 1.026l.249.878zm23.346-2.314c1.123 0 2.168.215 3.135.644a7.985 7.985 0 012.564 1.788 8.41 8.41 0 011.714 2.622c.419.986.629 2.036.629 3.149 0 1.094-.21 2.134-.629 3.12a8.344 8.344 0 01-1.744 2.593 8.219 8.219 0 01-2.563 1.758 7.572 7.572 0 01-3.106.644 7.779 7.779 0 01-3.105-.63 8.225 8.225 0 01-2.564-1.743 8.305 8.305 0 01-1.728-2.578 7.99 7.99 0 01-.63-3.164c0-1.113.21-2.163.63-3.149a8.44 8.44 0 011.728-2.608 8.222 8.222 0 012.564-1.787 7.423 7.423 0 013.105-.659zm-5.068 8.232c0 .948.23 1.812.689 2.593a5.328 5.328 0 001.86 1.846 4.863 4.863 0 002.534.688c.938 0 1.787-.234 2.549-.703a5.301 5.301 0 001.831-1.889 4.972 4.972 0 00.688-2.564 5.19 5.19 0 00-.673-2.607 5.237 5.237 0 00-1.831-1.919c-.762-.479-1.622-.718-2.579-.718-.966 0-1.831.244-2.592.732a5.28 5.28 0 00-1.817 1.919 5.312 5.312 0 00-.659 2.622zm36.791-8.232c1.123 0 2.168.215 3.135.644a7.98 7.98 0 012.563 1.788 8.375 8.375 0 011.714 2.622c.42.986.63 2.036.63 3.149a7.88 7.88 0 01-.63 3.12 8.358 8.358 0 01-1.743 2.593 8.219 8.219 0 01-2.563 1.758 7.572 7.572 0 01-3.106.644 7.772 7.772 0 01-3.105-.63 8.214 8.214 0 01-2.564-1.743 8.305 8.305 0 01-1.728-2.578 7.99 7.99 0 01-.63-3.164c0-1.113.21-2.163.63-3.149a8.44 8.44 0 011.728-2.608 8.21 8.21 0 012.564-1.787 7.42 7.42 0 013.105-.659zm-5.068 8.232c0 .948.229 1.812.688 2.593a5.34 5.34 0 001.861 1.846 4.863 4.863 0 002.534.688c.937 0 1.787-.234 2.549-.703a5.31 5.31 0 001.831-1.889 4.972 4.972 0 00.688-2.564 5.19 5.19 0 00-.674-2.607 5.22 5.22 0 00-1.831-1.919c-.761-.479-1.621-.718-2.578-.718-.967 0-1.831.244-2.593.732a5.286 5.286 0 00-1.816 1.919c-.44.791-.659 1.665-.659 2.622zm21.149-5.918a14.44 14.44 0 011.89-1.538c.742-.507 1.601-.761 2.578-.761 1.279 0 2.344.341 3.193 1.025.85.674 1.475 1.46 1.875 2.358.313.713.498 1.421.557 2.124.068.694.102 1.348.102 1.963v7.398c0 .4-.146.747-.439 1.04a1.398 1.398 0 01-1.025.425c-.401 0-.747-.142-1.04-.425a1.444 1.444 0 01-.425-1.04v-7.398c0-.576-.03-1.108-.088-1.596a4.157 4.157 0 00-.322-1.289 3.117 3.117 0 00-.865-1.143c-.39-.342-.888-.513-1.494-.513-1.445 0-2.558.552-3.34 1.656-.771 1.103-1.152 2.592-1.142 4.467l.014 5.845c0 .4-.146.747-.439 1.04a1.398 1.398 0 01-1.025.425c-.411 0-.757-.142-1.04-.425a1.46 1.46 0 01-.425-1.055l-.03-13.461c0-.401.108-.743.323-1.026.224-.293.537-.439.937-.439.401 0 .708.146.923.439.215.283.381.625.498 1.026l.249.878zm23.112-2.27c1.299 0 2.491.322 3.575.967a7.398 7.398 0 012.607 2.607c.664 1.084.996 2.29.996 3.618 0 .274-.014.552-.044.835a1.385 1.385 0 01-.498.923 1.439 1.439 0 01-.967.366l-10.239.015c.166.703.479 1.362.938 1.977a5.533 5.533 0 001.67 1.495 4.279 4.279 0 002.168.571c.839 0 1.591-.205 2.255-.615.664-.41 1.182-.884 1.553-1.421a1.38 1.38 0 01.527-.469c.245-.127.474-.19.689-.19.4 0 .742.146 1.025.439.293.293.44.64.44 1.04 0 .313-.088.591-.264.835-.605.889-1.44 1.66-2.505 2.315-1.054.644-2.28.966-3.677.966a7.474 7.474 0 01-3.134-.659 7.919 7.919 0 01-2.505-1.802 8.43 8.43 0 01-1.67-2.622 8.54 8.54 0 01-.586-3.149c0-1.065.195-2.075.586-3.032a8.436 8.436 0 011.626-2.578 7.82 7.82 0 012.446-1.773 6.9 6.9 0 012.988-.659zm4.161 6.387c-.186-.957-.664-1.773-1.436-2.447-.771-.673-1.68-1.01-2.725-1.01a4.252 4.252 0 00-2.827 1.04c-.81.693-1.357 1.504-1.64 2.431l8.628-.014zm18.978 1.713c0-1.083.191-2.114.571-3.09a8.332 8.332 0 011.612-2.608 7.805 7.805 0 012.417-1.802 6.96 6.96 0 013.017-.659c1.075 0 2.046.21 2.915.63.879.41 1.631.957 2.256 1.641a6.83 6.83 0 011.421 2.212c.068.166.103.351.103.556 0 .401-.147.747-.44 1.04a1.394 1.394 0 01-1.025.425c-.274 0-.542-.093-.806-.278a1.52 1.52 0 01-.556-.674c-.274-.703-.752-1.313-1.436-1.831-.674-.527-1.484-.791-2.432-.791-.888 0-1.689.249-2.402.747a5.215 5.215 0 00-1.67 1.919 5.49 5.49 0 00-.615 2.563c0 .928.21 1.802.63 2.623a5.38 5.38 0 001.728 1.977 4.304 4.304 0 002.476.747c.898 0 1.675-.224 2.329-.674.654-.459 1.147-.991 1.479-1.596a1.42 1.42 0 01.557-.542c.254-.157.503-.235.747-.235.4 0 .742.147 1.025.44.293.283.44.625.44 1.025 0 .244-.064.484-.19.718-.557 1.025-1.387 1.914-2.491 2.666-1.103.752-2.402 1.128-3.896 1.128-1.113 0-2.144-.22-3.091-.659a7.959 7.959 0 01-2.461-1.831 8.73 8.73 0 01-1.626-2.637 8.542 8.542 0 01-.586-3.15zm27.331-8.217c.723 0 1.426.146 2.11.439a7.186 7.186 0 011.845 1.084c.547.43.952.874 1.216 1.333l.161-1.406c0-.4.117-.742.352-1.025.234-.293.552-.44.952-.44.4 0 .742.147 1.025.44.293.283.44.625.44 1.025v.029l-.03 13.565c0 .4-.146.747-.439 1.04a1.398 1.398 0 01-1.025.425c-.401 0-.718-.142-.953-.425a1.617 1.617 0 01-.351-1.04l-.161-1.172c-.508.869-1.25 1.518-2.227 1.948-.976.42-1.958.63-2.944.63a7.556 7.556 0 01-3.106-.645 8.228 8.228 0 01-2.548-1.801 8.621 8.621 0 01-1.729-2.622 8.054 8.054 0 01-.615-3.121c0-1.084.2-2.119.6-3.105a8.679 8.679 0 011.7-2.651 7.984 7.984 0 012.548-1.831c.977-.45 2.037-.674 3.179-.674zm5.054 8.232c0-.957-.225-1.836-.674-2.637a5.269 5.269 0 00-1.802-1.933c-.761-.488-1.631-.733-2.607-.733-.957 0-1.821.245-2.593.733a5.32 5.32 0 00-1.831 1.948 5.244 5.244 0 00-.674 2.607c0 .948.23 1.827.689 2.637a5.473 5.473 0 001.845 1.934 4.775 4.775 0 002.579.732c.937 0 1.787-.244 2.548-.732a5.341 5.341 0 001.831-1.934c.459-.81.689-1.684.689-2.622zm11.833-5.845a14.44 14.44 0 011.89-1.538c.742-.507 1.601-.761 2.578-.761 1.279 0 2.343.341 3.193 1.025.85.674 1.475 1.46 1.875 2.358.313.713.498 1.421.557 2.124.068.694.102 1.348.102 1.963v7.398c0 .4-.146.747-.439 1.04a1.398 1.398 0 01-1.026.425 1.448 1.448 0 01-1.464-1.465v-7.398c0-.576-.03-1.108-.088-1.596a4.157 4.157 0 00-.323-1.289 3.103 3.103 0 00-.864-1.143c-.391-.342-.889-.513-1.494-.513-1.445 0-2.559.552-3.34 1.656-.771 1.103-1.152 2.592-1.142 4.467l.014 5.845c0 .4-.146.747-.439 1.04a1.398 1.398 0 01-1.026.425c-.41 0-.756-.142-1.04-.425a1.463 1.463 0 01-.424-1.055l-.03-13.461c0-.401.108-.743.322-1.026.225-.293.538-.439.938-.439.4 0 .708.146.923.439.215.283.381.625.498 1.026l.249.878zm34.608-2.343c1.397 0 2.661.307 3.794.923 1.143.605 1.988 1.425 2.534 2.46.118.206.176.44.176.704 0 .4-.146.747-.439 1.04a1.397 1.397 0 01-1.026.424c-.244 0-.498-.078-.761-.234-.254-.166-.435-.356-.542-.571a3.076 3.076 0 00-1.451-1.363c-.644-.302-1.411-.454-2.299-.454-.518 0-1.104.069-1.758.205-.654.137-1.221.357-1.699.66-.479.302-.718.713-.718 1.23 0 .381.195.684.586.908.4.215.888.381 1.465.498.586.118 1.172.205 1.757.264.586.049 1.065.093 1.436.132.723.078 1.436.2 2.139.366a7.59 7.59 0 011.933.703c.586.313 1.05.737 1.392 1.275.351.537.527 1.22.527 2.05 0 1.182-.342 2.149-1.025 2.901-.684.752-1.558 1.308-2.622 1.67a10.332 10.332 0 01-3.34.542c-1.592 0-3.042-.313-4.351-.938-1.299-.635-2.26-1.557-2.885-2.768a1.526 1.526 0 01-.176-.689c0-.4.141-.742.425-1.025.293-.293.639-.44 1.04-.44.254 0 .507.083.761.249.264.157.45.347.557.572.381.742.967 1.279 1.758 1.611.801.332 1.753.498 2.856.498.586 0 1.192-.063 1.817-.19.634-.137 1.167-.367 1.596-.689.44-.322.66-.762.66-1.318 0-.43-.191-.738-.572-.923-.371-.195-.82-.322-1.347-.381-.518-.059-1.001-.112-1.451-.161-.859-.088-1.748-.2-2.666-.337a12.178 12.178 0 01-2.563-.689c-.781-.312-1.416-.761-1.904-1.347-.489-.586-.733-1.367-.733-2.344 0-.879.21-1.636.63-2.27a5.004 5.004 0 011.699-1.553 8.31 8.31 0 012.3-.908 10.93 10.93 0 012.49-.293zm20.051.073c1.299 0 2.49.322 3.574.967a7.41 7.41 0 012.608 2.607c.664 1.084.996 2.29.996 3.618 0 .274-.015.552-.044.835a1.385 1.385 0 01-.498.923 1.44 1.44 0 01-.967.366l-10.239.015a5.33 5.33 0 00.937 1.977 5.545 5.545 0 001.67 1.495 4.282 4.282 0 002.168.571c.84 0 1.592-.205 2.256-.615.664-.41 1.182-.884 1.553-1.421a1.38 1.38 0 01.527-.469 1.5 1.5 0 01.689-.19c.4 0 .742.146 1.025.439.293.293.439.64.439 1.04 0 .313-.087.591-.263.835-.606.889-1.441 1.66-2.505 2.315-1.055.644-2.28.966-3.677.966a7.479 7.479 0 01-3.135-.659 7.919 7.919 0 01-2.505-1.802 8.445 8.445 0 01-1.669-2.622 8.54 8.54 0 01-.586-3.149c0-1.065.195-2.075.586-3.032a8.398 8.398 0 011.626-2.578 7.82 7.82 0 012.446-1.773 6.9 6.9 0 012.988-.659zm4.16 6.387c-.185-.957-.664-1.773-1.435-2.447-.772-.673-1.68-1.01-2.725-1.01a4.25 4.25 0 00-2.827 1.04c-.811.693-1.357 1.504-1.641 2.431l8.628-.014zm15.422-6.387c1.299 0 2.49.322 3.574.967a7.41 7.41 0 012.608 2.607c.664 1.084.996 2.29.996 3.618 0 .274-.015.552-.044.835a1.385 1.385 0 01-.498.923 1.44 1.44 0 01-.967.366l-10.239.015a5.33 5.33 0 00.937 1.977 5.545 5.545 0 001.67 1.495 4.282 4.282 0 002.168.571c.84 0 1.592-.205 2.256-.615.664-.41 1.182-.884 1.553-1.421a1.38 1.38 0 01.527-.469 1.5 1.5 0 01.689-.19c.4 0 .742.146 1.025.439.293.293.439.64.439 1.04 0 .313-.087.591-.263.835-.606.889-1.441 1.66-2.505 2.315-1.055.644-2.28.966-3.677.966a7.479 7.479 0 01-3.135-.659 7.919 7.919 0 01-2.505-1.802 8.445 8.445 0 01-1.669-2.622 8.54 8.54 0 01-.586-3.149c0-1.065.195-2.075.586-3.032a8.398 8.398 0 011.626-2.578 7.82 7.82 0 012.446-1.773 6.9 6.9 0 012.988-.659zm4.16 6.387c-.185-.957-.664-1.773-1.435-2.447-.772-.673-1.68-1.01-2.725-1.01a4.25 4.25 0 00-2.827 1.04c-.811.693-1.357 1.504-1.641 2.431l8.628-.014zm25.658-6.446c.948 0 1.778.23 2.491.689a6.177 6.177 0 011.772 1.67 8.212 8.212 0 011.978-1.656 4.796 4.796 0 012.578-.717c1.25 0 2.285.337 3.105 1.01.83.664 1.446 1.538 1.846 2.622.4 1.084.601 2.256.601 3.516l.014 7.808c0 .39-.141.727-.425 1.01a1.41 1.41 0 01-1.04.425c-.41 0-.756-.141-1.04-.425a1.38 1.38 0 01-.424-1.01l-.015-7.779c0-.742-.068-1.435-.205-2.08-.137-.654-.386-1.181-.747-1.582-.362-.4-.884-.6-1.568-.6-.722 0-1.342.2-1.86.6-.508.401-.898.928-1.172 1.582a5.476 5.476 0 00-.395 2.095l.014 7.808c0 .39-.146.727-.439 1.01a1.421 1.421 0 01-1.026.411c-.41 0-.756-.142-1.04-.425a1.38 1.38 0 01-.424-1.011v-7.778c0-.918-.157-1.695-.469-2.329-.303-.635-.698-1.114-1.187-1.436-.478-.332-.971-.498-1.479-.498-.723 0-1.372.337-1.948 1.011-.577.674-.865 1.723-.865 3.149v7.896c0 .39-.146.727-.439 1.01a1.421 1.421 0 01-1.026.411c-.4 0-.747-.142-1.04-.425a1.38 1.38 0 01-.424-1.011v-13.55c0-.4.073-.737.219-1.011.157-.283.44-.424.85-.424.322 0 .62.102.894.307.273.205.493.547.659 1.026l.278.805a3.575 3.575 0 011.436-1.538c.654-.39 1.308-.586 1.962-.586zm27.317.059c1.299 0 2.49.322 3.574.967a7.41 7.41 0 012.608 2.607c.664 1.084.996 2.29.996 3.618 0 .274-.015.552-.044.835a1.385 1.385 0 01-.498.923 1.443 1.443 0 01-.967.366l-10.239.015a5.33 5.33 0 00.937 1.977 5.545 5.545 0 001.67 1.495 4.282 4.282 0 002.168.571c.84 0 1.592-.205 2.256-.615.664-.41 1.181-.884 1.553-1.421a1.38 1.38 0 01.527-.469 1.5 1.5 0 01.688-.19c.401 0 .743.146 1.026.439.293.293.439.64.439 1.04 0 .313-.088.591-.263.835-.606.889-1.441 1.66-2.505 2.315-1.055.644-2.281.966-3.677.966a7.479 7.479 0 01-3.135-.659 7.919 7.919 0 01-2.505-1.802 8.448 8.448 0 01-1.67-2.622 8.561 8.561 0 01-.586-3.149c0-1.065.196-2.075.586-3.032a8.436 8.436 0 011.626-2.578 7.823 7.823 0 012.447-1.773 6.893 6.893 0 012.988-.659zm4.16 6.387c-.186-.957-.664-1.773-1.436-2.447-.771-.673-1.679-1.01-2.724-1.01a4.248 4.248 0 00-2.827 1.04c-.811.693-1.358 1.504-1.641 2.431l8.628-.014zm15.715-6.46c1.396 0 2.661.307 3.794.923 1.142.605 1.987 1.425 2.534 2.46.117.206.176.44.176.704 0 .4-.147.747-.44 1.04a1.397 1.397 0 01-1.025.424c-.244 0-.498-.078-.762-.234-.254-.166-.434-.356-.542-.571a3.07 3.07 0 00-1.45-1.363c-.644-.302-1.411-.454-2.3-.454-.517 0-1.103.069-1.758.205-.654.137-1.22.357-1.699.66-.478.302-.718.713-.718 1.23 0 .381.196.684.586.908.401.215.889.381 1.465.498.586.118 1.172.205 1.758.264.586.049 1.064.093 1.436.132.722.078 1.435.2 2.138.366a7.597 7.597 0 011.934.703c.586.313 1.05.737 1.391 1.275.352.537.528 1.22.528 2.05 0 1.182-.342 2.149-1.026 2.901-.683.752-1.557 1.308-2.622 1.67a10.323 10.323 0 01-3.34.542c-1.591 0-3.042-.313-4.35-.938-1.299-.635-2.261-1.557-2.886-2.768a1.539 1.539 0 01-.176-.689c0-.4.142-.742.425-1.025.293-.293.64-.44 1.04-.44.254 0 .508.083.762.249.264.157.449.347.557.572.38.742.966 1.279 1.757 1.611.801.332 1.753.498 2.857.498a9.11 9.11 0 001.816-.19c.635-.137 1.167-.367 1.597-.689.439-.322.659-.762.659-1.318 0-.43-.19-.738-.571-.923-.371-.195-.821-.322-1.348-.381-.517-.059-1.001-.112-1.45-.161-.859-.088-1.748-.2-2.666-.337a12.187 12.187 0 01-2.564-.689c-.781-.312-1.416-.761-1.904-1.347s-.732-1.367-.732-2.344c0-.879.21-1.636.63-2.27a4.995 4.995 0 011.699-1.553 8.31 8.31 0 012.3-.908c.839-.196 1.67-.293 2.49-.293zm20.344 0c1.396 0 2.661.307 3.794.923 1.142.605 1.987 1.425 2.534 2.46.117.206.176.44.176.704 0 .4-.147.747-.44 1.04a1.397 1.397 0 01-1.025.424c-.244 0-.498-.078-.762-.234-.254-.166-.435-.356-.542-.571a3.074 3.074 0 00-1.45-1.363c-.645-.302-1.411-.454-2.3-.454-.518 0-1.104.069-1.758.205-.654.137-1.221.357-1.699.66-.479.302-.718.713-.718 1.23 0 .381.195.684.586.908.401.215.889.381 1.465.498.586.118 1.172.205 1.758.264a70.21 70.21 0 011.435.132c.723.078 1.436.2 2.139.366a7.597 7.597 0 011.934.703 3.65 3.65 0 011.391 1.275c.352.537.528 1.22.528 2.05 0 1.182-.342 2.149-1.026 2.901-.683.752-1.557 1.308-2.622 1.67a10.327 10.327 0 01-3.34.542c-1.592 0-3.042-.313-4.35-.938-1.299-.635-2.261-1.557-2.886-2.768a1.539 1.539 0 01-.176-.689c0-.4.142-.742.425-1.025.293-.293.64-.44 1.04-.44.254 0 .508.083.762.249.263.157.449.347.556.572.381.742.967 1.279 1.758 1.611.801.332 1.753.498 2.857.498a9.11 9.11 0 001.816-.19c.635-.137 1.167-.367 1.597-.689.439-.322.659-.762.659-1.318 0-.43-.191-.738-.571-.923-.372-.195-.821-.322-1.348-.381-.518-.059-1.001-.112-1.45-.161-.86-.088-1.748-.2-2.666-.337a12.187 12.187 0 01-2.564-.689c-.781-.312-1.416-.761-1.904-1.347s-.733-1.367-.733-2.344c0-.879.21-1.636.63-2.27a4.999 4.999 0 011.7-1.553 8.303 8.303 0 012.299-.908c.84-.196 1.67-.293 2.491-.293zm20.05.073c1.299 0 2.491.322 3.575.967a7.398 7.398 0 012.607 2.607c.664 1.084.996 2.29.996 3.618 0 .274-.015.552-.044.835a1.385 1.385 0 01-.498.923 1.439 1.439 0 01-.967.366l-10.239.015c.166.703.479 1.362.938 1.977a5.533 5.533 0 001.67 1.495 4.278 4.278 0 002.167.571c.84 0 1.592-.205 2.256-.615.664-.41 1.182-.884 1.553-1.421a1.38 1.38 0 01.527-.469c.245-.127.474-.19.689-.19.4 0 .742.146 1.025.439.293.293.44.64.44 1.04 0 .313-.088.591-.264.835-.605.889-1.44 1.66-2.505 2.315-1.054.644-2.28.966-3.677.966a7.47 7.47 0 01-3.134-.659 7.919 7.919 0 01-2.505-1.802 8.43 8.43 0 01-1.67-2.622 8.54 8.54 0 01-.586-3.149c0-1.065.195-2.075.586-3.032a8.398 8.398 0 011.626-2.578 7.82 7.82 0 012.446-1.773 6.9 6.9 0 012.988-.659zm4.161 6.387c-.186-.957-.664-1.773-1.436-2.447-.771-.673-1.68-1.01-2.725-1.01a4.252 4.252 0 00-2.827 1.04c-.81.693-1.357 1.504-1.64 2.431l8.628-.014zm16.022-6.504c.723 0 1.426.146 2.109.439a7.175 7.175 0 011.846 1.084c.547.43.952.874 1.216 1.333l.161-1.406c0-.4.117-.742.352-1.025.234-.293.551-.44.952-.44.4 0 .742.147 1.025.44.293.283.44.625.44 1.025v.029l-.03 13.565c0 .4-.146.747-.439 1.04a1.398 1.398 0 01-1.026.425c-.4 0-.717-.142-.952-.425a1.617 1.617 0 01-.351-1.04l-.161-1.172c-.508.869-1.25 1.518-2.227 1.948-.976.42-1.958.63-2.944.63a7.556 7.556 0 01-3.106-.645 8.233 8.233 0 01-2.549-1.801 8.637 8.637 0 01-1.728-2.622 8.054 8.054 0 01-.615-3.121c0-1.084.2-2.119.6-3.105.41-.996.977-1.88 1.699-2.651a7.999 7.999 0 012.549-1.831c.977-.45 2.036-.674 3.179-.674zm5.054 8.232c0-.957-.225-1.836-.674-2.637a5.277 5.277 0 00-1.802-1.933c-.762-.488-1.631-.733-2.607-.733-.957 0-1.822.245-2.593.733a5.311 5.311 0 00-1.831 1.948 5.244 5.244 0 00-.674 2.607c0 .948.23 1.827.689 2.637a5.473 5.473 0 001.845 1.934 4.774 4.774 0 002.578.732c.938 0 1.787-.244 2.549-.732a5.341 5.341 0 001.831-1.934c.459-.81.689-1.684.689-2.622zm22.248-8.218c.4 0 .742.147 1.025.44.293.283.44.625.44 1.025v.03l-.103 13.989a7.544 7.544 0 01-.674 3.091 8.185 8.185 0 01-1.787 2.563 8.5 8.5 0 01-2.622 1.743c-.976.42-2.017.63-3.12.63a8.09 8.09 0 01-3.56-.82 8.069 8.069 0 01-2.856-2.271 1.47 1.47 0 01-.337-.937c0-.401.142-.747.425-1.04a1.446 1.446 0 011.04-.425c.195 0 .405.054.63.161.234.108.415.244.542.41a5.315 5.315 0 001.845 1.45 5.22 5.22 0 002.286.542c.947 0 1.816-.234 2.607-.703a5.42 5.42 0 001.919-1.875 4.743 4.743 0 00.732-2.563v-1.436c-.576.899-1.274 1.519-2.094 1.861a6.518 6.518 0 01-2.491.498 6.556 6.556 0 01-2.973-.689 7.692 7.692 0 01-2.373-1.86 8.966 8.966 0 01-1.582-2.652 8.743 8.743 0 01-.557-3.076c0-1.054.186-2.06.557-3.017a8.488 8.488 0 011.582-2.578 7.619 7.619 0 012.373-1.788c.908-.439 1.899-.659 2.973-.659.928 0 1.797.215 2.608.645.81.43 1.499 1.084 2.065 1.963l.22-1.172c.078-.401.205-.747.381-1.04.176-.293.469-.44.879-.44zm-1.597 8.101c0-.889-.195-1.719-.586-2.49a5.102 5.102 0 00-1.611-1.905c-.674-.488-1.445-.732-2.315-.732-.888 0-1.679.244-2.373.732a5.12 5.12 0 00-1.626 1.89 5.446 5.446 0 00-.586 2.49c0 .879.196 1.729.586 2.549.391.811.928 1.48 1.612 2.007a3.734 3.734 0 002.343.791c.87 0 1.646-.259 2.33-.776a5.338 5.338 0 001.626-1.993c.4-.82.6-1.674.6-2.563zm16.052-7.998c1.299 0 2.49.322 3.574.967a7.41 7.41 0 012.608 2.607c.664 1.084.996 2.29.996 3.618 0 .274-.015.552-.044.835a1.385 1.385 0 01-.498.923 1.443 1.443 0 01-.967.366l-10.239.015a5.33 5.33 0 00.937 1.977 5.545 5.545 0 001.67 1.495 4.282 4.282 0 002.168.571c.84 0 1.592-.205 2.256-.615.664-.41 1.181-.884 1.553-1.421a1.38 1.38 0 01.527-.469 1.5 1.5 0 01.688-.19c.401 0 .743.146 1.026.439.293.293.439.64.439 1.04 0 .313-.088.591-.263.835-.606.889-1.441 1.66-2.505 2.315-1.055.644-2.281.966-3.677.966a7.479 7.479 0 01-3.135-.659 7.919 7.919 0 01-2.505-1.802 8.448 8.448 0 01-1.67-2.622 8.561 8.561 0 01-.586-3.149c0-1.065.196-2.075.586-3.032a8.436 8.436 0 011.626-2.578 7.823 7.823 0 012.447-1.773 6.893 6.893 0 012.988-.659zm4.16 6.387c-.186-.957-.664-1.773-1.436-2.447-.771-.673-1.679-1.01-2.724-1.01a4.248 4.248 0 00-2.827 1.04c-.811.693-1.358 1.504-1.641 2.431l8.628-.014zm15.715-6.46c1.396 0 2.661.307 3.794.923 1.142.605 1.987 1.425 2.534 2.46.117.206.176.44.176.704 0 .4-.147.747-.44 1.04a1.397 1.397 0 01-1.025.424c-.244 0-.498-.078-.762-.234-.254-.166-.434-.356-.542-.571a3.07 3.07 0 00-1.45-1.363c-.645-.302-1.411-.454-2.3-.454-.517 0-1.103.069-1.758.205-.654.137-1.22.357-1.699.66-.478.302-.718.713-.718 1.23 0 .381.196.684.586.908.401.215.889.381 1.465.498.586.118 1.172.205 1.758.264.586.049 1.064.093 1.436.132.722.078 1.435.2 2.138.366a7.597 7.597 0 011.934.703c.586.313 1.05.737 1.391 1.275.352.537.528 1.22.528 2.05 0 1.182-.342 2.149-1.026 2.901-.683.752-1.557 1.308-2.622 1.67a10.323 10.323 0 01-3.34.542c-1.591 0-3.042-.313-4.35-.938-1.299-.635-2.261-1.557-2.886-2.768a1.539 1.539 0 01-.176-.689c0-.4.142-.742.425-1.025.293-.293.64-.44 1.04-.44.254 0 .508.083.762.249.264.157.449.347.557.572.38.742.966 1.279 1.757 1.611.801.332 1.753.498 2.857.498a9.11 9.11 0 001.816-.19c.635-.137 1.167-.367 1.597-.689.439-.322.659-.762.659-1.318 0-.43-.19-.738-.571-.923-.371-.195-.821-.322-1.348-.381-.517-.059-1.001-.112-1.45-.161-.859-.088-1.748-.2-2.666-.337a12.187 12.187 0 01-2.564-.689c-.781-.312-1.416-.761-1.904-1.347s-.732-1.367-.732-2.344c0-.879.21-1.636.63-2.27a4.995 4.995 0 011.699-1.553 8.31 8.31 0 012.3-.908c.839-.196 1.67-.293 2.49-.293zm27.05 2.343a14.493 14.493 0 011.889-1.538c.743-.507 1.602-.761 2.578-.761 1.28 0 2.344.341 3.194 1.025.849.674 1.474 1.46 1.875 2.358.312.713.498 1.421.556 2.124.069.694.103 1.348.103 1.963v7.398c0 .4-.147.747-.439 1.04a1.4 1.4 0 01-1.026.425 1.448 1.448 0 01-1.465-1.465v-7.398c0-.576-.029-1.108-.088-1.596a4.13 4.13 0 00-.322-1.289 3.103 3.103 0 00-.864-1.143c-.391-.342-.889-.513-1.494-.513-1.446 0-2.559.552-3.34 1.656-.772 1.103-1.152 2.592-1.143 4.467l.015 5.845c0 .4-.147.747-.439 1.04a1.4 1.4 0 01-1.026.425c-.41 0-.757-.142-1.04-.425a1.464 1.464 0 01-.425-1.055l-.029-13.461c0-.401.107-.743.322-1.026.225-.293.537-.439.938-.439.4 0 .708.146.923.439.214.283.38.625.498 1.026l.249.878zm23.346-2.314c1.123 0 2.168.215 3.135.644a7.985 7.985 0 012.564 1.788 8.39 8.39 0 011.713 2.622c.42.986.63 2.036.63 3.149a7.88 7.88 0 01-.63 3.12 8.341 8.341 0 01-1.743 2.593 8.219 8.219 0 01-2.563 1.758 7.572 7.572 0 01-3.106.644 7.775 7.775 0 01-3.105-.63 8.225 8.225 0 01-2.564-1.743 8.305 8.305 0 01-1.728-2.578 7.99 7.99 0 01-.63-3.164c0-1.113.21-2.163.63-3.149a8.44 8.44 0 011.728-2.608 8.222 8.222 0 012.564-1.787 7.423 7.423 0 013.105-.659zm-5.068 8.232c0 .948.229 1.812.688 2.593a5.34 5.34 0 001.861 1.846 4.863 4.863 0 002.534.688c.937 0 1.787-.234 2.549-.703a5.301 5.301 0 001.831-1.889 4.972 4.972 0 00.688-2.564 5.19 5.19 0 00-.673-2.607 5.231 5.231 0 00-1.832-1.919c-.761-.479-1.621-.718-2.578-.718-.966 0-1.831.244-2.592.732a5.28 5.28 0 00-1.817 1.919 5.312 5.312 0 00-.659 2.622zm20.49-10.854c0-.4.142-.742.425-1.026.283-.292.63-.439 1.04-.439.4 0 .742.147 1.025.439.293.284.44.626.44 1.026v2.915h1.963c.381 0 .708.137.981.41.274.274.41.601.41.982 0 .38-.136.708-.41.981-.273.273-.6.41-.981.41h-1.978l-.014 9.068v.029c0 .478.053.81.161.996.107.176.327.264.659.264.42 0 .791-.113 1.113-.337a1.89 1.89 0 01.425-.205c.166-.069.327-.103.483-.103.401 0 .743.142 1.026.425.293.283.439.625.439 1.025 0 .479-.195.864-.586 1.157a5.158 5.158 0 01-1.274.704 4.23 4.23 0 01-1.538.278c-1.231 0-2.178-.376-2.842-1.128-.664-.762-.996-1.709-.996-2.842v-.132l.015-9.184h-1.89c-.381 0-.708-.137-.982-.41a1.343 1.343 0 01-.41-.982c0-.381.137-.708.41-.981.274-.274.601-.41.982-.41h1.904v-2.93zm-300.026 37.666c1.299 0 2.49.322 3.574.967a7.398 7.398 0 012.607 2.607c.665 1.084.997 2.29.997 3.618 0 .274-.015.552-.044.835a1.385 1.385 0 01-.498.923 1.443 1.443 0 01-.967.366l-10.239.015a5.33 5.33 0 00.937 1.977 5.545 5.545 0 001.67 1.495 4.282 4.282 0 002.168.571c.84 0 1.592-.205 2.256-.615.664-.41 1.181-.884 1.553-1.421.117-.186.292-.342.527-.469a1.5 1.5 0 01.688-.19c.401 0 .743.146 1.026.439.293.293.439.64.439 1.04 0 .313-.088.591-.263.835-.606.889-1.441 1.66-2.505 2.315-1.055.644-2.281.966-3.677.966a7.479 7.479 0 01-3.135-.659 7.919 7.919 0 01-2.505-1.802 8.448 8.448 0 01-1.67-2.622 8.561 8.561 0 01-.586-3.149c0-1.065.196-2.075.586-3.032a8.436 8.436 0 011.626-2.578 7.823 7.823 0 012.447-1.773 6.893 6.893 0 012.988-.659zm4.16 6.387c-.186-.957-.664-1.773-1.436-2.447-.771-.673-1.679-1.01-2.724-1.01a4.248 4.248 0 00-2.827 1.04c-.811.693-1.358 1.504-1.641 2.431l8.628-.014zm19.787-6.431c.352 0 .669.142.952.425.293.283.44.595.44.937 0 .303-.049.552-.147.747l-6.181 13.374c-.264.557-.713.835-1.348.835-.654 0-1.094-.298-1.318-.893l-5.538-13.374c-.078-.166-.117-.396-.117-.689 0-.312.132-.615.396-.908.273-.303.576-.454.908-.454.762 0 1.27.303 1.523.908l4.263 10.371 4.761-10.429c.264-.567.732-.85 1.406-.85zm12.551.044c1.299 0 2.49.322 3.574.967a7.41 7.41 0 012.608 2.607c.664 1.084.996 2.29.996 3.618 0 .274-.015.552-.044.835a1.385 1.385 0 01-.498.923 1.443 1.443 0 01-.967.366l-10.239.015a5.33 5.33 0 00.937 1.977 5.545 5.545 0 001.67 1.495 4.282 4.282 0 002.168.571c.84 0 1.592-.205 2.256-.615.664-.41 1.181-.884 1.553-1.421a1.38 1.38 0 01.527-.469 1.5 1.5 0 01.688-.19c.401 0 .743.146 1.026.439.293.293.439.64.439 1.04 0 .313-.088.591-.263.835-.606.889-1.441 1.66-2.505 2.315-1.055.644-2.281.966-3.677.966a7.479 7.479 0 01-3.135-.659 7.919 7.919 0 01-2.505-1.802 8.448 8.448 0 01-1.67-2.622 8.561 8.561 0 01-.586-3.149c0-1.065.196-2.075.586-3.032a8.436 8.436 0 011.626-2.578 7.823 7.823 0 012.447-1.773 6.893 6.893 0 012.988-.659zm4.16 6.387c-.185-.957-.664-1.773-1.435-2.447-.772-.673-1.68-1.01-2.725-1.01a4.248 4.248 0 00-2.827 1.04c-.811.693-1.358 1.504-1.641 2.431l8.628-.014zm11.218-4.117a14.493 14.493 0 011.889-1.538c.743-.507 1.602-.761 2.579-.761 1.279 0 2.343.341 3.193 1.025.85.674 1.475 1.46 1.875 2.358.312.713.498 1.421.557 2.124.068.694.102 1.348.102 1.963v7.398c0 .4-.146.747-.439 1.04a1.4 1.4 0 01-1.026.425 1.448 1.448 0 01-1.465-1.465v-7.398c0-.576-.029-1.108-.087-1.596a4.157 4.157 0 00-.323-1.289 3.103 3.103 0 00-.864-1.143c-.391-.342-.889-.513-1.494-.513-1.445 0-2.559.552-3.34 1.656-.771 1.103-1.152 2.592-1.143 4.467l.015 5.845c0 .4-.146.747-.439 1.04a1.4 1.4 0 01-1.026.425c-.41 0-.757-.142-1.04-.425a1.464 1.464 0 01-.425-1.055l-.029-13.461c0-.401.108-.743.322-1.026.225-.293.538-.439.938-.439.4 0 .708.146.923.439.215.283.381.625.498 1.026l.249.878zm37.391 11.748a13.971 13.971 0 01-1.904 1.539c-.732.507-1.587.761-2.563.761-1.28 0-2.344-.337-3.194-1.01-.849-.684-1.474-1.475-1.875-2.374a6.94 6.94 0 01-.571-2.109 23.705 23.705 0 01-.088-1.977v-7.398c0-.4.142-.742.425-1.025.293-.293.64-.44 1.04-.44s.742.147 1.025.44c.293.283.44.625.44 1.025v7.398c0 .576.024 1.108.073 1.596.059.489.171.918.337 1.289.186.43.474.816.864 1.158.391.332.889.498 1.494.498 1.446 0 2.554-.552 3.326-1.656.781-1.103 1.167-2.592 1.157-4.467l-.015-5.845a1.4 1.4 0 01.425-1.026c.293-.293.64-.439 1.04-.439.41 0 .757.146 1.04.439.283.284.425.63.425 1.04l.029 13.462c0 .401-.112.747-.337 1.04-.215.284-.522.425-.923.425-.4 0-.708-.141-.922-.425a3.327 3.327 0 01-.499-1.04l-.249-.879zm16.125-14.091c1.397 0 2.662.307 3.794.923 1.143.605 1.988 1.425 2.535 2.46.117.206.175.44.175.704 0 .4-.146.747-.439 1.04a1.397 1.397 0 01-1.026.424c-.244 0-.498-.078-.761-.234-.254-.166-.435-.356-.542-.571a3.074 3.074 0 00-1.45-1.363c-.645-.302-1.412-.454-2.3-.454-.518 0-1.104.069-1.758.205-.654.137-1.221.357-1.699.66-.479.302-.718.713-.718 1.23 0 .381.195.684.586.908.4.215.889.381 1.465.498.586.118 1.172.205 1.758.264a70.21 70.21 0 011.435.132c.723.078 1.436.2 2.139.366a7.59 7.59 0 011.933.703c.586.313 1.05.737 1.392 1.275.352.537.527 1.22.527 2.05 0 1.182-.341 2.149-1.025 2.901-.684.752-1.558 1.308-2.622 1.67a10.332 10.332 0 01-3.34.542c-1.592 0-3.042-.313-4.351-.938-1.298-.635-2.26-1.557-2.885-2.768a1.539 1.539 0 01-.176-.689c0-.4.142-.742.425-1.025.293-.293.639-.44 1.04-.44.254 0 .508.083.761.249.264.157.45.347.557.572.381.742.967 1.279 1.758 1.611.801.332 1.753.498 2.856.498.586 0 1.192-.063 1.817-.19.635-.137 1.167-.367 1.596-.689.44-.322.66-.762.66-1.318 0-.43-.191-.738-.572-.923-.371-.195-.82-.322-1.347-.381-.518-.059-1.001-.112-1.45-.161-.86-.088-1.749-.2-2.667-.337a12.194 12.194 0 01-2.563-.689c-.781-.312-1.416-.761-1.904-1.347-.489-.586-.733-1.367-.733-2.344 0-.879.21-1.636.63-2.27a5.004 5.004 0 011.699-1.553 8.322 8.322 0 012.3-.908 10.93 10.93 0 012.49-.293z"/>
  </g>
  <g filter="url(#filter1_d)" style="mix-blend-mode:hard-light">
    <path fill="#fff" d="M66.569 96.938c0 1.124-.417 2.156-1.25 3.093-.813.938-1.76 1.407-2.844 1.407-.98 0-1.792-.167-2.438-.5-2.02-1.084-3.03-2.855-3.03-5.313 0-1.146.218-2.448.656-3.906 1.02-3.396 2.833-5.959 5.437-7.688.396-.27.813-.406 1.25-.406.583 0 1.083.23 1.5.688.438.458.656 1.01.656 1.656 0 .687-.364 1.281-1.094 1.781-1.687 1.104-2.822 2.667-3.406 4.688h.063c1.229 0 2.281.447 3.156 1.343.896.875 1.344 1.927 1.344 3.156zm-13.25 0c0 1.124-.417 2.156-1.25 3.093-.813.938-1.76 1.407-2.844 1.407-.98 0-1.792-.167-2.438-.5-2.02-1.084-3.03-2.855-3.03-5.313 0-1.146.218-2.448.656-3.906 1.02-3.396 2.833-5.959 5.437-7.688.396-.27.813-.406 1.25-.406.583 0 1.083.23 1.5.688.438.458.656 1.01.656 1.656 0 .687-.364 1.281-1.093 1.781-1.688 1.104-2.823 2.667-3.407 4.688h.063c1.229 0 2.281.447 3.156 1.343.896.875 1.344 1.927 1.344 3.156zm21.212-.532c0-.854.344-1.552 1.031-2.094.688-.541 1.448-.812 2.282-.812 1.083 0 1.916.5 2.5 1.5L91.5 114.219l10.906-19.031c.209-.334.542-.657 1-.97.479-.312.969-.468 1.469-.468.479 0 .906.052 1.281.156.396.084.802.344 1.219.781.583.626.875 1.282.875 1.97 0 .666-.156 1.26-.469 1.78L94.5 121l-.219 15.562c0 .834-.312 1.553-.937 2.157-.604.583-1.334.875-2.188.875a3.144 3.144 0 01-2.219-.875c-.604-.604-.906-1.323-.906-2.157v-.062l.219-15.906-13.219-22.406c-.333-.48-.5-1.073-.5-1.782zm64.369-2.75c3.188 0 6.115.625 8.781 1.875a21.478 21.478 0 017 5.094c1.979 2.146 3.511 4.625 4.594 7.437 1.083 2.792 1.625 5.761 1.625 8.907s-.542 6.104-1.625 8.875c-1.062 2.75-2.573 5.177-4.531 7.281-1.959 2.104-4.281 3.75-6.969 4.937-2.667 1.188-5.615 1.782-8.844 1.782-3.291 0-6.281-.594-8.968-1.782-2.688-1.208-5-2.864-6.938-4.968-1.917-2.125-3.396-4.573-4.437-7.344-1.042-2.792-1.563-5.781-1.563-8.969 0-3.104.542-6.041 1.625-8.812 1.104-2.771 2.635-5.229 4.594-7.375a21.674 21.674 0 016.937-5.094c2.667-1.23 5.573-1.844 8.719-1.844zm.125 6.344c-3.083 0-5.812.802-8.187 2.406-2.355 1.604-4.209 3.729-5.563 6.375-1.333 2.625-2 5.5-2 8.625 0 2.125.406 4.156 1.219 6.094a17.118 17.118 0 003.375 5.188 16.47 16.47 0 004.969 3.562c1.895.854 3.916 1.281 6.062 1.281 2.146 0 4.167-.448 6.063-1.343a16.826 16.826 0 005.062-3.626 17.286 17.286 0 003.469-5.124c.833-1.917 1.25-3.876 1.25-5.876 0-3.229-.709-6.166-2.125-8.812-1.396-2.667-3.281-4.792-5.656-6.375-2.375-1.583-5.021-2.375-7.938-2.375zm32.181-2.75c0-.792.292-1.5.875-2.125.604-.625 1.302-.938 2.094-.938.979 0 1.76.271 2.344.813.604.52.916 1.27.937 2.25l.219 22.594c.042 4.5.948 8.052 2.719 10.656 1.771 2.604 4.708 3.906 8.812 3.906 3.042 0 5.479-.594 7.313-1.781 1.833-1.187 3.156-2.844 3.969-4.969.812-2.125 1.218-4.573 1.218-7.344l-.062-23.093v-.031c0-.855.302-1.573.906-2.157a2.98 2.98 0 012.188-.906c.854 0 1.593.302 2.218.906.625.584.938 1.302.938 2.156v.032l.062 23.093c0 6.25-1.552 11.198-4.656 14.844-3.083 3.646-7.74 5.469-13.969 5.469-4.021 0-7.343-.885-9.968-2.656-2.625-1.792-4.594-4.24-5.907-7.344-1.312-3.125-1.989-6.687-2.031-10.687l-.219-22.657v-.031zm81.4 39.5c0 .812-.302 1.521-.906 2.125-.583.583-1.219.875-1.906.875a2.147 2.147 0 01-1.531-.625c-.438-.396-.74-.698-.907-.906-1.896-1.334-3.541-2.844-4.937-4.531a29.608 29.608 0 01-3.531-5.563c-.855-1.792-1.73-3.187-2.625-4.187a7.192 7.192 0 00-3.188-2.126c-1.25-.416-2.875-.635-4.875-.656l-2.844-.031.032 15.125v.062c0 .834-.313 1.563-.938 2.188-.604.625-1.333.938-2.187.938-.855 0-1.594-.334-2.219-1-.604-.667-.906-1.459-.906-2.376l-.094-38.78c0-.876.302-1.605.906-2.188.625-.604 1.354-.917 2.188-.938l8.312-.031h.719c3.583 0 6.781.531 9.594 1.594 2.812 1.041 5.031 2.614 6.656 4.719 1.625 2.083 2.437 4.677 2.437 7.781 0 2-.416 3.781-1.25 5.343a12.442 12.442 0 01-3.218 3.969 16.15 16.15 0 01-4.313 2.531c.708.896 1.417 2 2.125 3.313 1.208 2.313 2.385 4.365 3.531 6.156 1.146 1.771 2.657 3.334 4.532 4.688.375.25.687.604.937 1.062.271.438.406.927.406 1.469zm-21.281-36.375h-6.031l.062 14.937 6.032-.062c3.833-.042 6.833-.625 9-1.75 2.187-1.125 3.281-2.927 3.281-5.406 0-2.542-1.156-4.459-3.469-5.75-2.312-1.313-5.271-1.969-8.875-1.969zm59.581 38.937c-.854 0-1.594-.302-2.218-.906-.605-.625-.907-1.364-.907-2.218l-.031-39.094c0-.792.292-1.51.875-2.156.583-.646 1.281-.97 2.094-.97.958 0 1.739.303 2.343.907.626.583.938 1.323.938 2.219l.031 39.094c0 .854-.312 1.593-.937 2.218a2.982 2.982 0 01-2.188.906zm15.025-42.062c0-.875.313-1.594.938-2.156a3.292 3.292 0 012.281-.875c.979 0 1.781.396 2.406 1.187l23.594 32.032V97.344c0-.834.302-1.542.906-2.125.625-.604 1.365-.906 2.219-.906a2.98 2.98 0 012.187.906c.625.583.938 1.291.938 2.125l-.031 39.187c0 .875-.323 1.604-.969 2.188-.625.562-1.375.843-2.25.843-.979 0-1.781-.416-2.406-1.25l-23.563-32V136.5c0 .833-.312 1.552-.937 2.156-.604.584-1.334.875-2.188.875a3.141 3.141 0 01-2.219-.875c-.604-.604-.906-1.323-.906-2.156V97.25zm46.588 0c0-.854.302-1.573.906-2.156.625-.604 1.365-.906 2.219-.906l25.469-.032h.031c.854 0 1.583.313 2.187.938.625.604.938 1.333.938 2.187 0 .854-.313 1.594-.938 2.219a2.98 2.98 0 01-2.187.906h-.031l-22.344.032.031 11.374 16.281-.156h.344c.833 0 1.51.334 2.031 1 .521.667.782 1.313.782 1.938a3.45 3.45 0 01-.875 2.344c-.584.645-1.334.968-2.25.968l-16.282.156.032 18.188v.062c0 .834-.313 1.553-.938 2.157a2.98 2.98 0 01-2.187.906c-.855 0-1.594-.302-2.219-.906-.604-.604-.906-1.323-.906-2.157v-.031l-.094-39.031zm63.931-3.594c3.188 0 6.115.625 8.781 1.875a21.478 21.478 0 017 5.094c1.979 2.146 3.511 4.625 4.594 7.437 1.083 2.792 1.625 5.761 1.625 8.907s-.542 6.104-1.625 8.875c-1.062 2.75-2.573 5.177-4.531 7.281-1.959 2.104-4.281 3.75-6.969 4.937-2.667 1.188-5.615 1.782-8.844 1.782-3.291 0-6.281-.594-8.968-1.782-2.688-1.208-5-2.864-6.938-4.968-1.917-2.125-3.396-4.573-4.437-7.344-1.042-2.792-1.563-5.781-1.563-8.969 0-3.104.542-6.041 1.625-8.812 1.104-2.771 2.635-5.229 4.594-7.375a21.674 21.674 0 016.937-5.094c2.667-1.23 5.573-1.844 8.719-1.844zm.125 6.344c-3.083 0-5.812.802-8.187 2.406-2.355 1.604-4.209 3.729-5.563 6.375-1.333 2.625-2 5.5-2 8.625 0 2.125.406 4.156 1.219 6.094a17.118 17.118 0 003.375 5.188 16.47 16.47 0 004.969 3.562c1.895.854 3.916 1.281 6.062 1.281 2.146 0 4.167-.448 6.063-1.343a16.826 16.826 0 005.062-3.626 17.286 17.286 0 003.469-5.124c.833-1.917 1.25-3.876 1.25-5.876 0-3.229-.709-6.166-2.125-8.812-1.396-2.667-3.281-4.792-5.656-6.375-2.375-1.583-5.021-2.375-7.938-2.375zm65.744 36.75c0 .812-.302 1.521-.906 2.125-.584.583-1.219.875-1.907.875a2.15 2.15 0 01-1.531-.625c-.437-.396-.74-.698-.906-.906-1.896-1.334-3.542-2.844-4.938-4.531a29.608 29.608 0 01-3.531-5.563c-.854-1.792-1.729-3.187-2.625-4.187a7.189 7.189 0 00-3.187-2.126c-1.25-.416-2.875-.635-4.875-.656l-2.844-.031.031 15.125v.062c0 .834-.312 1.563-.937 2.188-.605.625-1.334.938-2.188.938-.854 0-1.594-.334-2.219-1-.604-.667-.906-1.459-.906-2.376l-.094-38.78c0-.876.302-1.605.907-2.188.625-.604 1.354-.917 2.187-.938l8.313-.031h.718c3.584 0 6.782.531 9.594 1.594 2.813 1.041 5.031 2.614 6.656 4.719 1.625 2.083 2.438 4.677 2.438 7.781 0 2-.417 3.781-1.25 5.343a12.458 12.458 0 01-3.219 3.969 16.144 16.144 0 01-4.312 2.531c.708.896 1.416 2 2.125 3.313 1.208 2.313 2.385 4.365 3.531 6.156 1.146 1.771 2.656 3.334 4.531 4.688.375.25.688.604.938 1.062.27.438.406.927.406 1.469zm-21.281-36.375h-6.032l.063 14.937 6.031-.062c3.833-.042 6.833-.625 9-1.75 2.188-1.125 3.281-2.927 3.281-5.406 0-2.542-1.156-4.459-3.468-5.75-2.313-1.313-5.271-1.969-8.875-1.969zM496.031 139c-.854 0-1.593-.302-2.219-.906-.604-.625-.906-1.365-.906-2.219l-.094-38.781a5.303 5.303 0 01-.031-.563c0-.291.063-.573.188-.844.146-.27.312-.552.5-.843.5-.813 1.219-1.219 2.156-1.219 1.5 0 2.531.583 3.094 1.75l16.719 27.281 15.468-27.312c.625-1.042 1.469-1.563 2.532-1.563.895 0 1.677.292 2.343.875.667.584 1 1.334 1 2.25V136c0 .854-.312 1.594-.937 2.219a2.982 2.982 0 01-2.188.906c-.854 0-1.594-.302-2.218-.906-.605-.625-.907-1.365-.907-2.219v-27.938l-12.281 22.313c-.229.375-.583.74-1.062 1.094-.48.333-1 .5-1.563.5-1.208 0-2.135-.5-2.781-1.5l-13.782-22.531.094 27.906v.031c0 .854-.312 1.594-.937 2.219a2.982 2.982 0 01-2.188.906zm68.494-43.594c.229-.52.615-.958 1.156-1.312.563-.375 1.136-.563 1.719-.563.563 0 1.125.188 1.688.563.583.354.979.791 1.187 1.312l17.188 39.875c.187.417.281.844.281 1.281 0 .855-.313 1.594-.938 2.219a2.981 2.981 0 01-2.187.907c-.584 0-1.156-.188-1.719-.563-.562-.375-.958-.823-1.187-1.344l-5.344-12.406-17.813-.25-5.468 12.687c-.209.521-.594.969-1.157 1.344-.562.396-1.135.594-1.718.594-.855 0-1.594-.302-2.219-.906-.604-.625-.906-1.365-.906-2.219 0-.437.093-.865.281-1.281l17.156-39.938zm2.875 9.156l-6.156 14.344 12.406.156-6.25-14.5zm29.056-7.156c0-.854.302-1.583.907-2.187.625-.625 1.364-.938 2.218-.938h.032l31.218-.187h.063c.854 0 1.583.312 2.187.937.625.604.938 1.334.938 2.188 0 .854-.313 1.594-.938 2.219a2.979 2.979 0 01-2.187.906h-.031l-12.438.062-.156 35.875v.031c0 .834-.313 1.553-.938 2.157a2.98 2.98 0 01-2.187.906c-.854 0-1.594-.302-2.219-.906-.604-.604-.906-1.323-.906-2.157v-.062l.156-35.812-12.562.093h-.032c-.854 0-1.593-.302-2.218-.906-.605-.625-.907-1.365-.907-2.219zm51.025 41.906c-.854 0-1.594-.302-2.219-.906-.604-.625-.906-1.364-.906-2.218l-.031-39.094c0-.792.292-1.51.875-2.156.583-.646 1.281-.97 2.094-.97.958 0 1.739.303 2.343.907.625.583.938 1.323.938 2.219l.031 39.094c0 .854-.312 1.593-.937 2.218a2.982 2.982 0 01-2.188.906zM683.6 93.656c3.187 0 6.115.625 8.781 1.875a21.478 21.478 0 017 5.094c1.979 2.146 3.511 4.625 4.594 7.437 1.083 2.792 1.625 5.761 1.625 8.907s-.542 6.104-1.625 8.875c-1.063 2.75-2.573 5.177-4.531 7.281-1.959 2.104-4.282 3.75-6.969 4.937-2.667 1.188-5.615 1.782-8.844 1.782-3.291 0-6.281-.594-8.969-1.782-2.687-1.208-5-2.864-6.937-4.968-1.917-2.125-3.396-4.573-4.438-7.344-1.041-2.792-1.562-5.781-1.562-8.969 0-3.104.542-6.041 1.625-8.812 1.104-2.771 2.635-5.229 4.594-7.375a21.674 21.674 0 016.937-5.094c2.667-1.23 5.573-1.844 8.719-1.844zm.125 6.344c-3.083 0-5.813.802-8.188 2.406-2.354 1.604-4.208 3.729-5.562 6.375-1.333 2.625-2 5.5-2 8.625 0 2.125.406 4.156 1.219 6.094a17.118 17.118 0 003.375 5.188 16.465 16.465 0 004.968 3.562c1.896.854 3.917 1.281 6.063 1.281a14.02 14.02 0 006.062-1.343 16.817 16.817 0 005.063-3.626 17.286 17.286 0 003.469-5.124c.833-1.917 1.25-3.876 1.25-5.876 0-3.229-.709-6.166-2.125-8.812-1.396-2.667-3.282-4.792-5.657-6.375-2.375-1.583-5.02-2.375-7.937-2.375zm32.181-2.75c0-.875.313-1.594.938-2.156a3.292 3.292 0 012.281-.875c.979 0 1.781.396 2.406 1.187l23.594 32.032V97.344c0-.834.302-1.542.906-2.125.625-.604 1.365-.906 2.219-.906.854 0 1.583.302 2.188.906.624.583.937 1.291.937 2.125l-.031 39.187c0 .875-.323 1.604-.969 2.188-.625.562-1.375.843-2.25.843-.979 0-1.781-.416-2.406-1.25l-23.563-32V136.5c0 .833-.312 1.552-.937 2.156-.604.584-1.334.875-2.188.875a3.143 3.143 0 01-2.219-.875c-.604-.604-.906-1.323-.906-2.156V97.25zM83.8 214.312c-.854 0-1.594-.302-2.219-.906-.604-.625-.906-1.364-.906-2.218l-.031-39.094c0-.792.291-1.511.875-2.156.583-.646 1.281-.969 2.093-.969.959 0 1.74.302 2.344.906.625.583.938 1.323.938 2.219l.031 39.094c0 .854-.313 1.593-.938 2.218a2.981 2.981 0 01-2.187.906zm34.056-45.718c2.396 0 4.656.406 6.781 1.218 2.146.813 4.021 1.938 5.625 3.376 1.605 1.437 2.823 3.104 3.657 5 .187.416.281.843.281 1.281 0 .854-.313 1.593-.938 2.219a2.98 2.98 0 01-2.187.906c-.563 0-1.125-.177-1.688-.532-.562-.374-.958-.822-1.187-1.343-.792-1.792-2.115-3.219-3.969-4.281-1.833-1.063-3.958-1.594-6.375-1.594-1.187 0-2.448.146-3.781.437-1.313.292-2.552.74-3.719 1.344-1.166.583-2.114 1.323-2.844 2.219-.729.896-1.093 1.937-1.093 3.125 0 .958.312 1.791.937 2.5a7.39 7.39 0 002.094 1.625c1.812.896 3.812 1.521 6 1.875 2.208.354 4.437.698 6.687 1.031 2.25.333 4.344.917 6.282 1.75 1.229.521 2.406 1.24 3.531 2.156a11.012 11.012 0 012.75 3.344c.708 1.312 1.062 2.854 1.062 4.625 0 2.292-.552 4.302-1.656 6.031-1.104 1.729-2.552 3.167-4.344 4.313a21.35 21.35 0 01-5.843 2.593c-2.084.563-4.125.844-6.125.844-2.709 0-5.25-.427-7.625-1.281-2.375-.875-4.448-2.104-6.219-3.687a16.36 16.36 0 01-4.063-5.626 3.02 3.02 0 01-.28-1.25c0-.854.301-1.583.905-2.187.625-.625 1.365-.937 2.219-.937.584 0 1.156.187 1.719.562.562.354.948.802 1.156 1.344.917 2.104 2.469 3.771 4.656 5 2.188 1.208 4.698 1.812 7.532 1.812 1.771 0 3.552-.26 5.343-.781 1.792-.542 3.292-1.365 4.5-2.469 1.23-1.125 1.844-2.552 1.844-4.281 0-1.104-.375-2.01-1.125-2.719a7.663 7.663 0 00-2.406-1.656 24.388 24.388 0 00-6.344-1.75c-2.25-.333-4.489-.677-6.719-1.031a21.79 21.79 0 01-6.25-2.031c-1.645-.834-3.145-2.042-4.5-3.626-1.333-1.604-2-3.635-2-6.093 0-2.167.521-4.073 1.563-5.719 1.062-1.667 2.458-3.062 4.187-4.188a20.548 20.548 0 015.75-2.593 22.96 22.96 0 016.219-.875zm72.738 0c2.396 0 4.656.406 6.781 1.218 2.146.813 4.021 1.938 5.625 3.376 1.604 1.437 2.823 3.104 3.656 5 .188.416.281.843.281 1.281 0 .854-.312 1.593-.937 2.219a2.98 2.98 0 01-2.188.906c-.562 0-1.125-.177-1.687-.532-.563-.374-.958-.822-1.188-1.343-.791-1.792-2.114-3.219-3.968-4.281-1.834-1.063-3.959-1.594-6.375-1.594-1.188 0-2.448.146-3.782.437a15.25 15.25 0 00-3.718 1.344c-1.167.583-2.115 1.323-2.844 2.219-.729.896-1.094 1.937-1.094 3.125 0 .958.313 1.791.938 2.5a7.4 7.4 0 002.093 1.625c1.813.896 3.813 1.521 6 1.875 2.209.354 4.438.698 6.688 1.031 2.25.333 4.344.917 6.281 1.75 1.229.521 2.406 1.24 3.531 2.156a11.012 11.012 0 012.75 3.344c.709 1.312 1.063 2.854 1.063 4.625 0 2.292-.552 4.302-1.656 6.031-1.104 1.729-2.552 3.167-4.344 4.313a21.37 21.37 0 01-5.844 2.593c-2.083.563-4.125.844-6.125.844-2.708 0-5.25-.427-7.625-1.281-2.375-.875-4.448-2.104-6.219-3.687a16.365 16.365 0 01-4.062-5.626 3.012 3.012 0 01-.281-1.25c0-.854.302-1.583.906-2.187.625-.625 1.365-.937 2.219-.937.583 0 1.156.187 1.718.562.563.354.948.802 1.157 1.344.916 2.104 2.468 3.771 4.656 5 2.187 1.208 4.698 1.812 7.531 1.812 1.771 0 3.552-.26 5.344-.781 1.792-.542 3.292-1.365 4.5-2.469 1.229-1.125 1.844-2.552 1.844-4.281 0-1.104-.375-2.01-1.125-2.719a7.667 7.667 0 00-2.407-1.656 24.38 24.38 0 00-6.343-1.75 643.33 643.33 0 01-6.719-1.031 21.78 21.78 0 01-6.25-2.031c-1.646-.834-3.146-2.042-4.5-3.626-1.333-1.604-2-3.635-2-6.093 0-2.167.521-4.073 1.562-5.719 1.063-1.667 2.459-3.062 4.188-4.188a20.548 20.548 0 015.75-2.593 22.949 22.949 0 016.219-.875zm46.462 1.812c.229-.521.615-.958 1.156-1.312.563-.375 1.136-.563 1.719-.563.563 0 1.125.188 1.688.563.583.354.979.791 1.187 1.312l17.188 39.875c.187.417.281.844.281 1.281 0 .855-.313 1.594-.938 2.219a2.981 2.981 0 01-2.187.907c-.583 0-1.156-.188-1.719-.563-.562-.375-.958-.823-1.187-1.344l-5.344-12.406-17.813-.25-5.468 12.687c-.209.521-.594.969-1.157 1.344-.562.396-1.135.594-1.718.594-.854 0-1.594-.302-2.219-.906-.604-.625-.906-1.365-.906-2.219 0-.437.093-.865.281-1.281l17.156-39.938zm2.875 9.156l-6.156 14.344 12.406.156-6.25-14.5zm30.619-7.312c0-.854.302-1.573.906-2.156.625-.604 1.365-.906 2.219-.906l25.469-.032h.031c.854 0 1.583.313 2.187.938.625.604.938 1.333.938 2.187 0 .854-.313 1.594-.938 2.219a2.98 2.98 0 01-2.187.906h-.031l-22.344.032.031 11.374 16.281-.156h.344c.834 0 1.511.334 2.031 1 .521.667.782 1.313.782 1.938a3.45 3.45 0 01-.875 2.344c-.584.645-1.334.968-2.25.968l-16.282.156.032 18.188v.062c0 .834-.313 1.553-.938 2.157a2.98 2.98 0 01-2.187.906c-.854 0-1.594-.302-2.219-.906-.604-.604-.906-1.323-.906-2.157v-.031l-.094-39.031zm42.837 0c0-.833.303-1.542.907-2.125.625-.604 1.364-.906 2.218-.906l26.782.031h.031c.854 0 1.583.312 2.187.938.625.604.938 1.333.938 2.187 0 .854-.313 1.594-.938 2.219a2.98 2.98 0 01-2.187.906h-.031l-23.657-.031.032 12.812 21.062.157c.896 0 1.636.312 2.219.937.604.625.906 1.427.906 2.406 0 .834-.323 1.542-.969 2.125-.645.563-1.364.844-2.156.844h-.031l-21-.156.031 13.218 23.563-.031h.031c.854 0 1.583.313 2.187.938.625.604.938 1.333.938 2.187 0 .854-.313 1.594-.938 2.219a2.98 2.98 0 01-2.187.906h-.031l-26.688.031c-.854 0-1.594-.302-2.219-.906-.604-.625-.906-1.354-.906-2.187l-.094-38.719zm90.363-1.375c.188-.583.562-1.073 1.125-1.469.583-.396 1.198-.594 1.844-.594.708 0 1.333.219 1.875.657.562.437.927.948 1.094 1.531l9.593 30.562 8.531-29.406c.167-.875.532-1.625 1.094-2.25.584-.646 1.229-.968 1.938-.968.896 0 1.635.374 2.218 1.124.605.75.907 1.636.907 2.657 0 .416-.052.781-.157 1.093l-11.343 38.532c-.188.625-.563 1.146-1.125 1.562a3.137 3.137 0 01-1.844.594c-.625 0-1.24-.188-1.844-.562-.583-.396-.968-.896-1.156-1.5l-9.875-28.344-10.437 29.281c-.334.333-.75.604-1.25.813-.48.208-1.053.312-1.719.312a3.276 3.276 0 01-1.875-.594c-.584-.416-.969-.937-1.156-1.562l-10.938-38.125a4.527 4.527 0 01-.125-1.094c0-1.021.292-1.906.875-2.656.604-.75 1.354-1.125 2.25-1.125.729 0 1.375.333 1.938 1a4.418 4.418 0 011.093 2.281l8.219 29.125 10.25-30.875zm43.712 43.437c-.854 0-1.593-.302-2.218-.906-.604-.625-.907-1.364-.907-2.218l-.031-39.094c0-.792.292-1.511.875-2.156.584-.646 1.281-.969 2.094-.969.958 0 1.74.302 2.344.906.625.583.937 1.323.937 2.219l.031 39.094c0 .854-.312 1.593-.937 2.218a2.98 2.98 0 01-2.188.906zm13.463-41.906c0-.854.302-1.583.906-2.187.625-.625 1.365-.938 2.219-.938h.031l31.219-.187h.062c.855 0 1.584.312 2.188.937.625.604.937 1.334.937 2.188 0 .854-.312 1.593-.937 2.219a2.98 2.98 0 01-2.188.906h-.031l-12.437.062-.157 35.875v.031c0 .834-.312 1.553-.937 2.157a2.98 2.98 0 01-2.188.906c-.854 0-1.593-.302-2.218-.906-.604-.604-.907-1.323-.907-2.157v-.062l.157-35.812-12.563.093h-.031c-.854 0-1.594-.302-2.219-.906-.604-.625-.906-1.365-.906-2.219zm47.087-1.187c0-.813.334-1.469 1-1.969.667-.5 1.313-.75 1.938-.75a3.704 3.704 0 012.312.844c.667.541 1 1.271 1 2.187l.032 17.563 23.375-.032.031-17.531c-.063-.833.219-1.541.844-2.125.646-.604 1.396-.906 2.25-.906.854 0 1.593.292 2.218.875s.938 1.302.938 2.156l-.031 39.719c0 .833-.313 1.552-.938 2.156-.604.584-1.333.875-2.187.875a3.21 3.21 0 01-2.219-.843 2.846 2.846 0 01-.906-2.126v-15.937l-23.344.031.031 15.938c0 .854-.302 1.573-.906 2.156-.604.583-1.344.875-2.219.875a3.145 3.145 0 01-2.219-.875c-.604-.604-.906-1.323-.906-2.156l-.062-19.875c0-6.646-.011-13.281-.032-19.907v-.343zm70.926 1.031c0-.792.291-1.5.874-2.125.605-.625 1.303-.937 2.094-.937.979 0 1.761.27 2.344.812.604.521.917 1.271.938 2.25l.218 22.594c.042 4.5.948 8.052 2.719 10.656 1.771 2.604 4.708 3.906 8.813 3.906 3.041 0 5.479-.594 7.312-1.781 1.833-1.187 3.156-2.844 3.969-4.969.812-2.125 1.219-4.573 1.219-7.344l-.063-23.093v-.031c0-.855.302-1.573.906-2.157a2.982 2.982 0 012.188-.906c.854 0 1.593.302 2.219.906.624.584.937 1.302.937 2.157v.031l.063 23.093c0 6.25-1.553 11.198-4.657 14.844-3.083 3.646-7.739 5.469-13.969 5.469-4.02 0-7.343-.885-9.968-2.656-2.625-1.792-4.594-4.24-5.906-7.344-1.313-3.125-1.99-6.687-2.032-10.687l-.218-22.657v-.031zm66.868-3.656c2.396 0 4.656.406 6.781 1.218 2.146.813 4.021 1.938 5.625 3.376 1.605 1.437 2.823 3.104 3.657 5 .187.416.281.843.281 1.281 0 .854-.313 1.593-.938 2.219a2.98 2.98 0 01-2.187.906c-.563 0-1.125-.177-1.688-.532-.562-.374-.958-.822-1.187-1.343-.792-1.792-2.115-3.219-3.969-4.281-1.833-1.063-3.958-1.594-6.375-1.594-1.187 0-2.448.146-3.781.437-1.313.292-2.552.74-3.719 1.344-1.166.583-2.114 1.323-2.844 2.219-.729.896-1.093 1.937-1.093 3.125 0 .958.312 1.791.937 2.5a7.39 7.39 0 002.094 1.625c1.812.896 3.812 1.521 6 1.875 2.208.354 4.437.698 6.687 1.031 2.25.333 4.344.917 6.282 1.75 1.229.521 2.406 1.24 3.531 2.156a11.012 11.012 0 012.75 3.344c.708 1.312 1.062 2.854 1.062 4.625 0 2.292-.552 4.302-1.656 6.031-1.104 1.729-2.552 3.167-4.344 4.313a21.35 21.35 0 01-5.843 2.593c-2.084.563-4.125.844-6.125.844-2.709 0-5.25-.427-7.625-1.281-2.375-.875-4.448-2.104-6.219-3.687a16.368 16.368 0 01-4.063-5.626 3.028 3.028 0 01-.281-1.25c0-.854.302-1.583.906-2.187.625-.625 1.365-.937 2.219-.937.584 0 1.156.187 1.719.562.562.354.948.802 1.156 1.344.917 2.104 2.469 3.771 4.656 5 2.188 1.208 4.698 1.812 7.532 1.812 1.771 0 3.552-.26 5.343-.781 1.792-.542 3.292-1.365 4.5-2.469 1.23-1.125 1.844-2.552 1.844-4.281 0-1.104-.375-2.01-1.125-2.719a7.663 7.663 0 00-2.406-1.656 24.388 24.388 0 00-6.344-1.75c-2.25-.333-4.489-.677-6.719-1.031a21.79 21.79 0 01-6.25-2.031c-1.645-.834-3.145-2.042-4.5-3.626-1.333-1.604-2-3.635-2-6.093 0-2.167.521-4.073 1.563-5.719 1.062-1.667 2.458-3.062 4.187-4.188a20.548 20.548 0 015.75-2.593 22.96 22.96 0 016.219-.875zm35.088 45.531c-1.417 0-2.657-.5-3.719-1.5-1.042-1-1.563-2.219-1.563-3.656 0-1.438.521-2.646 1.563-3.625 1.062-1 2.302-1.5 3.719-1.5 1.416 0 2.656.5 3.718 1.5 1.063.979 1.594 2.187 1.594 3.625 0 1.437-.531 2.656-1.594 3.656-1.062 1-2.302 1.5-3.718 1.5zm18.025-51.063c0-1.124.406-2.156 1.219-3.093.833-.938 1.791-1.407 2.875-1.407.979 0 1.791.167 2.437.5 2.021 1.084 3.031 2.855 3.031 5.313 0 1.146-.218 2.448-.656 3.906-1.021 3.396-2.833 5.959-5.437 7.688a2.179 2.179 0 01-1.25.406c-.584 0-1.094-.229-1.532-.687-.416-.459-.625-1.011-.625-1.657 0-.687.365-1.281 1.094-1.781 1.688-1.104 2.823-2.667 3.406-4.688h-.062c-1.229 0-2.292-.437-3.188-1.312-.875-.896-1.312-1.958-1.312-3.188zm13.25 0c0-1.124.406-2.156 1.219-3.093.833-.938 1.791-1.407 2.875-1.407.979 0 1.791.167 2.437.5 2.021 1.084 3.031 2.855 3.031 5.313 0 1.146-.218 2.448-.656 3.906-1.021 3.396-2.833 5.959-5.437 7.688a2.179 2.179 0 01-1.25.406c-.584 0-1.094-.229-1.532-.687-.416-.459-.625-1.011-.625-1.657 0-.687.365-1.281 1.094-1.781 1.688-1.104 2.823-2.667 3.406-4.688h-.062c-1.229 0-2.292-.437-3.188-1.312-.875-.896-1.312-1.958-1.312-3.188z"/>
  </g>
  <defs>
    <filter id="filter0_d" width="575.99" height="99.724" x="119.796" y="238.643" color-interpolation-filters="sRGB" filterUnits="userSpaceOnUse">
      <feFlood flood-opacity="0" result="BackgroundImageFix"/>
      <feColorMatrix in="SourceAlpha" values="0 0 0 0 0 0 0 0 0 0 0 0 0 0 0 0 0 0 127 0"/>
      <feOffset dy="4"/>
      <feGaussianBlur stdDeviation="2"/>
      <feColorMatrix values="0 0 0 0 0 0 0 0 0 0 0 0 0 0 0 0 0 0 0.25 0"/>
      <feBlend in2="BackgroundImageFix" result="effect1_dropShadow"/>
      <feBlend in="SourceGraphic" in2="effect1_dropShadow" result="shape"/>
    </filter>
    <filter id="filter1_d" width="713.619" height="138" x="41.756" y="82.625" color-interpolation-filters="sRGB" filterUnits="userSpaceOnUse">
      <feFlood flood-opacity="0" result="BackgroundImageFix"/>
      <feColorMatrix in="SourceAlpha" values="0 0 0 0 0 0 0 0 0 0 0 0 0 0 0 0 0 0 127 0"/>
      <feOffset dx="1" dy="2"/>
      <feGaussianBlur stdDeviation="1.5"/>
      <feColorMatrix values="0 0 0 0 0 0 0 0 0 0 0 0 0 0 0 0 0 0 0.33 0"/>
      <feBlend in2="BackgroundImageFix" result="effect1_dropShadow"/>
      <feBlend in="SourceGraphic" in2="effect1_dropShadow" result="shape"/>
    </filter>
  </defs>
</svg>
