<svg xmlns="http://www.w3.org/2000/svg" width="500" height="190" fill="none" viewBox="0 0 500 190">
  <path fill="#A6B2DC" d="M0 94.963C.022 74.142 18.043 53.9 51.291 37.352c33.249-16.55 79.884-28.49 132.733-33.984 52.849-5.495 108.984-4.24 159.773 3.572 50.788 7.811 93.417 21.747 121.33 39.663 27.912 17.917 39.563 38.822 33.159 59.5-6.403 20.678-30.506 39.983-68.601 54.948-38.095 14.965-88.072 24.759-142.246 27.878-54.173 3.118-109.542-.614-157.59-10.62-17.288 4.674-59.463 13.997-101.127 7.282l50.152-21.364c-24.931-8.876-44.797-19.605-58.365-31.52C6.942 120.792-.039 107.945 0 94.963z"/>
</svg>
