<svg xmlns="http://www.w3.org/2000/svg" xmlns:xlink="http://www.w3.org/1999/xlink" width="420" height="700" fill="none" viewBox="0 0 420 700">
  <path fill="#717379" d="M368.806 2.357H51.212c-26.683 0-48.314 17.953-48.314 40.1v614.509c0 22.146 21.63 40.1 48.314 40.1h317.594c26.683 0 48.314-17.954 48.314-40.1V42.456c0-22.146-21.631-40.099-48.314-40.099z"/>
  <path fill="#4E5C7A" d="M371.686 684.126H50.018c-25.455 0-46.28-18.665-46.28-41.481V35.943a37.117 37.117 0 00-.84 7.832v611.762c0 22.811 20.824 41.495 46.28 41.495h321.668c25.455 0 46.279-18.665 46.279-41.48v-5.051c-4.121 19.083-22.974 33.625-45.439 33.625z"/>
  <path fill="#8C94AE" d="M417.12 42.53v11.347c0-22.811-20.831-41.48-46.286-41.48H49.166C23.728 12.41 2.898 31.08 2.898 53.876V42.529c0-22.806 20.83-41.485 46.285-41.485h321.669c25.437 0 46.268 18.679 46.268 41.485z" opacity=".5"/>
  <path fill="#97A0DC" d="M320.468 16.582h50.21c16.709 0 30.381 12.824 30.381 28.501v609.353c0 15.677-13.672 28.501-30.381 28.501H49.34c-16.71 0-30.382-12.824-30.382-28.501V45.083c0-15.677 13.672-28.501 30.382-28.501h49.647"/>
  <path fill="#717379" d="M321.314 16.394c-.278 17.799-12.171 27.631-28.353 27.631H126.349c-15.261 0-27.617-11.064-27.617-24.745v-3.285h222.414a.504.504 0 01.136.184.43.43 0 01.032.215z"/>
  <path fill="#414D53" d="M238.33 25.433h-81.153v3.848h81.153v-3.848zM255.236 34.178c4.203 0 7.61-3.054 7.61-6.821s-3.407-6.821-7.61-6.821c-4.202 0-7.61 3.054-7.61 6.821s3.408 6.821 7.61 6.821z"/>
  <path fill="#414D53" d="M370.678 685.343H49.34c-18.35 0-33.28-13.864-33.28-30.907V45.083c0-17.043 14.93-30.907 33.28-30.907h52.545v5.893c0 12.96 11.087 23.5 24.713 23.5H293.24c14.849 0 23.513-9.675 23.762-26.55-.034-.425.051-.85.25-1.243.199-.392.506-.74.897-1.017.39-.276.853-.473 1.352-.574a3.938 3.938 0 011.518-.009h49.659c18.349 0 33.279 13.864 33.279 30.907v609.353c.012 17.043-14.93 30.907-33.279 30.907zM49.34 18.987c-15.145 0-27.484 11.708-27.484 26.096v609.353c0 14.388 12.328 26.096 27.484 26.096h321.338c15.156 0 27.483-11.708 27.483-26.096V45.083c0-14.388-12.327-26.096-27.483-26.096h-47.943c-.963 18.448-11.882 29.392-29.501 29.392H126.598c-16.808 0-30.51-12.7-30.51-28.31v-1.082H49.34zm268.242-2.405c-.019.604.251 1.19.75 1.63.499.441 1.188.7 1.916.722h.22v-2.352h-2.886z"/>
  <path fill="url(#pattern0)" d="M54.689 69.833h.58v.481h-.58z" opacity=".75" style="mix-blend-mode:multiply"/>
  <path fill="url(#pattern1)" d="M54.689 284.378h.58v.481h-.58z" opacity=".75" style="mix-blend-mode:multiply"/>
  <path fill="#414D53" d="M370.353 699.519H49.647c-13.162-.012-25.781-4.356-35.088-12.08C5.25 679.715.015 669.242 0 658.318V41.206c.014-10.925 5.249-21.4 14.556-29.124C23.864 4.356 36.484.012 49.648 0h320.706c13.163.011 25.783 4.356 35.09 12.082 9.308 7.725 14.543 18.2 14.557 29.124v617.112c-.015 10.924-5.251 21.397-14.559 29.121-9.307 7.724-21.926 12.068-35.088 12.08zM49.647 4.81c-11.626.01-22.773 3.848-30.994 10.672-8.22 6.823-12.845 16.075-12.857 25.724v617.112c.012 9.649 4.636 18.901 12.857 25.724s19.368 10.661 30.994 10.671h320.706c11.626-.01 22.773-3.848 30.994-10.671 8.221-6.823 12.845-16.075 12.857-25.724V41.206c-.012-9.65-4.636-18.9-12.857-25.724-8.221-6.824-19.368-10.661-30.994-10.672H49.647z"/>
  <path fill="#D6D4D4" d="M201.55.082L58.248 700H48.105c-6.97-.013-13.848-1.323-20.128-3.835-6.279-2.511-11.8-6.161-16.154-10.678L152.159.082h49.392z" opacity=".3"/>
  <defs>
    <pattern id="pattern0" width="1" height="1" patternContentUnits="objectBoundingBox">
      <use transform="scale(.00186 .00222)" xlink:href="#image0"/>
    </pattern>
    <pattern id="pattern1" width="1" height="1" patternContentUnits="objectBoundingBox">
      <use transform="scale(.00186 .00222)" xlink:href="#image0"/>
    </pattern>
  </defs>
</svg>
