<svg xmlns="http://www.w3.org/2000/svg" width="270" height="370" fill="none" viewBox="0 0 270 370">
  <path fill="#FFB6B6" d="M179.547 112.116l29.622-32.902 8.739 5.398-35.528 46.455-2.833-18.951z"/>
  <path fill="#FFB6B6" d="M213.067 90.522c3.894 0 7.05-3.934 7.05-8.788s-3.156-8.789-7.05-8.789c-3.893 0-7.049 3.935-7.049 8.789 0 4.854 3.156 8.788 7.049 8.788z"/>
  <path fill="#2F2E41" d="M153.608 368.232l-22.6-.001v-.357c0-2.908.927-5.698 2.576-7.754 1.65-2.057 3.887-3.212 6.22-3.212h13.804v11.324z"/>
  <path fill="#FFB6B6" d="M126.442 359.761h-7.01l-3.334-33.704 10.344.001v33.703z"/>
  <path fill="#2F2E41" d="M128.229 368.232l-22.6-.001v-.357c0-2.908.927-5.698 2.577-7.754 1.649-2.057 3.887-3.212 6.22-3.212h13.804l-.001 11.324zM157.707 167.1s17.624-1.757 11.984 36.913c-5.639 38.669-17.321 144.45-17.321 144.45l-10.591 1.815-6.257-141.109-4.734 141.109-13.47-1.815-13.188-151.481s-4.235-12.18-.002-20.591c4.232-8.412 53.579-9.291 53.579-9.291z"/>
  <path fill="#3F3D56" d="M146.428 71.305l4.893-3.269s12.055-1.281 16.975 16.374l13.048 24.569 21.149-22.85 9.165 7.909-26.654 39.658-11.083 1.765-23.969-38.67-3.524-25.486z"/>
  <path fill="#2F2E41" d="M128.672 0c-20.104 0-25.731 27.532-25.731 43.064s11.52 13.183 25.731 13.183c6.1 0 11.7.43 16.11-.305l2.121-6.457 1.707 5.35c3.62-1.658 5.793-5.028 5.793-11.77C154.403 27.531 149.468 0 128.672 0z"/>
  <path fill="#FFB6B6" d="M128.586 56.221c9.563 0 17.315-9.664 17.315-21.586 0-11.921-7.752-21.585-17.315-21.585-9.563 0-17.315 9.664-17.315 21.585 0 11.922 7.752 21.586 17.315 21.586z"/>
  <path fill="#2F2E41" d="M108.581 32.518h6.848l3.021-10.547.604 10.547h3.273l1.763-6.152.352 6.152h24.321c0-6.06-1.931-11.873-5.368-16.158-3.437-4.285-8.099-6.693-12.961-6.693h-3.524c-4.862 0-9.524 2.408-12.961 6.693-3.437 4.285-5.368 10.098-5.368 16.158z"/>
  <path fill="#3F3D56" d="M163.185 159.148c-2.658.043-10.666-59.191-10.666-59.191l-1.198-31.92-8.75-.367v-.718c0-1.44-.459-2.822-1.276-3.84-.817-1.02-1.925-1.592-3.081-1.592H121.55c-1.107 0-2.172.527-2.979 1.472-.807.945-1.294 2.238-1.364 3.615l-6.861-.288-11.883 47.067s10.949 43.732 5.665 63.005c0 0 51.489 5.512 61.346-6.723 0 0 .37-10.563-2.289-10.52z"/>
  <path fill="#3F3D56" d="M113.294 72.183l-2.948-5.864s-9.595-2.957-13.545 4.97C92.85 79.213 81.24 122.16 81.24 122.16l11.984 5.274 13.6-23.77 6.47-31.482z"/>
  <path fill="#FFB6B6" d="M99.162 113.78l-8.684-1.145a12.869 12.869 0 00-.804 4.664c.019 1.61.331 3.194.914 4.632.582 1.438 1.42 2.692 2.448 3.667 1.029.975 2.222 1.645 3.489 1.96l34.362 8.55-3.584-13.762-28.14-8.566z"/>
  <path fill="#FFB6B6" d="M130.99 136.267c3.894 0 7.05-3.935 7.05-8.789 0-4.854-3.156-8.789-7.05-8.789-3.893 0-7.049 3.935-7.049 8.789 0 4.854 3.156 8.789 7.049 8.789z"/>
  <path fill="#3F3D56" d="M122.19 136.534l-26.178-7.457c-1.897-.547-3.649-1.696-5.085-3.334-1.437-1.638-2.51-3.711-3.116-6.018l-1.058-4.067 6.794-6.666 31.126 10.846-2.483 16.696z"/>
  <path fill="#CACACA" d="M269.295 370H.705a.645.645 0 01-.499-.257 1.002 1.002 0 01-.206-.622c0-.233.074-.456.206-.621a.643.643 0 01.499-.258h268.59c.187 0 .366.093.499.258a1 1 0 01.206.621c0 .233-.074.457-.206.622a.647.647 0 01-.499.257z"/>
</svg>
