<svg xmlns="http://www.w3.org/2000/svg" width="537" height="76" fill="none" viewBox="0 0 537 76">
  <g filter="url(#filter0_f)">
    <path fill="#fff" d="M4.71 40.23l10.125-.984c.61 3.398 1.84 5.895 3.692 7.488 1.875 1.594 4.394 2.391 7.558 2.391 3.352 0 5.871-.703 7.559-2.11 1.71-1.43 2.566-3.093 2.566-4.992 0-1.218-.363-2.25-1.09-3.093-.703-.867-1.945-1.617-3.726-2.25-1.219-.422-3.996-1.172-8.332-2.25-5.578-1.383-9.493-3.082-11.743-5.098-3.164-2.836-4.746-6.293-4.746-10.371 0-2.625.739-5.074 2.215-7.348 1.5-2.297 3.645-4.043 6.434-5.238 2.812-1.195 6.2-1.793 10.16-1.793 6.469 0 11.332 1.418 14.59 4.254 3.281 2.836 5.004 6.621 5.168 11.355l-10.406.457c-.446-2.648-1.407-4.546-2.883-5.695-1.453-1.172-3.645-1.758-6.574-1.758-3.024 0-5.391.621-7.102 1.864-1.102.796-1.652 1.863-1.652 3.199 0 1.219.515 2.262 1.547 3.129 1.312 1.101 4.5 2.25 9.562 3.445 5.062 1.195 8.8 2.438 11.215 3.727 2.437 1.265 4.336 3.011 5.695 5.238 1.383 2.203 2.074 4.934 2.074 8.191 0 2.953-.82 5.719-2.46 8.297-1.641 2.578-3.962 4.5-6.962 5.766-3 1.242-6.738 1.863-11.214 1.863-6.516 0-11.52-1.5-15.012-4.5C7.476 50.391 5.39 45.996 4.71 40.23zM87.074 57v-5.59c-1.36 1.992-3.152 3.563-5.379 4.711a14.926 14.926 0 01-6.996 1.723c-2.508 0-4.758-.551-6.75-1.653-1.992-1.101-3.433-2.648-4.324-4.64-.89-1.992-1.336-4.746-1.336-8.262V19.664h9.879V36.82c0 5.25.176 8.473.527 9.668.375 1.172 1.043 2.11 2.004 2.813.961.68 2.18 1.02 3.657 1.02 1.687 0 3.199-.458 4.535-1.372 1.335-.937 2.25-2.086 2.742-3.445.492-1.383.738-4.746.738-10.09v-15.75h9.879V57h-9.176zm26.642 0V5.46h9.879V57h-9.879zm26.817 0V5.46h9.879v18.563c3.047-3.468 6.656-5.203 10.828-5.203 4.547 0 8.308 1.653 11.285 4.957 2.977 3.282 4.465 8.004 4.465 14.168 0 6.375-1.524 11.285-4.57 14.73-3.024 3.446-6.704 5.169-11.04 5.169-2.132 0-4.242-.528-6.328-1.582-2.062-1.078-3.843-2.66-5.343-4.746V57h-9.176zm9.808-19.477c0 3.868.61 6.727 1.829 8.579 1.71 2.625 3.984 3.937 6.82 3.937 2.18 0 4.031-.926 5.555-2.777 1.546-1.875 2.32-4.817 2.32-8.825 0-4.265-.774-7.335-2.32-9.21-1.547-1.899-3.528-2.848-5.942-2.848-2.367 0-4.336.926-5.906 2.777-1.57 1.828-2.356 4.617-2.356 8.367zm63.45 7.594l9.844 1.653c-1.265 3.609-3.269 6.363-6.012 8.261-2.718 1.875-6.128 2.813-10.23 2.813-6.492 0-11.297-2.121-14.414-6.364-2.461-3.398-3.692-7.687-3.692-12.867 0-6.187 1.618-11.027 4.852-14.52 3.234-3.515 7.324-5.273 12.27-5.273 5.554 0 9.937 1.84 13.148 5.52 3.211 3.656 4.746 9.27 4.605 16.84h-24.75c.071 2.93.868 5.215 2.391 6.855 1.524 1.617 3.422 2.426 5.695 2.426 1.547 0 2.848-.422 3.903-1.266 1.054-.843 1.851-2.203 2.39-4.078zm.563-9.984c-.07-2.86-.809-5.028-2.215-6.504-1.406-1.5-3.117-2.25-5.133-2.25-2.156 0-3.937.785-5.344 2.355-1.406 1.57-2.097 3.703-2.074 6.399h14.766zm42.216-15.469v7.875h-6.75v15.047c0 3.047.058 4.828.175 5.344.141.492.434.902.879 1.23.469.328 1.031.492 1.688.492.914 0 2.238-.316 3.972-.949l.844 7.664c-2.297.985-4.898 1.477-7.805 1.477-1.781 0-3.386-.293-4.816-.88-1.43-.608-2.484-1.382-3.164-2.32-.656-.96-1.113-2.25-1.371-3.867-.211-1.148-.317-3.468-.317-6.96V27.538h-4.535v-7.875h4.535v-7.418l9.915-5.766v13.184h6.75zm14.055-5.062V5.46h9.879v9.14h-9.879zm0 42.398V19.664h9.879V57h-9.879zm87.525-18.95l10.09 3.2c-1.547 5.625-4.125 9.809-7.735 12.55-3.585 2.72-8.144 4.079-13.675 4.079-6.844 0-12.469-2.332-16.875-6.996-4.407-4.688-6.61-11.086-6.61-19.196 0-8.578 2.215-15.234 6.645-19.968 4.43-4.758 10.254-7.137 17.472-7.137 6.305 0 11.426 1.863 15.364 5.59 2.344 2.203 4.101 5.367 5.273 9.492l-10.301 2.461c-.609-2.672-1.886-4.781-3.832-6.328-1.921-1.547-4.265-2.32-7.031-2.32-3.82 0-6.926 1.37-9.316 4.113-2.367 2.742-3.551 7.183-3.551 13.324 0 6.516 1.172 11.156 3.516 13.922 2.343 2.766 5.39 4.148 9.14 4.148 2.766 0 5.145-.879 7.137-2.636 1.992-1.758 3.422-4.524 4.289-8.297zm23.899-.245c0-3.282.809-6.457 2.426-9.528 1.617-3.07 3.902-5.414 6.855-7.03 2.977-1.618 6.293-2.427 9.95-2.427 5.648 0 10.277 1.84 13.886 5.52 3.61 3.656 5.414 8.285 5.414 13.887 0 5.648-1.828 10.336-5.484 14.062-3.633 3.703-8.215 5.555-13.746 5.555-3.422 0-6.691-.774-9.809-2.32-3.093-1.547-5.449-3.81-7.066-6.786-1.617-3-2.426-6.644-2.426-10.933zm10.125.527c0 3.703.879 6.54 2.637 8.508 1.758 1.969 3.926 2.953 6.504 2.953 2.578 0 4.734-.984 6.469-2.953 1.757-1.969 2.636-4.828 2.636-8.578 0-3.657-.879-6.469-2.636-8.438-1.735-1.969-3.891-2.953-6.469-2.953-2.578 0-4.746.985-6.504 2.953-1.758 1.969-2.637 4.805-2.637 8.508zM445.007 57h-9.879V19.664h9.176v5.309c1.57-2.508 2.976-4.16 4.219-4.957 1.265-.797 2.695-1.196 4.289-1.196 2.25 0 4.418.621 6.504 1.864l-3.059 8.613c-1.664-1.078-3.211-1.617-4.641-1.617-1.382 0-2.554.386-3.515 1.16-.961.75-1.723 2.12-2.285 4.113-.539 1.992-.809 6.164-.809 12.516V57zm25.516-37.336h9.211v5.484c1.196-1.875 2.813-3.398 4.852-4.57 2.039-1.172 4.301-1.758 6.785-1.758 4.336 0 8.016 1.7 11.039 5.098 3.024 3.398 4.535 8.133 4.535 14.203 0 6.234-1.523 11.086-4.57 14.555-3.047 3.445-6.738 5.168-11.074 5.168-2.063 0-3.938-.41-5.625-1.23-1.664-.821-3.422-2.227-5.274-4.22v18.81h-9.879v-51.54zm9.774 18.035c0 4.196.832 7.301 2.496 9.317 1.664 1.992 3.691 2.988 6.082 2.988 2.297 0 4.207-.914 5.73-2.742 1.524-1.852 2.286-4.875 2.286-9.07 0-3.915-.786-6.82-2.356-8.72-1.57-1.898-3.515-2.847-5.836-2.847-2.414 0-4.418.938-6.011 2.813-1.594 1.851-2.391 4.605-2.391 8.261zM522.02 57v-9.879h9.879V57h-9.879z"/>
    <path fill="#fff" d="M4.71 40.23l-.048-.497-.508.05.06.506.496-.059zm10.125-.984l.492-.088-.081-.454-.46.044.05.498zm3.692 7.488l-.327.38.003.001.324-.38zm15.117.282l.32.384-.32-.384zm1.476-8.086l-.388.315.005.005.004.006.38-.326zm-3.726-2.25l.167-.471-.004-.002-.163.473zm-8.332-2.25l.12-.486-.12.486zm-11.743-5.098l-.333.372.333-.372zM8.79 11.613l-.42-.273.42.273zm6.433-5.238l-.196-.46h-.001l.197.46zm24.75 2.46l-.328.378v.001l.328-.378zm5.168 11.356l.022.5.495-.022-.017-.495-.5.017zm-10.406.457l-.494.083.074.436.441-.019-.021-.5zm-2.883-5.695l-.314.39.007.005.307-.395zm-13.676.106l.293.405-.293-.405zm-.105 6.328l-.322.382.322-.382zm20.777 7.172l-.236.44.006.003.23-.443zm5.695 5.238l-.427.26.004.006.423-.266zM37.194 56.05l.192.462.003-.002-.195-.46zm-26.226-2.637l-.327.378.001.001.326-.379zm-6.21-12.686l10.125-.984-.096-.996-10.125.985.097.995zm9.585-1.394c.621 3.466 1.889 6.085 3.857 7.78l.653-.759c-1.735-1.493-2.928-3.866-3.526-7.197l-.984.176zm3.86 7.781c1.988 1.69 4.634 2.51 7.882 2.51v-1c-3.08 0-5.473-.775-7.235-2.272l-.647.762zm7.882 2.51c3.41 0 6.065-.714 7.879-2.225l-.64-.768c-1.561 1.3-3.945 1.993-7.239 1.993v1zm7.88-2.226c1.802-1.506 2.745-3.303 2.745-5.376h-1c0 1.724-.768 3.256-2.387 4.609l.641.767zm2.745-5.376c0-1.326-.398-2.476-1.21-3.42l-.759.653c.641.744.97 1.656.97 2.767h1zm-1.201-3.408c-.789-.973-2.133-1.762-3.948-2.407l-.335.943c1.748.62 2.888 1.332 3.506 2.094l.777-.63zm-3.952-2.408c-1.244-.43-4.045-1.186-8.375-2.263l-.24.97c4.34 1.08 7.095 1.825 8.288 2.238l.327-.945zm-8.375-2.263c-5.558-1.378-9.373-3.053-11.529-4.984l-.667.744c2.344 2.1 6.357 3.823 11.955 5.211l.241-.97zM11.653 28.96c-3.063-2.746-4.58-6.07-4.58-10h-1c0 4.228 1.648 7.818 4.913 10.744l.667-.744zm-4.58-10c0-2.524.709-4.88 2.135-7.074l-.84-.545c-1.526 2.352-2.295 4.895-2.295 7.62h1zm2.134-7.073c1.44-2.206 3.503-3.892 6.212-5.052l-.394-.92c-2.87 1.23-5.096 3.037-6.655 5.425l.837.547zm6.21-5.052c2.736-1.162 6.052-1.753 9.965-1.753v-1c-4.01 0-7.466.605-10.356 1.833l.391.92zm9.965-1.753c6.406 0 11.13 1.406 14.262 4.131l.656-.754c-3.385-2.947-8.387-4.377-14.918-4.377v1zm14.263 4.132C42.81 11.95 44.48 15.6 44.64 20.21l1-.035c-.169-4.86-1.944-8.78-5.341-11.716l-.654.756zm5.473 10.478l-10.406.457.043.999 10.407-.457-.044-1zm-9.891.873c-.457-2.718-1.458-4.753-3.07-6.007l-.613.79c1.342 1.043 2.263 2.805 2.696 5.383l.987-.166zm-3.062-6.001c-1.58-1.274-3.906-1.869-6.888-1.869v1c2.876 0 4.934.578 6.26 1.647l.628-.778zm-6.888-1.869c-3.086 0-5.57.633-7.396 1.959l.588.81c1.596-1.16 3.846-1.769 6.808-1.769v-1zm-7.395 1.958c-1.229.89-1.86 2.105-1.86 3.605h1c0-1.172.472-2.09 1.446-2.794l-.586-.81zm-1.86 3.605c0 1.383.595 2.56 1.726 3.511l.643-.765c-.931-.784-1.368-1.692-1.368-2.746h-1zm1.726 3.512c.727.61 1.921 1.196 3.527 1.775 1.618.583 3.701 1.174 6.242 1.774l.23-.974c-2.521-.595-4.564-1.176-6.133-1.741-1.582-.57-2.637-1.109-3.223-1.6l-.643.766zm9.77 3.549c5.05 1.192 8.738 2.423 11.093 3.68l.471-.881c-2.472-1.32-6.261-2.575-11.335-3.773l-.23.974zm11.099 3.683c2.36 1.226 4.19 2.91 5.498 5.055l.854-.52c-1.41-2.31-3.378-4.117-5.892-5.422l-.46.887zm5.502 5.06c1.321 2.106 1.997 4.739 1.997 7.926h1c0-3.328-.706-6.156-2.15-8.457l-.847.532zm1.997 7.926c0 2.855-.79 5.528-2.382 8.029l.843.537c1.69-2.656 2.54-5.514 2.54-8.566h-1zm-2.382 8.029C42.15 52.503 39.913 54.36 37 55.59l.389.921c3.087-1.302 5.49-3.288 7.188-5.957l-.843-.537zm-6.73 5.572c-2.922 1.21-6.59 1.825-11.024 1.825v1c4.519 0 8.327-.626 11.406-1.901l-.383-.924zM25.98 57.414c-6.445 0-11.316-1.484-14.686-4.38l-.652.76c3.614 3.104 8.752 4.62 15.338 4.62v-1zm-14.685-4.378c-3.375-2.922-5.42-7.19-6.088-12.864l-.993.117c.69 5.856 2.818 10.378 6.427 13.503l.654-.756zM87.075 57h-.5v.5h.5V57zm0-5.59h.5v-1.62l-.914 1.338.413.282zm-5.38 4.711l-.229-.444h-.002l.231.444zM62.29 19.664v-.5h-.5v.5h.5zm9.879 0h.5v-.5h-.5v.5zm.527 26.824l-.48.141.004.012.476-.153zm2.004 2.813l-.295.403.007.005.288-.408zm8.192-.352l.282.413.005-.004-.287-.409zm2.742-3.445l.47.17v-.002l-.47-.168zm.738-25.84v-.5h-.5v.5h.5zm9.879 0h.5v-.5h-.5v.5zm0 37.336v.5h.5V57h-.5zm-8.676 0v-5.59h-1V57h1zm-.913-5.872c-1.31 1.921-3.04 3.437-5.195 4.549l.459.889c2.297-1.186 4.154-2.81 5.562-4.874l-.826-.564zm-5.197 4.55a14.426 14.426 0 01-6.765 1.666v1c2.542 0 4.954-.594 7.227-1.78l-.462-.886zM74.7 57.344c-2.432 0-4.597-.534-6.508-1.59l-.484.875c2.074 1.147 4.409 1.715 6.992 1.715v-1zm-6.508-1.59c-1.901-1.052-3.265-2.519-4.11-4.407l-.913.408c.937 2.096 2.456 3.722 4.54 4.874l.483-.875zm-4.11-4.407c-.85-1.9-1.292-4.575-1.292-8.058h-1c0 3.548.448 6.382 1.38 8.466l.912-.408zm-1.292-8.058V19.664h-1V43.29h1zm-.5-23.125h9.879v-1h-9.879v1zm9.379-.5V36.82h1V19.664h-1zm0 17.156c0 2.63.044 4.758.132 6.382.088 1.608.221 2.767.416 3.427l.959-.282c-.157-.535-.288-1.585-.376-3.2-.087-1.598-.131-3.706-.131-6.327h-1zm.551 9.82c.406 1.27 1.136 2.297 2.185 3.064l.59-.807c-.872-.638-1.479-1.486-1.823-2.561l-.952.305zm2.192 3.069c1.064.753 2.391 1.111 3.945 1.111v-1c-1.4 0-2.51-.321-3.368-.927l-.578.816zm3.945 1.111c1.783 0 3.394-.485 4.817-1.458l-.565-.825c-1.249.854-2.661 1.283-4.252 1.283v1zm4.822-1.462c1.409-.988 2.393-2.216 2.925-3.684l-.94-.34c-.453 1.25-1.296 2.32-2.56 3.206l.575.819zm2.926-3.686c.27-.761.458-2.007.581-3.691.124-1.699.186-3.889.186-6.567h-1c0 2.666-.061 4.83-.183 6.494-.123 1.68-.305 2.806-.526 3.428l.942.336zm.767-10.258v-15.75h-1v15.75h1zm-.5-15.25h9.879v-1h-9.879v1zm9.379-.5V57h1V19.664h-1zm.5 36.836h-9.176v1h9.176v-1zm17.466.5h-.5v.5h.5V57zm0-51.54v-.5h-.5v.5h.5zm9.879 0h.5v-.5h-.5v.5zm0 51.54v.5h.5V57h-.5zm-9.379 0V5.46h-1V57h1zm-.5-51.04h9.879v-1h-9.879v1zm9.379-.5V57h1V5.46h-1zm.5 51.04h-9.879v1h9.879v-1zm16.938.5h-.5v.5h.5V57zm0-51.54v-.5h-.5v.5h.5zm9.879 0h.5v-.5h-.5v.5zm0 18.563h-.5v1.327l.875-.997-.375-.33zm22.113-.246l-.372.335.002.001.37-.336zm-.105 28.899l-.375-.332-.001.002.376.33zm-17.368 3.586l-.231.443.006.003.225-.446zm-5.343-4.746l.406-.292-.906-1.26v1.552h.5zm0 5.484v.5h.5V57h-.5zm2.461-10.898l.418-.273-.001-.002-.417.275zm12.375 1.16l-.386-.319-.001.001.387.318zm0-18.035l-.388.315.002.003.386-.318zm-11.848-.07l.379.325.002-.002-.381-.324zM141.033 57V5.46h-1V57h1zm-.5-51.04h9.879v-1h-9.879v1zm9.379-.5v18.563h1V5.461h-1zm.875 18.893c2.964-3.373 6.441-5.033 10.453-5.033v-1c-4.332 0-8.073 1.81-11.204 5.373l.751.66zm10.453-5.033c4.409 0 8.034 1.595 10.913 4.792l.744-.67c-3.074-3.412-6.972-5.122-11.657-5.122v1zm10.915 4.793c2.865 3.159 4.335 7.744 4.335 13.832h1c0-6.24-1.507-11.1-4.595-14.504l-.74.672zm4.335 13.832c0 6.3-1.506 11.076-4.445 14.4l.749.662c3.154-3.567 4.696-8.612 4.696-15.062h-1zm-4.446 14.401c-2.935 3.344-6.481 4.998-10.664 4.998v1c4.489 0 8.303-1.792 11.415-5.338l-.751-.66zm-10.664 4.998c-2.047 0-4.079-.506-6.102-1.529l-.451.893c2.149 1.087 4.335 1.636 6.553 1.636v-1zm-6.096-1.525c-1.986-1.039-3.71-2.566-5.169-4.595l-.812.584c1.54 2.142 3.379 3.779 5.518 4.897l.463-.886zm-6.075-4.303V57h1v-5.484h-1zm.5 4.984h-9.176v1h9.176v-1zm.132-18.977c0 3.901.612 6.88 1.911 8.853l.835-.55c-1.138-1.729-1.746-4.47-1.746-8.303h-1zm1.91 8.852c1.791 2.749 4.214 4.164 7.239 4.164v-1c-2.647 0-4.771-1.21-6.402-3.71l-.837.546zm7.239 4.164c2.345 0 4.333-1.006 5.941-2.96l-.773-.635c-1.439 1.75-3.154 2.595-5.168 2.595v1zm5.94-2.96c1.656-2.006 2.435-5.087 2.435-9.142h-1c0 3.962-.768 6.763-2.206 8.507l.771.636zm2.435-9.142c0-4.302-.776-7.518-2.435-9.529l-.771.637c1.435 1.739 2.206 4.664 2.206 8.892h1zm-2.433-9.526c-1.64-2.013-3.762-3.032-6.329-3.032v1c2.261 0 4.1.88 5.554 2.663l.775-.631zm-6.329-3.032c-2.518 0-4.625.994-6.287 2.954l.762.647c1.478-1.743 3.309-2.601 5.525-2.601v-1zm-6.285 2.951c-1.682 1.958-2.477 4.887-2.477 8.693h1c0-3.693.776-6.342 2.235-8.041l-.758-.651zm61.473 16.287l.083-.493-.44-.074-.123.429.48.138zm9.844 1.653l.472.165.196-.56-.585-.099-.083.493zm-6.012 8.261l.284.412h.001l-.285-.412zm-24.644-3.55l-.405.293.002.002.403-.296zm1.16-27.387l.367.34.001-.002-.368-.338zm25.418.246l-.377.329h.001l.376-.33zm4.605 16.84v.5h.491l.009-.491-.5-.01zm-24.75 0v-.5h-.512l.013.512.499-.012zm2.391 6.855l-.366.34.002.003.364-.343zm12.551-12.902v.5h.512l-.012-.513-.5.013zm-2.215-6.504l-.365.342.003.003.362-.345zm-12.551 6.504l-.5.004.005.496h.495v-.5zm14.121 10.477l9.843 1.653.166-.987-9.844-1.652-.165.986zm9.454.994c-1.236 3.525-3.181 6.186-5.824 8.016l.569.822c2.841-1.967 4.904-4.813 6.199-8.507l-.944-.33zm-5.823 8.016c-2.617 1.805-5.922 2.724-9.947 2.724v1c4.178 0 7.694-.956 10.514-2.901l-.567-.823zm-9.947 2.724c-6.375 0-11.01-2.076-14.011-6.16l-.806.593c3.234 4.4 8.207 6.567 14.817 6.567v-1zm-14.009-6.157c-2.386-3.295-3.597-7.474-3.597-12.574h-1c0 5.26 1.251 9.659 3.787 13.16l.81-.586zm-3.597-12.574c0-6.1 1.593-10.805 4.719-14.18l-.734-.679c-3.343 3.61-4.985 8.585-4.985 14.86h1zm4.72-14.18c3.136-3.41 7.091-5.113 11.902-5.113v-1c-5.08 0-9.305 1.813-12.638 5.435l.736.677zm11.902-5.113c5.432 0 9.669 1.793 12.771 5.349l.754-.658c-3.32-3.804-7.848-5.69-13.525-5.69v1zm12.772 5.35c3.094 3.522 4.621 8.988 4.482 16.5l.999.019c.142-7.628-1.401-13.389-4.729-17.18l-.752.66zm4.981 16.01h-24.75v1h24.75v-1zm-25.249.512c.072 3.013.894 5.429 2.524 7.183l.733-.68c-1.418-1.527-2.189-3.681-2.258-6.527l-.999.024zm2.526 7.186c1.621 1.72 3.652 2.583 6.059 2.583v-1c-2.139 0-3.904-.754-5.331-2.269l-.728.686zm6.059 2.583c1.643 0 3.059-.45 4.215-1.375l-.625-.781c-.953.763-2.139 1.156-3.59 1.156v1zm4.215-1.375c1.164-.932 2.003-2.398 2.559-4.33l-.961-.277c-.523 1.818-1.277 3.07-2.223 3.826l.625.78zm3.141-14.465c-.072-2.934-.832-5.24-2.353-6.837l-.724.69c1.291 1.356 2.009 3.386 2.077 6.171l1-.025zm-2.35-6.834c-1.499-1.599-3.341-2.408-5.498-2.408v1c1.875 0 3.454.69 4.768 2.092l.73-.684zm-5.498-2.408c-2.294 0-4.212.843-5.716 2.522l.745.667c1.309-1.462 2.953-2.19 4.971-2.19v-1zM201.29 28.4c-1.511 1.687-2.226 3.952-2.202 6.736l1-.008c-.022-2.607.645-4.607 1.947-6.061l-.745-.667zm-1.702 7.232h14.766v-1h-14.766v1zm56.982-15.969h.5v-.5h-.5v.5zm0 7.875v.5h.5v-.5h-.5zm-6.75 0v-.5h-.5v.5h.5zm.175 20.39l-.487.111.003.014.004.013.48-.137zm.879 1.231l-.296.403.009.007.287-.41zm5.66-.457l.497-.055-.069-.633-.599.218.171.47zm.844 7.664l.197.46.341-.146-.041-.368-.497.054zm-12.621.598l-.196.46.006.003.19-.463zm-3.164-2.32l-.413.282.008.011.405-.294zm-1.371-3.868l.494-.078-.002-.012-.492.09zm-.317-23.238h.5v-.5h-.5v.5zm-4.535 0h-.5v.5h.5v-.5zm0-7.875v-.5h-.5v.5h.5zm4.535 0v.5h.5v-.5h-.5zm0-7.418l-.251-.432-.249.145v.287h.5zm9.915-5.766h.5v-.869l-.752.437.252.432zm0 13.184h-.5v.5h.5v-.5zm6.25 0v7.875h1v-7.875h-1zm.5 7.375h-6.75v1h6.75v-1zm-7.25.5v15.047h1V27.539h-1zm0 15.047c0 1.526.014 2.739.044 3.638.029.878.072 1.503.144 1.817l.975-.222c-.046-.202-.09-.726-.12-1.628-.029-.883-.043-2.084-.043-3.605h-1zm.195 5.481c.173.607.536 1.108 1.063 1.496l.593-.805c-.364-.269-.587-.589-.695-.966l-.961.275zm1.072 1.503c.565.395 1.231.582 1.975.582v-1c-.57 0-1.028-.14-1.401-.401l-.574.819zm1.975.582c1.006 0 2.399-.343 4.144-.98l-.343-.939c-1.724.63-2.979.92-3.801.92v1zm3.475-1.394l.844 7.664.994-.11-.844-7.664-.994.11zm1.144 7.15c-2.225.953-4.758 1.436-7.608 1.436v1c2.963 0 5.634-.502 8.002-1.517l-.394-.92zm-7.608 1.436c-1.726 0-3.265-.284-4.626-.842l-.38.925c1.499.615 3.17.917 5.006.917v-1zm-4.62-.84c-1.374-.585-2.344-1.31-2.955-2.153l-.81.587c.748 1.032 1.888 1.854 3.373 2.487l.392-.92zm-2.947-2.142c-.601-.88-1.04-2.091-1.29-3.663l-.988.157c.265 1.662.741 3.029 1.452 4.07l.826-.564zm-1.292-3.675c-.202-1.096-.309-3.37-.309-6.87h-1c0 3.484.105 5.85.325 7.05l.984-.18zm-.309-6.87V27.538h-1v16.277h1zm-.5-16.778h-4.535v1h4.535v-1zm-4.035.5v-7.875h-1v7.875h1zm-.5-7.375h4.535v-1h-4.535v1zm5.035-.5v-7.418h-1v7.418h1zm-.248-6.986l9.914-5.765-.503-.865-9.914 5.766.503.864zm9.163-6.198v13.184h1V6.48h-1zm.5 13.684h6.75v-1h-6.75v1zm20.805-5.562h-.5v.5h.5v-.5zm0-9.141v-.5h-.5v.5h.5zm9.879 0h.5v-.5h-.5v.5zm0 9.14v.5h.5v-.5h-.5zM270.625 57h-.5v.5h.5V57zm0-37.336v-.5h-.5v.5h.5zm9.879 0h.5v-.5h-.5v.5zm0 37.336v.5h.5V57h-.5zm-9.379-42.398V5.46h-1v9.14h1zm-.5-8.641h9.879v-1h-9.879v1zm9.379-.5v9.14h1v-9.14h-1zm.5 8.64h-9.879v1h9.879v-1zM271.125 57V19.664h-1V57h1zm-.5-36.836h9.879v-1h-9.879v1zm9.379-.5V57h1V19.664h-1zm.5 36.836h-9.879v1h9.879v-1zm77.646-18.45l.151-.476-.517-.164-.121.529.487.112zm10.09 3.2l.482.133.127-.464-.458-.146-.151.477zm-7.735 12.55l.303.4v-.001l-.303-.398zm-30.55-2.917l-.365.342.001.001.364-.343zm.035-39.164l.365.341h.001l-.366-.341zm32.836-1.547l-.344.363.001.001.343-.364zm5.273 9.492l.116.486.508-.12-.143-.503-.481.137zm-10.301 2.461l-.487.111.112.493.492-.118-.117-.486zm-3.832-6.328l-.313.39.002.001.311-.391zm-16.347 1.793l-.377-.329-.002.002.379.327zm20.38 20.937l10.09 3.2.302-.954-10.09-3.199-.302.953zm9.759 2.59c-1.526 5.55-4.055 9.627-7.555 12.286l.605.796c3.719-2.826 6.346-7.116 7.914-12.816l-.964-.266zm-7.555 12.285c-3.48 2.64-7.926 3.977-13.373 3.977v1c5.614 0 10.286-1.381 13.978-4.18l-.605-.797zM346.83 57.38c-6.717 0-12.207-2.283-16.512-6.84l-.727.687c4.508 4.771 10.268 7.153 17.239 7.153v-1zm-16.511-6.839c-4.298-4.572-6.474-10.836-6.474-18.852h-1c0 8.201 2.231 14.735 6.745 19.537l.729-.685zm-6.474-18.852c0-8.494 2.192-15.013 6.51-19.628l-.73-.683c-4.542 4.854-6.78 11.647-6.78 20.31h1zm6.511-19.628c4.324-4.645 10.01-6.978 17.106-6.978v-1c-7.34 0-13.303 2.425-17.838 7.296l.732.681zm17.106-6.978c6.2 0 11.19 1.829 15.02 5.453l.687-.726c-4.045-3.829-9.296-5.727-15.707-5.727v1zm15.021 5.454c2.26 2.124 3.98 5.199 5.135 9.265l.962-.274c-1.188-4.184-2.984-7.437-5.412-9.72l-.685.73zm5.5 8.642l-10.301 2.46.233.973 10.3-2.46-.232-.973zm-9.697 2.836c-.632-2.77-1.965-4.984-4.008-6.608l-.623.782c1.847 1.47 3.069 3.475 3.656 6.048l.975-.222zm-4.006-6.607c-2.022-1.627-4.48-2.43-7.345-2.43v1c2.666 0 4.896.743 6.718 2.21l.627-.78zm-7.345-2.43c-3.956 0-7.202 1.427-9.693 4.284l.754.657c2.29-2.627 5.255-3.941 8.939-3.941v-1zm-9.695 4.286c-2.484 2.878-3.672 7.467-3.672 13.651h1c0-6.097 1.179-10.39 3.429-12.997l-.757-.654zm-3.672 13.651c0 6.55 1.173 11.34 3.634 14.245l.763-.646c-2.226-2.627-3.397-7.117-3.397-13.599h-1zm3.634 14.245c2.443 2.882 5.631 4.325 9.522 4.325v-1c-3.609 0-6.514-1.322-8.759-3.971l-.763.646zm9.522 4.325c2.882 0 5.38-.92 7.468-2.761l-.662-.75c-1.897 1.673-4.157 2.511-6.806 2.511v1zm7.468-2.761c2.099-1.852 3.565-4.73 4.445-8.56l-.974-.224c-.854 3.716-2.247 6.37-4.133 8.034l.662.75zm37.138-25.477l-.238-.44-.002.002.24.438zm23.836 3.094l-.357.35.002.001.355-.351zm-.07 27.95l-.357-.351.357.35zm-23.555 3.233l-.223.448h.001l.222-.448zm-7.066-6.785l-.44.237.001.002.439-.239zm23.309-1.898l-.373-.333-.003.002.376.33zm0-17.016l-.376.33.003.003.373-.333zm-25.235 7.98c0-3.195.787-6.29 2.368-9.294l-.884-.466c-1.653 3.138-2.484 6.394-2.484 9.76h1zm2.368-9.294c1.573-2.986 3.789-5.257 6.654-6.825l-.481-.877c-3.042 1.665-5.396 4.082-7.057 7.236l.884.466zm6.652-6.825c2.898-1.574 6.131-2.365 9.711-2.365v-1c-3.733 0-7.133.827-10.188 2.487l.477.878zm9.711-2.365c5.528 0 10.024 1.796 13.529 5.37l.714-.7c-3.713-3.785-8.475-5.67-14.243-5.67v1zm13.531 5.371c3.508 3.554 5.269 8.052 5.269 13.536h1c0-5.72-1.847-10.48-5.558-14.238l-.711.702zm5.269 13.536c0 5.529-1.784 10.087-5.341 13.712l.714.7c3.756-3.828 5.627-8.645 5.627-14.412h-1zm-5.341 13.712c-3.532 3.6-7.982 5.405-13.389 5.405v1c5.656 0 10.369-1.899 14.103-5.705l-.714-.7zm-13.389 5.405c-3.343 0-6.537-.755-9.586-2.268l-.445.895c3.185 1.58 6.531 2.373 10.031 2.373v-1zm-9.585-2.268c-3.004-1.502-5.283-3.692-6.851-6.576l-.878.477c1.667 3.069 4.099 5.402 7.282 6.994l.447-.895zm-6.85-6.575c-1.569-2.91-2.366-6.47-2.366-10.696h-1c0 4.35.82 8.081 2.486 11.17l.88-.474zm6.759-10.169c0 3.777.897 6.75 2.764 8.84l.746-.665c-1.648-1.846-2.51-4.545-2.51-8.175h-1zm2.764 8.84c1.85 2.073 4.152 3.121 6.877 3.121v-1c-2.432 0-4.466-.92-6.131-2.786l-.746.666zm6.877 3.121c2.724 0 5.016-1.048 6.844-3.123l-.751-.66c-1.641 1.863-3.662 2.783-6.093 2.783v1zm6.842-3.12c1.868-2.093 2.763-5.09 2.763-8.911h-1c0 3.678-.862 6.4-2.509 8.245l.746.666zm2.763-8.911c0-3.732-.897-6.68-2.763-8.77l-.746.665c1.649 1.847 2.509 4.524 2.509 8.105h1zm-2.761-8.768c-1.828-2.075-4.12-3.123-6.844-3.123v1c2.431 0 4.452.92 6.093 2.784l.751-.661zm-6.844-3.123c-2.725 0-5.027 1.048-6.877 3.12l.746.666c1.665-1.865 3.699-2.786 6.131-2.786v-1zm-6.877 3.12c-1.867 2.092-2.764 5.064-2.764 8.841h1c0-3.63.862-6.329 2.51-8.175l-.746-.666zM445.007 57v.5h.5V57h-.5zm-9.879 0h-.5v.5h.5V57zm0-37.336v-.5h-.5v.5h.5zm9.176 0h.5v-.5h-.5v.5zm0 5.309h-.5v1.74l.924-1.475-.424-.265zm4.219-4.957l-.267-.423-.003.002.27.42zm10.793.668l.471.167.137-.387-.353-.21-.255.43zm-3.059 8.613l-.272.42.531.344.212-.597-.471-.167zm-8.156-.457l.307.394.006-.005-.313-.39zm-2.285 4.113l-.482-.136-.001.005.483.131zm-.809 23.547h-9.879v1h9.879v-1zm-9.379.5V19.664h-1V57h1zm-.5-36.836h9.176v-1h-9.176v1zm8.676-.5v5.309h1v-5.309h-1zm.924 5.574c1.562-2.496 2.92-4.067 4.065-4.802l-.54-.841c-1.34.86-2.795 2.593-4.373 5.112l.848.531zm4.061-4.8c1.181-.743 2.517-1.118 4.023-1.118v-1c-1.682 0-3.205.422-4.556 1.273l.533.846zm4.023-1.118c2.153 0 4.233.593 6.248 1.793l.511-.859c-2.157-1.285-4.412-1.934-6.759-1.934v1zm6.032 1.196l-3.058 8.614.942.334 3.059-8.613-.943-.335zm-2.315 8.361c-1.715-1.11-3.356-1.697-4.913-1.697v1c1.303 0 2.756.491 4.369 1.537l.544-.84zm-4.913-1.697c-1.482 0-2.768.417-3.829 1.27l.627.78c.862-.694 1.919-1.05 3.202-1.05v-1zm-3.823 1.266c-1.085.847-1.885 2.341-2.459 4.371l.963.272c.552-1.954 1.275-3.202 2.111-3.855l-.615-.788zm-2.46 4.376c-.559 2.068-.826 6.308-.826 12.647h1c0-6.365.273-10.468.791-12.385l-.965-.262zm-.826 12.647V57h1V45.469h-1zm26.016-25.805v-.5h-.5v.5h.5zm9.211 0h.5v-.5h-.5v.5zm0 5.484h-.5v1.715l.922-1.446-.422-.269zm22.641 27.528l.375.331.001-.001-.376-.33zm-16.699 3.937l-.221.449.002.001.219-.45zm-5.274-4.218l.367-.34-.867-.933v1.273h.5zm0 18.808v.5h.5v-.5h-.5zm-9.879 0h-.5v.5h.5v-.5zm12.27-24.187l-.386.318.002.002.384-.32zm11.812.246l.385.32.002-.003-.387-.317zm-11.917-17.825l.378.327.002-.003-.38-.323zm-12.165-9.273h9.211v-1h-9.211v1zm8.711-.5v5.484h1v-5.484h-1zm.922 5.753c1.149-1.803 2.706-3.271 4.679-4.405l-.498-.867c-2.105 1.21-3.783 2.788-5.024 4.735l.843.537zm4.679-4.405c1.959-1.126 4.134-1.692 6.536-1.692v-1c-2.567 0-4.915.607-7.034 1.825l.498.867zm6.536-1.692c4.186 0 7.732 1.633 10.666 4.93l.747-.664c-3.113-3.5-6.926-5.266-11.413-5.266v1zm10.666 4.93c2.918 3.28 4.408 7.882 4.408 13.871h1c0-6.151-1.532-11.019-4.661-14.535l-.747.664zm4.408 13.871c0 6.156-1.503 10.875-4.446 14.225l.752.66c3.151-3.588 4.694-8.572 4.694-14.885h-1zM502 52.345c-2.958 3.345-6.516 4.999-10.699 4.999v1c4.489 0 8.313-1.792 11.449-5.337l-.75-.662zm-10.699 4.999c-1.995 0-3.794-.396-5.407-1.18l-.437.899c1.762.857 3.713 1.28 5.844 1.28v-1zm-5.404-1.18c-1.591-.783-3.301-2.143-5.128-4.11l-.733.68c1.876 2.019 3.681 3.471 5.419 4.328l.442-.897zm-5.995-3.77v18.81h1v-18.81h-1zm.5 18.31h-9.879v1h9.879v-1zm-9.379.5v-51.54h-1v51.54h1zm8.774-33.505c0 4.246.839 7.49 2.61 9.635l.772-.637c-1.557-1.886-2.382-4.853-2.382-8.998h-1zm2.612 9.637c1.75 2.095 3.913 3.168 6.466 3.168v-1c-2.229 0-4.12-.92-5.698-2.809l-.768.641zm6.466 3.168c2.451 0 4.5-.985 6.115-2.922l-.769-.64c-1.432 1.718-3.204 2.562-5.346 2.562v1zm6.117-2.925c1.634-1.987 2.399-5.155 2.399-9.388h-1c0 4.158-.76 7.037-2.172 8.753l.773.635zm2.399-9.388c0-3.966-.793-7.01-2.471-9.037l-.77.637c1.463 1.77 2.241 4.538 2.241 8.4h1zm-2.471-9.037c-1.658-2.005-3.741-3.029-6.221-3.029v1c2.161 0 3.969.875 5.451 2.666l.77-.637zm-6.221-3.029c-2.564 0-4.706 1.004-6.392 2.989l.761.647c1.501-1.765 3.367-2.636 5.631-2.636v-1zm-6.39 2.986c-1.703 1.978-2.512 4.87-2.512 8.588h1c0-3.594.785-6.21 2.269-7.935l-.757-.653zM522.02 57h-.5v.5h.5V57zm0-9.879v-.5h-.5v.5h.5zm9.879 0h.5v-.5h-.5v.5zm0 9.879v.5h.5V57h-.5zm-9.379 0v-9.879h-1V57h1zm-.5-9.379h9.879v-1h-9.879v1zm9.379-.5V57h1v-9.879h-1zm.5 9.379h-9.879v1h9.879v-1z"/>
  </g>
  <defs>
    <filter id="filter0_f" width="536.245" height="75.621" x=".154" y=".082" color-interpolation-filters="sRGB" filterUnits="userSpaceOnUse">
      <feFlood flood-opacity="0" result="BackgroundImageFix"/>
      <feBlend in="SourceGraphic" in2="BackgroundImageFix" result="shape"/>
      <feGaussianBlur result="effect1_foregroundBlur" stdDeviation="2"/>
    </filter>
  </defs>
</svg>
